/* XPM */
static char *result[] = {
/* columns rows colors chars-per-pixel */
"64 64 144 2 ",
"   c #000001",
".  c #020109",
"X  c #201917",
"o  c #3A2C23",
"O  c #443428",
"+  c #564130",
"@  c #584231",
"#  c #634A34",
"$  c #263358",
"%  c #0E2A65",
"&  c #132B63",
"*  c #443E47",
"=  c #9D4827",
"-  c #9D4929",
";  c #904D3E",
":  c #AF522D",
">  c #B7542F",
",  c #A25037",
"<  c #A75338",
"1  c #BA5D3F",
"2  c #914E40",
"3  c #A05746",
"4  c #A85A48",
"5  c #8C6949",
"6  c #A07850",
"7  c #C05F40",
"8  c #C36041",
"9  c #A08357",
"0  c #A08559",
"q  c #B28659",
"w  c #C39262",
"e  c #CD9A66",
"r  c #CD9B69",
"t  c #D19F66",
"y  c #D19D69",
"u  c #CDA26B",
"i  c #DCA56E",
"p  c #D4A266",
"a  c #CDB477",
"s  c #DCB679",
"d  c #E0A86F",
"f  c #E3AA72",
"g  c #E9AF74",
"h  c #E6B477",
"j  c #ECB176",
"k  c #FFBF7F",
"l  c #F2B578",
"z  c #FFCB6E",
"x  c #FFC575",
"c  c #FFC07D",
"v  c #FFE97F",
"b  c #27519E",
"n  c #34589F",
"m  c #2F54A2",
"M  c #3055A6",
"N  c #335BAF",
"B  c #345CB3",
"V  c #5D71AA",
"C  c #4467B8",
"Z  c #4970BE",
"A  c #647EB6",
"S  c #1956D0",
"D  c #3666C6",
"F  c #3A66C3",
"G  c #3D69C6",
"H  c #3669CB",
"J  c #3B6BCB",
"K  c #366DD3",
"L  c #3D6FD2",
"P  c #3E70D4",
"I  c #3C72DA",
"U  c #1E69FB",
"Y  c #3F74E3",
"T  c #3E7AEC",
"R  c #2F6FF2",
"E  c #256CF8",
"W  c #2174FF",
"Q  c #2B7CFF",
"!  c #3070F2",
"~  c #416FCE",
"^  c #426DC2",
"/  c #4B75C9",
"(  c #4676DD",
")  c #4A7ADA",
"_  c #4E7AD0",
"`  c #537DDE",
"'  c #4276E6",
"]  c #4278E4",
"[  c #4A7CE6",
"{  c #4377E8",
"}  c #457CEC",
"|  c #497CE9",
" . c #457EF3",
".. c #3781FF",
"X. c #5281DE",
"o. c #6885C3",
"O. c #7189CD",
"+. c #6283D6",
"@. c #6F8FD8",
"#. c #648BDE",
"$. c #708FD7",
"%. c #7091D6",
"&. c #4D80E6",
"*. c #4F84EC",
"=. c #5787E7",
"-. c #5886E4",
";. c #5A89E7",
":. c #5285EA",
">. c #5788E8",
",. c #5A8AEA",
"<. c #4681F1",
"1. c #4C86FF",
"2. c #4D89FF",
"3. c #4D83F3",
"4. c #5C8CF3",
"5. c #508EFF",
"6. c #5F90F4",
"7. c #5494FF",
"8. c #5E94FC",
"9. c #5698FF",
"0. c #589CFF",
"q. c #7D98E2",
"w. c #6295FC",
"e. c #649BFF",
"r. c #699FFF",
"t. c #7197F5",
"y. c #B1A1AB",
"u. c #FCBE81",
"i. c #E6C886",
"p. c #FFC482",
"a. c #FFCA86",
"s. c #FFCF89",
"d. c #FFD786",
"f. c #FFDA82",
"g. c #FFD48D",
"h. c #FFDC8E",
"j. c #FFDD92",
"k. c #FFE396",
"l. c #FFE799",
"z. c #FFEF9E",
"x. c #FFF2A1",
"c. c #FFFCA8",
"v. c #CBB9C4",
"b. c None",
/* pixels */
"b.b.b.b.b.b.b.b.b.b.b.b.b.b.b.b.b.b.b.b.b.b.b.b.b.b.b.b.b.b.b.b.b.b.b.b.b.b.b.b.b.b.b.b.b.b.b.b.b.b.b.b.b.b.b.b.b.b.b.b.b.b.b.b.",
"b.b.b.b.b.b.b.b.b.b.b.b.b.b.b.b.b.b.b.b.b.b.b.b.b.b.b.b.b.b.b.b.b.b.b.b.b.b.b.b.b.b.b.b.b.b.b.b.b.b.b.b.b.b.b.b.b.b.b.b.b.b.b.b.",
"b.b.b.b.b.b.b.b.b.b.b.b.b.b.b.b.b.b.b.b.b.b.b.b.b.b.b.b.b.b.b.b.b.b.b.b.b.b.b.b.b.b.b.b.b.b.b.b.b.b.b.b.b.b.b.b.b.b.b.b.b.b.b.b.",
"b.b.b.b.b.b.b.b.b.b.b.b.b.b.b.b.b.b.b.b.b.b.b.b.b.b.b.b.b.b.b.b.b.b.b.b.b.b.b.b.b.b.b.b.b.b.b.b.b.b.b.b.b.b.b.b.b.b.b.b.b.b.b.b.",
"b.b.b.b.b.b.b.b.b.b.b.b.b.b.b.b.b.b.b.b.b.b.b.b.b.b.b.b.b.b.b.b.b.b.b.b.b.b.b.b.b.b.b.b.b.b.b.b.b.b.b.b.b.b.b.b.b.b.b.b.b.b.b.b.",
"b.b.b.b.b.b.b.b.b.b.b.b.b.b.b.b.b.b.b.b.b.b.b.b.b.b.b.b.b.b.b.b.b.b.b.b.b.b.b.b.b.b.b.b.b.b.b.b.b.b.b.b.b.b.b.b.b.b.b.b.b.b.b.b.",
"b.b.b.b.b.b.b.b.b.b.b.b.b.b.b.b.b.b.b.b.b.b.b.b.b.b.b.b.b.b.b.b.b.b.b.b.b.b.b.b.b.b.b.b.b.b.b.b.b.b.b.b.b.b.b.b.b.b.b.b.b.b.b.b.",
"b.b.b.b.b.b.b.b.b.b.b.b.b.b.b.b.b.b.b.b.b.b.b.b.b.b.b.b.b.b.b.b.b.b.b.b.b.b.b.b.b.b.b.b.b.b.b.b.b.b.b.b.b.b.b.b.b.b.b.b.b.b.b.b.",
"b.b.b.b.b.b.b.b.b.b.b.b.b.b.b.b.b.u r e e e e e e e e e e e e e e e e e e e e e e e e a b.b.b.b.b.b.b.b.b.b.b.b.b.b.b.b.b.b.b.b.",
"b.b.b.b.b.b.b.b.b.b.b.b.b.b.b.b.b.k.h.g.g.g.g.g.g.g.g.g.g.g.g.g.g.g.g.g.g.g.g.g.g.g.g.c.b.b.b.b.b.b.b.b.b.b.b.b.b.b.b.b.b.b.b.b.",
"b.b.b.b.b.b.b.b.b.b.b.b.b.b.b.9 q p.p.c u.k k k k k p.k k k k k k k p.k k k k k k k p.a.e 6 6 0 b.b.b.b.b.b.b.b.b.b.b.b.b.b.b.b.",
"b.b.b.b.b.b.b.b.b.b.b.b.b.b.k z.g.k k u.k k k k k k c u.k k k k k k k k k k k k k k k k s.j.j.x.g b.b.b.b.b.b.b.b.b.b.b.b.b.b.b.",
"b.b.b.b.b.b.b.b.b.b.b.b.b.b.d g.k k k k k k k k k k u.k p.k k k k k u.c u.c k k k k k k k k k g.e b.b.b.b.b.b.b.b.b.b.b.b.b.b.b.",
"b.b.b.b.b.b.b.b.b.b.b.b.f h k k k k k k k k k k k k k k u.c k k k k c u.c u.k k k k k k k k k u.k i.b.b.b.b.b.b.b.b.b.b.b.b.b.b.",
"b.b.b.b.b.b.b.b.b.b.b.b.a.h.k k k k k k k k k k u.c k c c u.c u.k k k k u.p.k k k k k k k k k k p.x.b.b.b.b.b.b.b.b.b.b.b.b.b.b.",
"b.b.b.b.b.b.b.b.b.b.b.b.k p.k k k k k k k k p.u.c u.c u.u.c u.c k k k k c u.k k k k k k k k k k k j.b.b.b.b.b.b.b.b.b.b.b.b.b.b.",
"b.b.b.b.b.b.b.b.b.b.b.b.k p.k k u.k k k k k k k k k k k k k k u.k k u.c k k k k k k k k c u.k k k j.b.b.b.b.b.b.b.b.b.b.b.b.b.b.",
"b.b.b.b.b.b.b.b.b.b.b.b.k p.k k u.c k p.k k k k k k k k k k k k k k p.k k k k k k k k p.u.k k k k j.b.b.b.b.b.b.b.b.b.b.b.b.b.b.",
"b.b.b.b.b.b.b.b.b.b.b.b.k a.k k c u.c u.k k k k k k k k k k k k k k k k k k k k k k c u.c u.k k p.j.b.b.b.b.b.b.b.b.b.b.b.b.b.b.",
"b.b.b.b.b.b.b.b.b.b.b.b.l a.k k u.c u.c k k k k k k k k k k k k k k k k k k k k k k u.c u.c k k u.j.b.b.b.b.b.b.b.b.b.b.b.b.b.b.",
"b.b.b.b.b.b.b.b.b.b.b.b.k p.k k k k k k k k k k k k k p.k k k k k k k k k k k k k k k k k k k k u.j.b.b.b.b.b.b.b.b.b.b.b.b.b.b.",
"b.b.b.b.b.b.b.b.b.b.b.b.k p.k k k k k k k k k k k k k k k k k k k k k k k k k k k k k k k k k k p.j.b.b.b.b.b.b.b.b.b.b.b.b.b.b.",
"b.b.b.b.b.b.b.b.b.b.b.b.l a.k k p.s.s.s.g.s.s.s.s.s.s.s.a.k k k k k k a.s.s.s.g.s.s.s.s.g.s.p.k k j.b.b.b.b.b.b.b.b.b.b.b.b.b.b.",
"b.b.b.b.b.b.b.b.b.b.b.b.k p.k p.k f f f f f f f f f f f g c k k k k p.g f f f f f f f f f f j k k j.b.b.b.b.b.b.b.b.b.b.b.b.b.b.",
"b.b.b.b.b.b.b.b.b.b.b.b.k p.k g.e   . . . . . . . . .   O g.k k k k g.O   . . . . . . . .   # j.p.j.b.b.b.b.b.b.b.b.b.b.b.b.b.b.",
"b.b.b.b.b.b.b.b.b.b.b.b.k a.k h.w                       X g.k k k k g.o                     + j.u.k.b.b.b.b.b.b.b.b.b.b.b.b.b.b.",
"b.b.b.b.b.b.b.b.b.b.b.b.p.s.p.a.d # # # # $ & % * # # # 5 a.c k k k g.o                     @ j.p.l.b.b.b.b.b.b.b.b.b.b.b.b.b.b.",
"b.b.b.b.b.b.b.b.b.b.b.b.b.b.f a.p.j.j.j.h.t...Q v.v j.j.g.k k k k k c i y y r C S V p y y y f g.p b.b.b.b.b.b.b.b.b.b.b.b.b.b.b.",
"b.b.b.b.b.b.b.b.b.b.b.b.b.b.l k.s.k k k c +.! E y.z k c k k k k k k k s.g.d.g.4.W q.f.s.j.l.j.l.i b.b.b.b.b.b.b.b.b.b.b.b.b.b.b.",
"b.b.b.b.b.b.b.b.b.b.b.b.b.b.w s d k p.c c +.! E y.z k k k k k k k k k k c c u.` U O.x p.j i i s q b.b.b.b.b.b.b.b.b.b.b.b.b.b.b.",
"b.b.b.b.b.b.b.b.b.b.b.b.b.b.b.b.b.a.p.c c +.! E y.z c k k k k k k k k k c c u.` U O.x k.b.b.b.b.b.b.b.b.b.b.b.b.b.b.b.b.b.b.b.b.",
"b.b.b.b.b.b.b.b.b.b.b.b.b.b.b.b.b.s.p.c x +.R E y.z c c c c c c k k c c c c u.` U O.x l.b.b.b.b.b.b.b.b.b.b.b.b.b.b.b.b.b.b.b.b.",
"b.b.b.b.b.b.b.b.b.b.b.b.b.b.b.b.b.s.p.p.x +.R E y.z k c c c k c c c c c c c k ` U O.x k.b.b.b.b.b.b.b.b.b.b.b.b.b.b.b.b.b.b.b.b.",
"b.b.b.b.b.b.b.b.b.b.b.b.b.b.b.b.b.b.b.b.o.4.:.:.#.%.$.@.$.$.$.$.$.$.$.%.$.$.%.-.:.w.A b.b.b.b.b.b.b.b.b.b.b.b.b.b.b.b.b.b.b.b.b.",
"b.b.b.b.b.b.b.b.b.b.b.b.b.b.b.b.b.b.b.b.I 8.=.;.*.<.<.<.<.<. .<.<.<.<.<.<.<.<.>.;.8.H b.b.b.b.b.b.b.b.b.b.b.b.b.b.b.b.b.b.b.b.b.",
"b.b.b.b.b.b.b.b.b.b.b.b.b.b.b.b.b.b.b.b._ 8.>.>.>.-.>.>.-.-.-.:.-.-.=.=.>.>.>.-.-.w.Z b.b.b.b.b.b.b.b.b.b.b.b.b.b.b.b.b.b.b.b.b.",
"b.b.b.b.b.b.b.b.b.b.b.b.b.b.b.b.b.b.b.b._ w.-.-.-.>.-.>.>.>.-.>.=.>.=.=.>.=.=.=.>.w./ b.b.b.b.b.b.b.b.b.b.b.b.b.b.b.b.b.b.b.b.b.",
"b.b.b.b.b.b.b.b.b.b.b.b.b.b.b.b.b.b.b.b.` ,.>.>.>.>.>.>.>.-.>.>.=.=.=.=.-.:.=.=.>.;.[ Y ] 1.b.b.b.b.b.b.b.b.b.b.b.b.b.b.b.b.b.b.",
"b.b.b.b.b.b.b.b.b.b.b.b.b.b.b.b.F 0.2.2.>.=.-.-.>.>.-.>.:.-.-.>.=.=.=.=.=.=.=.=.>.=.| }  .5.b.b.b.b.b.b.b.b.b.b.b.b.b.b.b.b.b.b.",
"b.b.b.b.b.b.b.b.b.b.b.b.b.b.b.b.M 1.{ { :.>.>.:.>.-.>.>.>.>.>.>.=.=.=.=.=.=.>.=.-.=.[ { { 1.b.b.b.b.b.b.b.b.b.b.b.b.b.b.b.b.b.b.",
"b.b.b.b.b.b.b.b.b.b.b.b.b.b.b.b.M 1.{ { -.>.>.>.=.>.=.=.=.=.-.>.=.>.>.>.>.>.-.>.-.>.[ ' { 2.b.b.b.b.b.b.b.b.b.b.b.b.b.b.b.b.b.b.",
"b.b.b.b.b.b.b.b.b.b.b.b.b.b.b.b.M 1.{ { -.-.:.-.=.=.=.=.=.=.>.-.=.=.=.=.>.-.>.>.>.>.| ' { 1.b.b.b.b.b.b.b.b.b.b.b.b.b.b.b.b.b.b.",
"b.b.b.b.b.b.b.b.b.b.b.b.b.b.b.b.M 1.{ { >.;.-.>.=.=.=.>.>.=.=.-.>.;.;.;.>.;.;.=.=.>.| Y { 2.b.b.b.b.b.b.b.b.b.b.b.b.b.b.b.b.b.b.",
"b.b.b.b.b.b.b.b.b.b.b.b.b.b.b.b.M 1.Y { w.r.4.;.6.,.,.,.;.e.r.r.8.X.:.-.:.-.-.e.e.r.3.Y { 2.b.b.b.b.b.b.b.b.b.b.b.b.b.b.b.b.b.b.",
"b.b.b.b.b.b.b.b.b.b.b.b.b.b.b.b.M 1.} { b.b.^ &.) ) ) ) [ b.b.b.n I J J J L J b.b.b.F  .{ 2.b.b.b.b.b.b.b.b.b.b.b.b.b.b.b.b.b.b.",
"b.b.b.b.b.b.b.b.b.b.b.b.b.b.b.b.M 1. .{ b.b.b.Y D D D D ] b.b.b.b. .J J J P D b.b.b.b.2.{ 2.b.b.b.b.b.b.b.b.b.b.b.b.b.b.b.b.b.b.",
"b.b.b.b.b.b.b.b.b.b.b.b.b.b.b.b.B 7.2.<.b.b.b.{ J J J J ] b.b.b.b.} J J J P G b.b.b.N 9.1.9.M b.b.b.b.b.b.b.b.b.b.b.b.b.b.b.b.b.",
"b.b.b.b.b.b.b.b.b.b.b.b.b.b.b.b.b.b.b.b.b.b.b.{ J J J J ] b.b.b.b.} J J J L G b.b.b.b.G B G b.b.b.b.b.b.b.b.b.b.b.b.b.b.b.b.b.b.",
"b.b.b.b.b.b.b.b.b.b.b.b.b.b.b.b.b.b.b.b.b.b.b.] J J J J ] b.b.b.b.} J J J L G b.b.b.b.b.b.b.b.b.b.b.b.b.b.b.b.b.b.b.b.b.b.b.b.b.",
"b.b.b.b.b.b.b.b.b.b.b.b.b.b.b.b.b.b.b.b.b.b.b } K K K K T b.b.b.b. .K K K I H b.b.b.b.b.b.b.b.b.b.b.b.b.b.b.b.b.b.b.b.b.b.b.b.b.",
"b.b.b.b.b.b.b.b.b.b.b.b.b.b.b.b.b.b.b.b.b.b.b.] ^ G G G ( b.b.b.b.[ G G J ~ ^ b.b.b.b.b.b.b.b.b.b.b.b.b.b.b.b.b.b.b.b.b.b.b.b.b.",
"b.b.b.b.b.b.b.b.b.b.b.b.b.b.b.b.b.b., b.b.b.b.2 2 ; ; ; 3 b.b.b.b.4 ; ; ; 2 b.b.b.b.b., b.b.b.b.b.b.b.b.b.b.b.b.b.b.b.b.b.b.b.b.",
"b.b.b.b.b.b.b.b.b.b.b.b.b.b.b.b.b.b.4 < , , - - - - - - : b.b.b.b.> - - - - - , , , , 4 b.b.b.b.b.b.b.b.b.b.b.b.b.b.b.b.b.b.b.b.",
"b.b.b.b.b.b.b.b.b.b.b.b.b.b.b.b.b.b.8 : < < < < < < < < 1 b.b.b.b.8 < < < < < < < < > 8 b.b.b.b.b.b.b.b.b.b.b.b.b.b.b.b.b.b.b.b.",
"b.b.b.b.b.b.b.b.b.b.b.b.b.b.b.b.b.b.b.b.b.b.b.b.b.b.b.b.b.b.b.b.b.b.b.b.b.b.b.b.b.b.b.b.b.b.b.b.b.b.b.b.b.b.b.b.b.b.b.b.b.b.b.b.",
"b.b.b.b.b.b.b.b.b.b.b.b.b.b.b.b.b.b.b.b.b.b.b.b.b.b.b.b.b.b.b.b.b.b.b.b.b.b.b.b.b.b.b.b.b.b.b.b.b.b.b.b.b.b.b.b.b.b.b.b.b.b.b.b.",
"b.b.b.b.b.b.b.b.b.b.b.b.b.b.b.b.b.b.b.b.b.b.b.b.b.b.b.b.b.b.b.b.b.b.b.b.b.b.b.b.b.b.b.b.b.b.b.b.b.b.b.b.b.b.b.b.b.b.b.b.b.b.b.b.",
"b.b.b.b.b.b.b.b.b.b.b.b.b.b.b.b.b.b.b.b.b.b.b.b.b.b.b.b.b.b.b.b.b.b.b.b.b.b.b.b.b.b.b.b.b.b.b.b.b.b.b.b.b.b.b.b.b.b.b.b.b.b.b.b.",
"b.b.b.b.b.b.b.b.b.b.b.b.b.b.b.b.b.b.b.b.b.b.b.b.b.b.b.b.b.b.b.b.b.b.b.b.b.b.b.b.b.b.b.b.b.b.b.b.b.b.b.b.b.b.b.b.b.b.b.b.b.b.b.b.",
"b.b.b.b.b.b.b.b.b.b.b.b.b.b.b.b.b.b.b.b.b.b.b.b.b.b.b.b.b.b.b.b.b.b.b.b.b.b.b.b.b.b.b.b.b.b.b.b.b.b.b.b.b.b.b.b.b.b.b.b.b.b.b.b.",
"b.b.b.b.b.b.b.b.b.b.b.b.b.b.b.b.b.b.b.b.b.b.b.b.b.b.b.b.b.b.b.b.b.b.b.b.b.b.b.b.b.b.b.b.b.b.b.b.b.b.b.b.b.b.b.b.b.b.b.b.b.b.b.b.",
"b.b.b.b.b.b.b.b.b.b.b.b.b.b.b.b.b.b.b.b.b.b.b.b.b.b.b.b.b.b.b.b.b.b.b.b.b.b.b.b.b.b.b.b.b.b.b.b.b.b.b.b.b.b.b.b.b.b.b.b.b.b.b.b.",
"b.b.b.b.b.b.b.b.b.b.b.b.b.b.b.b.b.b.b.b.b.b.b.b.b.b.b.b.b.b.b.b.b.b.b.b.b.b.b.b.b.b.b.b.b.b.b.b.b.b.b.b.b.b.b.b.b.b.b.b.b.b.b.b.",
"b.b.b.b.b.b.b.b.b.b.b.b.b.b.b.b.b.b.b.b.b.b.b.b.b.b.b.b.b.b.b.b.b.b.b.b.b.b.b.b.b.b.b.b.b.b.b.b.b.b.b.b.b.b.b.b.b.b.b.b.b.b.b.b."
};
