/* XPM */
static char *result[] = {
/* columns rows colors chars-per-pixel */
"64 64 158 2 ",
"   c black",
".  c #231A14",
"X  c #241C19",
"o  c #291F1B",
"O  c #31261F",
"+  c #040E29",
"@  c #0D1224",
"#  c #473529",
"$  c #503C2D",
"%  c #5C4633",
"&  c #75573E",
"*  c #283F6B",
"=  c #2D4674",
"-  c #726871",
";  c #8C452F",
":  c #9D4929",
">  c #9D4827",
",  c #8D4731",
"<  c #8F4B3B",
"1  c #914730",
"2  c #904D3E",
"3  c #AF522D",
"4  c #B7542F",
"5  c #A25037",
"6  c #A75338",
"7  c #BA5D3F",
"8  c #914E40",
"9  c #A45947",
"0  c #9C754E",
"q  c #9C7551",
"w  c #A57C54",
"e  c #C05F40",
"r  c #C36041",
"t  c #A5824A",
"y  c #B6895D",
"u  c #BC8D60",
"i  c #C0915F",
"p  c #C39463",
"a  c #CA9B66",
"s  c #D29E68",
"d  c #C0A86F",
"f  c #DEA76E",
"g  c #D6A16A",
"h  c #C9AF75",
"j  c #E9AF74",
"k  c #EDB276",
"l  c #F4B779",
"z  c #FFBF7F",
"x  c #F6B87A",
"c  c #FFCB6E",
"v  c #FFD261",
"b  c #FFC673",
"n  c #FFC17D",
"m  c #FFCB76",
"M  c #FFE77E",
"N  c #1F489F",
"B  c #27498E",
"V  c #35538D",
"C  c #3F558D",
"Z  c #2A4B92",
"A  c #2C5199",
"S  c #27519E",
"D  c #335496",
"F  c #3B5C9D",
"G  c #36589B",
"H  c #1846A3",
"J  c #2F54A2",
"K  c #3055A6",
"L  c #3D5EA1",
"P  c #335BAF",
"I  c #345CB3",
"U  c #3E61A6",
"Y  c #4063AB",
"T  c #466DBA",
"R  c #486FBF",
"E  c #3666C6",
"W  c #3A66C3",
"Q  c #3C69C6",
"!  c #3B6BCB",
"~  c #3569CD",
"^  c #366DD3",
"/  c #3D6FD2",
"(  c #3E71D5",
")  c #3D72DB",
"_  c #1F6AFD",
"`  c #1765FD",
"'  c #3F74E3",
"]  c #3E7AEC",
"[  c #3A76EF",
"{  c #256CF8",
"}  c #2B6DF3",
"|  c #2B76FB",
" . c #3071F3",
".. c #426EC8",
"X. c #4C76CB",
"o. c #4D78CE",
"O. c #4872C5",
"+. c #4676DD",
"@. c #4A7ADA",
"#. c #527EDA",
"$. c #4276E6",
"%. c #4278E4",
"&. c #4A7CE6",
"*. c #457CEC",
"=. c #467AE9",
"-. c #547FE1",
";. c #457EF3",
":. c #3780FF",
">. c #5381DD",
",. c #728ACE",
"<. c #7388C7",
"1. c #6282D5",
"2. c #678ADC",
"3. c #748DD3",
"4. c #4C82EB",
"5. c #5787E7",
"6. c #5A89E6",
"7. c #5687E8",
"8. c #5788E9",
"9. c #598AEB",
"0. c #5886E4",
"q. c #4982F0",
"w. c #4C86FF",
"e. c #4D89FF",
"r. c #508EFF",
"t. c #5B8DF0",
"y. c #5D90F6",
"u. c #5494FF",
"i. c #5E93FB",
"p. c #579AFF",
"a. c #6196FF",
"s. c #649CFF",
"d. c #699FFF",
"f. c #7096F3",
"g. c #67A1FF",
"h. c #6AA4FF",
"j. c #6DA9FF",
"k. c #74B5FF",
"l. c #9A9BBA",
"z. c #B0A1AB",
"x. c #BBA4A4",
"c. c #D4B58B",
"v. c #D5B293",
"b. c #D6B199",
"n. c #FCBE83",
"m. c #FFC482",
"M. c #FFC985",
"N. c #FFCD89",
"B. c #F4C986",
"V. c #FFD48C",
"C. c #FFDC8D",
"Z. c #FFDC92",
"A. c #FFE195",
"S. c #FFED9E",
"D. c #FFF7A5",
"F. c #FFFAA6",
"G. c #C9B8C2",
"H. c None",
/* pixels */
"H.H.H.H.H.H.H.H.H.H.H.H.H.H.H.H.H.H.H.H.H.H.H.H.H.H.H.H.H.H.H.H.H.H.H.H.H.H.H.H.H.H.H.H.H.H.H.H.H.H.H.H.H.H.H.H.H.H.H.H.H.H.H.H.",
"H.H.H.H.H.H.H.H.H.H.H.H.H.H.H.H.H.H.H.H.H.H.H.H.H.H.H.H.H.H.H.H.H.H.H.H.H.H.H.H.H.H.H.H.H.H.= = * * = = H.H.H.H.H.H.H.H.H.H.H.H.",
"H.H.H.H.H.H.H.H.H.H.H.H.6.o.o.o.o.o.6.H.H.H.H.H.H.H.H.H.H.H.H.H.H.H.H.H.H.H.H.H.H.H.H.H.H.i.j.s.s.s.s.k.U H.H.H.H.H.H.H.H.H.H.H.",
"H.H.H.H.H.H.H.H.H.H.H.G j.i.i.i.i.a.j.H.H.H.H.H.H.H.H.H.H.H.H.H.H.H.H.H.H.H.H.H.H.H.H.H.H.#.y.5.5.5.0.s.H.H.H.H.H.H.H.H.H.H.H.H.",
"H.H.H.H.H.H.H.H.H.H.H.H.s.5.5.5.5.5.s.H.H.H.H.H.H.H.H.H.H.H.H.H.H.H.H.H.H.H.H.H.H.H.H.H.H.#.y.5.5.5.5.s.H.H.H.H.H.H.H.H.H.H.H.H.",
"H.H.H.H.H.H.H.H.H.H.H.H.s.5.5.5.5.5.s.H.H.H.H.H.H.H.H.H.H.H.H.H.H.H.H.H.H.H.H.H.H.H.H.H.H.#.y.5.5.5.5.s.H.H.H.H.H.H.H.H.H.H.H.H.",
"H.H.H.H.H.H.H.H.H.H.H.H.s.8.5.5.8.8.s.H.H.H.H.H.H.H.H.H.H.H.H.H.H.H.H.H.H.H.H.H.H.H.H.H.H.#.i.5.5.5.5.a.H.H.H.H.H.H.H.H.H.H.H.H.",
"H.H.H.H.H.H.H.H.H.H.H.V s.9.9.9.9.9.g.H.H.H.H.H.H.H.H.H.H.H.H.H.H.H.H.H.H.H.H.H.H.H.H.H.H.>.i.9.9.9.9.g.V H.H.H.H.H.H.H.H.H.H.H.",
"H.H.H.H.H.H.H.H.H.H.H.V s.9.9.9.9.9.g.H.H.H.H.H.H.H.H.H.H.H.H.H.H.H.H.H.H.H.H.H.H.H.H.H.H.>.a.9.9.9.9.s.V H.H.H.H.H.H.H.H.H.H.H.",
"H.H.H.H.H.H.H.H.H.H.H.H.H.H.H.H.H.H.H.H.H.H.H.H.H.H.H.H.H.H.H.H.H.H.H.H.H.H.H.H.H.H.H.H.H.H.H.H.H.H.H.H.H.H.H.H.H.H.H.H.H.H.H.H.",
"H.H.H.H.H.H.H.H.H.H.H.H.H.H.H.H.H.H.H.H.H.H.H.H.H.H.H.H.H.H.H.H.H.H.H.H.H.H.H.H.H.H.H.H.H.H.H.H.H.H.H.H.H.H.H.H.H.H.H.H.H.H.H.H.",
"H.V Y F F F F U H.H.H.H.H.H.H.H.H.H.H.H.H.H.H.H.H.H.H.H.H.H.H.H.H.H.H.H.H.H.H.H.H.H.H.H.H.H.H.H.H.H.H.H.H.H.H.s.i.i.i.i.i.j.H.H.",
"H.9.j.a.s.a.s.s.H.H.H.H.H.H.H.H.H.H.H.H.H.H.H.H.H.H.H.H.H.H.H.H.H.H.H.H.H.H.H.H.H.H.H.H.H.H.H.H.H.H.H.H.H.H.H.i.9.5.5.9.9.g.H.H.",
"H.o.i.5.5.5.9.9.H.H.H.H.H.H.H.H.H.H.H.H.H.H.H.H.H.H.H.H.H.H.H.H.H.H.H.H.H.H.H.H.H.H.H.H.H.H.H.H.H.H.H.H.H.H.H.i.9.5.5.5.5.a.H.H.",
"H.o.i.5.5.5.t.9.H.H.H.H.H.H.H.H.H.H.H.H.H.H.H.H.H.H.H.H.H.H.H.H.H.H.H.H.H.H.H.H.H.H.H.H.H.H.H.H.H.H.H.H.H.H.H.i.5.5.5.5.5.s.H.H.",
"H.o.i.5.8.8.9.9.H.H.H.H.H.H.H.H.H.H.H.H.H.H.H.H.H.H.H.H.H.H.H.H.H.H.H.H.H.H.H.H.H.H.H.H.H.H.H.H.H.H.H.H.H.H.H.y.9.5.5.5.5.s.H.H.",
"H.5.g.a.a.a.s.s.H.H.H.H.H.H.H.H.H.H.H.H.H.H.H.H.H.H.H.H.H.H.H.H.H.H.H.H.H.H.H.H.H.H.H.H.H.H.H.H.H.H.H.H.H.H.H.i.5.5.5.5.5.s.H.H.",
"H.U X.T T T R R H.H.H.H.H.H.H.H.H.H.H.H.H.H.H.H.H.H.H.H.H.H.H.H.H.H.H.H.H.H.H.H.H.H.H.H.H.H.H.H.H.H.H.H.H.H.H.s.a.i.a.i.i.j.H.H.",
"H.H.H.H.H.H.H.H.H.H.H.H.H.H.H.H.H.V.N.M.M.m.M.M.m.M.M.M.M.M.M.M.M.M.M.M.M.M.M.m.M.M.M.S.H.H.H.H.H.H.H.H.H.H.H.>.o.X.X.X.X.6.H.H.",
"H.H.H.H.H.H.H.H.H.H.H.H.H.H.H.H.H.M.M.m.m.m.m.m.m.m.m.m.m.m.m.z m.m.n m.m.m.m.m.m.m.m.A.H.H.H.H.H.H.H.H.H.H.H.H.H.H.H.H.H.H.H.H.",
"H.H.H.H.H.H.H.H.H.H.H.H.H.H.g B.x z z z z z z z z z z z z z z z z z z z z z z z z z z n.x x x B.p H.H.H.H.H.H.H.H.H.H.H.H.H.H.H.",
"H.H.H.H.H.H.H.H.H.H.H.H.H.H.j Z.M.z z z z z z z z z z z z z z z z z z z z z z z z z z z m.M.M.A.s H.H.H.H.H.H.H.H.H.H.H.H.H.H.H.",
"H.H.H.H.H.H.H.H.H.H.H.H.H.H.j M.z z n n.z z z z z z z z z z z z z z z z z n z z z z z z z z z N.f H.H.H.H.H.H.H.H.H.H.H.H.H.H.H.",
"H.H.H.H.H.H.H.H.H.H.H.H.V.A.m.z z z z z z z z z z z z z z z z z z z z z z z z z z z z z z z z z m.F.H.H.H.H.H.H.H.H.H.H.H.H.H.H.",
"H.H.H.H.H.H.H.H.H.H.H.H.x M.z z z z z z z z z z z z z z z z z m.z z z z z z z z z z z z z z z z m.Z.H.H.H.H.H.H.H.H.H.H.H.H.H.H.",
"H.H.H.H.H.H.H.H.H.H.H.H.z m.z z z z z z z z m.z z z z z z z z z z z z z n n.z z z z z z z z z z n.Z.H.H.H.H.H.H.H.H.H.H.H.H.H.H.",
"H.H.H.H.H.H.H.H.H.H.H.H.z M.z z z z z z z z z z z z z z z z z z z z z z z n.z z n.n z z z z z z n Z.H.H.H.H.H.H.H.H.H.H.H.H.H.H.",
"H.H.H.H.H.H.H.H.H.H.H.H.x M.z z z z z z z z z z z z z z z z z z z z z z z n z z z z z z n n.z z m.Z.H.H.H.H.H.H.H.H.H.H.H.H.H.H.",
"H.H.H.H.H.H.H.H.H.H.H.H.z m.z z z z z z z n z z z z m.z z z z z z z z z z z z z n z z z z z z z z Z.H.H.H.H.H.H.H.H.H.H.H.H.H.H.",
"H.H.H.H.H.H.H.H.H.H.H.H.x M.z z z z z z n.z z n z z z z z z z z z n n.z z z n z z z z z z z z z z Z.H.H.H.H.H.H.H.H.H.H.H.H.H.H.",
"H.H.H.H.H.H.H.H.H.H.H.H.z M.z z z n.z z z z z z z z z z z z z z z z z z z z z z z z z z z z z z m.Z.H.H.H.H.H.H.H.H.H.H.H.H.H.H.",
"H.H.H.H.H.H.H.H.H.H.H.H.z m.z z z n z z z z z z z z z z z z z z z z z z z z z z z z z n.n z z z n.A.H.H.H.H.H.H.H.H.H.H.H.H.H.H.",
"H.H.H.H.H.H.H.H.H.H.H.H.x M.z z z z z z z z n z z z z z z z z z z z z z z z z z z z z z z z z z z Z.H.H.H.H.H.H.H.H.H.H.H.H.H.H.",
"H.H.H.H.H.H.H.H.H.H.H.H.z m.z z m.Z.Z.Z.Z.Z.Z.Z.Z.Z.Z.Z.V.z z z n z z V.Z.Z.C.Z.Z.Z.Z.Z.Z.Z.N.z z Z.H.H.H.H.H.H.H.H.H.H.H.H.H.H.",
"H.H.H.H.H.H.H.H.H.H.H.H.x M.z m.k 0 q q q q q q 0 q q 0 y m.n.z n.z m.y 0 q q q q q q q q 0 p M.m.Z.H.H.H.H.H.H.H.H.H.H.H.H.H.H.",
"H.H.H.H.H.H.H.H.H.H.H.H.V.Z.m.V.p                       o V.n z z n V.o                     # Z.m.F.H.H.H.H.H.H.H.H.H.H.H.H.H.H.",
"H.H.H.H.H.H.H.H.H.H.H.H.p a z Z.p                       o V.m.z z m.V.O                     $ A.l h H.H.H.H.H.H.H.H.H.H.H.H.H.H.",
"H.H.H.H.H.H.H.H.H.H.H.H.H.H.f Z.k w w w w C N H - t w w y n z z z n N.% . . X @ + @ X . X . & S.a H.H.H.H.H.H.H.H.H.H.H.H.H.H.H.",
"H.H.H.H.H.H.H.H.H.H.H.H.H.H.m.S.Z.V.Z.C.C.f.:.| G.M Z.Z.V.z z z z z z n m.n n.-._ 3.b z V.Z.A.D.k H.H.H.H.H.H.H.H.H.H.H.H.H.H.H.",
"H.H.H.H.H.H.H.H.H.H.H.H.H.H.H.H.q m.m.z n 1. .{ z.c z z z n z z z z z m.m.m.n.0._ 3.m V.p H.H.H.H.H.H.H.H.H.H.H.H.H.H.H.H.H.H.H.",
"H.H.H.H.H.H.H.H.H.H.H.H.H.H.H.H.H.M.m.z n 1. .{ z.c m.n n.n z z z z z z n n n.#._ ,.n A.H.H.H.H.H.H.H.H.H.H.H.H.H.H.H.H.H.H.H.H.",
"H.H.H.H.H.H.H.H.H.H.H.H.H.H.H.H.H.A.Z.C.c 1.} _ x.v b b b b b b b b b b b c b #.` <.c F.H.H.H.H.H.H.H.H.H.H.H.H.H.H.H.H.H.H.H.H.",
"H.H.H.H.H.H.H.H.H.H.H.H.H.H.H.H.H.p u p v.2.[  .l.c.b.b.b.b.b.b.b.b.b.b.b.b.b.#.} 3.c.d H.H.H.H.H.H.H.H.H.H.H.H.H.H.H.H.H.H.H.H.",
"H.H.H.H.H.H.H.H.H.H.H.H.H.H.H.H.H.H.H.H.( i.6.6.4.q.q.q.q.q.q.q.q.q.q.q.q.q.q.8.9.p.W H.H.H.H.H.H.H.H.H.H.H.H.H.H.H.H.H.H.H.H.H.",
"H.H.H.H.H.H.H.H.H.H.H.H.H.H.H.H.H.H.H.H.X.i.7.5.5.8.8.5.5.5.9.5.5.5.5.5.8.5.8.5.5.a.O.H.H.H.H.H.H.H.H.H.H.H.H.H.H.H.H.H.H.H.H.H.",
"H.H.H.H.H.H.H.H.H.H.H.H.H.H.H.H.H.H.H.H.>.t.5.5.5.5.5.5.5.5.5.5.5.5.5.5.5.5.5.5.5.5.=.' %.w.Z H.H.H.H.H.H.H.H.H.H.H.H.H.H.H.H.H.",
"H.H.H.H.H.H.H.H.H.H.H.H.H.H.H.H.W p.e.e.8.5.5.5.5.5.5.5.5.5.5.5.5.5.5.5.5.5.5.5.5.6.&.;.*.r.Z H.H.H.H.H.H.H.H.H.H.H.H.H.H.H.H.H.",
"H.H.H.H.H.H.H.H.H.H.H.H.H.H.H.H.K w.$.$.5.5.5.5.5.5.5.5.5.5.5.5.5.5.5.5.5.5.5.5.5.6.&.$.$.w.Z H.H.H.H.H.H.H.H.H.H.H.H.H.H.H.H.H.",
"H.H.H.H.H.H.H.H.H.H.H.H.H.H.H.H.K w.$.$.7.8.0.8.0.0.8.0.5.5.5.5.5.5.5.5.5.5.5.5.8.6.=.$.$.w.Z H.H.H.H.H.H.H.H.H.H.H.H.H.H.H.H.H.",
"H.H.H.H.H.H.H.H.H.H.H.H.H.H.H.H.K w.$.$.7.6.8.8.8.7.7.8.5.5.5.5.5.5.5.5.5.5.5.5.8.6.=.$.$.e.Z H.H.H.H.H.H.H.H.H.H.H.H.H.H.H.H.H.",
"H.H.H.H.H.H.H.H.H.H.H.H.H.H.H.H.K w.$.$.7.0.8.6.6.0.0.8.5.5.5.5.8.8.7.8.9.5.9.5.5.6.&.$.$.e.Z H.H.H.H.H.H.H.H.H.H.H.H.H.H.H.H.H.",
"H.H.H.H.H.H.H.H.H.H.H.H.H.H.H.H.K w.$.$.a.d.y.0.t.9.t.9.9.s.s.s.i.>.0.0.0.0.5.s.d.d.q.$.$.e.Z H.H.H.H.H.H.H.H.H.H.H.H.H.H.H.H.H.",
"H.H.H.H.H.H.H.H.H.H.H.H.H.H.H.H.K w.*.$.H.H...4.@.@.@.@.&.G H.H.G ) ! ! ! / ! H.H.H.Q ;.$.e.Z H.H.H.H.H.H.H.H.H.H.H.H.H.H.H.H.H.",
"H.H.H.H.H.H.H.H.H.H.H.H.H.H.H.H.K w.;.$.H.H.B ' E W E E %.H.H.H.H.;.! ! ! / W H.H.H.Z e.$.w.Z H.H.H.H.H.H.H.H.H.H.H.H.H.H.H.H.H.",
"H.H.H.H.H.H.H.H.H.H.H.H.H.H.H.H.I u.w.;.H.H.A %.! ! ! ! %.H.H.H.H.*.! ! ! ( Q H.H.H.P p.w.p.K H.H.H.H.H.H.H.H.H.H.H.H.H.H.H.H.H.",
"H.H.H.H.H.H.H.H.H.H.H.H.H.H.H.H.H.H.H.H.H.H.A %.! ! ! ! +.H.H.H.H.*.! ! ! ( E H.H.H.H.Q I Q H.H.H.H.H.H.H.H.H.H.H.H.H.H.H.H.H.H.",
"H.H.H.H.H.H.H.H.H.H.H.H.H.H.H.H.H.H.H.H.H.H.A $.! ! ! ! &.H.H.H.H.*.! ! ! / E H.H.H.H.H.H.H.H.H.H.H.H.H.H.H.H.H.H.H.H.H.H.H.H.H.",
"H.H.H.H.H.H.H.H.H.H.H.H.H.H.H.H.H.H.H.H.H.H.S ] ^ ^ ^ ^ $.H.H.H.H.q.^ ^ ^ ) ~ H.H.H.H.H.H.H.H.H.H.H.H.H.H.H.H.H.H.H.H.H.H.H.H.H.",
"H.H.H.H.H.H.H.H.H.H.H.H.H.H.H.H.H.H.H.H.H.H.D +.Q ..Q Q +.H.H.H.H.&.! ......Q H.H.H.H.H.H.H.H.H.H.H.H.H.H.H.H.H.H.H.H.H.H.H.H.H.",
"H.H.H.H.H.H.H.H.H.H.H.H.H.H.H.H.H.H.5 , ; ; < 8 2 2 2 2 9 H.H.H.H.9 2 2 8 2 2 , , 1 1 3 H.H.H.H.H.H.H.H.H.H.H.H.H.H.H.H.H.H.H.H.",
"H.H.H.H.H.H.H.H.H.H.H.H.H.H.H.H.H.H.9 6 5 5 : > > > : : 4 H.H.H.H.4 : : > > > 5 5 5 5 9 H.H.H.H.H.H.H.H.H.H.H.H.H.H.H.H.H.H.H.H.",
"H.H.H.H.H.H.H.H.H.H.H.H.H.H.H.H.H.H.r 4 6 6 6 6 6 6 6 6 9 H.H.H.H.r 6 6 6 6 6 6 6 6 6 r H.H.H.H.H.H.H.H.H.H.H.H.H.H.H.H.H.H.H.H.",
"H.H.H.H.H.H.H.H.H.H.H.H.H.H.H.H.H.H., H.H.H.H.H.H.H.H.H.H.H.H.H.H.1 H.H.H.H.H.H.H.H.H.1 H.H.H.H.H.H.H.H.H.H.H.H.H.H.H.H.H.H.H.H.",
"H.H.H.H.H.H.H.H.H.H.H.H.H.H.H.H.H.H.H.H.H.H.H.H.H.H.H.H.H.H.H.H.H.H.H.H.H.H.H.H.H.H.H.H.H.H.H.H.H.H.H.H.H.H.H.H.H.H.H.H.H.H.H.H."
};
