/* XPM */
static char *bc986a196e4a451c992a898f297f100b4aaCWnI5uGVZgOvf[] = {
/* columns rows colors chars-per-pixel */
"57 63 178 2 ",
"   c None",
".  c #871616",
"X  c #941616",
"o  c #971616",
"O  c #9E1616",
"+  c #A61616",
"@  c #AA1717",
"#  c #AC1616",
"$  c #BD1717",
"%  c #B31B1B",
"&  c #C51B1B",
"*  c #D01616",
"=  c red",
"-  c #FF0202",
";  c #FF0303",
":  c #FF0505",
">  c #FF0606",
",  c #FF0707",
"<  c #FF0909",
"1  c #FF0B0B",
"2  c #FF0C0C",
"3  c #FF0D0D",
"4  c #FF0E0E",
"5  c #FF0F0F",
"6  c #FF1010",
"7  c #FF1111",
"8  c #FF1515",
"9  c #FF1717",
"0  c #FF1818",
"q  c #FF1919",
"w  c #FF1A1A",
"e  c #FF1B1B",
"r  c #FF1D1D",
"t  c #FF1E1E",
"y  c #FF2020",
"u  c #FF2121",
"i  c #FF2222",
"p  c #FF2323",
"a  c #FF2424",
"s  c #FF2525",
"d  c #FF2626",
"f  c #FE2727",
"g  c #FF2727",
"h  c #FF2828",
"j  c #FE2929",
"k  c #FF2929",
"l  c #FD2B2B",
"z  c #FA2D2D",
"x  c #FD2C2C",
"c  c #FD2D2D",
"v  c #FF2C2C",
"b  c #FE2D2D",
"n  c #FF2D2D",
"m  c #FD2E2E",
"M  c #FF2E2E",
"N  c #EE3B3B",
"B  c #FD3131",
"V  c #FB3636",
"C  c #F94040",
"Z  c #F94242",
"A  c #FA4343",
"S  c #F94444",
"D  c #F94646",
"F  c #F84747",
"G  c #FE4747",
"H  c #F45B5B",
"J  c #ED7474",
"K  c #EE7979",
"L  c #ED7A7A",
"P  c #ED7F7F",
"I  c #9A9A9A",
"U  c #9B9F9F",
"Y  c #9D9D9D",
"T  c #9F9F9F",
"R  c #A39696",
"E  c #97A4A4",
"W  c #9AA1A1",
"Q  c gray65",
"!  c #B2B2B2",
"~  c #EC8686",
"^  c #EA8C8C",
"/  c #EA8D8D",
"(  c #E99393",
")  c #E99595",
"_  c #E89797",
"`  c #EC9595",
"'  c #E89A9A",
"]  c #F69B9B",
"[  c #E6A1A1",
"{  c #E7A2A2",
"}  c #E5A5A5",
"|  c #E4ACAC",
" . c #E3B3B3",
".. c #E4B4B4",
"X. c #E0BEBE",
"o. c #FDB1B1",
"O. c #C3C3C3",
"+. c gray77",
"@. c #C8C8C8",
"#. c #CACACA",
"$. c #DFC4C4",
"%. c #DFC7C7",
"&. c #DDCECE",
"*. c #DCCFCF",
"=. c #D2D2D2",
"-. c gray84",
";. c #DDD0D0",
":. c #DCD1D1",
">. c #DCD3D3",
",. c #DCD7D7",
"<. c gray85",
"1. c #DBD9D9",
"2. c #DADADA",
"3. c gray86",
"4. c #DCD8D8",
"5. c #D9DEDE",
"6. c #DADFDF",
"7. c gainsboro",
"8. c #DDDDDD",
"9. c gray87",
"0. c #FAC5C5",
"q. c #E0D1D1",
"w. c #E5D7D7",
"e. c #E9D9D9",
"r. c #D9E0E0",
"t. c #DAE1E1",
"y. c #DAE2E2",
"u. c #D9E4E4",
"i. c #D8E5E5",
"p. c #D9E5E5",
"a. c #D9E6E6",
"s. c #D9E7E7",
"d. c #D7EAEA",
"f. c #D8E9E9",
"g. c #D8EBEB",
"h. c #DCEAEA",
"j. c #D8EDED",
"k. c #CFFFFF",
"l. c #D7F0F0",
"z. c #D6F3F3",
"x. c #D7F3F3",
"c. c #D6F4F4",
"v. c #D7F5F5",
"b. c #D6F6F6",
"n. c #D8F1F1",
"m. c #D5F8F8",
"M. c #D5F9F9",
"N. c #D5FAFA",
"B. c #D5FBFB",
"V. c #D3FFFF",
"C. c #D5FDFD",
"Z. c #D9F9F9",
"A. c gray88",
"S. c gray89",
"D. c #E2E7E7",
"F. c #E6E6E6",
"G. c #E7E7E7",
"H. c #E2E9E9",
"J. c #E1EFEF",
"K. c #E9E9E9",
"L. c #EAEAEA",
"P. c gray92",
"I. c #EEEEEE",
"U. c #EFEFEF",
"Y. c #F7EAEA",
"T. c #E5F4F4",
"R. c #E2FFFF",
"E. c #EBFFFF",
"W. c #ECFFFF",
"Q. c #F1F1F1",
"!. c #F6F6F6",
"~. c gray97",
"^. c #F7FBFB",
"/. c #F7FEFE",
"(. c #F7FFFF",
"). c #F8F8F8",
"_. c gray98",
"`. c white",
/* pixels */
"                                        & h s p p p p p p p p p p p p h @                                         ",
"                                        % h p p p p p p p p p p p p p h o                                         ",
"                                        * s p p p p p p p p p p p p p s $                                         ",
"  `.Q.Q.Q.Q.Q.Q.Q.Q.Q.Q.Q.Q.Q.Q.Q.Q.E.o.1 p p p p p p p p p p p p p p p 9 0.W.Q.Q.Q.Q.Q.Q.Q.Q.Q.Q.Q.Q.Q.Q.Q.Q.`.-.",
"  `.7.7.7.7.7.7.7.7.7.7.7.7.7.7.7.7.c.{ 3 p p p p p p p p p p p p p p t 9  .n.7.7.7.7.7.7.7.7.7.7.3.3.3.7.7.7.U.+.",
"  `.3.3.3.3.3.3.3.3.3.3.3.3.3.3.3.3.c.[ 3 p p p p p p p p p p p p p p p 9  .z.3.3.3.3.3.3.3.3.3.3.3.3.3.3.3.3.U.O.",
"  `.3.3.3.3.3.3.3.3.3.3.3.3.3.3.3.3.c.[ 1 p p p p p p p p p p p p p p t 9  .j.3.3.3.3.3.3.3.3.3.3.3.3.3.3.3.3.U.O.",
"  `.3.3.3.3.3.3.3.3.3.3.3.3.3.3.3.3.c.[ 3 p p p p p p p p p p p p p p p 9  .z.3.3.3.3.3.3.3.3.3.3.3.3.3.3.3.3.U.O.",
"  `.3.3.3.3.3.3.3.3.3.3.3.3.3.3.3.3.z.[ 1 p p p p p p p p p p p p p p p 9  .j.3.3.3.3.3.3.3.3.3.3.3.3.3.3.3.3.U.O.",
"  `.P.A.3.3.3.3.3.3.3.3.3.3.3.3.3.3.c.[ 3 p p p p p p p p p p p s s p p 9  .z.3.3.3.3.3.3.3.3.3.3.3.3.3.3.U.P.`.=.",
"  P.@.-.7.7.3.3.3.3.3.3.3.3.3.3.3.3.M.' = = , p s p p p p p p p h 6 = = = | z.3.3.3.3.3.3.3.3.3.3.3.3.3.7.@.+.3.! ",
"                                                                                                                  ",
"                                                                                                                  ",
"                                                                                                                  ",
"                                                                                                                  ",
"                                                                                                                  ",
"                                                                                                                  ",
"                                                                                                                  ",
"                                                                                                                  ",
"      T ~.3.3.3.3.3.3.3.3.3.3.3.3.3.s.X.J ~ K s t p p p p p p p 9 H / P K %.s.3.3.3.3.3.3.3.3.3.3.7.7.A.3.        ",
"      I ).3.3.3.3.3.3.3.3.3.3.3.3.3.,.s.M.V.d.c 9 p p p p p p p = } k.M.M.t.,.3.3.3.3.3.3.3.3.3.3.3.3.A.3.        ",
"      T ~.3.3.3.3.3.3.3.3.3.3.3.3.3.3.3.3.s.&.c q p p p p p p p , ( c.6.6.3.3.3.3.3.3.3.3.3.3.3.3.3.3.G.3.        ",
"      T ~.3.3.3.3.3.3.3.3.3.3.3.3.3.3.3.3.s.&.c q p p p p p p p , ( c.3.3.3.3.3.3.3.3.3.3.3.3.3.3.3.3.A.3.        ",
"      T ~.3.3.3.3.3.3.3.3.3.3.3.3.3.3.3.3.s.&.h q p p p p p p p , ) c.3.3.3.3.3.3.3.3.3.3.3.3.3.3.3.3.G.3.        ",
"      T ~.3.3.3.3.3.3.3.3.3.3.3.3.3.3.3.3.s.&.c q p p p p p p p , ( c.3.3.3.3.3.3.3.3.3.3.3.3.3.3.3.3.A.7.        ",
"      I ~.3.3.3.3.3.3.3.3.3.3.3.3.3.3.3.3.s.&.z q p p p p p p p , ( c.6.3.3.3.3.3.3.3.3.3.3.3.3.3.3.3.A.3.        ",
"      T ~.3.3.3.3.3.3.3.3.3.3.3.3.3.3.3.3.s.&.h q p p p p p p p , ( c.3.3.3.3.3.3.3.3.3.3.3.3.3.3.3.3.G.3.        ",
"      T ~.3.3.3.3.3.3.3.3.3.3.3.3.3.3.3.3.s.&.z q p p p p p p p 1 ) c.3.3.3.3.3.3.3.3.3.3.3.3.3.3.3.3.A.3.        ",
"      T ~.3.3.3.3.3.3.3.3.3.3.3.3.3.3.3.3.s.&.h q p p p p p p p , ( c.3.3.3.3.3.3.3.3.3.3.3.3.3.3.3.3.S.3.        ",
"      E /.s.s.s.s.s.s.s.s.s.s.s.s.s.s.s.s.z.3.h q p p p p p p p , _ V.s.s.s.s.s.s.t.s.s.s.s.s.s.s.s.s.J.u.        ",
"      R Y.:.&.&.:.:.:.:.&.&.:.:.:.:.&.&.:.3.$.h q p p p p p p p 1 ^ f.:.&.&.:.:.:.:.&.:.:.:.:.:.&.&.:.w.&.        ",
"      z c z h c c h c c h c c h c c h c c c c p p p p p p p p p p h c c c h c c h c c h c h c c h c c c B o       ",
"      p 9 q q q q q q q q q q q q q q q q q q p p p p p p p p p s t 9 q q q q q q q q q q q q q q q q q t +       ",
"      s p p p p p p p p p p p p p p p p p p p p p p p p p p p p p p p p p p p p p p p p p p p p p p p p s O       ",
"      s p p p p p p p p p p p p p p p p p p p p p p p p p p p p p p p p p p p p p p p p p p p p p p p p h O       ",
"      h p p p p p p p p p p p p p p p p p p p p p p p p p p p p p p p p p p p p p p p p p p p p p p p p h O       ",
"      s s p p p p p p p p p p p p p p p p p p p p p p p p p p p p p p p p p p p p p p p p p p p p p p p h O       ",
"      h p p p p p p p p p p p p p p p p p p p p p p p p p p p p p p p p p p p p p p p p p p p p p p p p h O       ",
"      h p p p p p p p p p p p p p p p p p p p p p p p p p p p p p p p s p p p p p p p p p p p p p p p p h O       ",
"      q 3 6 6 6 6 6 6 6 6 6 6 6 6 6 6 6 6 3 6 p s p p p p p p p s 9 3 3 6 6 6 6 6 6 6 6 6 6 6 6 6 6 6 3 9 #       ",
"      N G Z Z Z Z Z Z Z Z Z Z Z Z Z Z Z Z S Z p p p p p p p p p t V F Z Z Z Z Z Z Z Z Z Z Z Z Z Z Z Z Z S .       ",
"      W /.t.t.t.t.t.t.t.t.t.t.t.t.t.t.t.t.j.>.c q p p p p p p p , _ C.t.t.t.t.t.t.t.t.t.t.t.t.t.t.t.t.H.t.        ",
"      U ^.6.6.6.6.6.6.6.6.6.6.6.6.6.6.6.6.d.:.h q p p p p p p p , ) M.t.6.6.6.6.6.6.6.6.6.6.6.6.6.6.6.D.6.        ",
"      T ~.3.3.3.3.3.3.3.3.3.3.3.3.3.3.3.3.s.&.c q p p p p p p p , ( c.3.3.3.3.3.3.3.3.3.3.3.3.3.3.3.3.G.3.        ",
"      T ~.3.3.3.3.3.3.3.3.3.3.3.3.3.3.3.3.s.&.z q p p p p p p p , ( c.6.3.3.3.3.3.3.3.3.3.3.3.3.3.3.3.A.3.        ",
"      T ~.3.3.3.3.3.3.3.3.3.3.3.3.3.3.3.3.s.&.h q p p p p p p p , ( c.3.3.3.3.3.3.3.3.3.3.3.3.3.3.3.3.A.3.        ",
"      T ~.3.3.3.3.3.3.3.3.3.3.3.3.3.3.3.3.s.&.c q p p p p p p p , ( c.6.3.3.3.3.3.3.3.3.3.3.3.3.3.3.3.G.3.        ",
"      I ~.3.3.3.3.3.3.3.3.3.3.3.3.3.3.3.3.s.&.h q p p p p p p p , ( c.3.3.3.3.3.3.3.3.3.3.3.3.3.3.3.3.A.3.        ",
"      T ~.3.3.3.3.3.3.3.3.3.3.3.3.3.3.3.3.s.&.h q p p p p p p p , ( c.7.6.3.3.3.3.3.3.3.3.3.3.3.3.3.7.A.7.        ",
"      I ~.3.3.3.3.3.3.3.3.3.3.3.3.3.3.3.3.s.&.c q p p p p p p p , ( c.3.3.3.3.3.3.3.3.3.3.3.3.3.3.3.7.A.3.        ",
"      T ~.3.3.3.3.3.3.3.3.3.3.3.3.3.3.3.3.s.&.c q p p p p p p p , ( c.3.3.3.3.3.3.3.3.3.3.3.3.3.3.3.3.G.3.        ",
"      T ~.3.3.3.3.3.3.3.3.3.3.3.3.3.3.3.3.d.*.h q p p p p p p p , ( c.6.3.3.3.3.3.3.3.3.3.3.3.3.3.3.3.A.3.        ",
"      T ~.3.3.3.3.3.3.3.3.3.3.3.3.3.3.3.3.s.&.h q p p p p p p p , ( c.3.3.3.3.3.3.3.3.3.3.3.3.3.3.3.7.A.3.        ",
"      I ~.3.3.3.3.3.3.3.3.3.3.3.3.3.3.3.3.s.&.z q p p p p p p p , ) c.6.3.3.3.3.3.3.3.3.3.3.3.3.3.3.7.G.3.        ",
"      T ~.3.3.3.3.3.3.3.3.3.3.3.3.3.3.3.3.s.&.h q p p p p p p p , ( c.7.3.3.3.3.3.3.3.3.3.3.3.3.3.3.3.A.3.        ",
"      T ~.3.3.3.3.3.3.3.3.3.3.3.3.3.3.3.3.s.&.c q p p p p p p p , ( c.3.3.3.3.3.3.3.3.3.3.3.3.3.3.3.7.A.3.        ",
"      T ~.3.3.3.3.3.3.3.3.3.3.3.3.3.3.3.3.s.&.c q p p p p p p p , ( c.6.3.3.3.3.3.3.3.3.3.3.3.3.3.3.3.A.3.        ",
"      T ~.3.3.3.3.3.3.3.3.3.3.3.3.3.3.3.3.s.&.h q p p p p p p p , ( c.3.3.3.3.3.3.3.3.3.3.3.3.3.3.3.3.G.3.        ",
"      T ~.3.7.7.3.3.3.3.3.3.7.7.3.3.3.3.3.s.&.c q p p p p p p p , ( c.7.3.3.7.7.3.3.3.3.3.3.3.3.3.3.3.A.3.        ",
"      I ~.3.7.7.3.3.3.3.3.3.7.7.3.3.3.3.3.s.&.h q p p p p p p p , ) c.3.3.3.3.7.3.3.3.3.3.3.3.3.3.3.3.G.3.        ",
"      T ).7.7.7.7.7.7.7.A.7.7.7.7.7.7.7.A.h.q.c q p s p p p p p , ` Z.7.7.A.7.7.7.A.7.A.7.A.7.A.7.7.7.G.7.        ",
"      Q `.P.G.G.G.P.G.G.G.P.G.G.G.P.G.G.P.T.e.c q s s s s s s s , ] R.G.G.P.G.G.G.G.G.G.G.G.G.G.G.P.G.U.G.        ",
"                                                                                                                  "
};
