/* XPM */
static char *c75cb9af93c74a45f889bd9aebca1cefytFjrq9a6IPHXxnw[] = {
/* columns rows colors chars-per-pixel */
"57 63 215 2 ",
"   c None",
".  c #851212",
"X  c #871616",
"o  c #8C1313",
"O  c #941616",
"+  c #971616",
"@  c #9D1515",
"#  c #9E1616",
"$  c #A11616",
"%  c #A41616",
"&  c #A61616",
"*  c #A71717",
"=  c #AA1717",
"-  c #AC1616",
";  c #BD1717",
":  c #B21919",
">  c #B31B1B",
",  c #B91A1A",
"<  c #BD1919",
"1  c #BF1A1A",
"2  c #C01B1B",
"3  c #C51B1B",
"4  c #C91C1C",
"5  c #CD1C1C",
"6  c #D01616",
"7  c #D11D1D",
"8  c #D21C1C",
"9  c #D21D1D",
"0  c #D71F1F",
"q  c red",
"w  c #FF0202",
"e  c #FF0303",
"r  c #FF0505",
"t  c #FF0606",
"y  c #FF0707",
"u  c #FF0909",
"i  c #FF0B0B",
"p  c #FF0C0C",
"a  c #FF0D0D",
"s  c #FF0E0E",
"d  c #FF0F0F",
"f  c #E11E1E",
"g  c #E31F1F",
"h  c #E51F1F",
"j  c #E81F1F",
"k  c #FF1010",
"l  c #FF1111",
"z  c #FF1515",
"x  c #FF1717",
"c  c #FF1818",
"v  c #FF1919",
"b  c #FF1A1A",
"n  c #FF1B1B",
"m  c #FF1D1D",
"M  c #FF1E1E",
"N  c #D12121",
"B  c #E02222",
"V  c #E92020",
"C  c #F12121",
"Z  c #F12323",
"A  c #F22222",
"S  c #F52222",
"D  c #F62222",
"F  c #F72222",
"G  c #F32424",
"H  c #F12626",
"J  c #FA2222",
"K  c #FB2222",
"L  c #FF2020",
"P  c #FF2121",
"I  c #FF2222",
"U  c #FF2323",
"Y  c #FF2424",
"T  c #FF2525",
"R  c #FF2626",
"E  c #FE2727",
"W  c #FF2727",
"Q  c #FF2828",
"!  c #FE2929",
"~  c #FF2929",
"^  c #FD2B2B",
"/  c #FF2A2A",
"(  c #FF2B2B",
")  c #FA2D2D",
"_  c #FD2C2C",
"`  c #FD2D2D",
"'  c #FF2C2C",
"]  c #FE2D2D",
"[  c #FF2D2D",
"{  c #FD2E2E",
"}  c #FF2E2E",
"|  c #FF2F2F",
" . c #EE3B3B",
".. c #FD3131",
"X. c #FB3636",
"o. c #F94040",
"O. c #F94242",
"+. c #FA4343",
"@. c #F94444",
"#. c #F94646",
"$. c #F84747",
"%. c #FE4747",
"&. c #F45B5B",
"*. c #ED7474",
"=. c #EE7979",
"-. c #ED7A7A",
";. c #ED7F7F",
":. c #9A9A9A",
">. c #9B9F9F",
",. c #9D9D9D",
"<. c #9F9F9F",
"1. c #A39696",
"2. c #97A4A4",
"3. c #9AA1A1",
"4. c gray65",
"5. c #B2B2B2",
"6. c #EC8686",
"7. c #EA8C8C",
"8. c #EA8D8D",
"9. c #E99393",
"0. c #E99595",
"q. c #E89797",
"w. c #EC9595",
"e. c #E89A9A",
"r. c #F69B9B",
"t. c #E6A1A1",
"y. c #E7A2A2",
"u. c #E5A5A5",
"i. c #E4ACAC",
"p. c #E3B3B3",
"a. c #E4B4B4",
"s. c #E0BEBE",
"d. c #FDB1B1",
"f. c #C3C3C3",
"g. c gray77",
"h. c #C8C8C8",
"j. c #CACACA",
"k. c #DFC4C4",
"l. c #DFC7C7",
"z. c #DDCECE",
"x. c #DCCFCF",
"c. c #D2D2D2",
"v. c gray84",
"b. c #DDD0D0",
"n. c #DCD1D1",
"m. c #DCD3D3",
"M. c #DCD7D7",
"N. c gray85",
"B. c #DBD9D9",
"V. c #DADADA",
"C. c gray86",
"Z. c #DCD8D8",
"A. c #D9DEDE",
"S. c #DADFDF",
"D. c gainsboro",
"F. c #DDDDDD",
"G. c gray87",
"H. c #FAC5C5",
"J. c #E0D1D1",
"K. c #E5D7D7",
"L. c #E9D9D9",
"P. c #D9E0E0",
"I. c #DAE1E1",
"U. c #DAE2E2",
"Y. c #D9E4E4",
"T. c #D8E5E5",
"R. c #D9E5E5",
"E. c #D9E6E6",
"W. c #D9E7E7",
"Q. c #D7EAEA",
"!. c #D8E9E9",
"~. c #D8EBEB",
"^. c #DCEAEA",
"/. c #D8EDED",
"(. c #CFFFFF",
"). c #D7F0F0",
"_. c #D6F3F3",
"`. c #D7F3F3",
"'. c #D6F4F4",
"]. c #D7F5F5",
"[. c #D6F6F6",
"{. c #D8F1F1",
"}. c #D5F8F8",
"|. c #D5F9F9",
" X c #D5FAFA",
".X c #D5FBFB",
"XX c #D3FFFF",
"oX c #D5FDFD",
"OX c #D9F9F9",
"+X c gray88",
"@X c gray89",
"#X c #E2E7E7",
"$X c #E6E6E6",
"%X c #E7E7E7",
"&X c #E2E9E9",
"*X c #E1EFEF",
"=X c #E9E9E9",
"-X c #EAEAEA",
";X c gray92",
":X c #EEEEEE",
">X c #EFEFEF",
",X c #F7EAEA",
"<X c #E5F4F4",
"1X c #E2FFFF",
"2X c #EBFFFF",
"3X c #ECFFFF",
"4X c #F1F1F1",
"5X c #F6F6F6",
"6X c gray97",
"7X c #F7FBFB",
"8X c #F7FEFE",
"9X c #F7FFFF",
"0X c #F8F8F8",
"qX c gray98",
"wX c white",
/* pixels */
"                                        / K / .     / / T ' :   4 ' / ' ,                                         ",
"                                        T K /       / K K /     = / / ' 2                                         ",
"                                        T T / <   $ T K T T 5   0 C                                               ",
"                                        / T K T / T K T K K T / / f                                               ",
"                                  N 7 B 7     F T T T K K K T K T B     ' / / / T                                 ",
"                                % ' T / <     C T K K K T K T K T V     / K K T F                                 ",
"                                @ / T / 7     J T K K T K T K K T V     / T T / T                                 ",
"                                o H C C K K T K T K K T K K K T K K T K J C C C V                                 ",
"                                        3 / K T K K T K K K T K K T T T =                                         ",
"                                        : T T K K T K K T K T K K T K / +                                         ",
"                                        6 T T K K K T T K T K K K K T T <                                         ",
"  wX4X4X4X4X4X4X4X4X4X4X4X4X4X4X4X4X2Xd.p T K K T K K K K K K T T K K M x H.3X4X4X4X4X4X4X4X4X4X4X4X4X4X4X4X4XwXv.",
"  wXD.D.D.D.D.D.D.D.D.D.D.D.D.D.D.D.].y.p K T T K K K T T T K K K K T K x a.{.D.D.D.D.D.C.C.D.D.D.D.D.D.D.D.C.>Xg.",
"  wXC.C.C.C.C.C.C.C.C.C.C.C.C.C.C.C._.y.i T K K T T K K K K K T T K K K x a._.C.C.C.C.C.C.C.C.C.C.C.C.C.C.C.C.>Xf.",
"  wXC.C.C.C.C.C.C.C.C.C.C.C.C.C.C.C.].y.p K K T K K T K K K K T T K K K x p.{.C.C.C.C.C.C.C.C.C.C.C.C.C.C.C.C.>Xf.",
"  wXC.C.C.C.C.C.C.C.C.C.C.C.C.C.C.C._.y.i T K K K T K K T T K K K K K M x p._.C.C.C.C.C.C.C.C.C.C.C.C.C.C.C.C.>Xf.",
"  wXC.C.C.C.C.C.C.C.C.C.C.C.C.C.C.C._.y.p K T T K K K K T T K K K T K K x a./.C.C.C.C.C.C.C.C.C.C.C.C.C.C.C.C.>Xg.",
"  wX;XU.C.C.C.C.C.C.C.C.C.C.C.C.C.C._.t.i T K K K T T K K K K T K K K K x a./.C.C.C.C.C.C.C.C.C.C.C.C.C.C.=X=XwXc.",
"  =Xj.N.D.C.C.C.C.C.C.C.C.C.C.C.C.C.}.q.w w i K T T K K K K K T / l w w w i._.C.C.C.C.C.C.C.C.C.C.C.C.C.C.h.h.C.5.",
"      1.5XC.C.C.C.C.C.C.C.C.C.C.C.C.T.s.*.6.*.E M K K T T T K K l &.7.6.=.l.W.C.C.C.C.C.C.C.C.C.C.C.C.%XC.        ",
"      :.6XC.C.C.C.C.C.C.C.C.C.C.C.C.C.U.oXoXQ./ c K K K K K K T w u.(.}.}.U.C.C.C.C.C.C.C.C.C.C.C.C.C.+XC.        ",
"      ,.6XC.C.C.C.C.C.C.C.C.C.C.C.C.C.C.C.Q.x./ c K T T K T K K y 9.].C.C.C.C.C.C.C.C.C.C.C.C.C.C.C.D.+XC.        ",
"      ,.5XC.C.C.C.C.C.C.C.C.C.C.C.C.C.C.C.W.z.) c T K K T K T K y 9.].C.C.C.C.C.C.C.C.C.C.C.C.C.C.C.D.%XC.        ",
"      ,.5XC.C.C.C.C.C.C.C.C.C.C.C.C.C.C.C.T.z./ c K T K K K T K y 9.}.C.C.C.C.C.C.C.C.C.C.C.C.C.C.C.C.+XC.        ",
"      ,.5XC.C.C.C.C.C.C.C.C.C.C.C.C.C.C.C.W.z.) c T T K K K T K y 9.].C.C.C.C.C.C.C.C.C.C.C.C.C.C.C.D.+XD.        ",
"      ,.0XC.C.C.C.C.C.C.C.C.C.C.C.C.C.C.C.!.z.E c T K K T K T K y 9.].C.C.C.C.C.C.C.C.C.C.C.C.C.C.C.D.+XC.        ",
"      ,.5XC.C.C.C.C.C.C.C.C.C.C.C.C.C.C.C.W.z./ c K T T K T K K y 9.].C.C.C.C.C.C.C.C.C.C.C.C.C.C.C.C.%XC.        ",
"      ,.0XC.C.C.C.C.C.C.C.C.C.C.C.C.C.C.C.W.z.) c T K K K K K T y q.].C.C.C.C.C.C.C.C.C.C.C.C.C.C.C.C.+XC.        ",
"      ,.5XC.C.C.C.C.C.C.C.C.C.C.C.C.C.C.C.W.z.E c K K T T T K K y 9.].C.C.C.C.C.C.C.C.C.C.C.C.C.C.C.D.+XC.        ",
"      2.9XW.W.W.W.W.W.W.W.W.W.W.W.W.W.W.W.].C./ c T K K K K K T y e.oXT.W.W.W.W.W.U.W.W.W.W.W.W.W.W.W.*XP.        ",
"      1.,Xn.z.n.n.z.z.n.z.z.n.z.n.n.z.z.n.C.k./ c T T K K K K T i 7.!.n.z.z.n.z.z.n.z.z.z.n.n.z.z.n.n.K.n.        ",
"      ) ' ' ' / ) ' ' ) ' ' ) ' / / ) ' ' ' ' K K T K K T T K K K / ' ) ' ' ) ' ' ) ' ' ) ' ' ) ' ' ' ' ..+       ",
"      K c c c c c c c c c c c c c c c c c c c K T K K T T K K K T M x c c c c c c c c c c c c c c c c c M %       ",
"      T K K T K T T K K T T T T K K T T K T T K K T K K K K T K T K T K T K T K T T K K T T T T K T T T / @       ",
"      / K T K T K K T T K T K K K T K T T T K K T K T K K T K T K T K K T K K K K K T T K T K K K K T K T @       ",
"      T K T K K T K K K K K K T K T K K K K K T K K T K K T K K K K K T K K T T T K K K K K K T T K K K / @       ",
"      / K K T K T K K K T T K K K T K K K K K T K T K T K K T K T K K K T K K K T K K K T T K K K K T T / #       ",
"      T K T K K K K T T K K K T K T K T T T K K K K K T K T K K T K T K T K T K K K T T K K K T T K K K / @       ",
"      / K T K K K T T K K T K T T K K T K K T K T K K K K K T T K K T K K T T T K T T K K T K T K K K K / @       ",
"      c p l l l p l p l l l p l l p l l l p l K K T T K T K K K T c p l l p p l l p l p l l l p l l l p x -       ",
"       .%.O.O.+.+.+.O.O.O.O.O.O.O.O.O.O.O.O.+.K K T T K T K K K M X.@.O.O.@.O.O.+.+.O.O.O.@.O.O.+.O.O.+.@.X       ",
"      3.9XU.C.U.U.U.U.U.U.U.U.C.U.U.U.U.U./.m.) c K K K K K T T y q.oXU.P.C.U.U.U.U.U.U.U.C.U.U.U.U.U.&XU.        ",
"      >.7XC.C.U.C.U.C.U.U.P.U.C.U.C.U.C.C.Q.n.E c K K T K T K K y q.}.U.U.C.P.U.C.U.C.U.C.U.C.P.U.C.C.#XC.        ",
"      >.7XC.C.C.C.C.C.C.C.C.C.C.C.C.C.C.C.Q.z.' c T K T K K T K y 9.}.C.C.C.C.C.C.C.C.C.C.C.C.C.C.C.C.%XC.        ",
"      ,.7XC.C.C.C.C.C.C.C.C.C.C.C.C.C.C.C.W.z./ c K T K K T K K y 9.].C.C.C.C.C.C.C.C.C.C.C.C.C.C.C.C.+XC.        ",
"      ,.5XC.C.C.C.C.C.C.C.C.C.C.C.C.C.C.C.W.z.) c T T K K T K T y 9.}.C.C.C.C.C.C.C.C.C.C.C.C.C.C.C.C.+XC.        ",
"      ,.5XC.C.C.C.C.C.C.C.C.C.C.C.C.C.C.C.W.z./ c T K K K K T K y 9.].C.C.C.C.C.C.C.C.C.C.C.C.C.C.C.C.%XC.        ",
"      ,.5XC.C.C.C.C.C.C.C.C.C.C.C.C.C.C.C.W.z.' c K K T T K K K y 9.}.C.C.C.C.C.C.C.C.C.C.C.C.C.C.C.C.+XC.        ",
"      ,.5XC.C.C.C.C.C.C.C.C.C.C.C.C.C.C.C.W.z./ c T K K T K K T y 9.].C.C.C.C.C.C.C.C.C.C.C.C.C.C.C.D.+XD.        ",
"      ,.0XC.C.C.C.C.C.C.C.C.C.C.C.C.C.C.C.W.x.' c K T K T K K T y 9._.C.C.C.C.C.C.C.C.C.C.C.C.C.C.C.D.+XC.        ",
"      ,.5XC.C.C.C.C.C.C.C.C.C.C.C.C.C.C.C.Q.x./ c T K T K K K K y 9.].C.C.C.C.C.C.C.C.C.C.C.C.C.C.C.C.%XC.        ",
"      ,.0XC.C.C.C.C.C.C.C.C.C.C.C.C.C.C.C.T.n.E c T K K K T T K y 9.}.C.C.C.C.C.C.C.C.C.C.C.C.C.C.C.C.+XC.        ",
"      ,.5XC.C.C.C.C.C.C.C.C.C.C.C.C.C.C.C.W.z./ c T K K K T T K y 9.}.C.C.C.C.C.C.C.C.C.C.C.C.C.C.C.D.+XC.        ",
"      ,.0XC.C.C.C.C.C.C.C.C.C.C.C.C.C.C.C.W.n.E c T K T K K K K y 9.].C.C.C.C.C.C.C.C.C.C.C.C.C.C.C.D.%XC.        ",
"      ,.5XC.C.C.C.C.C.C.C.C.C.C.C.C.C.C.C.W.x./ c T T K T K K T y 9.].C.C.C.C.C.C.C.C.C.C.C.C.C.C.C.C.+XC.        ",
"      ,.0XC.C.C.C.C.C.C.C.C.C.C.C.C.C.C.C.W.z.) c K K K T K K T y 9.}.C.C.C.C.C.C.C.C.C.C.C.C.C.C.C.D.+XC.        ",
"      ,.0XC.C.C.C.C.C.C.C.C.C.C.C.C.C.C.C.W.z.E c T K K T K K K y 9.}.C.C.C.C.C.C.C.C.C.C.C.C.C.C.C.C.+XC.        ",
"      ,.5XC.C.C.C.C.C.C.C.C.C.C.C.C.C.C.C.W.z./ M K K T K K T K y 9._.C.C.C.C.C.C.C.C.C.C.C.C.C.C.C.C.%XC.        ",
"      ,.0XC.D.D.C.C.C.C.C.C.D.D.C.C.C.C.C.W.x./ c K K T K T K T y 9.].C.C.C.D.D.C.C.C.C.C.C.D.D.C.C.C.+XC.        ",
"      ,.5XC.D.D.C.C.C.C.C.C.D.D.C.C.C.C.C.W.x.' c T K K K T K K y 9.}.C.C.C.D.D.C.C.C.C.C.C.D.D.C.C.C.%XC.        ",
"      ,.0X+XD.D.D.D.D.D.+XD.D.D.D.D.D.D.+X^.J.' c T T T K K T K y 9.OXD.D.+XD.D.D.D.D.D.+XD.D.D.D.D.D.%XD.        ",
"      4.wX=X%X%X=X=X%X%X=X=X%X%X=X=X%X%X=X<XL.' c T T T T T T T y r.1X%X%X=X%X%X=X=X%X%X=X=X%X%X%X=X%X>X%X        ",
"                                                                                                                  "
};
