/* XPM */
static char *result[] = {
/* columns rows colors chars-per-pixel */
"64 64 186 2 ",
"   c #000000",
".  c #0A0605",
"X  c #010B01",
"o  c #0A0B06",
"O  c #02060B",
"+  c #050B0E",
"@  c #0E0E0A",
"#  c #041803",
"$  c #13130A",
"%  c #091319",
"&  c #1A1A11",
"*  c #131818",
"=  c #181818",
"-  c #270A07",
";  c #330606",
":  c #380706",
">  c #251010",
",  c #291414",
"<  c #281B1B",
"1  c #3B1B1B",
"2  c #062405",
"3  c #052905",
"4  c #003E04",
"5  c #282818",
"6  c #001624",
"7  c #0D1B23",
"8  c #081E31",
"9  c #11242E",
"0  c #0A2C32",
"q  c #162E3B",
"w  c #2C2C2C",
"e  c #3E3E21",
"r  c #2B3131",
"t  c #313131",
"y  c #460B08",
"u  c #490A0A",
"i  c #53120E",
"p  c #431F1F",
"a  c #432121",
"s  c #51362D",
"d  c #612B2B",
"f  c #693131",
"g  c #783737",
"h  c #0A4208",
"j  c #2E5A12",
"k  c #0F650D",
"l  c #11700E",
"z  c #434326",
"x  c #4B4B28",
"c  c #5E5E32",
"v  c #696938",
"b  c #77773F",
"n  c #1A3544",
"m  c #163849",
"M  c #193948",
"N  c #204357",
"B  c #21465B",
"V  c #244C61",
"C  c #254968",
"Z  c #285469",
"A  c #2B5A75",
"S  c #2E6178",
"D  c #784145",
"F  c #7B7B41",
"G  c #871616",
"H  c #971616",
"J  c #9E1616",
"K  c #A91616",
"L  c #813C3C",
"P  c #FF0707",
"I  c #FF0D0D",
"U  c #FF1111",
"Y  c #FF1919",
"T  c #FF2323",
"R  c #FD2B2B",
"E  c #EE3B3B",
"W  c #FC3434",
"Q  c #B73D4F",
"!  c #9B4646",
"~  c #9D4747",
"^  c #924F51",
"/  c #A9484E",
"(  c #AF4951",
")  c #B85353",
"_  c #C45C5C",
"`  c #D25E5B",
"'  c #F94242",
"]  c #FF5C64",
"[  c #C86565",
"{  c #D66161",
"}  c #D7696A",
"|  c #E36B6B",
" . c #EB6A6A",
".. c #E27A69",
"X. c #E77979",
"o. c #FF7A7A",
"O. c #138311",
"+. c #19A716",
"@. c #1FCE1B",
"#. c #21DF1E",
"$. c #03EA0E",
"%. c #12E404",
"&. c #08F812",
"*. c #23EA1F",
"=. c #22F41F",
"-. c #23EC22",
";. c #25FB21",
":. c #2AFF25",
">. c #2EFF29",
",. c #808048",
"<. c #96954E",
"1. c #848453",
"2. c #9D9C57",
"3. c #A2A256",
"4. c #B2B25E",
"5. c #8C8C60",
"6. c #B5B56A",
"7. c #F5B679",
"8. c #88C34C",
"9. c #ACE266",
"0. c #C8C874",
"q. c #F0D57E",
"w. c #ECEC7D",
"e. c #19609A",
"r. c #306482",
"t. c #346E8F",
"y. c #39799E",
"u. c #3A7CA0",
"i. c #3E829B",
"p. c #3E83A5",
"a. c #4087AE",
"s. c #428AB3",
"d. c #4693BF",
"f. c #2AA7DF",
"g. c #39BFFA",
"h. c #4DA1D1",
"j. c #4FA8DA",
"k. c #51ACD8",
"l. c #58BDF6",
"z. c #5CC3DE",
"x. c #52C3F8",
"c. c #65D5FF",
"v. c #6DE6FF",
"b. c #7BFFFF",
"n. c #9D9D9D",
"m. c #A39696",
"M. c #99A3A3",
"N. c gray65",
"B. c #EA8C8C",
"V. c #FF8585",
"C. c #FF8A8A",
"Z. c #E99393",
"A. c #E89A9A",
"S. c #FF9493",
"D. c #F69B9B",
"F. c #FF9B9B",
"G. c #E5A5A5",
"H. c #FFA3A3",
"J. c #FDFE94",
"K. c #FDFE9E",
"L. c #FFFFAD",
"P. c #FFFFB4",
"I. c #FFFFBC",
"U. c #83FFFF",
"Y. c #DFC4C4",
"T. c #DDCECE",
"R. c #DDD0D0",
"E. c #DBDBDB",
"W. c #E5D6D6",
"Q. c #FFFFC5",
"!. c #FFFFCF",
"~. c #FFFFD5",
"^. c #D9E4E4",
"/. c #D7EAEA",
"(. c #D9EBEB",
"). c #CFFFFF",
"_. c #D6F6F6",
"`. c #D4FCFC",
"'. c #D9F9F9",
"]. c #E5E5E5",
"[. c #E6EDED",
"{. c #F7EAEA",
"}. c #E4FAFA",
"|. c gray97",
" X c #F7FDFD",
".X c #FBFBFB",
/* pixels */
"                    p F.F.S.H.V.                    2 3 2 3 X             3.K.J.w.      O y.s.p.s.s.%                           ",
"                    - ` { { } )     . <.2.2.2.F     -.>.:.>.h             o o                                                   ",
"                                    $ L.Q.P.!.J.    O.+.+.+.3     B S 7     . / ( ) ( .                                         ",
"                O h.l.x.m           o F ,.,.,.v                 O r.i.9     , S.F.F.C..                                         ",
"                O s.j.k.M                                                   . p a a 1 .                                         ",
"                                                              5 5 5 o                   z 1.1.x   O                             ",
"                          # 3 2 3 2 3 2                       J.L.P.c                   3.!.Q.6.e.z.S                           ",
"                          @.:.;.=.=.;.-.X     .     1 / ~ ~ / 7.0.0.e                   . 5 z 5 8 M 9                           ",
"                          *.:.&.$.$.&.%.0 h.k.q     f F.C.V.F.Q       X 3 2 2         & &                                       ",
"                          3 4 8.9.9.9.j % C Z 7     f F.V.V.F.{       l >.>.#.        w.~.w.                                    ",
"                              q.Q.L.I.s             > f d d i :       k :.;.@.        v 5.v     @ , > , .                       ",
"                    _ } { { } ..z z z $                     6 8 n q O   X X X                   g F.S.C.1                       ",
"                  . V.D.S.S.S.]                           % c.v.v.c.%               .           u [ _ [ >                       ",
"                    f ^ L L ^ D +             . @ o o .   + d.h.h.d.+               9 B N N N V n                               ",
"                          O f.g.j.            F P.J.P.b                             u.U.v.v.v.b.l.                              ",
"                          + m N n             x 6.4.6.x                             M a.t.t.t.u.A                               ",
"                                          .                               > | | X.~                                             ",
"                                  ) X. . .X.L                 % Z B O     > | | X.~                                             ",
"                                  { C.o.o.S.!                 M b.c.%                                                           ",
"                                  . . . . . .                 + n q O                                                           ",
"            n.|.E.E.E.E.E.E.E.E.E.E.E.E.E.E.^.'.)./.R Y T T T T T T T P G.)._.'.^.E.E.E.E.E.E.E.E.E.E.E.E.E.].E.@               ",
"            n.|.E.E.E.E.E.E.E.E.E.E.E.E.E.E.E.E.^.T.R Y T T T Y T T T P Z._.E.E.E.E.E.E.E.E.E.E.E.E.E.E.E.E.E.E.=               ",
"            n.|.E.E.E.E.E.E.E.E.E.E.E.E.E.E.E.E.^.T.R Y T T T T T T T P Z._.E.E.E.E.E.E.E.E.E.E.E.E.E.E.E.E.].E.=               ",
"            n.|.E.E.E.E.E.E.E.E.E.E.E.E.E.E.E.E./.T.R Y T T T T T T T P B._.E.E.E.E.E.E.E.E.E.E.E.E.E.E.E.E.].E.=               ",
"            n.|.E.E.E.E.E.E.E.E.E.E.E.E.E.E.E.E.^.T.R Y T T T T T T T P Z._.E.E.E.E.E.E.E.E.E.E.E.E.E.E.E.E.W.E.=               ",
"            n.|.E.E.E.E.E.E.E.E.E.E.E.E.E.E.E.E.^.T.R Y T T T T T T T P Z._.E.E.E.E.E.E.E.E.E.E.E.E.E.E.E.E.].E.=               ",
"            n.|.E.E.E.E.E.E.E.E.E.E.E.E.E.E.E.E.^.T.R Y T T T T T T T P Z._.E.E.E.E.E.E.E.E.E.E.E.E.E.E.E.E.].E.=               ",
"            n.|.E.E.E.E.E.E.E.E.E.E.E.E.E.E.E.E./.T.R Y T T T T T T T P Z._.E.E.E.E.E.E.E.E.E.E.E.E.E.E.E.E.^.E.=               ",
"            n.|.E.E.E.E.E.E.E.E.E.E.E.E.E.E.E.E.^.T.R Y T T T T T T T P Z._.E.E.E.E.E.E.E.E.E.E.E.E.E.E.E.E.].E.=               ",
"            M. X/.^.^.^.^././.^.^.E./.^.^.^.^./._.E.R Y T T T T T T T P A.`.^.^.^./.^.^.^.^./.^.^.^.^.^.(.^.[.^.*               ",
"            m.{.R.R.R.R.R.R.R.R.R.R.R.R.R.R.R.R.E.Y.R Y T T T T T T T P B./.R.R.R.R.R.R.R.R.R.R.R.R.R.R.R.R.W.T.=               ",
"          y R R R R R R R R R R R R R R R R R R R R T T T T T T T T T T R R R R R R R R R R R R R R R R R R R W H               ",
"          u Y Y Y Y Y Y Y Y Y Y Y Y Y Y Y Y Y Y Y Y T T T T T T T T T T Y Y Y Y Y Y Y Y Y Y U Y Y Y Y Y Y Y Y T K               ",
"          u R T T T T T T T T T T T T T T T T T T T T T T T T T T T T T T T T T T T T T T T T T T T T T T T T T J               ",
"          u R T T T T T T T T T T T T T T T T T T T T T T T T T T T T T T T T T T T T T T T T T T T T T T T T R J               ",
"          u T T T T T T T T T T T T T T T T T T T T T T Y T T T T T T T T T T T T T T T T T T T T T T T T T T T J               ",
"          u T T T T T T T T T T T T T T T T T T T T T T T T T T T T T T T T T T T T T T T T T T T T T T T T T R J               ",
"          u R T T T T T T T T T T T T T T T T T T T T T T T T T T T T T T T T T T T T T T T T T T T T T T T T T J               ",
"          y R T T T T T T T T T T T T T T T T T T T T T T T T T T T T T T T T T T T T T T T T T T T T T T T T R J               ",
"        . u Y I U I U I U I U U I U I I U U U U I U T T T T T T T T T T Y I U U U U U U I U U U U U I U U U I U K               ",
"          : E ' ' ' ' E ' ' ' ' ' ' ' ' ' E ' ' ' ' R Y R T T T T T T Y W ' ' ' ' ' ' ' E ' ' ' ' E ' ' ' ' ' ' G               ",
"            M. XE.^.^.^.^.^.E.^.^.^.E.^.^.^.E.^./.R.R Y T T T T T T T P Z.`.^.^.^.E.^.^.^.^.E.^.].^.^.E.E.^.(.^.*               ",
"            n. X^.E.E.E.E.E.^.E.E.E.^.E.^.E.^.E./.R.R Y T T T T T T T P A.`.E.E.E.E.E.^.^.E.E.E.E.^.E.^.E.^.].E.*               ",
"            n..XE.E.E.E.E.E.E.E.E.E.E.E.E.E.E.E.^.T.R Y T T T T T T T P Z._.E.E.E.E.E.E.E.E.E.E.E.E.E.E.E.E.].E.=               ",
"            n.|.E.R.E.E.E.E.E.E.E.E.E.E.E.E.E.E./.T.R Y T T T T T T T P Z._.E.E.E.E.E.E.E.E.E.E.E.E.E.E.E.E.W.E.=               ",
"            n.|.E.E.E.E.E.E.E.E.E.E.E.E.E.E.E.E.^.T.R Y T T T T T T T P Z._.E.E.E.E.E.E.E.E.E.E.E.E.E.E.E.E.^.E.=               ",
"            n.|.E.E.E.E.E.E.E.E.E.E.E.E.E.E.E.E.^.T.R Y T T T T T T T P Z._.E.E.E.E.E.E.E.E.E.E.E.E.E.E.E.E.].E.=               ",
"            n.|.E.E.E.E.E.E.E.E.E.E.E.E.E.E.E.E.^.T.R Y T T T T T T T P Z._.E.E.E.E.E.E.E.E.E.E.E.E.E.E.E.E.].E.=               ",
"            n.|.E.E.E.E.E.E.E.E.E.E.E.E.E.E.E.E.^.T.R Y T T T T T T T P Z._.E.E.E.R.E.E.E.E.E.E.E.E.E.E.E.E.W.E.*               ",
"            n.|.E.E.E.E.E.E.E.E.E.E.E.E.E.E.E.E.^.T.R Y T T T T T T T P Z._.E.E.E.E.E.E.E.E.E.E.E.E.E.E.E.E.].E.*               ",
"            n.|.E.E.E.E.E.E.E.E.E.E.E.E.E.E.E.E.^.T.R Y T T T T T T T P Z._.E.E.E.E.E.E.E.E.E.E.E.E.E.E.E.E.E.E.=               ",
"            n.|.E.E.E.E.E.E.E.E.E.E.E.E.E.E.E.E.^.T.R Y T T T T T T T P Z._.E.E.E.E.E.E.E.E.E.E.E.E.E.E.E.E.].E.=               ",
"            n.|.E.E.E.E.E.E.E.E.E.E.E.E.E.E.E.E.^.T.R Y T T T T T T T P Z._.E.E.E.E.E.E.E.E.E.E.E.E.E.E.E.E.].E.=               ",
"            n.|.E.E.E.E.E.E.E.E.R.E.E.E.E.E.E.E.^.T.R Y T T T T T T T P Z._.E.E.E.E.E.E.E.E.E.E.E.E.R.E.E.E.].E.=               ",
"            n.|.E.E.E.E.E.E.E.E.E.E.E.E.E.E.E.E./.T.R Y T T T T T T T P Z._.E.E.E.E.E.E.E.E.E.E.E.E.E.E.E.E.].E.=               ",
"            n.|.E.E.E.E.E.E.E.E.E.E.E.E.E.E.E.E.^.T.R Y T T T T T T T P B._.E.E.E.E.E.E.E.E.E.E.E.E.E.E.E.E.E.E.=               ",
"            n.|.E.E.E.E.E.E.E.E.E.E.E.E.E.E.E.E.^.T.R Y T T T T T T T P Z._.E.E.E.E.E.E.E.E.E.E.E.E.E.E.E.E.W.E.=               ",
"            n.|.E.R.E.E.E.E.E.E.E.E.E.E.E.E.E.E.^.T.R Y T T T T T T T P Z._.E.E.E.E.E.E.E.E.E.E.E.E.E.E.E.E.].E.=               ",
"            n.|.E.E.E.E.E.E.E.E.E.E.E.E.E.E.E.E.(.T.R Y T T T T T T T P Z._.E.E.E.E.E.E.E.E.E.E.E.E.E.E.E.E.].E.=               ",
"            n..XE.E.E.E.E.E.E.E.E.E.E.E.E.E.E.E.^.T.R Y T T T T T T T P B._.E.E.E.E.E.E.E.E.E.E.E.E.E.E.E.E.].^.=               ",
"            n..XE.].E.].E.E.W.^.].E.E.].].E.].E.(.W.R Y T T T T T T T P Z.'.].E.].E.E.].W.^.E.].E.^.E.W.].E.].W.=               ",
"            N..X].].].].].].].].].].].].].].].].}.W.R Y T T T R T T T P D.'.].].].].].].].].].].].].].[.].].[.].=               ",
"            w t w w w w w w w w w w w w w w w w w w ; ; ; ; ; ; ; ; ; ; < r w w w w w w r w w w w w w w w w w w .               ",
"                                                            O           .                                                       "
};
