/* XPM */
static char *f0da0661f6234d1ff22637e61d1ff4f1QGlBgjvtPbtiOVBT[] = {
/* columns rows colors chars-per-pixel */
"64 64 13 1 ",
"  c #020102",
". c #663202",
"X c #532806",
"o c #633407",
"O c #592905",
"+ c #5E3007",
"@ c #683605",
"# c #0A0202",
"$ c #3C200A",
"% c #472208",
"& c #562F0C",
"* c #4C2A0C",
"= c #321A09",
/* pixels */
"&&%&&&%&&&**&&**&&&%&&&%&&+$#   $+&*%&&&%&&&%*&&**&&*%&&&%&&&=  ",
"@oXo.oOo.@O+.@+O@@oOo.oOo.@%   #*@@oO@.oO..oO+@@++@@+O@@.Oo.@$  ",
"..O...O..@O+@@+O@..O...O..@%    *@@.O...O...O+@@+O@.+O...Oo.@%  ",
"++X+++X+++X&++&X++&X+++X++o%    *o++X+++X+++X&++XX++&X+++X&+o$  ",
"XX%XOX%XXX%*XX*%OXX%XXX%XOO$   #$OX*%XXX%XOX%XOX%%XOX%OXX%*XO=  ",
"ooXo.oX+.o&+@@+Xo.+Xo.oXo.@%   #*@.+X@.oXo.oO+@o&O@@+XoooXo.@$  ",
".oX...X+..O+@.+X@..X...O..@%   #*@.+X@.oX...O+.oO+@@+O...Oo.@$  ",
"ooXo.oX+.oX+..+Xo.+Xo.oX+.@%   #*@.+X..+XoooX+.oOO@.+XoooXo.@$  ",
"XX%XXX%*XX%*XX%%XX*%XXX%*XO$    $OX*%XX*%XXX%*XX%%XX*%XXX%*XO=  ",
"o+Xo.oX+.oX&oo&&@.+X.o+X+o@%   #*@o+Xo.+XoooX+ooOOoo+XoooX+o@$  ",
"..O...O+.@O+..+O@..O@..O..@%#  #*..+O...O..@O+..O+@.+O...O..@$  ",
"@oO@@@Oo@@O+@@+O@@oO@@@Oo@@*   #*@@+O@@oOo@@O+@@++@@oO@ooO@@@$  ",
"$$$%%$$$$%$$%%$$%%$$%%%$$%%=   #=%$$$$$$$%%$$$%%$$%%$$$%$$$%%=  ",
"                                                                ",
"                                                                ",
"                                              #                 ",
"###########    ######## ##### ### ##########     ## ############",
"**$***%**&$    $***%***$***%****%***%***%**&=   #$&**%***%***%**",
"@oO@@@O.@@*#  #*@@.O@@@O@@@Oo@@++@@oO@@@O..@%   #&@@oO@@@O@@@Oo@",
"..O...Oo.@*#  #*@.oO@.@O...O+..OO@.oO...Oo.@%   #*@.+O@..O..@Oo.",
"++X+++*&+o%   #%++&X+++X+++X&++*Xo+&*+++X++o$   #*++&*+++X+++X&+",
"OX%OOX%XXO$    $OXX%XOO%XOX%*&&%%OOX%OOX%XOO=    %OOX%OXX%XXX%XX",
"ooXo.oO+o@*    *@.oOo@@Oo.oO+o@&O@@+O@.oXo.@$    X@@+O@.oOoooO+o",
"ooXo.oX+o@*    *@..O...O...O+..OO@.+O..oO..@$    X@.+O@..O..oO+.",
"o+Xo.oX+o@%    *@o+XoooX+ooO+oo&O.o+Xo.+X+.@$    Xo.+XoooX+ooX+o",
"XX%XXX%XXO$    $OXX%XXX%XXX%*XX%%XX*%XX*%XXO=    %XX*%XXX%XXX%XX",
"o+Xo.oX+o@*   #*@o+Xo.oX+.+X+oo&O.o+Xoo+X++@$   #*@o&Xoo+Xo+oX+o",
"..O...X+.@*   #*@.oXo..X..oO+..OO@.+O...Oo.@%   #*@.+O...Oo..O+.",
"@oO@@@Oo@@*#  #*@@oO@@@Oo@@Oo@@++@@oO@@oOo@@%   #&@@+O@@@O@@@Oo@",
"$$=$$$=$$$=#   =$$$=$$$=$$$=$$$$$$$$=$$$=$$%=    =$$$=$$$=$$$=$$",
"      #                #                                        ",
"                   ##            #                    #      #  ",
"                                                             #  ",
"############################    ##############################  ",
"&&%&&&*X&&**&&**&&X%&O&%&O&$#  #$&&*%&&&%XX*%*&***&&*%&&&%&&&=  ",
"@.O@@@Oo.@O+@@+O@@oO@.@O..@*   #*@@+O@..O.@oX+@@++@@+O@@@Oo.@$  ",
"ooXo.oX+ooX&..+Xoo+Xo.oX+.@$    *@.+Xoo+Xo.oX+@oOO@@+XoooOo.@$  ",
"++X+++X+++X&++O*+.+X+++X++.$   #*o+&X++&*+++XO++XX+.OX+++X++o$  ",
"OO%OOX%OOO%XOOX%OOO%OOO%XO+$   #%+OX%OOX%OOO%XOOXXOOX%OOO%XO+=  ",
"@oXo.oXoo@&&@@+&o.oXo.oX+.@%    *@o+X@.oXo.oO+@o&&o@+&oooXo.@$  ",
"o+Xo.oX+o@O&..OXo.+Xo.oX+.@%    *@o+Xo.+Xo.oX+@oOOo.+XoooX+.@$  ",
"o+Xo.+X+ooX&oo&Xo.+Xo.+X+.@$    *@o&Xoo+X+ooX+ooOOo.+Xo++X+o@$  ",
"XX%XOX%XOX%XXOX%OOX%XOX%XOO$    $OX*%OXX%XXX%XOX%%OOX%XXX%XXO$  ",
"o+XoooX+oo&&oo+&oo+Xo.oXo.@%   #*@o+XoooXoooX+oo&&o@+XoooXooo$  ",
"..O..oO...O+..+O...O...O...%#  #X@.+O..oO...O+..OO..+O...O...$  ",
"@o&oo@O@@@O+@@++@@oO@@@Xo@@*   #*@@oO@@oO@o@&o@@+&@@oO@@@Ooo@$  ",
"$$==$$=$$$==$$==$$==$$$==$$=    =$$==$=$==$$==$$==$$==$$$==$$=  ",
"                                                                ",
"                                              ####              ",
"                                                                ",
"###########    ##############################    ###############",
"&*%&&&*&&+$#  #$&&&*&&&*&&&*&&&**&&&*&&&*&&&=   #*&&&*&&&%&&&*&&",
"@.O.@@O..@*    *@..O@@@O.@@O.@@++@@.O@..O..@$   #&@@+O@.@O.@@O..",
"ooXo@oX+.@*    *@ooOo.oXo.@O+@@+O@@oO@ooOo.@$   #&@o+O@.oOo.@O+.",
"&&%&+&%&++%    %++OX&+&%&++X&++XX+&&*++&%&O+$   #*+&&*+&&%&O+XX+",
"XX%OO&%XOO$    %+OO%OO&%XOO%XOO*%OOX%OOO%OO+$   #*OO*%OOX%XXO%XO",
".oOo@o&o@@*    *@@oOo@oOo.@O+oo+O@o+O@.oOo.@$   #&@.+O@ooOoooO+o",
".oO..oX+.@*    *@.+O...O...O+..OO..+O@..O..@$   #*@.+O...Oo..O+.",
"o+X+.+X++.%    %o++X+.oX+.oXO.o&O.o&Xo++O++o$   #*.o+Xo++X++oX+o",
"OX%XOX%XXO$    $OXX%OOO%XOO%XOX%%OOX%OXX%XOO$   #%OOX%OXX%XXO%XX",
"ooXoooX+o@*    *@o+XoooXoooX+@o&&oo+XoooXo.@$   #&@o+XoooXoooX+o",
"..XoooX+.@*   #*@.oO..oOo..X+.o&O..+Xoo+O+.@$   #X.o+XoooXo.oX+.",
"@oXoooOoo@*   #*@@oOoo@Oo@@&+@@&+@@oO@ooOoo@$   #&@o+O@@oXoooOo@",
"$==$$$=$$$=    =$$==$$$=$$$=$$$==$$==$$$=$$$=   #=$$==$$$=$$$==$"
};
