/* XPM */
static char *result[] = {
/* columns rows colors chars-per-pixel */
"64 64 181 2 ",
"   c #471B60",
".  c #481C60",
"X  c #481C61",
"o  c #481F60",
"O  c #491C62",
"+  c #4A1A65",
"@  c #4B1A66",
"#  c #4C1F67",
"$  c #4F176D",
"%  c #4C1968",
"&  c #4E1E69",
"*  c #51186F",
"=  c #521F6F",
"-  c #541575",
";  c #561676",
":  c #561677",
">  c #511870",
",  c #521872",
"<  c #571A77",
"1  c #5B147E",
"2  c #5B187D",
"3  c #592578",
"4  c #5D2D7B",
"5  c #60367C",
"6  c #5D1182",
"7  c #610F87",
"8  c #600088",
"9  c #62018B",
"0  c #63018C",
"q  c #63018D",
"w  c #64008D",
"e  c #66008F",
"r  c #620D88",
"t  c #620F88",
"y  c #620E89",
"u  c #630D8A",
"i  c #67098F",
"p  c #650C8D",
"a  c #601085",
"s  c #601086",
"d  c #601684",
"f  c #64128B",
"g  c #671D8E",
"h  c #660090",
"j  c #670090",
"k  c #670091",
"l  c #670092",
"z  c #680091",
"x  c #680092",
"c  c #690093",
"v  c #690193",
"b  c #680591",
"n  c #690094",
"m  c #690095",
"M  c #6A0094",
"N  c #6A0095",
"B  c #6B0095",
"V  c #690295",
"C  c #6A0096",
"Z  c #6B0096",
"A  c #6B0097",
"S  c #6B0197",
"D  c #6C0096",
"F  c #6C0097",
"G  c #6D0097",
"H  c #6C0396",
"J  c #6C0397",
"K  c #6A0694",
"L  c #6A0795",
"P  c #6B0796",
"I  c #680892",
"U  c #6A0D95",
"Y  c #6B0098",
"T  c #6C0098",
"R  c #6D0098",
"E  c #6C0198",
"W  c #6C0099",
"Q  c #6D0099",
"!  c #6E0099",
"~  c #6D0398",
"^  c #6D0299",
"/  c #6D0399",
"(  c #6D009A",
")  c #6E009A",
"_  c #6E019A",
"`  c #6E009B",
"'  c #6F009B",
"]  c #6F019B",
"[  c #6E029A",
"{  c #6E039A",
"}  c #6E029B",
"|  c #6F029B",
" . c #6E069A",
".. c #6F009C",
"X. c #6F019C",
"o. c #6E0E9B",
"O. c #70009C",
"+. c #71009C",
"@. c #70019C",
"#. c #70009D",
"$. c #71009D",
"%. c #71019D",
"&. c #70029D",
"*. c #70009E",
"=. c #71009E",
"-. c #70049C",
";. c #70059D",
":. c #71059D",
">. c #71069D",
",. c #71079D",
"<. c #71089E",
"1. c #6B1295",
"2. c #6B1894",
"3. c #6C1996",
"4. c #6E1D97",
"5. c #6D1098",
"6. c #6F159B",
"7. c #6F1999",
"8. c #70159A",
"9. c #69308D",
"0. c #6A368C",
"q. c #6B2193",
"w. c #6A2691",
"e. c #6F2197",
"r. c #6E2496",
"t. c #702698",
"y. c #75279E",
"u. c #712D99",
"i. c #722F98",
"p. c #722E99",
"a. c #732D9B",
"s. c #722F9B",
"d. c #75289D",
"f. c #6E3791",
"g. c #6F3096",
"h. c #6E3D90",
"j. c #6F3F91",
"k. c #733399",
"l. c #733499",
"z. c #773D9A",
"x. c #773D9C",
"c. c #7B3BA0",
"v. c #6B4E82",
"b. c #715588",
"n. c #735789",
"m. c #724691",
"M. c #744096",
"N. c #724891",
"B. c #734B91",
"V. c #764E93",
"C. c #734894",
"Z. c #764897",
"A. c #774D96",
"S. c #7B4E9D",
"D. c #755092",
"F. c #785096",
"G. c #7E5C99",
"H. c #7F5F9B",
"J. c #7C6391",
"K. c #7E4EA0",
"L. c #815A9F",
"P. c #825F9F",
"I. c #84679D",
"U. c #84699C",
"Y. c #8058A0",
"T. c #8963A7",
"R. c #8964A6",
"E. c #9079A5",
"W. c #9175AA",
"Q. c #9172AC",
"!. c #9273AC",
"~. c #9376AD",
"^. c #9376AE",
"/. c #9477AF",
"(. c #987FAF",
"). c #9A82B0",
"_. c #9A80B2",
"`. c #9C83B2",
"'. c #A896BA",
"]. c #AA97BC",
"[. c None",
/* pixels */
"[.[.[.[.[.[.[.[.[.[.[.[.[.[.[.[.[.[.[.[.[.[.[.[.[.[.[.( ..#.#.#.#.O.#...[.[.[.[.[.[.[.[.[.[.[.[.[.[.[.[.[.[.[.[.[.[.[.[.[.[.[.[.",
"[.[.[.[.[.[.[.[.[.[.[.[.[.[.[.[.[.[.[.[.[.[.[.[.[.[.Q ` #.=.$.=.$.#.=.#.F w [.[.[.[.[.[.[.[.[.[.[.[.[.[.[.[.[.[.[.[.[.[.[.[.[.[.",
"[.[.[.[.[.[.[.[.[.[.[.[.[.[.[.[.[.[.[.[.[.[.[.[.[.Z ` ..#.=.*.*.=.=.=.#.) Z [.[.[.[.[.[.[.[.[.[.[.[.[.[.[.[.[.[.[.[.[.[.[.[.[.[.",
"[.[.[.[.[.[.[.[.[.[.[.[.[.[.[.[.[.[.[.[.[.[.[.[.[.J -.:.,.;.%.$.#.&.>.<.;.X.` [.[.[.[.[.[.[.[.[.[.[.[.[.[.[.[.[.[.[.[.[.[.[.[.[.",
"[.[.[.[.[.[.[.[.[.[.[.[.[.[.[.[.[.[.[.[.[.[.[.[.[.q.t.u.l.p.8. .5.4.k.x.a.o.( [.[.[.[.[.[.[.[.[.[.[.[.[.[.[.[.[.[.[.[.[.[.[.[.[.",
"[.[.[.[.[.[.[.[.[.[.[.[.[.[.[.[.[.[.[.[.[.[.[.[.[.0.h.m.D.C.r.U g 9.V.G.Z.3.V [.[.[.[.[.[.[.[.[.[.[.[.[.[.[.[.[.[.[.[.[.[.[.[.[.",
"[.[.[.[.[.[.[.[.[.[.[.[.[.[.[.[.[.[.[.[.[.[.[.[.[.N.F.G.U.H.i.1.w.j.I.E.P.e.m [.[.[.[.[.[.[.[.[.[.[.[.[.[.[.[.[.[.[.[.[.[.[.[.[.",
"[.[.[.[.[.[.[.[.[.[.[.[.[.[.[.[.[.[.[.[.[.[.[.[.[.L.R.!.`.~.c.6.s.K._.]./.d.Y [.[.[.[.[.[.[.[.[.[.[.[.[.[.[.[.[.[.[.[.[.[.[.[.[.",
"[.[.[.[.[.[.[.[.[.[.[.[.[.[.[.[.[.[.[.[.[.[.[.[.[.Y.T.Q.).W.z.2.g.S.(.'.^.y.W [.[.[.[.[.[.[.[.[.[.[.[.[.[.[.[.[.[.[.[.[.[.[.[.[.",
"[.[.[.[.[.[.[.[.[.[.[.[.[.[.[.[.[.[.[.[.[.[.[.[.[.f.M.B.n.v.4 < 3 5 b.J.A.7.T [.[.[.[.[.[.[.[.[.[.[.[.[.[.[.[.[.[.[.[.[.[.[.[.[.",
"[.[.[.[.[.[.[.[.[.[.[.[.[.[.[.[.[.[.[.[.[.[.[.[.[.u f 2 & o X   . O # = d P ^ [.[.[.[.[.[.[.[.[.[.[.[.[.[.[.[.[.[.[.[.[.[.[.[.[.",
"[.[.[.[.[.[.[.[.[.[.[.[.[.[.[.[.[.[.[.[.[.[.[.M v b i 6 $ + @ @ @ % $ - r ~ ] W N z e j j [.[.[.[.[.[.[.[.[.[.[.[.[.[.[.[.[.[.[.",
"[.[.[.[.[.[.[.[.[.[.[.[.[.[.[.[.[.[.[.[.[.F F T T H K t ; * > > > , : 1 p | O.) F x j z z j [.[.[.[.[.[.[.[.[.[.[.[.[.[.[.[.[.[.",
"[.[.[.[.[.[.[.[.[.[.[.[.[.[.[.[.[.[.[.[.[.Q Q ) ` _ / I y a s s s 7 y p L @.#...) F Z Z Z N c [.[.[.[.[.[.[.[.[.[.[.[.[.[.[.[.[.",
"[.[.[.[.[.[.[.[.[.[.[.[.[.[.[.[.[.[.[.[.[.) ' ..#.#.#.] [ { { { { { [ } @.#.=.#.#.#.O.O...` R [.[.[.[.[.[.[.[.[.[.[.[.[.[.[.[.[.",
"[.[.[.[.[.[.[.[.[.[.[.[.[.[.[.[.[.[.[.Q ' ....#.=.=.=.=.=.=.=.=.=.=.=.=.=.=.#.=.=.=.=.=.*...) [.[.[.[.[.[.[.[.[.[.[.[.[.[.[.[.[.",
"[.[.[.[.[.[.[.[.[.[.[.[.[.[.[.[.[.x Z ' #.#.#.=.=.=.#.#.#.#.#.#.#.#.#.#.#.#.=.=.=.*.#.=.#...) [.[.[.[.[.[.[.[.[.[.[.[.[.[.[.[.[.",
"[.[.[.[.[.[.[.[.[.[.[.[.[.[.[.[.[.x F ..=.#.O.....O.$.*.#.#.#.#.#.#.#.#.#.=.#.O...O.#.#.#...) [.[.[.[.[.[.[.[.[.[.[.[.[.[.[.[.[.",
"[.[.[.[.[.[.[.[.[.[.[.[.[.[.[.[.[.x F ..#.' ! R G ) #.=.#.*.=.=.=.=.=.#.=.#...( Q ) ' #.#...) [.[.[.[.[.[.[.[.[.[.[.[.[.[.[.[.[.",
"[.[.[.[.[.[.[.[.[.[.[.[.[.[.[.[.[.x F ..#.) D M n Q #.=.#.=.=.=.=.=.=.#.#.=...E A Q ) ..#...) [.[.[.[.[.[.[.[.[.[.[.[.[.[.[.[.[.",
"[.[.[.[.[.[.[.[.[.[.[.[.[.[.[.[.[.x F ..#.! B k h T #.=.#.*.=.=.=.=.=.#.#.$...[.C F Q ..#...) [.[.[.[.[.[.[.[.[.[.[.[.[.[.[.[.[.",
"[.[.[.[.[.[.[.[.[.[.[.[.[.[.[.[.[.x F ..#.Q [.[.q A #.=.#.=.=.=.=.=.=.#.=.#...[.[.Z T ' #...) [.[.[.[.[.[.[.[.[.[.[.[.[.[.[.[.[.",
"[.[.[.[.[.[.[.[.[.[.[.[.[.[.[.[.[.x F ..#.Q [.[.0 A #.=.#.=.=.=.=.=.=.#.=.#...[.[.Z T ' #...) [.[.[.[.[.[.[.[.[.[.[.[.[.[.[.[.[.",
"[.[.[.[.[.[.[.[.[.[.[.[.[.[.[.[.[.x F ..#.R [.[.q A #.=.#.=.=.=.=.=.=.#.=.#...[.[.Z T ' #...) [.[.[.[.[.[.[.[.[.[.[.[.[.[.[.[.[.",
"[.[.[.[.[.[.[.[.[.[.[.[.[.[.[.[.[.x F ..#.R [.[.q A #.=.#.=.=.=.=.=.=.#.=.#...[.[.Z T ' #...) [.[.[.[.[.[.[.[.[.[.[.[.[.[.[.[.[.",
"[.[.[.[.[.[.[.[.[.[.[.[.[.[.[.[.[.x F ..#.R [.[.q A #.=.#.=.=.=.=.=.=.#.=.#...[.[.Z T ' #...) [.[.[.[.[.[.[.[.[.[.[.[.[.[.[.[.[.",
"[.[.[.[.[.[.[.[.[.[.[.[.[.[.[.[.[.x F ..#.R [.[.q A #.=.#.=.=.=.=.=.=.#.=.#...[.[.Z T ' #...) [.[.[.[.[.[.[.[.[.[.[.[.[.[.[.[.[.",
"[.[.[.[.[.[.[.[.[.[.[.[.[.[.[.[.[.x F ..#.R [.[.q A #.=.#.=.=.=.=.=.=.#.=.#...[.[.Z T ' #...) [.[.[.[.[.[.[.[.[.[.[.[.[.[.[.[.[.",
"[.[.[.[.[.[.[.[.[.[.[.[.[.[.[.[.[.x F ..#.R [.[.q A #.=.#.=.=.=.=.=.=.#.=.#...[.[.Z T ' #...) [.[.[.[.[.[.[.[.[.[.[.[.[.[.[.[.[.",
"[.[.[.[.[.[.[.[.[.[.[.[.[.[.[.[.[.x F ..#.R [.[.q A #.=.#.=.=.=.=.=.=.#.=.#...[.[.Z T ' #...) [.[.[.[.[.[.[.[.[.[.[.[.[.[.[.[.[.",
"[.[.[.[.[.[.[.[.[.[.[.[.[.[.[.[.[.x F ..#.R [.[.q A #.=.#.=.=.=.=.=.=.#.=.#...[.[.Z T ' #...) [.[.[.[.[.[.[.[.[.[.[.[.[.[.[.[.[.",
"[.[.[.[.[.[.[.[.[.[.[.[.[.[.[.[.[.x F ..#.R [.[.q A #.=.#.=.=.=.=.=.=.#.=.#...[.[.Z T ' #...) [.[.[.[.[.[.[.[.[.[.[.[.[.[.[.[.[.",
"[.[.[.[.[.[.[.[.[.[.[.[.[.[.[.[.[.x F ..#.R [.[.q A #.=.#.#.#.#.#.#.#.#.=.#...[.[.Z T ' #...) [.[.[.[.[.[.[.[.[.[.[.[.[.[.[.[.[.",
"[.[.[.[.[.[.[.[.[.[.[.[.[.[.[.[.[.x F ..#.R [.[.q A #.=.#.=.=.=.=.=.=.#.=.#...[.[.Z T ' #...) [.[.[.[.[.[.[.[.[.[.[.[.[.[.[.[.[.",
"[.[.[.[.[.[.[.[.[.[.[.[.[.[.[.[.[.x F ..#.R [.[.q A #.=.#.#.#.#.#.#.#.=.#.#...[.[.Z T ' #...) [.[.[.[.[.[.[.[.[.[.[.[.[.[.[.[.[.",
"[.[.[.[.[.[.[.[.[.[.[.[.[.[.[.[.[.x F ..#.R [.[.q A #.#.' ` ' ' ) ) O.#.=.#...[.[.Z T ' #...) [.[.[.[.[.[.[.[.[.[.[.[.[.[.[.[.[.",
"[.[.[.[.[.[.[.[.[.[.[.[.[.[.[.[.[.x F ..#.R [.[.q A #...Q A [.[.[.c ) #.=.*...[.[.Z T ' #...) [.[.[.[.[.[.[.[.[.[.[.[.[.[.[.[.[.",
"[.[.[.[.[.[.[.[.[.[.[.[.[.[.[.[.[.x F ..#.Q [.[.0 A #.' R B [.[.[.[.! #.=.#...[.[.x M T Q T [.[.[.[.[.[.[.[.[.[.[.[.[.[.[.[.[.[.",
"[.[.[.[.[.[.[.[.[.[.[.[.[.[.[.[.[.x F ..#.Q [.[.0 A #.' R Z [.[.[.[.! #.=.#.O.[.[.[.8 9 [.[.[.[.[.[.[.[.[.[.[.[.[.[.[.[.[.[.[.[.",
"[.[.[.[.[.[.[.[.[.[.[.[.[.[.[.[.[.x Z ..O.Q [.[.0 A #.' R Z [.[.[.[.) #.=.$.O.[.[.[.[.[.[.[.[.[.[.[.[.[.[.[.[.[.[.[.[.[.[.[.[.[.",
"[.[.[.[.[.[.[.[.[.[.[.[.[.[.[.[.[.[.Z ' ' [.[.[.q A #.' R Z [.[.[.[.) #.=.$.O.[.[.[.[.[.[.[.[.[.[.[.[.[.[.[.[.[.[.[.[.[.[.[.[.[.",
"[.[.[.[.[.[.[.[.[.[.[.[.[.[.[.[.[.[.[.[.[.[.[.[.0 A #.' R Z [.[.[.[.) #.=.$.O.[.[.[.[.[.[.[.[.[.[.[.[.[.[.[.[.[.[.[.[.[.[.[.[.[.",
"[.[.[.[.[.[.[.[.[.[.[.[.[.[.[.[.[.[.[.[.[.[.[.[.0 A #.' R Z [.[.[.[.) #.=.$.O.[.[.[.[.[.[.[.[.[.[.[.[.[.[.[.[.[.[.[.[.[.[.[.[.[.",
"[.[.[.[.[.[.[.[.[.[.[.[.[.[.[.[.[.[.[.[.[.[.[.[.0 A #.' R Z [.[.[.[.) #.=.$.O.[.[.[.[.[.[.[.[.[.[.[.[.[.[.[.[.[.[.[.[.[.[.[.[.[.",
"[.[.[.[.[.[.[.[.[.[.[.[.[.[.[.[.[.[.[.[.[.[.[.[.0 A #.' R Z [.[.[.[.) #.=.$.O.[.[.[.[.[.[.[.[.[.[.[.[.[.[.[.[.[.[.[.[.[.[.[.[.[.",
"[.[.[.[.[.[.[.[.[.[.[.[.[.[.[.[.[.[.[.[.[.[.[.[.0 A #.' R Z [.[.[.[.) #.=.$.O.[.[.[.[.[.[.[.[.[.[.[.[.[.[.[.[.[.[.[.[.[.[.[.[.[.",
"[.[.[.[.[.[.[.[.[.[.[.[.[.[.[.[.[.[.[.[.[.[.[.[.0 A #.' R Z [.[.[.[.) #.=.$.O.[.[.[.[.[.[.[.[.[.[.[.[.[.[.[.[.[.[.[.[.[.[.[.[.[.",
"[.[.[.[.[.[.[.[.[.[.[.[.[.[.[.[.[.[.[.[.[.[.[.[.0 A #.' R Z [.[.[.[.) #.=.$.O.[.[.[.[.[.[.[.[.[.[.[.[.[.[.[.[.[.[.[.[.[.[.[.[.[.",
"[.[.[.[.[.[.[.[.[.[.[.[.[.[.[.[.[.[.[.[.[.[.[.[.0 A #.' R Z [.[.[.[.) #.=.$.O.[.[.[.[.[.[.[.[.[.[.[.[.[.[.[.[.[.[.[.[.[.[.[.[.[.",
"[.[.[.[.[.[.[.[.[.[.[.[.[.[.[.[.[.[.[.[.[.[.[.[.0 A #.' R Z [.[.[.[.) #.=.$.O.[.[.[.[.[.[.[.[.[.[.[.[.[.[.[.[.[.[.[.[.[.[.[.[.[.",
"[.[.[.[.[.[.[.[.[.[.[.[.[.[.[.[.[.[.[.[.[.[.[.[.l Q #...Q T [.[.[.[.) #.=.$.O.[.[.[.[.[.[.[.[.[.[.[.[.[.[.[.[.[.[.[.[.[.[.[.[.[.",
"[.[.[.[.[.[.[.[.[.[.[.[.[.[.[.[.[.[.[.[.[.[.[.Z Q ' #.#.' ) [.[.[.[.) #.=.$.O.[.[.[.[.[.[.[.[.[.[.[.[.[.[.[.[.[.[.[.[.[.[.[.[.[.",
"[.[.[.[.[.[.[.[.[.[.[.[.[.[.[.[.[.[.[.[.[.[.x Q O.#.$.#.#...[.[.[.[.) #.=.$.O.[.[.[.[.[.[.[.[.[.[.[.[.[.[.[.[.[.[.[.[.[.[.[.[.[.",
"[.[.[.[.[.[.[.[.[.[.[.[.[.[.[.[.[.[.[.[.[.[.n ) #.$.*.=.#.O.[.[.[.[.) #.=.$.O.[.[.[.[.[.[.[.[.[.[.[.[.[.[.[.[.[.[.[.[.[.[.[.[.[.",
"[.[.[.[.[.[.[.[.[.[.[.[.[.[.[.[.[.[.[.[.[.[.n ) #.#.#.#.#.O.[.[.[.[.) #.=.$.O.[.[.[.[.[.[.[.[.[.[.[.[.[.[.[.[.[.[.[.[.[.[.[.[.[.",
"[.[.[.[.[.[.[.[.[.[.[.[.[.[.[.[.[.[.[.[.[.[.[.F ) ) ) ) ) ! [.[.[.[.) #.=.$.O.[.[.[.[.[.[.[.[.[.[.[.[.[.[.[.[.[.[.[.[.[.[.[.[.[.",
"[.[.[.[.[.[.[.[.[.[.[.[.[.[.[.[.[.[.[.[.[.[.[.c Z Z Z Z Z Z [.[.[.[.) #.=.$.O.[.[.[.[.[.[.[.[.[.[.[.[.[.[.[.[.[.[.[.[.[.[.[.[.[.",
"[.[.[.[.[.[.[.[.[.[.[.[.[.[.[.[.[.[.[.[.[.[.[.[.[.[.[.[.[.[.[.[.[.c ) #.=.#.O.[.[.[.[.[.[.[.[.[.[.[.[.[.[.[.[.[.[.[.[.[.[.[.[.[.",
"[.[.[.[.[.[.[.[.[.[.[.[.[.[.[.[.[.[.[.[.[.[.[.[.[.[.[.[.[.[.[.[.[.S ` #.=.#...Q [.[.[.[.[.[.[.[.[.[.[.[.[.[.[.[.[.[.[.[.[.[.[.[.",
"[.[.[.[.[.[.[.[.[.[.[.[.[.[.[.[.[.[.[.[.[.[.[.[.[.[.[.[.[.[.[.[.Z ) ..#.=.#.#.` A [.[.[.[.[.[.[.[.[.[.[.[.[.[.[.[.[.[.[.[.[.[.[.",
"[.[.[.[.[.[.[.[.[.[.[.[.[.[.[.[.[.[.[.[.[.[.[.[.[.[.[.[.[.[.[.[.Q O.#.=.*.=.#.#.Q [.[.[.[.[.[.[.[.[.[.[.[.[.[.[.[.[.[.[.[.[.[.[.",
"[.[.[.[.[.[.[.[.[.[.[.[.[.[.[.[.[.[.[.[.[.[.[.[.[.[.[.[.[.[.[.[.Q #.$.#.$.#.#.=.) [.[.[.[.[.[.[.[.[.[.[.[.[.[.[.[.[.[.[.[.[.[.[.",
"[.[.[.[.[.[.[.[.[.[.[.[.[.[.[.[.[.[.[.[.[.[.[.[.[.[.[.[.[.[.[.[.Q O.#.#.#.#.#.$.! [.[.[.[.[.[.[.[.[.[.[.[.[.[.[.[.[.[.[.[.[.[.[.",
"[.[.[.[.[.[.[.[.[.[.[.[.[.[.[.[.[.[.[.[.[.[.[.[.[.[.[.[.[.[.[.[.Q O.+.O.O.O.O.$.! [.[.[.[.[.[.[.[.[.[.[.[.[.[.[.[.[.[.[.[.[.[.[."
};
