/* XPM */
static char *result[] = {
/* columns rows colors chars-per-pixel */
"64 64 198 2 ",
"   c #431C5A",
".  c #421D5A",
"X  c #431D5A",
"o  c #431F5A",
"O  c #441B5D",
"+  c #441B5E",
"@  c #451E5D",
"#  c #461F5F",
"$  c #461A61",
"%  c #471A61",
"&  c #4A1966",
"*  c #4A1A67",
"=  c #4D196A",
"-  c #4D196B",
";  c #511F6D",
":  c #521D6F",
">  c #531672",
",  c #531574",
"<  c #511870",
"1  c #561B75",
"2  c #59157A",
"3  c #59147D",
"4  c #5C197E",
"5  c #492062",
"6  c #572576",
"7  c #582477",
"8  c #613B7D",
"9  c #63427D",
"0  c #5B0081",
"q  c #5C0082",
"w  c #5C0083",
"e  c #5F0F85",
"r  c #5D1182",
"t  c #5E1183",
"y  c #600487",
"u  c #600F86",
"i  c #610189",
"p  c #62008A",
"a  c #63028B",
"s  c #64028B",
"d  c #62008C",
"f  c #63008C",
"g  c #64008D",
"h  c #65008D",
"j  c #64018D",
"k  c #65008E",
"l  c #65018E",
"z  c #66008F",
"x  c #620D89",
"c  c #640D8B",
"v  c #66098F",
"b  c #660B8E",
"n  c #640C8C",
"m  c #640D8C",
"M  c #601586",
"N  c #64118A",
"B  c #65198A",
"V  c #660090",
"C  c #670090",
"Z  c #670091",
"A  c #680091",
"S  c #680092",
"D  c #690092",
"F  c #680192",
"G  c #680093",
"H  c #690093",
"J  c #680094",
"K  c #690094",
"L  c #690095",
"P  c #690195",
"I  c #6A0094",
"U  c #6A0095",
"Y  c #6B0095",
"T  c #6A0096",
"R  c #6B0096",
"E  c #6B0196",
"W  c #6A0097",
"Q  c #6B0097",
"!  c #6C0096",
"~  c #6C0097",
"^  c #6A0794",
"/  c #6B0695",
"(  c #6A0795",
")  c #6B0496",
"_  c #6B0796",
"`  c #6D0797",
"'  c #6C0098",
"]  c #6D0098",
"[  c #6C0099",
"{  c #6D0099",
"}  c #6D0199",
"|  c #6E0099",
" . c #6D0298",
".. c #6D0399",
"X. c #6E0399",
"o. c #6D009A",
"O. c #6E009A",
"+. c #6F009A",
"@. c #6E009B",
"#. c #6F009B",
"$. c #6F019B",
"%. c #6E029A",
"&. c #6E029B",
"*. c #6F009C",
"=. c #6F019C",
"-. c #6E089A",
";. c #6D0C98",
":. c #70009C",
">. c #70009D",
",. c #71009D",
"<. c #70019D",
"1. c #70009E",
"2. c #71009E",
"3. c #70019E",
"4. c #70049D",
"5. c #70059D",
"6. c #70069D",
"7. c #70089D",
"8. c #71089D",
"9. c #71099D",
"0. c #710B9D",
"q. c #691791",
"w. c #6B1295",
"e. c #6C1596",
"r. c #6C1696",
"t. c #6B1994",
"y. c #6C1A94",
"u. c #6C1996",
"i. c #6E1098",
"p. c #6F1C99",
"a. c #70109C",
"s. c #71179D",
"d. c #73169E",
"f. c #72199C",
"g. c #66258B",
"h. c #672988",
"j. c #6A2F8B",
"k. c #692C8E",
"l. c #6F2E93",
"z. c #6F2997",
"x. c #71239A",
"c. c #712998",
"v. c #712F98",
"b. c #722E9A",
"n. c #6E3390",
"m. c #713795",
"M. c #74309C",
"N. c #74339C",
"B. c #743A98",
"V. c #753D99",
"C. c #753E99",
"Z. c #7627A0",
"A. c #6D418C",
"S. c #6C5083",
"D. c #73528C",
"F. c #735B89",
"G. c #744395",
"H. c #744595",
"J. c #744D92",
"K. c #734894",
"L. c #78439C",
"P. c #794F98",
"I. c #7C4A9E",
"U. c #765490",
"Y. c #785294",
"T. c #775990",
"R. c #7A5D92",
"E. c #7B5E93",
"W. c #7C579A",
"Q. c #7B6391",
"!. c #825F9F",
"~. c #806498",
"^. c #816699",
"/. c #836B9A",
"(. c #866F9B",
"). c #886F9F",
"_. c #88719D",
"`. c #8156A1",
"'. c #8458A4",
"]. c #8561A3",
"[. c #8B6BA7",
"{. c #8964A9",
"}. c #8D6AAC",
"|. c #8F6DAD",
" X c #8E70A7",
".X c #8F7AA4",
"XX c #9377AC",
"oX c #967AAF",
"OX c #977CAF",
"+X c #997DB1",
"@X c #9A7FB1",
"#X c #9885AB",
"$X c #9B81B1",
"%X c #9E88B4",
"&X c #A28CB8",
"*X c #A794BA",
"=X c #AC99BF",
"-X c None",
/* pixels */
"-X-X-X-X-X-X-X-X-X-X-X-X-X-X-X-X-X-X-X-X-X-X-X-X-X-X-X~ { *.*.*.*.*.*.*.@.U -X-X-X-X-X-X-X-X-X-X-X-X-X-X-X-X-X-X-X-X-X-X-X-X-X-X",
"-X-X-X-X-X-X-X-X-X-X-X-X-X-X-X-X-X-X-X-X-X-X-X-X-X-X! | #.>.>.>.>.>.>.>.:.Q C -X-X-X-X-X-X-X-X-X-X-X-X-X-X-X-X-X-X-X-X-X-X-X-X-X",
"-X-X-X-X-X-X-X-X-X-X-X-X-X-X-X-X-X-X-X-X-X-X-X-X-X-X~ #.:.>.2.2.2.2.2.2.>.O.Q z -X-X-X-X-X-X-X-X-X-X-X-X-X-X-X-X-X-X-X-X-X-X-X-X",
"-X-X-X-X-X-X-X-X-X-X-X-X-X-X-X-X-X-X-X-X-X-X-X-X-Xs ` 7.8.8.5.3.>.<.4.9.0.6.*.S -X-X-X-X-X-X-X-X-X-X-X-X-X-X-X-X-X-X-X-X-X-X-X-X",
"-X-X-X-X-X-X-X-X-X-X-X-X-X-X-X-X-X-X-X-X-X-X-X-X-XB m.C.V.B.b.a.-.e.z.L.I.N.;.l -X-X-X-X-X-X-X-X-X-X-X-X-X-X-X-X-X-X-X-X-X-X-X-X",
"-X-X-X-X-X-X-X-X-X-X-X-X-X-X-X-X-X-X-X-X-X-X-X-X-Xh.U.E.R.T.K.p.w.g.A.^.).P.q.y -X-X-X-X-X-X-X-X-X-X-X-X-X-X-X-X-X-X-X-X-X-X-X-X",
"-X-X-X-X-X-X-X-X-X-X-X-X-X-X-X-X-X-X-X-X-X-X-X-X-Xj.~._.(./.W.x.r.k.J..X#X!.t.a -X-X-X-X-X-X-X-X-X-X-X-X-X-X-X-X-X-X-X-X-X-X-X-X",
"-X-X-X-X-X-X-X-X-X-X-X-X-X-X-X-X-X-X-X-X-X-X-X-X-Xn. X$X@XoX{.Z.s.M.'.&X=X|.f.U -X-X-X-X-X-X-X-X-X-X-X-X-X-X-X-X-X-X-X-X-X-X-X-X",
"-X-X-X-X-X-X-X-X-X-X-X-X-X-X-X-X-X-X-X-X-X-X-X-Xd l.[.+XOXXX].c.u.v.`.%X*X}.d.{ -X-X-X-X-X-X-X-X-X-X-X-X-X-X-X-X-X-X-X-X-X-X-X-X",
"-X-X-X-X-X-X-X-X-X-X-X-X-X-X-X-X-X-XR R R R U U K y.G.Y.D.S.9 7 1 6 8 F.Q.H.i.' E R U -X-X-X-X-X-X-X-X-X-X-X-X-X-X-X-X-X-X-X-X-X",
"-X-X-X-X-X-X-X-X-X-X-X-X-X-X-X-X-X-X~ ~ ~ ~ R ~ { ) N 4 : # o X   . @ 5 ; M _  .] ' ~ R -X-X-X-X-X-X-X-X-X-X-X-X-X-X-X-X-X-X-X-X",
"-X-X-X-X-X-X-X-X-X-X-X-X-X-X-X-X-X~ @.#.#.#.O.O.#.} v e , % O + O O $ & > x X.$.#.#.@.O.~ -X-X-X-X-X-X-X-X-X-X-X-X-X-X-X-X-X-X-X",
"-X-X-X-X-X-X-X-X-X-X-X-X-X-X-X-X-X| >.>.>.>.>.>.>.$.( m 3 - * * * * = < 2 b =.>.>.>.>.:.#.] I -X-X-X-X-X-X-X-X-X-X-X-X-X-X-X-X-X",
"-X-X-X-X-X-X-X-X-X-X-X-X-X-X-X-X-XO.>.2.2.2.2.2.2.:...^ n t r r r r t u c / >.2.1.2.2.>.:.O.~ I -X-X-X-X-X-X-X-X-X-X-X-X-X-X-X-X",
"-X-X-X-X-X-X-X-X-X-X-X-X-X-X-X-X-XO.>.2.>.,.,.>.>.>.>.=.&.X.........X.X.%.=.>.2.,.,.2.2.,.*.{ R -X-X-X-X-X-X-X-X-X-X-X-X-X-X-X-X",
"-X-X-X-X-X-X-X-X-X-X-X-X-X-X-X-X-XO.>.2.2.>.#.@.@.#.>.2.2.2.2.2.2.2.2.2.2.2.,.>.:.:.:.>.,.>.| ~ -X-X-X-X-X-X-X-X-X-X-X-X-X-X-X-X",
"-X-X-X-X-X-X-X-X-X-X-X-X-X-X-X-X-XO.>.2.,.*.] ! ~ ' #.>.>.>.>.>.>.>.>.>.>.>.>.#.| | #.*.>.:.| ~ -X-X-X-X-X-X-X-X-X-X-X-X-X-X-X-X",
"-X-X-X-X-X-X-X-X-X-X-X-X-X-X-X-X-XO.>.2.,.#.! D H U O.>.2.>.>.>.>.>.>.>.>.2.>.#.] ] O.#.>.:.| ~ -X-X-X-X-X-X-X-X-X-X-X-X-X-X-X-X",
"-X-X-X-X-X-X-X-X-X-X-X-X-X-X-X-X-XO.>.2.2.*.-X-Xh V ' >.2.>.2.2.2.2.2.2.>.1.,.:.-XO.+.#.>.>.| ~ -X-X-X-X-X-X-X-X-X-X-X-X-X-X-X-X",
"-X-X-X-X-X-X-X-X-X-X-X-X-X-X-X-X-XO.>.2.2.:.-X-Xi g ~ >.2.>.2.2.2.2.2.2.2.>.2.>.-X-XO.#.>.>.| ~ -X-X-X-X-X-X-X-X-X-X-X-X-X-X-X-X",
"-X-X-X-X-X-X-X-X-X-X-X-X-X-X-X-X-XO.>.2.2.:.-X-Xi g ~ >.2.>.2.2.2.2.2.2.>.>.2.>.-X-XO.#.>.>.| ~ -X-X-X-X-X-X-X-X-X-X-X-X-X-X-X-X",
"-X-X-X-X-X-X-X-X-X-X-X-X-X-X-X-X-XO.>.2.2.:.-X-Xi g ~ >.2.>.2.2.2.2.2.2.2.>.2.>.-X-XO.#.>.>.| ~ -X-X-X-X-X-X-X-X-X-X-X-X-X-X-X-X",
"-X-X-X-X-X-X-X-X-X-X-X-X-X-X-X-X-XO.>.2.2.:.-X-Xi g ~ >.2.>.2.2.2.2.2.2.1.>.2.>.-X-XO.#.>.>.| ~ -X-X-X-X-X-X-X-X-X-X-X-X-X-X-X-X",
"-X-X-X-X-X-X-X-X-X-X-X-X-X-X-X-X-XO.>.2.2.:.-X-Xi g ~ >.2.>.2.2.2.2.2.2.1.>.2.>.-X-XO.#.>.>.| ~ -X-X-X-X-X-X-X-X-X-X-X-X-X-X-X-X",
"-X-X-X-X-X-X-X-X-X-X-X-X-X-X-X-X-XO.>.2.2.:.-X-Xi g ~ >.2.>.2.2.2.2.2.2.1.>.2.>.-X-XO.#.>.>.| ~ -X-X-X-X-X-X-X-X-X-X-X-X-X-X-X-X",
"-X-X-X-X-X-X-X-X-X-X-X-X-X-X-X-X-XO.>.2.2.:.-X-Xi g ~ >.2.>.2.2.2.2.2.2.1.>.2.>.-X-XO.#.>.>.| ~ -X-X-X-X-X-X-X-X-X-X-X-X-X-X-X-X",
"-X-X-X-X-X-X-X-X-X-X-X-X-X-X-X-X-XO.>.2.2.:.-X-Xi g ~ >.2.>.2.2.2.2.2.2.1.>.2.>.-X-XO.#.>.>.| ~ -X-X-X-X-X-X-X-X-X-X-X-X-X-X-X-X",
"-X-X-X-X-X-X-X-X-X-X-X-X-X-X-X-X-XO.>.2.2.:.-X-Xi g ~ >.2.>.2.2.2.2.2.2.1.>.2.>.-X-XO.#.>.>.| ~ -X-X-X-X-X-X-X-X-X-X-X-X-X-X-X-X",
"-X-X-X-X-X-X-X-X-X-X-X-X-X-X-X-X-XO.>.2.2.:.-X-Xi g ~ >.2.>.2.2.2.2.2.2.1.>.2.>.-X-XO.#.>.>.| ~ -X-X-X-X-X-X-X-X-X-X-X-X-X-X-X-X",
"-X-X-X-X-X-X-X-X-X-X-X-X-X-X-X-X-XO.>.2.2.:.-X-Xi g ~ >.2.>.2.2.2.2.2.2.1.>.2.>.-X-XO.#.>.>.| ~ -X-X-X-X-X-X-X-X-X-X-X-X-X-X-X-X",
"-X-X-X-X-X-X-X-X-X-X-X-X-X-X-X-X-XO.>.2.2.:.-X-Xi g ~ >.2.>.>.>.>.>.>.>.2.>.2.>.-X-XO.#.>.>.| ~ -X-X-X-X-X-X-X-X-X-X-X-X-X-X-X-X",
"-X-X-X-X-X-X-X-X-X-X-X-X-X-X-X-X-XO.>.2.2.:.-X-Xi g ~ >.2.2.2.2.2.2.2.,.>.>.2.>.-X-XO.#.>.>.| ~ -X-X-X-X-X-X-X-X-X-X-X-X-X-X-X-X",
"-X-X-X-X-X-X-X-X-X-X-X-X-X-X-X-X-XO.>.2.1.:.-X-Xi g ~ >.>.>.>.>.>.>.>.>.2.>.1.>.-X-XO.#.>.>.| ~ -X-X-X-X-X-X-X-X-X-X-X-X-X-X-X-X",
"-X-X-X-X-X-X-X-X-X-X-X-X-X-X-X-X-XO.>.2.2.:.-X-Xi g ~ >.:.#.+.#.#.#.*.>.2.2.>.O.-X-XO.#.>.>.| ~ -X-X-X-X-X-X-X-X-X-X-X-X-X-X-X-X",
"-X-X-X-X-X-X-X-X-X-X-X-X-X-X-X-X-XO.>.>.>.:.-X-Xi g ~ >.#.] ] ] ] ] O.*.>.2.>.' -X-X{ #.>.>.| ~ -X-X-X-X-X-X-X-X-X-X-X-X-X-X-X-X",
"-X-X-X-X-X-X-X-X-X-X-X-X-X-X-X-X-X' #.#.#.O.-X-Xi g ~ >.{ K K -X-XU ~ *.1.2.>.R -X-X] #.>.>.| ~ -X-X-X-X-X-X-X-X-X-X-X-X-X-X-X-X",
"-X-X-X-X-X-X-X-X-X-X-X-X-X-X-X-X-X-X{ { { ' -X-Xi g ~ >.Q k -X-X-X-XS #.,.2.>.K -X-X' #.>.:.| ~ -X-X-X-X-X-X-X-X-X-X-X-X-X-X-X-X",
"-X-X-X-X-X-X-X-X-X-X-X-X-X-X-X-X-X-X' ' ' -X-X-Xi g ~ >.R f -X-X-X-X-XO.,.2.>.G -X-X' #.>.:.| ! -X-X-X-X-X-X-X-X-X-X-X-X-X-X-X-X",
"-X-X-X-X-X-X-X-X-X-X-X-X-X-X-X-X-X-X-X-X-X-X-X-Xi g ~ >.R f -X-X-X-X-XO.,.2.>.G -X-X' *.>.>.| ~ -X-X-X-X-X-X-X-X-X-X-X-X-X-X-X-X",
"-X-X-X-X-X-X-X-X-X-X-X-X-X-X-X-X-X-X-X-X-X-X-X-Xi g ~ >.R f -X-X-X-X-XO.,.2.>.G -X-XY O.@.O.~ U -X-X-X-X-X-X-X-X-X-X-X-X-X-X-X-X",
"-X-X-X-X-X-X-X-X-X-X-X-X-X-X-X-X-X-X-X-X-X-X-X-Xi g ~ >.R f -X-X-X-X-XO.,.2.>.H -X-X-X-XZ Z k -X-X-X-X-X-X-X-X-X-X-X-X-X-X-X-X-X",
"-X-X-X-X-X-X-X-X-X-X-X-X-X-X-X-X-X-X-X-X-X-X-X-Xi g ~ >.R f -X-X-X-X-XO.,.2.>.H -X-X-X-X-X-X-X-X-X-X-X-X-X-X-X-X-X-X-X-X-X-X-X-X",
"-X-X-X-X-X-X-X-X-X-X-X-X-X-X-X-X-X-X-X-X-X-X-X-Xi g ~ >.R f -X-X-X-X-XO.,.2.>.H -X-X-X-X-X-X-X-X-X-X-X-X-X-X-X-X-X-X-X-X-X-X-X-X",
"-X-X-X-X-X-X-X-X-X-X-X-X-X-X-X-X-X-X-X-X-X-X-X-Xi g ~ >.R f -X-X-X-X-XO.,.2.>.H -X-X-X-X-X-X-X-X-X-X-X-X-X-X-X-X-X-X-X-X-X-X-X-X",
"-X-X-X-X-X-X-X-X-X-X-X-X-X-X-X-X-X-X-X-X-X-X-X-Xi g ~ >.R f -X-X-X-X-XO.,.2.>.H -X-X-X-X-X-X-X-X-X-X-X-X-X-X-X-X-X-X-X-X-X-X-X-X",
"-X-X-X-X-X-X-X-X-X-X-X-X-X-X-X-X-X-X-X-X-X-X-X-Xi g ~ >.R f -X-X-X-X-XO.,.2.>.H -X-X-X-X-X-X-X-X-X-X-X-X-X-X-X-X-X-X-X-X-X-X-X-X",
"-X-X-X-X-X-X-X-X-X-X-X-X-X-X-X-X-X-X-X-X-X-X-X-Xi g ~ >.R f -X-X-X-X-XO.,.2.>.H -X-X-X-X-X-X-X-X-X-X-X-X-X-X-X-X-X-X-X-X-X-X-X-X",
"-X-X-X-X-X-X-X-X-X-X-X-X-X-X-X-X-X-X-X-X-X-X-X-Xi g ~ >.R f -X-X-X-X-XO.,.2.>.H -X-X-X-X-X-X-X-X-X-X-X-X-X-X-X-X-X-X-X-X-X-X-X-X",
"-X-X-X-X-X-X-X-X-X-X-X-X-X-X-X-X-X-X-X-X-X-X-X-Xi g ~ >.R f -X-X-X-X-XO.,.2.>.H -X-X-X-X-X-X-X-X-X-X-X-X-X-X-X-X-X-X-X-X-X-X-X-X",
"-X-X-X-X-X-X-X-X-X-X-X-X-X-X-X-X-X-X-X-X-X-X-X-Xi g ~ >.R f -X-X-X-X-XO.,.2.>.H -X-X-X-X-X-X-X-X-X-X-X-X-X-X-X-X-X-X-X-X-X-X-X-X",
"-X-X-X-X-X-X-X-X-X-X-X-X-X-X-X-X-X-X-X-X-X-X-X-Xi g ~ >.R f -X-X-X-XA #.>.2.>.K -X-X-X-X-X-X-X-X-X-X-X-X-X-X-X-X-X-X-X-X-X-X-X-X",
"-X-X-X-X-X-X-X-X-X-X-X-X-X-X-X-X-X-X-X-X-X-X-X-Xi g ~ >.R f -X-X-X-XI #.1.2.>.U -X-X-X-X-X-X-X-X-X-X-X-X-X-X-X-X-X-X-X-X-X-X-X-X",
"-X-X-X-X-X-X-X-X-X-X-X-X-X-X-X-X-X-X-X-X-X-X-X-Xi g ~ >.R f -X-X-XF ~ *.1.2.>.~ k -X-X-X-X-X-X-X-X-X-X-X-X-X-X-X-X-X-X-X-X-X-X-X",
"-X-X-X-X-X-X-X-X-X-X-X-X-X-X-X-X-X-X-X-X-X-X-X-Xi g ~ >.R f w -X-X~ #.>.,.2.>.#.] R -X-X-X-X-X-X-X-X-X-X-X-X-X-X-X-X-X-X-X-X-X-X",
"-X-X-X-X-X-X-X-X-X-X-X-X-X-X-X-X-X-X-X-X-X-X-X-Xi g ~ >.R f 0 -X-XO.,.1.,.,.1.>.>.#.-X-X-X-X-X-X-X-X-X-X-X-X-X-X-X-X-X-X-X-X-X-X",
"-X-X-X-X-X-X-X-X-X-X-X-X-X-X-X-X-X-X-X-X-X-X-X-Xi g ~ >.R f 0 -X-XO.2.>.>.>.,.1.,.:.-X-X-X-X-X-X-X-X-X-X-X-X-X-X-X-X-X-X-X-X-X-X",
"-X-X-X-X-X-X-X-X-X-X-X-X-X-X-X-X-X-X-X-X-X-X-X-Xi j ~ :.R f q -X-XO.2.>.2.2.2.1.,.#.-X-X-X-X-X-X-X-X-X-X-X-X-X-X-X-X-X-X-X-X-X-X",
"-X-X-X-X-X-X-X-X-X-X-X-X-X-X-X-X-X-X-X-X-X-X-X-XZ G { >.] S p -X-X] >.>.>.>.>.>.>.O.-X-X-X-X-X-X-X-X-X-X-X-X-X-X-X-X-X-X-X-X-X-X",
"-X-X-X-X-X-X-X-X-X-X-X-X-X-X-X-X-X-X-X-X-X-X-XT ~ { #.>.#.' S -X-X-X-X-X-X-X-X-X-X-X-X-X-X-X-X-X-X-X-X-X-X-X-X-X-X-X-X-X-X-X-X-X",
"-X-X-X-X-X-X-X-X-X-X-X-X-X-X-X-X-X-X-X-X-X-XP Q o.#.:.,.:.#.Y -X-X-X-X-X-X-X-X-X-X-X-X-X-X-X-X-X-X-X-X-X-X-X-X-X-X-X-X-X-X-X-X-X",
"-X-X-X-X-X-X-X-X-X-X-X-X-X-X-X-X-X-X-X-X-X-XT ' #.>.>.2.>.:.' -X-X-X-X-X-X-X-X-X-X-X-X-X-X-X-X-X-X-X-X-X-X-X-X-X-X-X-X-X-X-X-X-X",
"-X-X-X-X-X-X-X-X-X-X-X-X-X-X-X-X-X-X-X-X-X-XT ' #.>.>.>.>.>.] -X-X-X-X-X-X-X-X-X-X-X-X-X-X-X-X-X-X-X-X-X-X-X-X-X-X-X-X-X-X-X-X-X",
"-X-X-X-X-X-X-X-X-X-X-X-X-X-X-X-X-X-X-X-X-X-XL W o.@.#.#.#.#.~ -X-X-X-X-X-X-X-X-X-X-X-X-X-X-X-X-X-X-X-X-X-X-X-X-X-X-X-X-X-X-X-X-X",
"-X-X-X-X-X-X-X-X-X-X-X-X-X-X-X-X-X-X-X-X-X-XJ T [ @.O.+.+.O.R -X-X-X-X-X-X-X-X-X-X-X-X-X-X-X-X-X-X-X-X-X-X-X-X-X-X-X-X-X-X-X-X-X"
};
