/* XPM */
static char *result[] = {
/* columns rows colors chars-per-pixel */
"64 64 160 2 ",
"   c #4A1567",
".  c #4A1766",
"X  c #4B1967",
"o  c #4B1A67",
"O  c #4D176A",
"+  c #4F176C",
"@  c #4E186B",
"#  c #4E1B6A",
"$  c #4F1E6B",
"%  c #4F1F6B",
"&  c #4F196C",
"*  c #4F1A6C",
"=  c #50196C",
"-  c #50196D",
";  c #501A6D",
":  c #51186F",
">  c #51196F",
",  c #501370",
"<  c #511172",
"1  c #541375",
"2  c #531674",
"3  c #541774",
"4  c #551676",
"5  c #5A157C",
"6  c #562F6F",
"7  c #552871",
"8  c #5C3A74",
"9  c #5E337A",
"0  c #5F317C",
"q  c #62377D",
"w  c #5C1180",
"e  c #600886",
"r  c #600F86",
"t  c #620189",
"y  c #63008B",
"u  c #65008D",
"i  c #65008E",
"p  c #66008E",
"a  c #66008F",
"s  c #67008F",
"d  c #670A8F",
"f  c #650E8C",
"g  c #611A85",
"h  c #611E85",
"j  c #67158E",
"k  c #670090",
"l  c #670092",
"z  c #680091",
"x  c #680092",
"c  c #680093",
"v  c #690193",
"b  c #6A0094",
"n  c #6B0094",
"m  c #6A0194",
"M  c #6A0095",
"N  c #6B0095",
"B  c #6A0395",
"V  c #6A0096",
"C  c #6B0096",
"Z  c #6B0197",
"A  c #6C0096",
"S  c #6C0097",
"D  c #6D0097",
"F  c #6D0197",
"G  c #6C0397",
"H  c #6C0795",
"J  c #690A91",
"K  c #690992",
"L  c #6A0D93",
"P  c #6D0098",
"I  c #6D0099",
"U  c #6E0099",
"Y  c #6E0299",
"T  c #6E0399",
"R  c #6D009A",
"E  c #6E009A",
"W  c #6F009A",
"Q  c #6E009B",
"!  c #6F009B",
"~  c #6F039B",
"^  c #6E0499",
"/  c #6F049B",
"(  c #6F009C",
")  c #70009B",
"_  c #70009C",
"`  c #70009D",
"'  c #71009D",
"]  c #71019D",
"[  c #72009D",
"{  c #70029C",
"}  c #71039C",
"|  c #71029D",
" . c #71009E",
".. c #71019E",
"X. c #71009F",
"o. c #72009E",
"O. c #72019E",
"+. c #72009F",
"@. c #73009F",
"#. c #71029E",
"$. c #70049C",
"%. c #70079C",
"&. c #71069D",
"*. c #72099D",
"=. c #691491",
"-. c #6B1294",
";. c #6D1797",
":. c #691B90",
">. c #6D1C95",
",. c #70119B",
"<. c #73169D",
"1. c #711F99",
"2. c #711C9A",
"3. c #731A9E",
"4. c #652787",
"5. c #662F87",
"6. c #67208C",
"7. c #6F3C8F",
"8. c #6B2791",
"9. c #6F2197",
"0. c #6E2495",
"q. c #712698",
"w. c #74209E",
"e. c #742B9B",
"r. c #6F3A92",
"t. c #703195",
"y. c #713395",
"u. c #713196",
"i. c #723797",
"p. c #78369D",
"a. c #76399A",
"s. c #7200A0",
"d. c #7300A0",
"f. c #7D3FA2",
"g. c #6F4090",
"h. c #744196",
"j. c #774B96",
"k. c #785793",
"l. c #7A5895",
"z. c #7D5F94",
"x. c #7C5499",
"c. c #82629B",
"v. c #846B9A",
"b. c #835DA0",
"n. c #8E6CA9",
"m. c #8E78A4",
"M. c #917DA4",
"N. c #9173AB",
"B. c #9989AA",
"V. c #9B8BAA",
"C. c #9A82B1",
"Z. c #9D87B0",
"A. c #9F86B5",
"S. c #A493B4",
"D. c #A996BA",
"F. c #AA97BD",
"G. c #AF9DBF",
"H. c #B9ABC6",
"J. c #BDAECA",
"K. c None",
/* pixels */
"K.K.K.K.K.K.K.K.K.K.K.K.K.K.K.K.K.K.K.K.K.K.K.K.k k k k k k k k k k k K.K.K.K.K.K.K.K.K.K.K.K.K.K.K.K.K.K.K.K.K.K.K.K.K.K.K.K.K.",
"K.K.K.K.K.K.K.K.K.K.K.K.K.K.K.K.K.K.K.K.K.K.K.N N N N N N N N N N N N C K.K.K.K.K.K.K.K.K.K.K.K.K.K.K.K.K.K.K.K.K.K.K.K.K.K.K.K.",
"K.K.K.K.K.K.K.K.K.K.K.K.K.K.K.K.K.K.K.K.K.K.K.W ! _ _ _ _ _ _ _ _ _ _ ( K.K.K.K.K.K.K.K.K.K.K.K.K.K.K.K.K.K.K.K.K.K.K.K.K.K.K.K.",
"K.K.K.K.K.K.K.K.K.K.K.K.K.K.K.K.K.K.K.K.K.K.K.1.2.,.%.$.&.<.w.3.*. . . .K.K.K.K.K.K.K.K.K.K.K.K.K.K.K.K.K.K.K.K.K.K.K.K.K.K.K.K.",
"K.K.K.K.K.K.K.K.K.K.K.K.K.K.K.K.K.K.K.K.K.K.K.g.r.8.=.L -.t.h.i.;.Y ] +.K.K.K.K.K.K.K.K.K.K.K.K.K.K.K.K.K.K.K.K.K.K.K.K.K.K.K.K.",
"K.K.K.K.K.K.K.K.K.K.K.K.K.K.K.K.K.K.K.K.K.K.K.z.l.7.6.j :.j.c.x.0.G | d.K.K.K.K.K.K.K.K.K.K.K.K.K.K.K.K.K.K.K.K.K.K.K.K.K.K.K.K.",
"K.K.K.K.K.K.K.K.K.K.K.K.K.K.K.K.K.K.K.K.K.K.K.S.Z.b.u.>.q.N.D.C.p.I #.d.K.K.K.K.K.K.K.K.K.K.K.K.K.K.K.K.K.K.K.K.K.K.K.K.K.K.K.K.",
"K.K.K.K.K.K.K.K.K.K.K.K.K.K.K.K.K.K.K.K.K.K.K.H.G.n.a.9.e.A.J.F.f.R O.d.K.K.K.K.K.K.K.K.K.K.K.K.K.K.K.K.K.K.K.K.K.K.K.K.K.K.K.K.",
"K.K.K.K.K.K.K.K.K.K.K.K.K.K.K.K.K.K.K.K.K.K.K.B.M.k.5.h 4.v.V.m.y.B } @.K.K.K.K.K.K.K.K.K.K.K.K.K.K.K.K.K.K.K.K.K.K.K.K.K.K.K.K.",
"K.K.K.K.K.K.K.K.K.K.K.K.K.K.K.K.K.K.K.K.K.K.K.q 9 7 % # $ 6 8 0 g d / @.K.K.K.K.K.K.K.K.K.K.K.K.K.K.K.K.K.K.K.K.K.K.K.K.K.K.K.K.",
"K.K.K.K.K.K.K.K.K.K.K.K.K.K.K.K.K.K.K.K.K.K.K.< , O X o o .   1 r J ~ d. .' ' ' ' ' ' ' K.K.K.K.K.K.K.K.K.K.K.K.K.K.K.K.K.K.K.K.",
"K.K.K.K.K.K.K.K.K.K.K.K.K.K.K.K.K.K.K.K.K.K.K.4 3 > * & * * ; 5 f H { d.+.+.+.+.+.+.+.+.o._ K.K.K.K.K.K.K.K.K.K.K.K.K.K.K.K.K.K.",
"K.K.K.K.K.K.K.K.K.K.K.K.K.K.K.K.K.K.K.K.K.K.K.K.2 : - - = @ + w K ^ ] d.s.d.d.d.d.d.d.d.+.' K.K.K.K.K.K.K.K.K.K.K.K.K.K.K.K.K.K.",
"K.K.K.K.K.K.K.K.K.K.K.K.K.K.K.K.K.K.K.K.K.K.K.K.K.K.K.K.K.K.K.e T ..+.d.+.+.+.+.+.+.+.d.+.' K.K.K.K.K.K.K.K.K.K.K.K.K.K.K.K.K.K.",
"K.K.K.K.K.K.K.K.K.K.K.K.K.K.K.K.K.K.K.K.K.K.K.K.K.K.K.K.K.K.K.i ' d.+.s.@.d.d.d.+.@.+.d.+.' K.K.K.K.K.K.K.K.K.K.K.K.K.K.K.K.K.K.",
"K.K.K.K.K.K.K.K.K.K.K.K.K.K.K.K.K.K.K.K.K.K.K.K.K.K.K.K.K.K.K.k ' d.+.@.s.+.d.d.d.@.+.d.+.' K.K.K.K.K.K.K.K.K.K.K.K.K.K.K.K.K.K.",
"K.K.K.K.K.K.K.K.K.K.K.K.K.K.K.K.K.K.K.K.K.K.K.K.K.K.s s a y t b  .d.+.d.+.d.d.d.d.@.+.d.+.' K.K.K.K.K.K.K.K.K.K.K.K.K.K.K.K.K.K.",
"K.K.K.K.K.K.K.K.K.K.K.K.K.K.K.K.K.K.K.K.K.K.K.K.K.A E E E I D ! +.d.+.d.d.d.d.d.d.@.+.d.+.' K.K.K.K.K.K.K.K.K.K.K.K.K.K.K.K.K.K.",
"K.K.K.K.K.K.K.K.K.K.K.K.K.K.K.K.K.K.K.K.K.K.K.K.p ! +.+.+.+.o.+.+.d.+.d.d.d.d.d.d.@.+.d.+.' K.K.K.K.K.K.K.K.K.K.K.K.K.K.K.K.K.K.",
"K.K.K.K.K.K.K.K.K.K.K.K.K.K.K.K.K.K.K.K.K.K.K.K.K.E  . . ._ ! _ +.d.+.d.d.d.d.d.d.@.+.d.+.' K.K.K.K.K.K.K.K.K.K.K.K.K.K.K.K.K.K.",
"K.K.K.K.K.K.K.K.K.K.K.K.K.K.K.K.K.K.K.K.K.K.K.K.K.K.Q Q Q C x P o.d.+.s.d.d.d.d.d.@.+.d.+.' K.K.K.K.K.K.K.K.K.K.K.K.K.K.K.K.K.K.",
"K.K.K.K.K.K.K.K.K.K.K.K.K.K.K.K.K.K.K.K.K.K.K.K.K.K.K.K.K.K.K.M  .d.+.d.d.d.d.d.d.@.+.d.+.' K.K.K.K.K.K.K.K.K.K.K.K.K.K.K.K.K.K.",
"K.K.K.K.K.K.K.K.K.K.K.K.K.K.K.K.K.K.K.K.K.K.K.K.K.K.K.K.K.K.K.k  .d.+.d.d.d.d.d.d.@.+.d.+.' K.K.K.K.K.K.K.K.K.K.K.K.K.K.K.K.K.K.",
"K.K.K.K.K.K.K.K.K.K.K.K.K.K.K.K.K.K.K.K.K.K.K.K.K.K.K.K.K.K.K.n  .d.+.d.d.d.d.d.d.@.+.d.+.' K.K.K.K.K.K.K.K.K.K.K.K.K.K.K.K.K.K.",
"K.K.K.K.K.K.K.K.K.K.K.K.K.K.K.Z ! ' ' ' ' ' ' ' ' ' ' ' _ ! U ) +.d.+.@.d.d.d.d.d.@.+.d.+.' K.K.K.K.K.K.K.K.K.K.K.K.K.K.K.K.K.K.",
"K.K.K.K.K.K.K.K.K.K.K.K.K.K.V Z E _ _ _ _ _ _ _ _ _ _ _ _ _ _ ' +.d.+.d.d.d.d.d.d.@.+.d.+.' K.K.K.K.K.K.K.K.K.K.K.K.K.K.K.K.K.K.",
"K.K.K.K.K.K.K.K.K.K.K.K.K.K.c m P E U U U U U U U U U U U U E _ +.d.+.d.d.d.d.d.d.@.+.d.+.' K.K.K.K.K.K.K.K.K.K.K.K.K.K.K.K.K.K.",
"K.K.K.K.K.K.K.K.K.K.K.K.K.K.K.v A U P S D F D D D D F D D S A E o.d.+.d.d.d.d.d.d.@.+.d.+.' K.K.K.K.K.K.K.K.K.K.K.K.K.K.K.K.K.K.",
"K.K.K.K.K.K.K.K.K.K.K.K.K.K.K.K.K.K.K.K.K.K.K.K.K.K.K.K.K.K.u C  .d.+.+.d.d.d.d.d.@.+.d.+.' K.K.K.K.K.K.K.K.K.K.K.K.K.K.K.K.K.K.",
"K.K.K.K.K.K.K.K.K.K.K.K.K.K.K.K.K.K.K.K.K.K.K.K.K.K.K.K.K.K.K.k  .d.+.d.d.d.d.d.d.@.+.d.+.' K.K.K.K.K.K.K.K.K.K.K.K.K.K.K.K.K.K.",
"K.K.K.K.K.K.K.K.K.K.K.K.K.K.K.K.K.K.K.K.K.K.K.K.K.K.K.K.K.K.K.K. .d.+.d.d.d.d.d.d.@.+.d.+.' K.K.K.K.K.K.K.K.K.K.K.K.K.K.K.K.K.K.",
"K.K.K.K.K.K.K.K.K.K.K.K.K.K.K.K.K.K.K.K.K.K.K.K.K.K.K.K.K.K.K.K. .d.+.d.+.+.+.+.@.+.+.d.+.' K.K.K.K.K.K.K.K.K.K.K.K.K.K.K.K.K.K.",
"K.K.K.K.K.K.K.K.K.K.K.K.K.K.K.K.K.K.K.K.K.K.K.K.K.K.K.K.K.K.K.K. .d.+.+.+.+.+.+.+.+.+.d.+.' K.K.K.K.K.K.K.K.K.K.K.K.K.K.K.K.K.K.",
"K.K.K.K.K.K.K.K.K.K.K.K.K.K.K.K.K.K.K.K.K.K.K.K.K.K.K.K.K.K.K.K. .d.+.s.d.d.d.d.d.d.s.d.+.' K.K.K.K.K.K.K.K.K.K.K.K.K.K.K.K.K.K.",
"K.K.K.K.K.K.K.K.K.K.K.K.K.K.K.K.K.K.K.K.K.K.K.K.K.K.K.K.K.K.K.K. .d.+.@.+.+.+.+.+.+.@.d.+._ K.K.K.K.K.K.K.K.K.K.K.K.K.K.K.K.K.K.",
"K.K.K.K.K.K.K.K.K.K.K.K.K.K.K.K.K.K.K.K.K.K.K.K.K.K.K.K.K.K.K.K. .d.+.+.' ( ( ( ' o.o.@.o.W K.K.K.K.K.K.K.K.K.K.K.K.K.K.K.K.K.K.",
"K.K.K.K.K.K.K.K.K.K.K.K.K.K.K.K.K.K.K.K.K.K.K.K.K.K.K.K.K.K.K.K. .d.s.+.( K.K.K.) ' o.@.+.K.K.K.K.K.K.K.K.K.K.K.K.K.K.K.K.K.K.K.",
"K.K.K.K.K.K.K.K.K.K.K.K.K.K.K.K.K.K.K.K.K.K.K.K.K.K.K.K.K.K.K.K. .d.+.+.K.K.K.K.! '  .+.X.K.K.K.K.K.K.K.K.K.K.K.K.K.K.K.K.K.K.K.",
"K.K.K.K.K.K.K.K.K.K.K.K.K.K.K.K.K.K.K.K.K.K.K.K.K.K.K.K.K.K.K.K. .d.+.+.K.K.K.K.K._  .+.+.K.K.K.K.K.K.K.K.K.K.K.K.K.K.K.K.K.K.K.",
"K.K.K.K.K.K.K.K.K.K.K.K.K.K.K.K.K.K.K.K.K.K.K.K.K.K.K.K.K.K.K.K. .d.+.+.K.K.K.K.K._  .+.+.K.K.K.K.K.K.K.K.K.K.K.K.K.K.K.K.K.K.K.",
"K.K.K.K.K.K.K.K.K.K.K.K.K.K.K.K.K.K.K.K.K.K.K.K.K.K.K.K.K.K.K.K. .d.+.+.K.K.K.K.K._  .+.+.K.K.K.K.K.K.K.K.K.K.K.K.K.K.K.K.K.K.K.",
"K.K.K.K.K.K.K.K.K.K.K.K.K.K.K.K.K.K.K.K.K.K.K.K.K.K.K.K.K.K.K.K. .d.+.+.K.K.K.K.K._  .+.+.K.K.K.K.K.K.K.K.K.K.K.K.K.K.K.K.K.K.K.",
"K.K.K.K.K.K.K.K.K.K.K.K.K.K.K.K.K.K.K.K.K.K.K.K.K.K.K.K.K.K.K.K. .d.+.+.K.K.K.K.K._  .+.+.K.K.K.K.K.K.K.K.K.K.K.K.K.K.K.K.K.K.K.",
"K.K.K.K.K.K.K.K.K.K.K.K.K.K.K.K.K.K.K.K.K.K.K.K.K.K.K.K.K.K.K.K. .d.+.+.K.K.K.K.K._  .+.+.K.K.K.K.K.K.K.K.K.K.K.K.K.K.K.K.K.K.K.",
"K.K.K.K.K.K.K.K.K.K.K.K.K.K.K.K.K.K.K.K.K.K.K.K.K.K.K.K.K.K.K.K. .d.+.+.K.K.K.K.K._  .+.+.K.K.K.K.K.K.K.K.K.K.K.K.K.K.K.K.K.K.K.",
"K.K.K.K.K.K.K.K.K.K.K.K.K.K.K.K.K.K.K.K.K.K.K.K.K.K.K.K.K.K.K.K. .d.+.+.K.K.K.K.K._  .+.+.K.K.K.K.K.K.K.K.K.K.K.K.K.K.K.K.K.K.K.",
"K.K.K.K.K.K.K.K.K.K.K.K.K.K.K.K.K.K.K.K.K.K.K.K.K.K.K.K.K.K.K.K. .d.+.+.K.K.K.K.K._  .+.+.K.K.K.K.K.K.K.K.K.K.K.K.K.K.K.K.K.K.K.",
"K.K.K.K.K.K.K.K.K.K.K.K.K.K.K.K.K.K.K.K.K.K.K.K.K.K.K.K.K.K.K.a  .d.+.+.K.K.K.K.K._  .+.+.K.K.K.K.K.K.K.K.K.K.K.K.K.K.K.K.K.K.K.",
"K.K.K.K.K.K.K.K.K.K.K.K.K.K.K.K.K.K.K.K.K.K.K.K.K.K.K.K.K.K.K.K. .d.+.+.K.K.K.K.K._  .+.+.K.K.K.K.K.K.K.K.K.K.K.K.K.K.K.K.K.K.K.",
"K.K.K.K.K.K.K.K.K.K.K.K.K.K.K.K.K.K.K.K.K.K.K.K.K.K.K.K.K.K.K.z  .d.+.+.K.K.K.K.K._  .+.+.K.K.K.K.K.K.K.K.K.K.K.K.K.K.K.K.K.K.K.",
"K.K.K.K.K.K.K.K.K.K.K.K.K.K.K.K.K.K.K.K.K.K.K.K.K.K.K.K.K.K.l P o.d.d.+.E K.K.K.K._  .+.+.K.K.K.K.K.K.K.K.K.K.K.K.K.K.K.K.K.K.K.",
"K.K.K.K.K.K.K.K.K.K.K.K.K.K.K.K.K.K.K.K.K.K.K.K.K.K.K.K.K.K.Q ` +.d.d.o.U K.K.K.K._  .+.+.K.K.K.K.K.K.K.K.K.K.K.K.K.K.K.K.K.K.K.",
"K.K.K.K.K.K.K.K.K.K.K.K.K.K.K.K.K.K.K.K.K.K.K.K.K.K.K.K.K._ `  .+.s.d.o.E M K.K.K._  .+.+.K.K.K.K.K.K.K.K.K.K.K.K.K.K.K.K.K.K.K.",
"K.K.K.K.K.K.K.K.K.K.K.K.K.K.K.K.K.K.K.K.K.K.K.K.K.K.K.K.K. .+.+.@.@.@.+.! S K.K.K._  .+.+.K.K.K.K.K.K.K.K.K.K.K.K.K.K.K.K.K.K.K.",
"K.K.K.K.K.K.K.K.K.K.K.K.K.K.K.K.K.K.K.K.K.K.K.K.K.K.K.K.K.K.' [ ' ' ' ` E K.K.K.K._  .+.+.K.K.K.K.K.K.K.K.K.K.K.K.K.K.K.K.K.K.K.",
"K.K.K.K.K.K.K.K.K.K.K.K.K.K.K.K.K.K.K.K.K.K.K.K.K.K.K.K.K.K.U U U U E I C K.K.K.K._  .+.+.K.K.K.K.K.K.K.K.K.K.K.K.K.K.K.K.K.K.K.",
"K.K.K.K.K.K.K.K.K.K.K.K.K.K.K.K.K.K.K.K.K.K.K.K.K.K.K.K.K.K.S S S S S S K.K.K.K.W `  .+.+.K.K.K.K.K.K.K.K.K.K.K.K.K.K.K.K.K.K.K.",
"K.K.K.K.K.K.K.K.K.K.K.K.K.K.K.K.K.K.K.K.K.K.K.K.K.K.K.K.K.K.K.K.K.K.K.K.K.K.K.K.W  .o.+.o.) K.K.K.K.K.K.K.K.K.K.K.K.K.K.K.K.K.K.",
"K.K.K.K.K.K.K.K.K.K.K.K.K.K.K.K.K.K.K.K.K.K.K.K.K.K.K.K.K.K.K.K.K.K.K.K.K.K.K.N !  .+.d.+.' ) K.K.K.K.K.K.K.K.K.K.K.K.K.K.K.K.K.",
"K.K.K.K.K.K.K.K.K.K.K.K.K.K.K.K.K.K.K.K.K.K.K.K.K.K.K.K.K.K.K.K.K.K.K.K.K.K.K.S ) +.d.d.@.+.' K.K.K.K.K.K.K.K.K.K.K.K.K.K.K.K.K.",
"K.K.K.K.K.K.K.K.K.K.K.K.K.K.K.K.K.K.K.K.K.K.K.K.K.K.K.K.K.K.K.K.K.K.K.K.K.K.K.P ) +.+.+.+.@.o.E K.K.K.K.K.K.K.K.K.K.K.K.K.K.K.K.",
"K.K.K.K.K.K.K.K.K.K.K.K.K.K.K.K.K.K.K.K.K.K.K.K.K.K.K.K.K.K.K.K.K.K.K.K.K.K.K.S E ' o.o.o.o.' P K.K.K.K.K.K.K.K.K.K.K.K.K.K.K.K.",
"K.K.K.K.K.K.K.K.K.K.K.K.K.K.K.K.K.K.K.K.K.K.K.K.K.K.K.K.K.K.K.K.K.K.K.K.K.K.K.N U _ ' ' ' ' _ D K.K.K.K.K.K.K.K.K.K.K.K.K.K.K.K.",
"K.K.K.K.K.K.K.K.K.K.K.K.K.K.K.K.K.K.K.K.K.K.K.K.K.K.K.K.K.K.K.K.K.K.K.K.K.K.K.N U _ ` _ _ ` ) K.K.K.K.K.K.K.K.K.K.K.K.K.K.K.K.K."
};
