/* XPM */
static char *result[] = {
/* columns rows colors chars-per-pixel */
"64 64 183 2 ",
"   c #451B5D",
".  c #461A5F",
"X  c #471A5F",
"o  c #451C5D",
"O  c #471C5F",
"+  c #471A60",
"@  c #481961",
"#  c #481C62",
"$  c #4B1965",
"%  c #4D1669",
"&  c #4C156A",
"*  c #4E176B",
"=  c #4E146C",
"-  c #4E156C",
";  c #4D1968",
":  c #4E186B",
">  c #52146F",
",  c #530F73",
"<  c #540E73",
"1  c #550D75",
"2  c #540E74",
"3  c #580D79",
"4  c #511370",
"5  c #521770",
"6  c #531074",
"7  c #541375",
"8  c #561577",
"9  c #521970",
"0  c #5B117E",
"q  c #5B147E",
"w  c #591B79",
"e  c #5B217A",
"r  c #5B247A",
"t  c #5E2A7C",
"y  c #61337E",
"u  c #600085",
"i  c #620089",
"p  c #630089",
"a  c #63008A",
"s  c #64008B",
"d  c #64008C",
"f  c #65008C",
"g  c #65008D",
"h  c #66008D",
"j  c #66008F",
"k  c #67008F",
"l  c #620988",
"z  c #660A8F",
"x  c #670C8F",
"c  c #601084",
"v  c #681B8F",
"b  c #670090",
"n  c #680091",
"m  c #680092",
"M  c #690092",
"N  c #690093",
"B  c #6A0093",
"V  c #690591",
"C  c #6A0094",
"Z  c #6B0094",
"A  c #6B0095",
"S  c #6B0096",
"D  c #6B0196",
"F  c #6B0197",
"G  c #6C0096",
"H  c #6C0097",
"J  c #6D0097",
"K  c #690992",
"L  c #6C0098",
"P  c #6D0098",
"I  c #6D0198",
"U  c #6D0099",
"Y  c #6E0098",
"T  c #6E0099",
"R  c #6F0099",
"E  c #6D0398",
"W  c #6D009A",
"Q  c #6E009A",
"!  c #6F009A",
"~  c #6E019A",
"^  c #6E009B",
"/  c #6F009B",
"(  c #6E019B",
")  c #6F019B",
"_  c #6F009C",
"`  c #6F019C",
"'  c #6F029C",
"]  c #6D0998",
"[  c #6E0B99",
"{  c #6D0F98",
"}  c #70009B",
"|  c #70009C",
" . c #71009C",
".. c #70009D",
"X. c #71009D",
"o. c #70019D",
"O. c #72009D",
"+. c #70029D",
"@. c #71029D",
"#. c #71039D",
"$. c #71009E",
"%. c #71019E",
"&. c #71009F",
"*. c #72009E",
"=. c #72019E",
"-. c #72009F",
";. c #73009F",
":. c #70059D",
">. c #71049E",
",. c #72059E",
"<. c #71069E",
"1. c #700C9B",
"2. c #71089D",
"3. c #710D9D",
"4. c #710F9D",
"5. c #720D9E",
"6. c #730E9F",
"7. c #691691",
"8. c #6A1493",
"9. c #6B1494",
"0. c #6B1695",
"q. c #6A1E92",
"w. c #6E1398",
"e. c #6F109A",
"r. c #6F1C98",
"t. c #71129C",
"y. c #612184",
"u. c #612D81",
"i. c #66268B",
"p. c #67228D",
"a. c #692A8C",
"s. c #623180",
"d. c #653683",
"f. c #643880",
"g. c #6C378D",
"h. c #6A2691",
"j. c #6B2194",
"k. c #6F2397",
"l. c #6B2B90",
"z. c #6C2A92",
"x. c #722999",
"c. c #713D92",
"v. c #75339B",
"b. c #74359A",
"n. c #77389E",
"m. c #7200A0",
"M. c #7300A0",
"N. c #7411A0",
"B. c #6F4B89",
"V. c #71448E",
"C. c #734D8E",
"Z. c #734293",
"A. c #754596",
"S. c #754D91",
"D. c #774D95",
"F. c #774C96",
"G. c #7C509C",
"H. c #7D509D",
"J. c #7C44A0",
"K. c #7C44A1",
"L. c #806298",
"P. c #8352A4",
"I. c #8660A2",
"U. c #8767A0",
"Y. c #8760A4",
"T. c #896EA0",
"R. c #907BA3",
"E. c #927DA6",
"W. c #9073A9",
"Q. c #957BAB",
"!. c #9780AA",
"~. c #9B8BAB",
"^. c #9C8BAC",
"/. c #9E8EAC",
"(. c #9A83B1",
"). c #A18AB5",
"_. c #A291B1",
"`. c #A491B6",
"'. c #AB99BA",
"]. c #AE9CBF",
"[. c #BAADC4",
"{. c #BBADC8",
"}. c None",
/* pixels */
"}.}.}.}.}.}.}.}.}.}.}.}.}.}.}.}.}.}.}.}.}.}.}.}.}.}.P / / ! ! ! ! / / Y G }.}.}.}.}.}.}.}.}.}.}.}.}.}.}.}.}.}.}.}.}.}.}.}.}.}.}.",
"}.}.}.}.}.}.}.}.}.}.}.}.}.}.}.}.}.}.}.}.}.}.}.}.}.H Q | | | | | | | | ! U P }.}.}.}.}.}.}.}.}.}.}.}.}.}.}.}.}.}.}.}.}.}.}.}.}.}.",
"}.}.}.}.}.}.}.}.}.}.}.}.}.}.}.}.}.}.}.}.}.}.}.}.}./ ..-.-.-.-.-.-.-.-.$.../ }.}.}.}.}.}.}.}.}.}.}.}.}.}.}.}.}.}.}.}.}.}.}.}.}.}.",
"}.}.}.}.}.}.}.}.}.}.}.}.}.}.}.}.}.}.}.}.}.}.}.}.}.w.e.1.2.#.<.4.t.3.2.>.*...I }.}.}.}.}.}.}.}.}.}.}.}.}.}.}.}.}.}.}.}.}.}.}.}.}.",
"}.}.}.}.}.}.}.}.}.}.}.}.}.}.}.}.}.}.}.}.}.}.}.}.}.i.p.v 8.] { j.h.q.9.[ =.$.~ }.}.}.}.}.}.}.}.}.}.}.}.}.}.}.}.}.}.}.}.}.}.}.}.}.",
"}.}.}.}.}.}.}.}.}.}.}.}.}.}.}.}.}.}.}.}.}.}.}.}.B.C.V.g.l.0.k.A.D.c.z.r.,.*.) }.}.}.}.}.}.}.}.}.}.}.}.}.}.}.}.}.}.}.}.}.}.}.}.}.",
"}.}.}.}.}.}.}.}.}.}.}.}.}.}.}.}.}.}.}.}.}.}.}.}./._.!.U.G.x.J.(.`.W.H.n.6.$.) }.}.}.}.}.}.}.}.}.}.}.}.}.}.}.}.}.}.}.}.}.}.}.}.}.",
"}.}.}.}.}.}.}.}.}.}.}.}.}.}.}.}.}.}.}.}.}.}.}.}.}.[.'.Q.I.v.P.].{.).Y.K.N.$.' }.}.}.}.}.}.}.}.}.}.}.}.}.}.}.}.}.}.}.}.}.}.}.}.}.",
"}.}.}.}.}.}.}.}.}.}.}.}.}.}.}.}.}.}.}.}.}.}.}.}.}.~.R.L.S.a.Z.E.^.T.F.b.5.&.$.$.$.*.*.*.*.*.X. .}.}.}.}.}.}.}.}.}.}.}.}.}.}.}.}.",
"}.}.}.}.}.}.}.}.}.}.}.}.}.}.}.}.}.}.}.}.}.}.}.}.}.d.s.t r w e y f.u.y.7.:.-.-.-.-.;.;.;.;.;.*.$.X.}.}.}.}.}.}.}.}.}.}.}.}.}.}.}.",
"}.}.}.}.}.}.}.}.}.}.}.}.}.}.}.}.}.}.}.}.}.}.}.}.}.6 4 - * : * & = 7 0 z +.M.-.M.M.m.m.m.m.;.-.$.O.}.}.}.}.}.}.}.}.}.}.}.}.}.}.}.",
"}.}.}.}.}.}.}.}.}.}.}.}.}.}.}.}.}.}.}.}.}.}.}.}.}.5 ; O o   o o # 9 q x @.M.-.-.-.-.;.-.m.;.-.$.O.}.}.}.}.}.}.}.}.}.}.}.}.}.}.}.",
"}.}.}.}.}.}.}.}.}.}.}.}.}.}.}.}.}.}.}.}.}.}.}.}.}.> % @ X X + . $ 8 c K %.M.-.-.;.-.-.;.m.;.-.$.O.}.}.}.}.}.}.}.}.}.}.}.}.}.}.}.",
"}.}.}.}.}.}.}.}.}.}.}.}.}.}.}.}.}.}.}.}.}.}.}.}.}.}.1 2 < < 2 , 3 l V E -.M.-.-.M.M.M.;.m.;.-.$.O.}.}.}.}.}.}.}.}.}.}.}.}.}.}.}.",
"}.}.}.}.}.}.}.}.}.}.}.}.}.}.}.}.}.}.}.}.}.}.}.}.}.}.d f g g g f k A T | -.M.-.M.M.M.M.;.m.;.-.$.O.}.}.}.}.}.}.}.}.}.}.}.}.}.}.}.",
"}.}.}.}.}.}.}.}.}.}.}.}.}.}.}.}./ | _ _ | | _ | / / ! ! ! ! ! ! ! | ..$.-.M.-.M.M.M.M.;.m.;.-.$.O.}.}.}.}.}.}.}.}.}.}.}.}.}.}.}.",
"}.}.}.}.}.}.}.}.}.}.}.}.}.}.}.}.-.-.-.-.-.-.-.-.-.;.;.;.;.;.;.;.-.-.-.;.M.-.M.M.M.M.M.;.m.;.-.$.O.}.}.}.}.}.}.}.}.}.}.}.}.}.}.}.",
"}.}.}.}.}.}.}.}.}.}.}.}.}.}.}.}.$.-.-.-.-.-.-.-.-.-.-.-.-.-.-.-.-.*.-.-.M.-.-.M.M.M.M.;.m.;.-.$.O.}.}.}.}.}.}.}.}.}.}.}.}.}.}.}.",
"}.}.}.}.}.}.}.}.}.}.}.}.}.}.}.}...$.$.$.$.$.$.$.$.$.$.$.$.$.$.$.$.X...$.-.M.-.M.M.M.M.;.m.;.-.$.O.}.}.}.}.}.}.}.}.}.}.}.}.}.}.}.",
"}.}.}.}.}.}.}.}.}.}.}.}.}.}.}.}.}.}.}.}.}.}.}.}.}.}.}.}.}.}.}.}.X./ Q ..-.M.-.M.M.M.M.;.m.;.-.$.O.}.}.}.}.}.}.}.}.}.}.}.}.}.}.}.",
"}.}.}.}.}.}.}.}.}.}.}.}.}.}.}.}.}.}.}.}.}.}.}.}.}.}.}.}.}.}.}.}.}.S G / -.M.-.M.M.M.M.;.m.;.-.$.O.}.}.}.}.}.}.}.}.}.}.}.}.}.}.}.",
"}.}.}.}.}.}.}.}.}.}.}.}.}.}.}.}.}.}.}.}.}.}.}.}.}.}.}.}.}.}.}.}.}.G H / -.M.-.M.M.M.M.;.m.;.-.$.O.}.}.}.}.}.}.}.}.}.}.}.}.}.}.}.",
"}.}.}.}.}.}.}.}.}.}.}.}.}.}.}.}.}.}.}.}.}.}.}.}.}.C Z C C C Z C A P Q ..-.M.-.M.M.M.M.;.m.;.-.$.O.}.}.}.}.}.}.}.}.}.}.}.}.}.}.}.",
"}.}.}.}.}.}.}.}.}.}.}.}.}.}.}.}.}.}.}.}.}.}.}.}.}.P P P P P P P T ! | $.-.M.-.M.M.M.M.;.m.;.-.$.O.}.}.}.}.}.}.}.}.}.}.}.}.}.}.}.",
"}.}.}.}.}.}.}.}.}.}.}.}.}.}.}.}.}.}.}.}.}.}.}.}.T X.$.$.$.$.$.$.$.$.*.-.;.m.;.M.M.M.M.;.m.;.-.$.O.}.}.}.}.}.}.}.}.}.}.}.}.}.}.}.",
"}.}.}.}.}.}.}.}.}.}.}.}.}.}.}.}.}.}.}.}.}.}.}.}.Q *.*.*.*.*.*.*.*.*.-.-.;.m.-.M.M.M.M.;.m.;.-.$.O.}.}.}.}.}.}.}.}.}.}.}.}.}.}.}.",
"}.}.}.}.}.}.}.}.}.}.}.}.}.}.}.}.}.}.}.}.}.}.}.}.}.T R R T U U U U ! } X.-.M.-.M.M.M.M.;.m.;.-.$.O.}.}.}.}.}.}.}.}.}.}.}.}.}.}.}.",
"}.}.}.}.}.}.}.}.}.}.}.}.}.}.}.}.}.}.}.}.}.}.}.}.}.}.}.}.}.}.}.}.}.G T | -.M.-.M.M.M.M.;.m.;.-.$.O.}.}.}.}.}.}.}.}.}.}.}.}.}.}.}.",
"}.}.}.}.}.}.}.}.}.}.}.}.}.}.}.}.}.}.}.}.}.}.}.}.}.}.}.}.}.}.}.}.}.A H / -.M.-.M.M.M.M.;.m.;.-.$.*.}.}.}.}.}.}.}.}.}.}.}.}.}.}.}.",
"}.}.}.}.}.}.}.}.}.}.}.}.}.}.}.}.}.}.}.}.}.}.}.}.}.}.}.}.}.}.}.}.}.C S ! -.M.-.M.-.-.-.M.-.M.-.$.-.}.}.}.}.}.}.}.}.}.}.}.}.}.}.}.",
"}.}.}.}.}.}.}.}.}.}.}.}.}.}.}.}.}.}.}.}.}.}.}.}.}.}.}.}.}.}.}.}.}.C A ! -.M.-.-.-.-.-.-.-.M.-.$.*.}.}.}.}.}.}.}.}.}.}.}.}.}.}.}.",
"}.}.}.}.}.}.}.}.}.}.}.}.}.}.}.}.}.}.}.}.}.}.}.}.}.}.}.}.}.}.}.}.}.C A ! -.M.-.M.M.M.M.M.m.;.-.$.O.}.}.}.}.}.}.}.}.}.}.}.}.}.}.}.",
"}.}.}.}.}.}.}.}.}.}.}.}.}.}.}.}.}.}.}.}.}.}.}.}.}.}.}.}.}.}.}.}.}.C A ! -.M.-.-.-.-.-.-.M.;.-.$.X.}.}.}.}.}.}.}.}.}.}.}.}.}.}.}.",
"}.}.}.}.}.}.}.}.}.}.}.}.}.}.}.}.}.}.}.}.}.}.}.}.}.}.}.}.}.}.}.}.}.C A ! -.M.-.$.$.$.$.-.-.;.-.*.X.}.}.}.}.}.}.}.}.}.}.}.}.}.}.}.",
"}.}.}.}.}.}.}.}.}.}.}.}.}.}.}.}.}.}.}.}.}.}.}.}.}.}.}.}.}.}.}.}.}.C A ! -.$._ _ ......X.*.-.*. .| }.}.}.}.}.}.}.}.}.}.}.}.}.}.}.",
"}.}.}.}.}.}.}.}.}.}.}.}.}.}.}.}.}.}.}.}.}.}.}.}.}.}.}.}.}.}.}.}.}.C A ! -./ m b }.}.H P | -.X.Q T }.}.}.}.}.}.}.}.}.}.}.}.}.}.}.",
"}.}.}.}.}.}.}.}.}.}.}.}.}.}.}.}.}.}.}.}.}.}.}.}.}.}.}.}.}.}.}.}.}.C A ! -.T i }.}.}.}.B } -.| P H }.}.}.}.}.}.}.}.}.}.}.}.}.}.}.",
"}.}.}.}.}.}.}.}.}.}.}.}.}.}.}.}.}.}.}.}.}.}.}.}.}.}.}.}.}.}.}.}.}.C A ! *.T a }.}.}.}.N / -.| T P }.}.}.}.}.}.}.}.}.}.}.}.}.}.}.",
"}.}.}.}.}.}.}.}.}.}.}.}.}.}.}.}.}.}.}.}.}.}.}.}.}.}.}.}.}.}.}.}.}.C A ! *.T a }.}.}.}.N / -...T Y }.}.}.}.}.}.}.}.}.}.}.}.}.}.}.",
"}.}.}.}.}.}.}.}.}.}.}.}.}.}.}.}.}.}.}.}.}.}.}.}.}.}.}.}.}.}.}.}.}.C A ! *.T a }.}.}.}.N / -...U P }.}.}.}.}.}.}.}.}.}.}.}.}.}.}.",
"}.}.}.}.}.}.}.}.}.}.}.}.}.}.}.}.}.}.}.}.}.}.}.}.}.}.}.}.}.}.}.}.}.C A ! *.T a }.}.}.}.N / -...U L }.}.}.}.}.}.}.}.}.}.}.}.}.}.}.",
"}.}.}.}.}.}.}.}.}.}.}.}.}.}.}.}.}.}.}.}.}.}.}.}.}.}.}.}.}.}.}.}.}.C A ! *.T a }.}.}.}.N / -.| U L }.}.}.}.}.}.}.}.}.}.}.}.}.}.}.",
"}.}.}.}.}.}.}.}.}.}.}.}.}.}.}.}.}.}.}.}.}.}.}.}.}.}.}.}.}.}.}.}.}.C A ! -.T p }.}.}.}.N / -.| P H }.}.}.}.}.}.}.}.}.}.}.}.}.}.}.",
"}.}.}.}.}.}.}.}.}.}.}.}.}.}.}.}.}.}.}.}.}.}.}.}.}.}.}.}.}.}.}.}.}.C A ! -.T p }.}.}.}.M / -.| P P }.}.}.}.}.}.}.}.}.}.}.}.}.}.}.",
"}.}.}.}.}.}.}.}.}.}.}.}.}.}.}.}.}.}.}.}.}.}.}.}.}.}.}.}.}.}.}.}.}.C A ! -.T p }.}.}.}.M / -...T P }.}.}.}.}.}.}.}.}.}.}.}.}.}.}.",
"}.}.}.}.}.}.}.}.}.}.}.}.}.}.}.}.}.}.}.}.}.}.}.}.}.}.}.}.}.}.}.}.}.C A ! -.T p }.}.}.}.M / -...T P }.}.}.}.}.}.}.}.}.}.}.}.}.}.}.",
"}.}.}.}.}.}.}.}.}.}.}.}.}.}.}.}.}.}.}.}.}.}.}.}.}.}.}.}.}.}.}.}.}.C A ! -.T p }.}.}.}.N / -...U P }.}.}.}.}.}.}.}.}.}.}.}.}.}.}.",
"}.}.}.}.}.}.}.}.}.}.}.}.}.}.}.}.}.}.}.}.}.}.}.}.}.}.}.}.}.}.}.}.}.C A ! -.T p }.}.}.}.N / -...U L }.}.}.}.}.}.}.}.}.}.}.}.}.}.}.",
"}.}.}.}.}.}.}.}.}.}.}.}.}.}.}.}.}.}.}.}.}.}.}.}.}.}.}.}.}.}.}.}.}.C A ! *.T a }.}.}.}.M / -...U L }.}.}.}.}.}.}.}.}.}.}.}.}.}.}.",
"}.}.}.}.}.}.}.}.}.}.}.}.}.}.}.}.}.}.}.}.}.}.}.}.}.}.}.}.}.}.}.}.}.C A ! *.T a }.}.}.}.N / -...U L }.}.}.}.}.}.}.}.}.}.}.}.}.}.}.",
"}.}.}.}.}.}.}.}.}.}.}.}.}.}.}.}.}.}.}.}.}.}.}.}.}.}.}.}.}.}.}.}.}.C A ! *.T a }.}.}.}.A | -...T P }.}.}.}.}.}.}.}.}.}.}.}.}.}.}.",
"}.}.}.}.}.}.}.}.}.}.}.}.}.}.}.}.}.}.}.}.}.}.}.}.}.}.}.}.}.}.}.}.}.C A ! -.T p }.}.}.B J | -.X.! P }.}.}.}.}.}.}.}.}.}.}.}.}.}.}.",
"}.}.}.}.}.}.}.}.}.}.}.}.}.}.}.}.}.}.}.}.}.}.}.}.}.}.}.}.}.}.}.}.}.C A ! -.T a }.}.}.J } $.-.$.| T B }.}.}.}.}.}.}.}.}.}.}.}.}.}.",
"}.}.}.}.}.}.}.}.}.}.}.}.}.}.}.}.}.}.}.}.}.}.}.}.}.}.}.}.}.}.}.}.}.C A ! *.T a }.}.d ! -.-.;.-.-.! C n }.}.}.}.}.}.}.}.}.}.}.}.}.",
"}.}.}.}.}.}.}.}.}.}.}.}.}.}.}.}.}.}.}.}.}.}.}.}.}.}.}.}.}.}.}.}.}.C A ! *.T a }.}.s ! ;.M.-.M.-./ C n }.}.}.}.}.}.}.}.}.}.}.}.}.",
"}.}.}.}.}.}.}.}.}.}.}.}.}.}.}.}.}.}.}.}.}.}.}.}.}.}.}.}.}.}.}.}.}.C A ! *.T i }.}.d ! -.m.-.M.-./ C n }.}.}.}.}.}.}.}.}.}.}.}.}.",
"}.}.}.}.}.}.}.}.}.}.}.}.}.}.}.}.}.}.}.}.}.}.}.}.}.}.}.}.}.}.}.}.}.H H / -.Q h u }.}.! -.;.-.;.-.! B n }.}.}.}.}.}.}.}.}.}.}.}.}.",
"}.}.}.}.}.}.}.}.}.}.}.}.}.}.}.}.}.}.}.}.}.}.}.}.}.}.}.}.}.}.}.}.}.! ! X.-./ C j }.}.}.*.*.*.*.*.Q N }.}.}.}.}.}.}.}.}.}.}.}.}.}.",
"}.}.}.}.}.}.}.}.}.}.}.}.}.}.}.}.}.}.}.}.}.}.}.}.}.}.}.}.}.}.}.}. . .X.*.-.| H C }.}.}.}.}.}.}.}.}.}.}.}.}.}.}.}.}.}.}.}.}.}.}.}.",
"}.}.}.}.}.}.}.}.}.}.}.}.}.}.}.}.}.}.}.}.}.}.}.}.}.}.}.}.}.}.}.O.X.*.-.-.m.| P G }.}.}.}.}.}.}.}.}.}.}.}.}.}.}.}.}.}.}.}.}.}.}.}.",
"}.}.}.}.}.}.}.}.}.}.}.}.}.}.}.}.}.}.}.}.}.}.}.}.}.}.}.}.}.}.}.X.X.-.-.-.-...T P }.}.}.}.}.}.}.}.}.}.}.}.}.}.}.}.}.}.}.}.}.}.}.}.",
"}.}.}.}.}.}.}.}.}.}.}.}.}.}.}.}.}.}.}.}.}.}.}.}.}.}.}.}.}.}.}.| | ..$.$.$./ P H }.}.}.}.}.}.}.}.}.}.}.}.}.}.}.}.}.}.}.}.}.}.}.}.",
"}.}.}.}.}.}.}.}.}.}.}.}.}.}.}.}.}.}.}.}.}.}.}.}.}.}.}.}.}.}.}.( ( ` o.o.o.~ F D }.}.}.}.}.}.}.}.}.}.}.}.}.}.}.}.}.}.}.}.}.}.}.}.",
"}.}.}.}.}.}.}.}.}.}.}.}.}.}.}.}.}.}.}.}.}.}.}.}.}.}.}.}.}.}.}.}.^ _ .._ _ W S }.}.}.}.}.}.}.}.}.}.}.}.}.}.}.}.}.}.}.}.}.}.}.}.}."
};
