/* XPM */
static char *result[] = {
/* columns rows colors chars-per-pixel */
"64 64 153 2 ",
"   c #4B1867",
".  c #4B1B67",
"X  c #4C1C67",
"o  c #4C1669",
"O  c #4F166C",
"+  c #4C1A68",
"@  c #4D186A",
"#  c #4E186B",
"$  c #4C1D68",
"%  c #4F196C",
"&  c #4F1A6C",
"*  c #50196C",
"=  c #51196E",
"-  c #50186F",
";  c #5B017F",
":  c #521273",
">  c #511471",
",  c #531573",
"<  c #531774",
"1  c #551676",
"2  c #571378",
"3  c #5B147E",
"4  c #5C1D7F",
"5  c #4F2669",
"6  c #50206C",
"7  c #532B6D",
"8  c #572674",
"9  c #592877",
"0  c #5A2378",
"q  c #5E0F82",
"w  c #63058B",
"e  c #64008C",
"r  c #65008D",
"t  c #66008F",
"y  c #67008F",
"u  c #620F88",
"i  c #660D8E",
"p  c #601584",
"a  c #67168F",
"s  c #68168F",
"d  c #670090",
"f  c #670091",
"g  c #680090",
"h  c #680091",
"j  c #680092",
"k  c #690092",
"l  c #690193",
"z  c #690094",
"x  c #690194",
"c  c #6A0094",
"v  c #6A0095",
"b  c #6B0095",
"n  c #6B0096",
"m  c #6B0197",
"M  c #6C0096",
"N  c #6C0097",
"B  c #6D0097",
"V  c #6C0197",
"C  c #6A0494",
"Z  c #6C0697",
"A  c #670B90",
"S  c #6A0993",
"D  c #680E91",
"F  c #6B0894",
"G  c #6D0098",
"H  c #6C0198",
"J  c #6D0099",
"K  c #6E0099",
"L  c #6E0299",
"P  c #6D009A",
"I  c #6E009A",
"U  c #6F009A",
"Y  c #6E009B",
"T  c #6F009B",
"R  c #6F019B",
"E  c #6F029A",
"W  c #6F049B",
"Q  c #6F069B",
"!  c #6F009C",
"~  c #6F0A9A",
"^  c #70009B",
"/  c #70029B",
"(  c #70039B",
")  c #70009C",
"_  c #70009D",
"`  c #71009D",
"'  c #71019D",
"]  c #70029C",
"[  c #71029D",
"{  c #71039D",
"}  c #71009E",
"|  c #71019E",
" . c #72009E",
".. c #72009F",
"X. c #73009F",
"o. c #72029E",
"O. c #700A9B",
"+. c #710B9C",
"@. c #6A1692",
"#. c #6D1695",
"$. c #6E1D97",
"%. c #6F169A",
"&. c #721F9C",
"*. c #602A80",
"=. c #612A82",
"-. c #68228E",
";. c #6A288F",
":. c #6B2292",
">. c #6D2095",
",. c #6F2395",
"<. c #6C2991",
"1. c #712399",
"2. c #73219D",
"3. c #712898",
"4. c #742A9D",
"5. c #6F3D90",
"6. c #703794",
"7. c #713995",
"8. c #723298",
"9. c #75309B",
"0. c #733698",
"q. c #75359A",
"w. c #78319E",
"e. c #7A359F",
"r. c #7200A0",
"t. c #7300A0",
"y. c #6F4B8A",
"u. c #70448E",
"i. c #714091",
"p. c #744695",
"a. c #7D569A",
"s. c #7C6392",
"d. c #805B9C",
"f. c #806099",
"g. c #82689A",
"h. c #846A9A",
"j. c #856E9A",
"k. c #8F7D9F",
"l. c #855EA3",
"z. c #8A66A6",
"x. c #896DA1",
"c. c #8E7AA0",
"v. c #997FB1",
"b. c #9D86B4",
"n. c #A089B5",
"m. c #A28DB5",
"M. c #A591B9",
"N. c #AB9CBB",
"B. c #AA98BC",
"V. c #B19FC1",
"C. c #B6A8C4",
"Z. c #BBABC8",
"A. c None",
/* pixels */
"A.A.A.A.A.A.A.A.A.A.A.A.A.A.A.A.A.A.A.A.A.A.A.A.A.A.A.A.A.d h h h h h h h h h h A.A.A.A.A.A.A.A.A.A.A.A.A.A.A.A.A.A.A.A.A.A.A.A.",
"A.A.A.A.A.A.A.A.A.A.A.A.A.A.A.A.A.A.A.A.A.A.A.A.A.A.A.A.N N N M M M M M M M M N N A.A.A.A.A.A.A.A.A.A.A.A.A.A.A.A.A.A.A.A.A.A.A.",
"A.A.A.A.A.A.A.A.A.A.A.A.A.A.A.A.A.A.A.A.A.A.A.A.A.A.A.A.! _ ` ` ' [ ' ` ` ` _ R E A.A.A.A.A.A.A.A.A.A.A.A.A.A.A.A.A.A.A.A.A.A.A.",
"A.A.A.A.A.A.A.A.A.A.A.A.A.A.A.A.A.A.A.A.A.A.A.A.A.A.A.A.} } _ +.2.4.&.O.Q ~ %.1.3.A.A.A.A.A.A.A.A.A.A.A.A.A.A.A.A.A.A.A.A.A.A.A.",
"A.A.A.A.A.A.A.A.A.A.A.A.A.A.A.A.A.A.A.A.A.A.A.A.A.A.A.A...' L #.7.p.6.@.D s ;.5.u.A.A.A.A.A.A.A.A.A.A.A.A.A.A.A.A.A.A.A.A.A.A.A.",
"A.A.A.A.A.A.A.A.A.A.A.A.A.A.A.A.A.A.A.A.A.A.A.A.A.A.A.A.t.[ H ,.d.x.a.:.a -.i.f.h.A.A.A.A.A.A.A.A.A.A.A.A.A.A.A.A.A.A.A.A.A.A.A.",
"A.A.A.A.A.A.A.A.A.A.A.A.A.A.A.A.A.A.A.A.A.A.A.A.A.A.A.A.t.o.P w.b.V.v.9.$.8.l.m.N.A.A.A.A.A.A.A.A.A.A.A.A.A.A.A.A.A.A.A.A.A.A.A.",
"A.A.A.A.A.A.A.A.A.A.A.A.A.A.A.A.A.A.A.A.A.A.A.A.A.A.A.A.t.o.J e.M.Z.n.q.>.0.z.B.C.A.A.A.A.A.A.A.A.A.A.A.A.A.A.A.A.A.A.A.A.A.A.A.",
"A.A.A.A.A.A.A.A.A.A.A.A.A.A.A.A.A.A.A.A.A.A.A.A.A.A.A.A...{ C <.g.k.s.=.4 *.y.j.c.A.A.A.A.A.A.A.A.A.A.A.A.A.A.A.A.A.A.A.A.A.A.A.",
"A.A.A.A.A.A.A.A.A.A.A.A.A.A.A.A.A.A.A.A.A.A.A.A.A.A.A.) ..( A p 0 7 5 $ . X 6 8 9 A.A.A.A.A.A.A.A.A.A.A.A.A.A.A.A.A.A.A.A.A.A.A.",
"A.A.A.A.A.A.A.A.A.A.A.A.A.A.A.A.A.A.A.` ` ` ` ` ` ` `  .t.] S u 2 o   + + + # > : A.A.A.A.A.A.A.A.A.A.A.A.A.A.A.A.A.A.A.A.A.A.A.",
"A.A.A.A.A.A.A.A.A.A.A.A.A.A.A.A.A.A.)  .................t.[ Z i 3 = & % % & = < 1 A.A.A.A.A.A.A.A.A.A.A.A.A.A.A.A.A.A.A.A.A.A.A.",
"A.A.A.A.A.A.A.A.A.A.A.A.A.A.A.A.A.A.` ..t.t.t.t.t.t.t.r.t.| W F q O @ % * % - , A.A.A.A.A.A.A.A.A.A.A.A.A.A.A.A.A.A.A.A.A.A.A.A.",
"A.A.A.A.A.A.A.A.A.A.A.A.A.A.A.A.A.A.` ..t...............t... ./ w A.A.A.A.A.A.A.A.A.A.A.A.A.A.A.A.A.A.A.A.A.A.A.A.A.A.A.A.A.A.A.",
"A.A.A.A.A.A.A.A.A.A.A.A.A.A.A.A.A.A.` ..t.....t.t.t...t.....t.} g A.A.A.A.A.A.A.A.A.A.A.A.A.A.A.A.A.A.A.A.A.A.A.A.A.A.A.A.A.A.A.",
"A.A.A.A.A.A.A.A.A.A.A.A.A.A.A.A.A.A.` ..t.....t.t.t.t...t...t.` j ; A.A.A.A.A.A.A.A.A.A.A.A.A.A.A.A.A.A.A.A.A.A.A.A.A.A.A.A.A.A.",
"A.A.A.A.A.A.A.A.A.A.A.A.A.A.A.A.A.A.` ..t.....t.t.t.t.t.t...t.} n e r h j j t A.A.A.A.A.A.A.A.A.A.A.A.A.A.A.A.A.A.A.A.A.A.A.A.A.",
"A.A.A.A.A.A.A.A.A.A.A.A.A.A.A.A.A.A.` ..t.....t.t.t.t.t.t...t...) I T ! ! ) G r A.A.A.A.A.A.A.A.A.A.A.A.A.A.A.A.A.A.A.A.A.A.A.A.",
"A.A.A.A.A.A.A.A.A.A.A.A.A.A.A.A.A.A.` ..t.....t.t.t.t.t.t...r.X... .....r...T y A.A.A.A.A.A.A.A.A.A.A.A.A.A.A.A.A.A.A.A.A.A.A.A.",
"A.A.A.A.A.A.A.A.A.A.A.A.A.A.A.A.A.A.` ..t.....t.t.t.t.t.t...t...) K T _ _ _ I A.A.A.A.A.A.A.A.A.A.A.A.A.A.A.A.A.A.A.A.A.A.A.A.A.",
"A.A.A.A.A.A.A.A.A.A.A.A.A.A.A.A.A.A.` ..t.....t.t.t.t.t.t...t. .G f z P A.A.A.A.A.A.A.A.A.A.A.A.A.A.A.A.A.A.A.A.A.A.A.A.A.A.A.A.",
"A.A.A.A.A.A.A.A.A.A.A.A.A.A.A.A.A.A.` ..t.....t.t.t.t.t.t...t. .b A.A.A.A.A.A.A.A.A.A.A.A.A.A.A.A.A.A.A.A.A.A.A.A.A.A.A.A.A.A.A.",
"A.A.A.A.A.A.A.A.A.A.A.A.A.A.A.A.A.A.` ..t.....t.t.t.t.t.t...t.} k A.A.A.A.A.A.A.A.A.A.A.A.A.A.A.A.A.A.A.A.A.A.A.A.A.A.A.A.A.A.A.",
"A.A.A.A.A.A.A.A.A.A.A.A.A.A.A.A.A.A.` ..t.....t.t.t.t.t.t...t. .B A.A.A.A.A.A.A.A.A.A.A.A.A.A.A.A.A.A.A.A.A.A.A.A.A.A.A.A.A.A.A.",
"A.A.A.A.A.A.A.A.A.A.A.A.A.A.A.A.A.A.` ..t.....t.t.t.t.t.t...t..._ T ^ _ ` ` ` ` ` ` ` ` ` ` ` T H A.A.A.A.A.A.A.A.A.A.A.A.A.A.A.",
"A.A.A.A.A.A.A.A.A.A.A.A.A.A.A.A.A.A.` ..t.....t.t.t.t.t.t...t...` ) T T T T T T T T T T T ^ ^ I m v A.A.A.A.A.A.A.A.A.A.A.A.A.A.",
"A.A.A.A.A.A.A.A.A.A.A.A.A.A.A.A.A.A.` ..t.....t.t.t.t.t.t...t...) K K K K K K K K K K K K K K G x j A.A.A.A.A.A.A.A.A.A.A.A.A.A.",
"A.A.A.A.A.A.A.A.A.A.A.A.A.A.A.A.A.A.` ..t.....t.t.t.t.t.t...t. .I n n N N V N N N N V N N G K N l A.A.A.A.A.A.A.A.A.A.A.A.A.A.A.",
"A.A.A.A.A.A.A.A.A.A.A.A.A.A.A.A.A.A.` ..t.....t.t.t.t.t.t...t. .n A.A.A.A.A.A.A.A.A.A.A.A.A.A.A.A.A.A.A.A.A.A.A.A.A.A.A.A.A.A.A.",
"A.A.A.A.A.A.A.A.A.A.A.A.A.A.A.A.A.A.` ..t.....t.t.t.t.t.t...t.} h A.A.A.A.A.A.A.A.A.A.A.A.A.A.A.A.A.A.A.A.A.A.A.A.A.A.A.A.A.A.A.",
"A.A.A.A.A.A.A.A.A.A.A.A.A.A.A.A.A.A.` ..t.....t.t.t.t.t.t...t.} h A.A.A.A.A.A.A.A.A.A.A.A.A.A.A.A.A.A.A.A.A.A.A.A.A.A.A.A.A.A.A.",
"A.A.A.A.A.A.A.A.A.A.A.A.A.A.A.A.A.A.` ..t.....X.........t...t.} h A.A.A.A.A.A.A.A.A.A.A.A.A.A.A.A.A.A.A.A.A.A.A.A.A.A.A.A.A.A.A.",
"A.A.A.A.A.A.A.A.A.A.A.A.A.A.A.A.A.A.` ..t.....r.t.X.t.......t.} h A.A.A.A.A.A.A.A.A.A.A.A.A.A.A.A.A.A.A.A.A.A.A.A.A.A.A.A.A.A.A.",
"A.A.A.A.A.A.A.A.A.A.A.A.A.A.A.A.A.A.` ..t.r.t.X...r...t.t...t.} h A.A.A.A.A.A.A.A.A.A.A.A.A.A.A.A.A.A.A.A.A.A.A.A.A.A.A.A.A.A.A.",
"A.A.A.A.A.A.A.A.A.A.A.A.A.A.A.A.A.A.^  .t.X... . .} } ......t.} h A.A.A.A.A.A.A.A.A.A.A.A.A.A.A.A.A.A.A.A.A.A.A.A.A.A.A.A.A.A.A.",
"A.A.A.A.A.A.A.A.A.A.A.A.A.A.A.A.A.A.A. .t. .} ` T A.A._ ..t.t.} h A.A.A.A.A.A.A.A.A.A.A.A.A.A.A.A.A.A.A.A.A.A.A.A.A.A.A.A.A.A.A.",
"A.A.A.A.A.A.A.A.A.A.A.A.A.A.A.A.A.A.A.} X. .` ) A.A.A.A...t.t.} h A.A.A.A.A.A.A.A.A.A.A.A.A.A.A.A.A.A.A.A.A.A.A.A.A.A.A.A.A.A.A.",
"A.A.A.A.A.A.A.A.A.A.A.A.A.A.A.A.A.A.A. ... .` T A.A.A.A...r.t.} h A.A.A.A.A.A.A.A.A.A.A.A.A.A.A.A.A.A.A.A.A.A.A.A.A.A.A.A.A.A.A.",
"A.A.A.A.A.A.A.A.A.A.A.A.A.A.A.A.A.A.A. ...} ) U A.A.A.A...r.t.} h A.A.A.A.A.A.A.A.A.A.A.A.A.A.A.A.A.A.A.A.A.A.A.A.A.A.A.A.A.A.A.",
"A.A.A.A.A.A.A.A.A.A.A.A.A.A.A.A.A.A.A.....} ) U A.A.A.A...r.t.} h A.A.A.A.A.A.A.A.A.A.A.A.A.A.A.A.A.A.A.A.A.A.A.A.A.A.A.A.A.A.A.",
"A.A.A.A.A.A.A.A.A.A.A.A.A.A.A.A.A.A.A.....} ) U A.A.A.A...r.t.} h A.A.A.A.A.A.A.A.A.A.A.A.A.A.A.A.A.A.A.A.A.A.A.A.A.A.A.A.A.A.A.",
"A.A.A.A.A.A.A.A.A.A.A.A.A.A.A.A.A.A.A.....} ) U A.A.A.A...r.t.} h A.A.A.A.A.A.A.A.A.A.A.A.A.A.A.A.A.A.A.A.A.A.A.A.A.A.A.A.A.A.A.",
"A.A.A.A.A.A.A.A.A.A.A.A.A.A.A.A.A.A.A. ...} ) U A.A.A.A...r.t.} h A.A.A.A.A.A.A.A.A.A.A.A.A.A.A.A.A.A.A.A.A.A.A.A.A.A.A.A.A.A.A.",
"A.A.A.A.A.A.A.A.A.A.A.A.A.A.A.A.A.A.A.....} ) U A.A.A.A...r.t.} h A.A.A.A.A.A.A.A.A.A.A.A.A.A.A.A.A.A.A.A.A.A.A.A.A.A.A.A.A.A.A.",
"A.A.A.A.A.A.A.A.A.A.A.A.A.A.A.A.A.A.A.....} ) U A.A.A.A...r.t.} h A.A.A.A.A.A.A.A.A.A.A.A.A.A.A.A.A.A.A.A.A.A.A.A.A.A.A.A.A.A.A.",
"A.A.A.A.A.A.A.A.A.A.A.A.A.A.A.A.A.A.A.....} ) U A.A.A.A...r.t.} h A.A.A.A.A.A.A.A.A.A.A.A.A.A.A.A.A.A.A.A.A.A.A.A.A.A.A.A.A.A.A.",
"A.A.A.A.A.A.A.A.A.A.A.A.A.A.A.A.A.A.A.....} ) U A.A.A.A...r.t.} h A.A.A.A.A.A.A.A.A.A.A.A.A.A.A.A.A.A.A.A.A.A.A.A.A.A.A.A.A.A.A.",
"A.A.A.A.A.A.A.A.A.A.A.A.A.A.A.A.A.A.A. ...} ) U A.A.A.A...r.t.} h A.A.A.A.A.A.A.A.A.A.A.A.A.A.A.A.A.A.A.A.A.A.A.A.A.A.A.A.A.A.A.",
"A.A.A.A.A.A.A.A.A.A.A.A.A.A.A.A.A.A.A. ...} ) U A.A.A.A.....t.} f A.A.A.A.A.A.A.A.A.A.A.A.A.A.A.A.A.A.A.A.A.A.A.A.A.A.A.A.A.A.A.",
"A.A.A.A.A.A.A.A.A.A.A.A.A.A.A.A.A.A.A. ...} ) U A.A.A.A...t.t.} c A.A.A.A.A.A.A.A.A.A.A.A.A.A.A.A.A.A.A.A.A.A.A.A.A.A.A.A.A.A.A.",
"A.A.A.A.A.A.A.A.A.A.A.A.A.A.A.A.A.A.A. ...} ) U A.A.A.J  .t.t...I v A.A.A.A.A.A.A.A.A.A.A.A.A.A.A.A.A.A.A.A.A.A.A.A.A.A.A.A.A.A.",
"A.A.A.A.A.A.A.A.A.A.A.A.A.A.A.A.A.A.A. ...} ) U A.A.A.J } ..t..._ ! Y A.A.A.A.A.A.A.A.A.A.A.A.A.A.A.A.A.A.A.A.A.A.A.A.A.A.A.A.A.",
"A.A.A.A.A.A.A.A.A.A.A.A.A.A.A.A.A.A.A.....} ) U A.A.b I  .t.r...} } _ A.A.A.A.A.A.A.A.A.A.A.A.A.A.A.A.A.A.A.A.A.A.A.A.A.A.A.A.A.",
"A.A.A.A.A.A.A.A.A.A.A.A.A.A.A.A.A.A.A.....} ) U A.A.M U  .X.X.X..... .A.A.A.A.A.A.A.A.A.A.A.A.A.A.A.A.A.A.A.A.A.A.A.A.A.A.A.A.A.",
"A.A.A.A.A.A.A.A.A.A.A.A.A.A.A.A.A.A.A.....} ) U A.A.A.G ) ` ` ` ` ` A.A.A.A.A.A.A.A.A.A.A.A.A.A.A.A.A.A.A.A.A.A.A.A.A.A.A.A.A.A.",
"A.A.A.A.A.A.A.A.A.A.A.A.A.A.A.A.A.A.A.....} ) U A.A.A.c G J J J J J A.A.A.A.A.A.A.A.A.A.A.A.A.A.A.A.A.A.A.A.A.A.A.A.A.A.A.A.A.A.",
"A.A.A.A.A.A.A.A.A.A.A.A.A.A.A.A.A.A.A..... .` U A.A.A.A.A.N N N N A.A.A.A.A.A.A.A.A.A.A.A.A.A.A.A.A.A.A.A.A.A.A.A.A.A.A.A.A.A.A.",
"A.A.A.A.A.A.A.A.A.A.A.A.A.A.A.A.A.A.^  .t...} T A.A.A.A.A.A.A.A.A.A.A.A.A.A.A.A.A.A.A.A.A.A.A.A.A.A.A.A.A.A.A.A.A.A.A.A.A.A.A.A.",
"A.A.A.A.A.A.A.A.A.A.A.A.A.A.A.A.A.^ ` ..t...} T M A.A.A.A.A.A.A.A.A.A.A.A.A.A.A.A.A.A.A.A.A.A.A.A.A.A.A.A.A.A.A.A.A.A.A.A.A.A.A.",
"A.A.A.A.A.A.A.A.A.A.A.A.A.A.A.A.A.} ..X.t.t...) G A.A.A.A.A.A.A.A.A.A.A.A.A.A.A.A.A.A.A.A.A.A.A.A.A.A.A.A.A.A.A.A.A.A.A.A.A.A.A.",
"A.A.A.A.A.A.A.A.A.A.A.A.A.A.A.A.J  ...........) G N A.A.A.A.A.A.A.A.A.A.A.A.A.A.A.A.A.A.A.A.A.A.A.A.A.A.A.A.A.A.A.A.A.A.A.A.A.A.",
"A.A.A.A.A.A.A.A.A.A.A.A.A.A.A.A.B ` } } } } ` U M b A.A.A.A.A.A.A.A.A.A.A.A.A.A.A.A.A.A.A.A.A.A.A.A.A.A.A.A.A.A.A.A.A.A.A.A.A.A.",
"A.A.A.A.A.A.A.A.A.A.A.A.A.A.A.A.A.^ ` ` ` ` ) K b A.A.A.A.A.A.A.A.A.A.A.A.A.A.A.A.A.A.A.A.A.A.A.A.A.A.A.A.A.A.A.A.A.A.A.A.A.A.A.",
"A.A.A.A.A.A.A.A.A.A.A.A.A.A.A.A.A.A.` A.A.A.A.A.A.A.A.A.A.A.A.A.A.A.A.A.A.A.A.A.A.A.A.A.A.A.A.A.A.A.A.A.A.A.A.A.A.A.A.A.A.A.A.A."
};
