/* XPM */
static char *result[] = {
/* columns rows colors chars-per-pixel */
"64 64 179 2 ",
"   c #441B5B",
".  c #441C5B",
"X  c #441C5C",
"o  c #451C5C",
"O  c #4B1767",
"+  c #4C1767",
"@  c #491863",
"#  c #491A62",
"$  c #4F166C",
"%  c #4C1868",
"&  c #4C1968",
"*  c #4D1968",
"=  c #4C1A68",
"-  c #51136E",
";  c #50176C",
":  c #50156E",
">  c #570A78",
",  c #580A78",
"<  c #580A79",
"1  c #580B79",
"2  c #521272",
"3  c #521571",
"4  c #521670",
"5  c #541174",
"6  c #561776",
"7  c #561876",
"8  c #571B76",
"9  c #581F77",
"0  c #571478",
"q  c #5C1E7D",
"w  c #582077",
"e  c #5A2279",
"r  c #5C267B",
"t  c #5D267C",
"y  c #5E267D",
"u  c #5A2878",
"i  c #5D0083",
"p  c #5D0183",
"a  c #5E0083",
"s  c #5D1180",
"d  c #600885",
"f  c #600F85",
"g  c #63008A",
"h  c #64008C",
"j  c #65008D",
"k  c #66008E",
"l  c #66008F",
"z  c #67058F",
"x  c #650C8C",
"c  c #611185",
"v  c #621687",
"b  c #671B8E",
"n  c #670090",
"m  c #680090",
"M  c #690090",
"N  c #680091",
"B  c #690092",
"V  c #690093",
"C  c #690094",
"Z  c #6A0094",
"A  c #6B0094",
"S  c #6A0095",
"D  c #6B0095",
"F  c #6B0195",
"G  c #6B0295",
"H  c #6B0096",
"J  c #6B0097",
"K  c #6C0096",
"L  c #6C0097",
"P  c #6D0097",
"I  c #6C0296",
"U  c #6C0696",
"Y  c #6C0796",
"T  c #6C0A97",
"R  c #6C0098",
"E  c #6D0098",
"W  c #6C0198",
"Q  c #6D0099",
"!  c #6E0098",
"~  c #6E0099",
"^  c #6D0398",
"/  c #6D0399",
"(  c #6D019A",
")  c #6E009A",
"_  c #6F009A",
"`  c #6E009B",
"'  c #6F009B",
"]  c #6E019B",
"[  c #6F019B",
"{  c #6E0499",
"}  c #6F009C",
"|  c #6F019C",
" . c #6D0998",
".. c #6F0E9A",
"X. c #70009B",
"o. c #70009C",
"O. c #71009C",
"+. c #70009D",
"@. c #71009D",
"#. c #72009D",
"$. c #71009E",
"%. c #71009F",
"&. c #72009E",
"*. c #72009F",
"=. c #73009F",
"-. c #72019F",
";. c #71039E",
":. c #72029F",
">. c #72039F",
",. c #71049D",
"<. c #70079C",
"1. c #700F9B",
"2. c #70089C",
"3. c #710E9C",
"4. c #6A1293",
"5. c #6B1394",
"6. c #6D1796",
"7. c #6D1697",
"8. c #691C91",
"9. c #6D1995",
"0. c #6C1B95",
"q. c #6E1398",
"w. c #70169B",
"e. c #71179C",
"r. c #71189B",
"t. c #642A87",
"y. c #652388",
"u. c #66228C",
"i. c #69278F",
"p. c #66288A",
"a. c #6B388A",
"s. c #6A2990",
"d. c #6D2893",
"f. c #6F2B95",
"g. c #72219B",
"h. c #73279B",
"j. c #722C99",
"k. c #6F3B90",
"l. c #703A93",
"z. c #723E94",
"x. c #753E99",
"c. c #7200A0",
"v. c #7300A0",
"b. c #772BA0",
"n. c #7831A0",
"m. c #744F8F",
"M. c #744A91",
"N. c #7A459D",
"B. c #7C4A9E",
"V. c #7D4C9D",
"C. c #785394",
"Z. c #795594",
"A. c #7B5C93",
"S. c #7B5894",
"D. c #7C5599",
"F. c #7F5B9B",
"G. c #7F51A0",
"H. c #806396",
"J. c #8A739F",
"K. c #8664A1",
"L. c #8B69A6",
"P. c #8D6EA5",
"I. c #8F6BAB",
"U. c #8D77A0",
"Y. c #8F7AA2",
"T. c #917DA2",
"R. c #9273AA",
"E. c #9576AE",
"W. c #967DAA",
"Q. c #9F8AB1",
"!. c #A490B7",
"~. c #A796B6",
"^. c #AB9DB7",
"/. c #AB9ABC",
"(. c #AF9EBF",
"). c #B4A5BF",
"_. c #B7A9C5",
"`. c #B9ADC3",
"'. c None",
/* pixels */
"'.'.'.'.'.'.'.'.'.'.'.'.'.'.'.'.'.'.'.'.'.'.'.'.'.'.'.H E ' o.X.X.X.X.X.o.) H '.'.'.'.'.'.'.'.'.'.'.'.'.'.'.'.'.'.'.'.'.'.'.'.'.",
"'.'.'.'.'.'.'.'.'.'.'.'.'.'.'.'.'.'.'.'.'.'.'.'.'.'.'.~ _ o.@.@.@.@.@.@.@.} Q '.'.'.'.'.'.'.'.'.'.'.'.'.'.'.'.'.'.'.'.'.'.'.'.'.",
"'.'.'.'.'.'.'.'.'.'.'.'.'.'.'.'.'.'.'.'.'.'.'.'.'.'.) +.$.*.*.*.*.*.*.*.*.$.o.' '.'.'.'.'.'.'.'.'.'.'.'.'.'.'.'.'.'.'.'.'.'.'.'.",
"'.'.'.'.'.'.'.'.'.'.'.'.'.'.'.'.'.'.'.'.'.'.'.'.'.'.' $.;.2.1.w.r.3.,.2...q.6.9.'.'.'.'.'.'.'.'.'.'.'.'.'.'.'.'.'.'.'.'.'.'.'.'.",
"'.'.'.'.'.'.'.'.'.'.'.'.'.'.'.'.'.'.'.'.'.'.'.'.'.'.o.*.<.5.8.i.s.0. .4.b u.p.t.'.'.'.'.'.'.'.'.'.'.'.'.'.'.'.'.'.'.'.'.'.'.'.'.",
"'.'.'.'.'.'.'.'.'.'.'.'.'.'.'.'.'.'.'.'.'.'.'.'.'.'.@.*.e.f.z.D.F.x.7.d.k.M.S.A.'.'.'.'.'.'.'.'.'.'.'.'.'.'.'.'.'.'.'.'.'.'.'.'.",
"'.'.'.'.'.'.'.'.'.'.'.'.'.'.'.'.'.'.'.'.'.'.'.'.'.( +.:.b.B.L.!./.I.h.N.K.W.~.^.'.'.'.'.'.'.'.'.'.'.'.'.'.'.'.'.'.'.'.'.'.'.'.'.",
"'.'.'.'.'.'.'.'.'.'.'.'.'.'.'.'.'.'.'.'.'.'.'.'.'.] +.>.n.G.R.(._.E.j.V.P.Q.).`.'.'.'.'.'.'.'.'.'.'.'.'.'.'.'.'.'.'.'.'.'.'.'.'.",
"'.'.'.'.'.'.'.'.'.'.'.'.'.'.'.'.@.@.&.*.*.*.*.*.$.$.$.:.g.l.C.J.Y.Z.y.a.m.H.U.T.'.'.'.'.'.'.'.'.'.'.'.'.'.'.'.'.'.'.'.'.'.'.'.'.",
"'.'.'.'.'.'.'.'.'.'.'.'.'.'.'.'.@.&.=.v.=.v.v.v.*.*.*.-.T v q r u w 7 8 9 e t y '.'.'.'.'.'.'.'.'.'.'.'.'.'.'.'.'.'.'.'.'.'.'.'.",
"'.'.'.'.'.'.'.'.'.'.'.'.'.'.'.'.@.&.=.c.*.*.*.*.v.=.v.*.U f 0 : O % * & % $ 2 5 '.'.'.'.'.'.'.'.'.'.'.'.'.'.'.'.'.'.'.'.'.'.'.'.",
"'.'.'.'.'.'.'.'.'.'.'.'.'.'.'.'.@.&.=.c.*.=.*.=.*.*.*.v.Y c 6 = X .   . o # ; 4 '.'.'.'.'.'.'.'.'.'.'.'.'.'.'.'.'.'.'.'.'.'.'.'.",
"'.'.'.'.'.'.'.'.'.'.'.'.'.'.'.'.@.&.=.c.*.v.v.v.*.*.*.v.{ x s 3 @ @ @ @ @ + - '.'.'.'.'.'.'.'.'.'.'.'.'.'.'.'.'.'.'.'.'.'.'.'.'.",
"'.'.'.'.'.'.'.'.'.'.'.'.'.'.'.'.@.&.=.c.*.v.v.v.v.*.*.=.o.I z d 1 , , , < > '.'.'.'.'.'.'.'.'.'.'.'.'.'.'.'.'.'.'.'.'.'.'.'.'.'.",
"'.'.'.'.'.'.'.'.'.'.'.'.'.'.'.'.@.&.=.c.*.v.v.v.v.=.*.v.$.' ! A m M m M m m n n '.'.'.'.'.'.'.'.'.'.'.'.'.'.'.'.'.'.'.'.'.'.'.'.",
"'.'.'.'.'.'.'.'.'.'.'.'.'.'.'.'.@.&.=.c.*.v.v.v.v.c.*.v.*.$.@.o.o.X.X.X.X.o.o.+.+.@.@.@.+.+.@.@.' '.'.'.'.'.'.'.'.'.'.'.'.'.'.'.",
"'.'.'.'.'.'.'.'.'.'.'.'.'.'.'.'.@.&.=.c.*.v.v.v.v.=.v.*.v.*.*.*.=.=.=.=.=.=.=.=.*.*.*.*.*.=.*.*.@.'.'.'.'.'.'.'.'.'.'.'.'.'.'.'.",
"'.'.'.'.'.'.'.'.'.'.'.'.'.'.'.'.@.&.=.c.*.v.v.v.v.=.*.v.*.$.$.&.&.&.&.&.&.&.&.&.$.$.$.$.&.&.$.$.o.'.'.'.'.'.'.'.'.'.'.'.'.'.'.'.",
"'.'.'.'.'.'.'.'.'.'.'.'.'.'.'.'.@.&.=.c.*.v.v.v.v.c.*.v.*.+.+.@.$.$.$.$.$.$.$.$.$.$.$.$.$.&.$.+.' '.'.'.'.'.'.'.'.'.'.'.'.'.'.'.",
"'.'.'.'.'.'.'.'.'.'.'.'.'.'.'.'.@.&.=.c.*.v.v.v.v.*.*.v.$.) Q ' '.'.'.'.'.'.'.'.'.'.'.'.'.'.'.'.'.'.'.'.'.'.'.'.'.'.'.'.'.'.'.'.",
"'.'.'.'.'.'.'.'.'.'.'.'.'.'.'.'.@.&.=.c.*.v.v.v.v.*.c.=.@.E D '.'.'.'.'.'.'.'.'.'.'.'.'.'.'.'.'.'.'.'.'.'.'.'.'.'.'.'.'.'.'.'.'.",
"'.'.'.'.'.'.'.'.'.'.'.'.'.'.'.'.@.&.=.c.*.v.v.v.v.*.c.=.@.~ L '.'.'.'.'.'.'.'.'.'.'.'.'.'.'.'.'.'.'.'.'.'.'.'.'.'.'.'.'.'.'.'.'.",
"'.'.'.'.'.'.'.'.'.'.'.'.'.'.'.'.@.&.=.c.*.v.v.v.v.*.*.v.$.' ~ L D D D D D D D '.'.'.'.'.'.'.'.'.'.'.'.'.'.'.'.'.'.'.'.'.'.'.'.'.",
"'.'.'.'.'.'.'.'.'.'.'.'.'.'.'.'.@.&.=.c.*.v.v.v.v.*.*.v.*.+.o.' ) ) ) ) ) ) ) E '.'.'.'.'.'.'.'.'.'.'.'.'.'.'.'.'.'.'.'.'.'.'.'.",
"'.'.'.'.'.'.'.'.'.'.'.'.'.'.'.'.@.&.=.c.*.v.v.v.v.=.*.v.*.*.*.*.*.*.*.*.*.*.*.+.'.'.'.'.'.'.'.'.'.'.'.'.'.'.'.'.'.'.'.'.'.'.'.'.",
"'.'.'.'.'.'.'.'.'.'.'.'.'.'.'.'.@.&.=.c.*.v.v.v.v.*.*.v.*.&.$.$.$.$.$.$.&.$.&.o.'.'.'.'.'.'.'.'.'.'.'.'.'.'.'.'.'.'.'.'.'.'.'.'.",
"'.'.'.'.'.'.'.'.'.'.'.'.'.'.'.'.@.&.=.c.*.v.v.v.v.*.*.v.&.o.) Q J J L L E E E '.'.'.'.'.'.'.'.'.'.'.'.'.'.'.'.'.'.'.'.'.'.'.'.'.",
"'.'.'.'.'.'.'.'.'.'.'.'.'.'.'.'.@.&.=.c.*.v.v.v.v.*.c.=.@.) L S '.'.'.'.'.'.'.'.'.'.'.'.'.'.'.'.'.'.'.'.'.'.'.'.'.'.'.'.'.'.'.'.",
"'.'.'.'.'.'.'.'.'.'.'.'.'.'.'.'.$.&.=.c.*.v.v.v.v.*.c.=.@.E H '.'.'.'.'.'.'.'.'.'.'.'.'.'.'.'.'.'.'.'.'.'.'.'.'.'.'.'.'.'.'.'.'.",
"'.'.'.'.'.'.'.'.'.'.'.'.'.'.'.'.%.*.=.c.*.v.*.*.*.*.v.*.+.P Z '.'.'.'.'.'.'.'.'.'.'.'.'.'.'.'.'.'.'.'.'.'.'.'.'.'.'.'.'.'.'.'.'.",
"'.'.'.'.'.'.'.'.'.'.'.'.'.'.'.'.$.&.=.c.*.*.*.v.*.*.v.*.+.L Z '.'.'.'.'.'.'.'.'.'.'.'.'.'.'.'.'.'.'.'.'.'.'.'.'.'.'.'.'.'.'.'.'.",
"'.'.'.'.'.'.'.'.'.'.'.'.'.'.'.'.@.&.=.c.=.v.v.*.v.v.v.*.+.L Z '.'.'.'.'.'.'.'.'.'.'.'.'.'.'.'.'.'.'.'.'.'.'.'.'.'.'.'.'.'.'.'.'.",
"'.'.'.'.'.'.'.'.'.'.'.'.'.'.'.'.@.&.=.v.*.*.*.*.*.*.v.*.+.L Z '.'.'.'.'.'.'.'.'.'.'.'.'.'.'.'.'.'.'.'.'.'.'.'.'.'.'.'.'.'.'.'.'.",
"'.'.'.'.'.'.'.'.'.'.'.'.'.'.'.'.@.&.*.c.*.$.$.$.$.$.*.*.+.L Z '.'.'.'.'.'.'.'.'.'.'.'.'.'.'.'.'.'.'.'.'.'.'.'.'.'.'.'.'.'.'.'.'.",
"'.'.'.'.'.'.'.'.'.'.'.'.'.'.'.'.o.@.*.*.+.o.+.+.' ) o.*.+.L Z '.'.'.'.'.'.'.'.'.'.'.'.'.'.'.'.'.'.'.'.'.'.'.'.'.'.'.'.'.'.'.'.'.",
"'.'.'.'.'.'.'.'.'.'.'.'.'.'.'.'.Q ' &.&.~ D '.'.'.h H $.+.L Z '.'.'.'.'.'.'.'.'.'.'.'.'.'.'.'.'.'.'.'.'.'.'.'.'.'.'.'.'.'.'.'.'.",
"'.'.'.'.'.'.'.'.'.'.'.'.'.'.'.'.L _ &.@.L n '.'.'.'.V $.@.L Z '.'.'.'.'.'.'.'.'.'.'.'.'.'.'.'.'.'.'.'.'.'.'.'.'.'.'.'.'.'.'.'.'.",
"'.'.'.'.'.'.'.'.'.'.'.'.'.'.'.'.E ' &.@.K n '.'.'.'.V $.+.L Z '.'.'.'.'.'.'.'.'.'.'.'.'.'.'.'.'.'.'.'.'.'.'.'.'.'.'.'.'.'.'.'.'.",
"'.'.'.'.'.'.'.'.'.'.'.'.'.'.'.'.! ' &.@.H l '.'.'.'.V $.+.L Z '.'.'.'.'.'.'.'.'.'.'.'.'.'.'.'.'.'.'.'.'.'.'.'.'.'.'.'.'.'.'.'.'.",
"'.'.'.'.'.'.'.'.'.'.'.'.'.'.'.'.E ' &.@.H l '.'.'.'.V $.+.L Z '.'.'.'.'.'.'.'.'.'.'.'.'.'.'.'.'.'.'.'.'.'.'.'.'.'.'.'.'.'.'.'.'.",
"'.'.'.'.'.'.'.'.'.'.'.'.'.'.'.'.R ` &.@.H l '.'.'.'.V $.+.L Z '.'.'.'.'.'.'.'.'.'.'.'.'.'.'.'.'.'.'.'.'.'.'.'.'.'.'.'.'.'.'.'.'.",
"'.'.'.'.'.'.'.'.'.'.'.'.'.'.'.'.R ) &.@.H l '.'.'.'.V $.+.L Z '.'.'.'.'.'.'.'.'.'.'.'.'.'.'.'.'.'.'.'.'.'.'.'.'.'.'.'.'.'.'.'.'.",
"'.'.'.'.'.'.'.'.'.'.'.'.'.'.'.'.L ) &.@.H l '.'.'.'.V $.+.L Z '.'.'.'.'.'.'.'.'.'.'.'.'.'.'.'.'.'.'.'.'.'.'.'.'.'.'.'.'.'.'.'.'.",
"'.'.'.'.'.'.'.'.'.'.'.'.'.'.'.'.E _ &.@.H l '.'.'.'.V $.+.L Z '.'.'.'.'.'.'.'.'.'.'.'.'.'.'.'.'.'.'.'.'.'.'.'.'.'.'.'.'.'.'.'.'.",
"'.'.'.'.'.'.'.'.'.'.'.'.'.'.'.'.! ' &.@.H k '.'.'.'.V $.+.L Z '.'.'.'.'.'.'.'.'.'.'.'.'.'.'.'.'.'.'.'.'.'.'.'.'.'.'.'.'.'.'.'.'.",
"'.'.'.'.'.'.'.'.'.'.'.'.'.'.'.'.E ' &.@.H k '.'.'.'.V $.+.L Z '.'.'.'.'.'.'.'.'.'.'.'.'.'.'.'.'.'.'.'.'.'.'.'.'.'.'.'.'.'.'.'.'.",
"'.'.'.'.'.'.'.'.'.'.'.'.'.'.'.'.R ' &.@.H l '.'.'.'.V $.+.L Z '.'.'.'.'.'.'.'.'.'.'.'.'.'.'.'.'.'.'.'.'.'.'.'.'.'.'.'.'.'.'.'.'.",
"'.'.'.'.'.'.'.'.'.'.'.'.'.'.'.'.R ` &.@.H l '.'.'.'.V $.+.L Z '.'.'.'.'.'.'.'.'.'.'.'.'.'.'.'.'.'.'.'.'.'.'.'.'.'.'.'.'.'.'.'.'.",
"'.'.'.'.'.'.'.'.'.'.'.'.'.'.'.'.R ` &.@.H l '.'.'.'.V $.+.L Z '.'.'.'.'.'.'.'.'.'.'.'.'.'.'.'.'.'.'.'.'.'.'.'.'.'.'.'.'.'.'.'.'.",
"'.'.'.'.'.'.'.'.'.'.'.'.'.'.'.'.Q ' &.@.L n '.'.'.'.V $.+.L Z '.'.'.'.'.'.'.'.'.'.'.'.'.'.'.'.'.'.'.'.'.'.'.'.'.'.'.'.'.'.'.'.'.",
"'.'.'.'.'.'.'.'.'.'.'.'.'.'.'.'.Q ' &.$.E V '.'.'.'.V $.+.L Z '.'.'.'.'.'.'.'.'.'.'.'.'.'.'.'.'.'.'.'.'.'.'.'.'.'.'.'.'.'.'.'.'.",
"'.'.'.'.'.'.'.'.'.'.'.'.'.'.'.D ~ o.*.&.) K '.'.'.'.V $.+.L Z '.'.'.'.'.'.'.'.'.'.'.'.'.'.'.'.'.'.'.'.'.'.'.'.'.'.'.'.'.'.'.'.'.",
"'.'.'.'.'.'.'.'.'.'.'.'.'.'.N L o.$.*.*.@.' V '.'.'.V $.+.L Z '.'.'.'.'.'.'.'.'.'.'.'.'.'.'.'.'.'.'.'.'.'.'.'.'.'.'.'.'.'.'.'.'.",
"'.'.'.'.'.'.'.'.'.'.'.'.'.'.B P $.v.*.*.v.@.C '.'.a C $.+.L Z '.'.'.'.'.'.'.'.'.'.'.'.'.'.'.'.'.'.'.'.'.'.'.'.'.'.'.'.'.'.'.'.'.",
"'.'.'.'.'.'.'.'.'.'.'.'.'.N B P $.v.*.*.v.$.Z p '.a C $.@.L Z '.'.'.'.'.'.'.'.'.'.'.'.'.'.'.'.'.'.'.'.'.'.'.'.'.'.'.'.'.'.'.'.'.",
"'.'.'.'.'.'.'.'.'.'.'.'.'.N B P $.v.*.*.v.$.Z p '.i V $.+.L Z '.'.'.'.'.'.'.'.'.'.'.'.'.'.'.'.'.'.'.'.'.'.'.'.'.'.'.'.'.'.'.'.'.",
"'.'.'.'.'.'.'.'.'.'.'.'.'.'.B L $.v.*.*.v.$.V '.'.g D $.@.~ P '.'.'.'.'.'.'.'.'.'.'.'.'.'.'.'.'.'.'.'.'.'.'.'.'.'.'.'.'.'.'.'.'.",
"'.'.'.'.'.'.'.'.'.'.'.'.'.'.'.'.'.'.'.'.'.'.'.'.j B E $.&.o.X.X.'.'.'.'.'.'.'.'.'.'.'.'.'.'.'.'.'.'.'.'.'.'.'.'.'.'.'.'.'.'.'.'.",
"'.'.'.'.'.'.'.'.'.'.'.'.'.'.'.'.'.'.'.'.'.'.'.'.B H ) $.*.$.@.@.O.'.'.'.'.'.'.'.'.'.'.'.'.'.'.'.'.'.'.'.'.'.'.'.'.'.'.'.'.'.'.'.",
"'.'.'.'.'.'.'.'.'.'.'.'.'.'.'.'.'.'.'.'.'.'.'.'.'.P ' &.v.*.&.&.#.'.'.'.'.'.'.'.'.'.'.'.'.'.'.'.'.'.'.'.'.'.'.'.'.'.'.'.'.'.'.'.",
"'.'.'.'.'.'.'.'.'.'.'.'.'.'.'.'.'.'.'.'.'.'.'.'.'.E ' $.*.*.*.$.@.'.'.'.'.'.'.'.'.'.'.'.'.'.'.'.'.'.'.'.'.'.'.'.'.'.'.'.'.'.'.'.",
"'.'.'.'.'.'.'.'.'.'.'.'.'.'.'.'.'.'.'.'.'.'.'.'.'.L ~ +.$.$.+.o.} '.'.'.'.'.'.'.'.'.'.'.'.'.'.'.'.'.'.'.'.'.'.'.'.'.'.'.'.'.'.'.",
"'.'.'.'.'.'.'.'.'.'.'.'.'.'.'.'.'.'.'.'.'.'.'.'.'.F W [ | | | ] ( '.'.'.'.'.'.'.'.'.'.'.'.'.'.'.'.'.'.'.'.'.'.'.'.'.'.'.'.'.'.'.",
"'.'.'.'.'.'.'.'.'.'.'.'.'.'.'.'.'.'.'.'.'.'.'.'.'.'.G ^ / / / '.'.'.'.'.'.'.'.'.'.'.'.'.'.'.'.'.'.'.'.'.'.'.'.'.'.'.'.'.'.'.'.'."
};
