/* XPM */
static char *result[] = {
/* columns rows colors chars-per-pixel */
"64 64 195 2 ",
"   c #431C5A",
".  c #421D5A",
"X  c #431D5A",
"o  c #431F5A",
"O  c #441B5D",
"+  c #441B5E",
"@  c #451E5D",
"#  c #461F5F",
"$  c #461A61",
"%  c #471A61",
"&  c #4A1966",
"*  c #4A1A67",
"=  c #4D196A",
"-  c #4D196B",
";  c #511F6D",
":  c #521D6F",
">  c #531672",
",  c #531574",
"<  c #511870",
"1  c #561B75",
"2  c #59157A",
"3  c #59147D",
"4  c #5C197E",
"5  c #492062",
"6  c #572576",
"7  c #582477",
"8  c #613B7D",
"9  c #63427D",
"0  c #5B0081",
"q  c #5C0082",
"w  c #5C0083",
"e  c #5F0F85",
"r  c #5D1182",
"t  c #5E1183",
"y  c #600487",
"u  c #600F86",
"i  c #610189",
"p  c #62008A",
"a  c #63028B",
"s  c #64028B",
"d  c #62008C",
"f  c #63008C",
"g  c #64008D",
"h  c #64018D",
"j  c #65008E",
"k  c #65018E",
"l  c #66008F",
"z  c #620D89",
"x  c #640D8B",
"c  c #66098F",
"v  c #660B8E",
"b  c #640C8C",
"n  c #640D8C",
"m  c #601586",
"M  c #64118A",
"N  c #65198A",
"B  c #670090",
"V  c #670091",
"C  c #680091",
"Z  c #680092",
"A  c #680192",
"S  c #680093",
"D  c #690093",
"F  c #680094",
"G  c #690094",
"H  c #690095",
"J  c #690195",
"K  c #6A0094",
"L  c #6A0095",
"P  c #6B0095",
"I  c #6A0096",
"U  c #6B0096",
"Y  c #6B0196",
"T  c #6A0097",
"R  c #6B0097",
"E  c #6C0096",
"W  c #6C0097",
"Q  c #6A0794",
"!  c #6B0695",
"~  c #6A0795",
"^  c #6B0496",
"/  c #6B0796",
"(  c #6D0797",
")  c #6C0098",
"_  c #6D0098",
"`  c #6C0099",
"'  c #6D0099",
"]  c #6D0199",
"[  c #6E0099",
"{  c #6D0298",
"}  c #6D0399",
"|  c #6E0399",
" . c #6D009A",
".. c #6E009A",
"X. c #6F009A",
"o. c #6E009B",
"O. c #6F009B",
"+. c #6F019B",
"@. c #6E029A",
"#. c #6E029B",
"$. c #6F009C",
"%. c #6F019C",
"&. c #6E089A",
"*. c #6D0C98",
"=. c #70009C",
"-. c #70009D",
";. c #71009D",
":. c #70019D",
">. c #70009E",
",. c #71009E",
"<. c #70019E",
"1. c #70049D",
"2. c #70059D",
"3. c #70069D",
"4. c #70089D",
"5. c #71089D",
"6. c #71099D",
"7. c #710B9D",
"8. c #691791",
"9. c #6B1295",
"0. c #6C1596",
"q. c #6C1696",
"w. c #6B1994",
"e. c #6C1A94",
"r. c #6C1996",
"t. c #6E1098",
"y. c #6F1C99",
"u. c #70109C",
"i. c #71179D",
"p. c #73169E",
"a. c #72199C",
"s. c #66258B",
"d. c #672988",
"f. c #6A2F8B",
"g. c #692C8E",
"h. c #6F2E93",
"j. c #6F2997",
"k. c #71239A",
"l. c #712998",
"z. c #712F98",
"x. c #722E9A",
"c. c #6E3390",
"v. c #713795",
"b. c #74309C",
"n. c #74339C",
"m. c #743A98",
"M. c #753D99",
"N. c #753E99",
"B. c #7627A0",
"V. c #6D418C",
"C. c #6C5083",
"Z. c #73528C",
"A. c #735B89",
"S. c #744395",
"D. c #744595",
"F. c #744D92",
"G. c #734894",
"H. c #78439C",
"J. c #794F98",
"K. c #7C4A9E",
"L. c #765490",
"P. c #785294",
"I. c #775990",
"U. c #7A5D92",
"Y. c #7B5E93",
"T. c #7C579A",
"R. c #7B6391",
"E. c #825F9F",
"W. c #806498",
"Q. c #816699",
"!. c #836B9A",
"~. c #866F9B",
"^. c #886F9F",
"/. c #88719D",
"(. c #8156A1",
"). c #8458A4",
"_. c #8561A3",
"`. c #8B6BA7",
"'. c #8964A9",
"]. c #8D6AAC",
"[. c #8F6DAD",
"{. c #8E70A7",
"}. c #8F7AA4",
"|. c #9377AC",
" X c #967AAF",
".X c #977CAF",
"XX c #997DB1",
"oX c #9A7FB1",
"OX c #9885AB",
"+X c #9B81B1",
"@X c #9E88B4",
"#X c #A28CB8",
"$X c #A794BA",
"%X c #AC99BF",
"&X c None",
/* pixels */
"&X&X&X&X&X&X&X&X&X&X&X&X&X&X&X&X&X&X&X&X&X&X&X&X&X&X&X&X&X&X&X&X&X&X&X&X&X&X&X&X&X&X&X&X&X&X&X&X&X&X&X&X&X&X&X&X&X&X&X&X&X&X&X&X",
"&X&X&X&X&X&X&X&X&X&X&X&X&X&X&X&X&X&X&X&X&X&X&X&X&X&X&X&X&X&X&X&X&X&X&X&X&X&X&X&X&X&X&X&X&X&X&X&X&X&X&X&X&X&X&X&X&X&X&X&X&X&X&X&X",
"&X&X&X&X&X&X&X&X&X&X&X&X&X&X&X&X&X&X&X&X&X&X&X&X&X&X&XW ' $.$.$.$.$.$.$.o.L &X&X&X&X&X&X&X&X&X&X&X&X&X&X&X&X&X&X&X&X&X&X&X&X&X&X",
"&X&X&X&X&X&X&X&X&X&X&X&X&X&X&X&X&X&X&X&X&X&X&X&X&X&XE [ O.-.-.-.-.-.-.-.=.R B &X&X&X&X&X&X&X&X&X&X&X&X&X&X&X&X&X&X&X&X&X&X&X&X&X",
"&X&X&X&X&X&X&X&X&X&X&X&X&X&X&X&X&X&X&X&X&X&X&X&X&X&XW O.=.-.,.,.,.,.,.,.-...R l &X&X&X&X&X&X&X&X&X&X&X&X&X&X&X&X&X&X&X&X&X&X&X&X",
"&X&X&X&X&X&X&X&X&X&X&X&X&X&X&X&X&X&X&X&X&X&X&X&X&Xs ( 4.5.5.2.<.-.:.1.6.7.3.$.Z &X&X&X&X&X&X&X&X&X&X&X&X&X&X&X&X&X&X&X&X&X&X&X&X",
"&X&X&X&X&X&X&X&X&X&X&X&X&X&X&X&X&X&X&X&X&X&X&X&X&XN v.N.M.m.x.u.&.0.j.H.K.n.*.k &X&X&X&X&X&X&X&X&X&X&X&X&X&X&X&X&X&X&X&X&X&X&X&X",
"&X&X&X&X&X&X&X&X&X&X&X&X&X&X&X&X&X&X&X&X&X&X&X&X&Xd.L.Y.U.I.G.y.9.s.V.Q.^.J.8.y &X&X&X&X&X&X&X&X&X&X&X&X&X&X&X&X&X&X&X&X&X&X&X&X",
"&X&X&X&X&X&X&X&X&X&X&X&X&X&X&X&X&X&X&X&X&X&X&X&X&Xf.W./.~.!.T.k.q.g.F.}.OXE.w.a &X&X&X&X&X&X&X&X&X&X&X&X&X&X&X&X&X&X&X&X&X&X&X&X",
"&X&X&X&X&X&X&X&X&X&X&X&X&X&X&X&X&X&X&X&X&X&X&X&X&Xc.{.+XoX X'.B.i.b.).#X%X[.a.L &X&X&X&X&X&X&X&X&X&X&X&X&X&X&X&X&X&X&X&X&X&X&X&X",
"&X&X&X&X&X&X&X&X&X&X&X&X&X&X&X&X&X&X&X&X&X&X&X&Xd h.`.XX.X|._.l.r.z.(.@X$X].p.' &X&X&X&X&X&X&X&X&X&X&X&X&X&X&X&X&X&X&X&X&X&X&X&X",
"&X&X&X&X&X&X&X&X&X&X&X&X&X&X&X&X&X&XU U U U L L G e.S.P.Z.C.9 7 1 6 8 A.R.D.t.) Y U L &X&X&X&X&X&X&X&X&X&X&X&X&X&X&X&X&X&X&X&X&X",
"&X&X&X&X&X&X&X&X&X&X&X&X&X&X&X&X&X&XW W W W U W ' ^ M 4 : # o X   . @ 5 ; m / { _ ) W U &X&X&X&X&X&X&X&X&X&X&X&X&X&X&X&X&X&X&X&X",
"&X&X&X&X&X&X&X&X&X&X&X&X&X&X&X&X&X_ o.O.O.O.....O.] c e , % O + O O $ & > z | +.O.O.o.o.....W P &X&X&X&X&X&X&X&X&X&X&X&X&X&X&X&X",
"&X&X&X&X&X&X&X&X&X&X&X&X&X&X&X&X&X[ -.-.-.-.-.-.-.+.~ n 3 - * * * * = < 2 v %.-.-.-.-.=.$...E K &X&X&X&X&X&X&X&X&X&X&X&X&X&X&X&X",
"&X&X&X&X&X&X&X&X&X&X&X&X&X&X&X&X&X..-.,.,.,.,.,.,.=.} Q b t r r r r t u x ! -.,.>.,.,.-.=..._ P L &X&X&X&X&X&X&X&X&X&X&X&X&X&X&X",
"&X&X&X&X&X&X&X&X&X&X&X&X&X&X&X&X&X..-.,.-.;.;.-.-.-.-.%.#.| } } } } | | @.%.-.,.;.;.,.,.;.$.' U U &X&X&X&X&X&X&X&X&X&X&X&X&X&X&X",
"&X&X&X&X&X&X&X&X&X&X&X&X&X&X&X&X&X..-.,.,.=.&X&Xi g W -.,.-.,.,.,.,.,.,.,.-.,.-.&X&X..O.-.-.[ W &X&X&X&X&X&X&X&X&X&X&X&X&X&X&X&X",
"&X&X&X&X&X&X&X&X&X&X&X&X&X&X&X&X&X..-.,.,.=.&X&Xi g W -.,.-.,.,.,.,.,.,.-.-.,.-.&X&X..O.-.-.[ W &X&X&X&X&X&X&X&X&X&X&X&X&X&X&X&X",
"&X&X&X&X&X&X&X&X&X&X&X&X&X&X&X&X&X..-.,.,.=.&X&Xi g W -.,.-.,.,.,.,.,.,.,.-.,.-.&X&X..O.-.-.[ W &X&X&X&X&X&X&X&X&X&X&X&X&X&X&X&X",
"&X&X&X&X&X&X&X&X&X&X&X&X&X&X&X&X&X..-.,.,.=.&X&Xi g W -.,.-.,.,.,.,.,.,.>.-.,.-.&X&X..O.-.-.[ W &X&X&X&X&X&X&X&X&X&X&X&X&X&X&X&X",
"&X&X&X&X&X&X&X&X&X&X&X&X&X&X&X&X&X..-.,.,.=.&X&Xi g W -.,.-.,.,.,.,.,.,.>.-.,.-.&X&X..O.-.-.[ W &X&X&X&X&X&X&X&X&X&X&X&X&X&X&X&X",
"&X&X&X&X&X&X&X&X&X&X&X&X&X&X&X&X&X..-.,.,.=.&X&Xi g W -.,.-.,.,.,.,.,.,.>.-.,.-.&X&X..O.-.-.[ W &X&X&X&X&X&X&X&X&X&X&X&X&X&X&X&X",
"&X&X&X&X&X&X&X&X&X&X&X&X&X&X&X&X&X..-.,.,.=.&X&Xi g W -.,.-.,.,.,.,.,.,.>.-.,.-.&X&X..O.-.-.[ W &X&X&X&X&X&X&X&X&X&X&X&X&X&X&X&X",
"&X&X&X&X&X&X&X&X&X&X&X&X&X&X&X&X&X..-.,.,.=.&X&Xi g W -.,.-.,.,.,.,.,.,.>.-.,.-.&X&X..O.-.-.[ W &X&X&X&X&X&X&X&X&X&X&X&X&X&X&X&X",
"&X&X&X&X&X&X&X&X&X&X&X&X&X&X&X&X&X..-.,.,.=.&X&Xi g W -.,.-.,.,.,.,.,.,.>.-.,.-.&X&X..O.-.-.[ W &X&X&X&X&X&X&X&X&X&X&X&X&X&X&X&X",
"&X&X&X&X&X&X&X&X&X&X&X&X&X&X&X&X&X..-.,.,.=.&X&Xi g W -.,.-.,.,.,.,.,.,.>.-.,.-.&X&X..O.-.-.[ W &X&X&X&X&X&X&X&X&X&X&X&X&X&X&X&X",
"&X&X&X&X&X&X&X&X&X&X&X&X&X&X&X&X&X..-.,.,.=.&X&Xi g W -.,.-.,.,.,.,.,.,.>.-.,.-.&X&X..O.-.-.[ W &X&X&X&X&X&X&X&X&X&X&X&X&X&X&X&X",
"&X&X&X&X&X&X&X&X&X&X&X&X&X&X&X&X&X..-.,.,.=.&X&Xi g W -.,.-.-.-.-.-.-.-.,.-.,.-.&X&X..O.-.-.[ W &X&X&X&X&X&X&X&X&X&X&X&X&X&X&X&X",
"&X&X&X&X&X&X&X&X&X&X&X&X&X&X&X&X&X..-.,.,.=.&X&Xi g W -.,.,.,.,.,.,.,.;.-.-.,.-.&X&X..O.-.-.[ W &X&X&X&X&X&X&X&X&X&X&X&X&X&X&X&X",
"&X&X&X&X&X&X&X&X&X&X&X&X&X&X&X&X&X..-.,.>.=.&X&Xi g W -.-.-.-.-.-.-.-.-.,.-.>.-.&X&X..O.-.-.[ W &X&X&X&X&X&X&X&X&X&X&X&X&X&X&X&X",
"&X&X&X&X&X&X&X&X&X&X&X&X&X&X&X&X&X..-.,.,.=.&X&Xi g W -.=.O.X.O.O.O.$.-.,.,.-...&X&X..O.-.-.[ W &X&X&X&X&X&X&X&X&X&X&X&X&X&X&X&X",
"&X&X&X&X&X&X&X&X&X&X&X&X&X&X&X&X&X..-.-.-.=.&X&Xi g W -.O._ _ _ _ _ ..$.-.,.-.) &X&X' O.-.-.[ W &X&X&X&X&X&X&X&X&X&X&X&X&X&X&X&X",
"&X&X&X&X&X&X&X&X&X&X&X&X&X&X&X&X&X) O.O.O...&X&Xi g W -.' G G &X&XL W $.>.,.-.U &X&X_ O.-.-.[ W &X&X&X&X&X&X&X&X&X&X&X&X&X&X&X&X",
"&X&X&X&X&X&X&X&X&X&X&X&X&X&X&X&X&X&X' ' ' ) &X&Xi g W -.R j &X&X&X&XZ O.;.,.-.G &X&X) O.-.=.[ W &X&X&X&X&X&X&X&X&X&X&X&X&X&X&X&X",
"&X&X&X&X&X&X&X&X&X&X&X&X&X&X&X&X&X&X) ) ) &X&X&Xi g W -.U f &X&X&X&X&X..;.,.-.S &X&X) O.-.=.[ E &X&X&X&X&X&X&X&X&X&X&X&X&X&X&X&X",
"&X&X&X&X&X&X&X&X&X&X&X&X&X&X&X&X&X&X&X&X&X&X&X&Xi g W -.U f &X&X&X&X&X..;.,.-.S &X&X) $.-.-.[ W &X&X&X&X&X&X&X&X&X&X&X&X&X&X&X&X",
"&X&X&X&X&X&X&X&X&X&X&X&X&X&X&X&X&X&X&X&X&X&X&X&Xi g W -.U f &X&X&X&X&X..;.,.-.S &X&XP ..o...W L &X&X&X&X&X&X&X&X&X&X&X&X&X&X&X&X",
"&X&X&X&X&X&X&X&X&X&X&X&X&X&X&X&X&X&X&X&X&X&X&X&Xi g W -.U f &X&X&X&X&X..;.,.-.D &X&X&X&XV V j &X&X&X&X&X&X&X&X&X&X&X&X&X&X&X&X&X",
"&X&X&X&X&X&X&X&X&X&X&X&X&X&X&X&X&X&X&X&X&X&X&X&Xi g W -.U f &X&X&X&X&X..;.,.-.D &X&X&X&X&X&X&X&X&X&X&X&X&X&X&X&X&X&X&X&X&X&X&X&X",
"&X&X&X&X&X&X&X&X&X&X&X&X&X&X&X&X&X&X&X&X&X&X&X&Xi g W -.U f &X&X&X&X&X..;.,.-.D &X&X&X&X&X&X&X&X&X&X&X&X&X&X&X&X&X&X&X&X&X&X&X&X",
"&X&X&X&X&X&X&X&X&X&X&X&X&X&X&X&X&X&X&X&X&X&X&X&Xi g W -.U f &X&X&X&X&X..;.,.-.D &X&X&X&X&X&X&X&X&X&X&X&X&X&X&X&X&X&X&X&X&X&X&X&X",
"&X&X&X&X&X&X&X&X&X&X&X&X&X&X&X&X&X&X&X&X&X&X&X&Xi g W -.U f &X&X&X&X&X..;.,.-.D &X&X&X&X&X&X&X&X&X&X&X&X&X&X&X&X&X&X&X&X&X&X&X&X",
"&X&X&X&X&X&X&X&X&X&X&X&X&X&X&X&X&X&X&X&X&X&X&X&Xi g W -.U f &X&X&X&X&X..;.,.-.D &X&X&X&X&X&X&X&X&X&X&X&X&X&X&X&X&X&X&X&X&X&X&X&X",
"&X&X&X&X&X&X&X&X&X&X&X&X&X&X&X&X&X&X&X&X&X&X&X&Xi g W -.U f &X&X&X&X&X..;.,.-.D &X&X&X&X&X&X&X&X&X&X&X&X&X&X&X&X&X&X&X&X&X&X&X&X",
"&X&X&X&X&X&X&X&X&X&X&X&X&X&X&X&X&X&X&X&X&X&X&X&Xi g W -.U f &X&X&X&X&X..;.,.-.D &X&X&X&X&X&X&X&X&X&X&X&X&X&X&X&X&X&X&X&X&X&X&X&X",
"&X&X&X&X&X&X&X&X&X&X&X&X&X&X&X&X&X&X&X&X&X&X&X&Xi g W -.U f &X&X&X&X&X..;.,.-.D &X&X&X&X&X&X&X&X&X&X&X&X&X&X&X&X&X&X&X&X&X&X&X&X",
"&X&X&X&X&X&X&X&X&X&X&X&X&X&X&X&X&X&X&X&X&X&X&X&Xi g W -.U f &X&X&X&X&X..;.,.-.D &X&X&X&X&X&X&X&X&X&X&X&X&X&X&X&X&X&X&X&X&X&X&X&X",
"&X&X&X&X&X&X&X&X&X&X&X&X&X&X&X&X&X&X&X&X&X&X&X&Xi g W -.U f &X&X&X&XC O.-.,.-.G &X&X&X&X&X&X&X&X&X&X&X&X&X&X&X&X&X&X&X&X&X&X&X&X",
"&X&X&X&X&X&X&X&X&X&X&X&X&X&X&X&X&X&X&X&X&X&X&X&Xi g W -.U f &X&X&X&XK O.>.,.-.L &X&X&X&X&X&X&X&X&X&X&X&X&X&X&X&X&X&X&X&X&X&X&X&X",
"&X&X&X&X&X&X&X&X&X&X&X&X&X&X&X&X&X&X&X&X&X&X&X&Xi g W -.U f &X&X&XA W $.>.,.-.W j &X&X&X&X&X&X&X&X&X&X&X&X&X&X&X&X&X&X&X&X&X&X&X",
"&X&X&X&X&X&X&X&X&X&X&X&X&X&X&X&X&X&X&X&X&X&X&X&Xi g W -.U f w &X&XW O.-.;.,.-.O._ U &X&X&X&X&X&X&X&X&X&X&X&X&X&X&X&X&X&X&X&X&X&X",
"&X&X&X&X&X&X&X&X&X&X&X&X&X&X&X&X&X&X&X&X&X&X&X&Xi g W -.U f 0 &X&X..;.>.;.;.>.-.-.O.&X&X&X&X&X&X&X&X&X&X&X&X&X&X&X&X&X&X&X&X&X&X",
"&X&X&X&X&X&X&X&X&X&X&X&X&X&X&X&X&X&X&X&X&X&X&X&Xi g W -.U f 0 &X&X..,.-.-.-.;.>.;.=.&X&X&X&X&X&X&X&X&X&X&X&X&X&X&X&X&X&X&X&X&X&X",
"&X&X&X&X&X&X&X&X&X&X&X&X&X&X&X&X&X&X&X&X&X&X&X&Xi h W =.U f q &X&X..,.-.,.,.,.>.;.O.&X&X&X&X&X&X&X&X&X&X&X&X&X&X&X&X&X&X&X&X&X&X",
"&X&X&X&X&X&X&X&X&X&X&X&X&X&X&X&X&X&X&X&X&X&X&X&XV S ' -._ Z p &X&X_ -.-.-.-.-.-.-...&X&X&X&X&X&X&X&X&X&X&X&X&X&X&X&X&X&X&X&X&X&X",
"&X&X&X&X&X&X&X&X&X&X&X&X&X&X&X&X&X&X&X&X&X&X&XI W ' O.-.O.) Z &X&X&X&X&X&X&X&X&X&X&X&X&X&X&X&X&X&X&X&X&X&X&X&X&X&X&X&X&X&X&X&X&X",
"&X&X&X&X&X&X&X&X&X&X&X&X&X&X&X&X&X&X&X&X&X&XJ R  .O.=.;.=.O.P &X&X&X&X&X&X&X&X&X&X&X&X&X&X&X&X&X&X&X&X&X&X&X&X&X&X&X&X&X&X&X&X&X",
"&X&X&X&X&X&X&X&X&X&X&X&X&X&X&X&X&X&X&X&X&X&XI ) O.-.-.,.-.=.) &X&X&X&X&X&X&X&X&X&X&X&X&X&X&X&X&X&X&X&X&X&X&X&X&X&X&X&X&X&X&X&X&X",
"&X&X&X&X&X&X&X&X&X&X&X&X&X&X&X&X&X&X&X&X&X&XI ) O.-.-.-.-.-._ &X&X&X&X&X&X&X&X&X&X&X&X&X&X&X&X&X&X&X&X&X&X&X&X&X&X&X&X&X&X&X&X&X",
"&X&X&X&X&X&X&X&X&X&X&X&X&X&X&X&X&X&X&X&X&X&XH T  .o.O.O.O.O.W &X&X&X&X&X&X&X&X&X&X&X&X&X&X&X&X&X&X&X&X&X&X&X&X&X&X&X&X&X&X&X&X&X",
"&X&X&X&X&X&X&X&X&X&X&X&X&X&X&X&X&X&X&X&X&X&XF I ` o...X.X...U &X&X&X&X&X&X&X&X&X&X&X&X&X&X&X&X&X&X&X&X&X&X&X&X&X&X&X&X&X&X&X&X&X",
"&X&X&X&X&X&X&X&X&X&X&X&X&X&X&X&X&X&X&X&X&X&X&X&X&X&X&X&X&X&X&X&X&X&X&X&X&X&X&X&X&X&X&X&X&X&X&X&X&X&X&X&X&X&X&X&X&X&X&X&X&X&X&X&X",
"&X&X&X&X&X&X&X&X&X&X&X&X&X&X&X&X&X&X&X&X&X&X&X&X&X&X&X&X&X&X&X&X&X&X&X&X&X&X&X&X&X&X&X&X&X&X&X&X&X&X&X&X&X&X&X&X&X&X&X&X&X&X&X&X"
};
