/* XPM */
static char *result[] = {
/* columns rows colors chars-per-pixel */
"64 64 57 1 ",
"  c #62018B",
". c #64008D",
"X c #66008F",
"o c #670090",
"O c #670192",
"+ c #680092",
"@ c #690092",
"# c #680093",
"$ c #690093",
"% c #680193",
"& c #690094",
"* c #690095",
"= c #6A0094",
"- c #6A0095",
"; c #6B0095",
": c #6A0195",
"> c #6B0096",
", c #6A0196",
"< c #6B0196",
"1 c #6B0097",
"2 c #6C0097",
"3 c #6C0297",
"4 c #6C0397",
"5 c #6C0098",
"6 c #6D0098",
"7 c #6C0198",
"8 c #6C0099",
"9 c #6D0099",
"0 c #6E0099",
"q c #6D009A",
"w c #6E009A",
"e c #6F009A",
"r c #6E019A",
"t c #6E009B",
"y c #6F009B",
"u c #6E019B",
"i c #6F019B",
"p c #6E029A",
"a c #6E029B",
"s c #6F009C",
"d c #6E019C",
"f c #6F019C",
"g c #6F009D",
"h c #6F029C",
"j c #70009C",
"k c #71009C",
"l c #70009D",
"z c #71009D",
"x c #70019D",
"c c #70039C",
"v c #70009E",
"b c #71009E",
"n c #71019E",
"m c #71029E",
"M c #71039E",
"N c #70049D",
"B c None",
/* pixels */
"BBBBBBBBBBBBBBBBBBBBBBBBB5qslllllll5.BBBBBBBBBBBBBBBBBBBBBBBBBBB",
"BBBBBBBBBBBBBBBBBBBBBBBBB9tlbbbbbblq#BBBBBBBBBBBBBBBBBBBBBBBBBBB",
"BBBBBBBBBBBBBBBBBBBBBBBBByllblllllbsq8BBBBBBBBBBBBBBBBBBBBBBBBBB",
"BBBBBBBBBBBBBBBBBBBBBBBB>jbllbvbzlzvggBBBBBBBBBBBBBBBBBBBBBBBBBB",
"BBBBBBBBBBBBBBBBBBBBBBBB<hmlblbbllblfdBBBBBBBBBBBBBBBBBBBBBBBBBB",
"BBBBBBBBBBBBBBBBBBBBBBBB4NMxlbbbblblfaBBBBBBBBBBBBBBBBBBBBBBBBBB",
"BBBBBBBBBBBBBBBBBBBBBBBB4NMxlbbbblbllfBBBBBBBBBBBBBBBBBBBBBBBBBB",
"BBBBBBBBBBBBBBBBBBBBBBBB3cmlblbbbblbllBBBBBBBBBBBBBBBBBBBBBBBBBB",
"BBBBBBBBBBBBBBBBBBBBBBBB<hnllbbblblblsBBBBBBBBBBBBBBBBBBBBBBBBBB",
"BBBBBBBBBBBBBBBBBBBBBBBB:ixzvlvlblbllfBBBBBBBBBBBBBBBBBBBBBBBBBB",
"BBBBBBBBBBBBBBBBBBBBBBBo>uflblzblbllls9BBBBBBBBBBBBBBBBBBBBBBBBB",
"BBBBBBBBBBBBBBBBBBBBB>117pilblllblllbjw2+XoooBBBBBBBBBBBBBBBBBBB",
"BBBBBBBBBBBBBBBBBBBB2599rpilblllblxlbly9-@$$+oBBBBBBBBBBBBBBBBBB",
"BBBBBBBBBBBBBBBBBBBB9wtsssllblbblblbbllsw90061BBBBBBBBBBBBBBBBBB",
"BBBBBBBBBBBBBBBBBBBBtsllvlbblbvlblbllbbbbbbljwBBBBBBBBBBBBBBBBBB",
"BBBBBBBBBBBBBBBBB=0ssllbbbllblbvlbllzlbbbbvzjwBBBBBBBBBBBBBBBBBB",
"BBBBBBBBBBBBBBBB+;ybllllllbllbbbbbvzvzllllbzjwBBBBBBBBBBBBBBBBBB",
"BBBBBBBBBBBBBBBB+;yzjywwylblzbbbbbzlblstyslzjwBBBBBBBBBBBBBBBBBB",
"BBBBBBBBBBBBBBBB+;yly6>;9jbllbbbbbllbj959wszjwBBBBBBBBBBBBBBBBBB",
"BBBBBBBBBBBBBBBB+;ylw2&+2sbllbbbbblbls8,59yzjwBBBBBBBBBBBBBBBBBB",
"BBBBBBBBBBBBBBBB+;ylw;o.-sbllbbbbbllblBB>5yljwBBBBBBBBBBBBBBBBBB",
"BBBBBBBBBBBBBBBB+;ylwBB -sbllbbbbbblblBB>2yljwBBBBBBBBBBBBBBBBBB",
"BBBBBBBBBBBBBBBB+;ylwBB -sbllbbbbbllblBB>2yljwBBBBBBBBBBBBBBBBBB",
"BBBBBBBBBBBBBBBB+;ylwBB -sbllbbbbbblblBB>2yljwBBBBBBBBBBBBBBBBBB",
"BBBBBBBBBBBBBBBB+;ylwBB -sbllbbbbbblblBB>2yljwBBBBBBBBBBBBBBBBBB",
"BBBBBBBBBBBBBBBB+;ylwBB -sbllbbbbbblblBB>2yljwBBBBBBBBBBBBBBBBBB",
"BBBBBBBBBBBBBBBB+;ylwBB -sbllbbbbbblblBB>2yljwBBBBBBBBBBBBBBBBBB",
"BBBBBBBBBBBBBBBB+;ylwBB -sbllbbbbbblblBB>2yljwBBBBBBBBBBBBBBBBBB",
"BBBBBBBBBBBBBBBB+;ylwBB -sbllbbbbbblblBB>2yljwBBBBBBBBBBBBBBBBBB",
"BBBBBBBBBBBBBBBB+;ylwBB -sbllbbbbbblblBB>2yljwBBBBBBBBBBBBBBBBBB",
"BBBBBBBBBBBBBBBB+;ylwBB -sbllbbbbbblblBB>2yljwBBBBBBBBBBBBBBBBBB",
"BBBBBBBBBBBBBBBB+;ylwBB -sblllbbvbzlblBB>2yljwBBBBBBBBBBBBBBBBBB",
"BBBBBBBBBBBBBBBB+;ylwBB -sblllllllllblBB>2yljwBBBBBBBBBBBBBBBBBB",
"BBBBBBBBBBBBBBBB+;ylwBB -sbbbbbbbbvlblBB>2yljwBBBBBBBBBBBBBBBBBB",
"BBBBBBBBBBBBBBBB+;ylwBB -szlllljjlzvblBB>2yljwBBBBBBBBBBBBBBBBBB",
"BBBBBBBBBBBBBBBB+;ylwBB -slw996>>wlbzjBB;2yljwBBBBBBBBBBBBBBBBBB",
"BBBBBBBBBBBBBBBB+;ylwBB -ss6>BBBB5lbzjBB=>wsy9BBBBBBBBBBBBBBBBBB",
"BBBBBBBBBBBBBBBB+;ylwBB -js6>BBBB6lbblBBBX#-*BBBBBBBBBBBBBBBBBBB",
"BBBBBBBBBBBBBBBB+;ylwBB -ss6>BBBB6lbblBBBBBBBBBBBBBBBBBBBBBBBBBB",
"BBBBBBBBBBBBBBBBB-wj0BBB-ss6>BBBB6lbblBBBBBBBBBBBBBBBBBBBBBBBBBB",
"BBBBBBBBBBBBBBBBBBwyBBBB-ss6>BBBB6lbblBBBBBBBBBBBBBBBBBBBBBBBBBB",
"BBBBBBBBBBBBBBBBBBBBBBBB-js6>BBBB6lbblBBBBBBBBBBBBBBBBBBBBBBBBBB",
"BBBBBBBBBBBBBBBBBBBBBBBB-js6>BBBB6lbblBBBBBBBBBBBBBBBBBBBBBBBBBB",
"BBBBBBBBBBBBBBBBBBBBBBBB-js6>BBBB6lbblBBBBBBBBBBBBBBBBBBBBBBBBBB",
"BBBBBBBBBBBBBBBBBBBBBBBB-js6>BBBB6lbblBBBBBBBBBBBBBBBBBBBBBBBBBB",
"BBBBBBBBBBBBBBBBBBBBBBBB-js6>BBBB6lbblBBBBBBBBBBBBBBBBBBBBBBBBBB",
"BBBBBBBBBBBBBBBBBBBBBBBB-js6>BBBB6lbblBBBBBBBBBBBBBBBBBBBBBBBBBB",
"BBBBBBBBBBBBBBBBBBBBBBBB-js6>BBBB6lbblBBBBBBBBBBBBBBBBBBBBBBBBBB",
"BBBBBBBBBBBBBBBBBBBBBBBB-js6>BBBB6lbblBBBBBBBBBBBBBBBBBBBBBBBBBB",
"BBBBBBBBBBBBBBBBBBBBBBBB-sj62BBBB6lbblBBBBBBBBBBBBBBBBBBBBBBBBBB",
"BBBBBBBBBBBBBBBBBBBBBBB-9llw9BBBB6lbblBBBBBBBBBBBBBBBBBBBBBBBBBB",
"BBBBBBBBBBBBBBBBBBBBBB2wsllsyBBBB6lbblBBBBBBBBBBBBBBBBBBBBBBBBBB",
"BBBBBBBBBBBBBBBBBBBBBO6slzblsBBBB6lbblBBBBBBBBBBBBBBBBBBBBBBBBBB",
"BBBBBBBBBBBBBBBBBBBBB%9lzvlblBBBB6lbblBBBBBBBBBBBBBBBBBBBBBBBBBB",
"BBBBBBBBBBBBBBBBBBBBBB9sjjjjsBBBB6lbblBBBBBBBBBBBBBBBBBBBBBBBBBB",
"BBBBBBBBBBBBBBBBBBBBBB-566665BBBB6lbblBBBBBBBBBBBBBBBBBBBBBBBBBB",
"BBBBBBBBBBBBBBBBBBBBBBB------BBBB9lbblBBBBBBBBBBBBBBBBBBBBBBBBBB",
"BBBBBBBBBBBBBBBBBBBBBBBBBBBBBBBB&wlbblBBBBBBBBBBBBBBBBBBBBBBBBBB",
"BBBBBBBBBBBBBBBBBBBBBBBBBBBBBBBB2tlbblwBBBBBBBBBBBBBBBBBBBBBBBBB",
"BBBBBBBBBBBBBBBBBBBBBBBBBBBBBBB-tslzbls9BBBBBBBBBBBBBBBBBBBBBBBB",
"BBBBBBBBBBBBBBBBBBBBBBBBBBBBBBB2lzbvvbbyBBBBBBBBBBBBBBBBBBBBBBBB",
"BBBBBBBBBBBBBBBBBBBBBBBBBBBBBBB2lzlzllzyBBBBBBBBBBBBBBBBBBBBBBBB",
"BBBBBBBBBBBBBBBBBBBBBBBBBBBBBBB2jkjjjjzeBBBBBBBBBBBBBBBBBBBBBBBB",
"BBBBBBBBBBBBBBBBBBBBBBBBBBBBBBBBjzlzllzeBBBBBBBBBBBBBBBBBBBBBBBB"
};
