/* XPM */
static char *result[] = {
/* columns rows colors chars-per-pixel */
"64 64 67 1 ",
"  c #5D0083",
". c #5D0084",
"X c #5F0086",
"o c #5F0087",
"O c #600087",
"+ c #600088",
"@ c #610089",
"# c #610189",
"$ c #63008A",
"% c #62018B",
"& c #63018B",
"* c #63008C",
"= c #64018C",
"- c #64008D",
"; c #65008E",
": c #66008F",
"> c #660090",
", c #670090",
"< c #670091",
"1 c #670092",
"2 c #690091",
"3 c #680092",
"4 c #690093",
"5 c #690094",
"6 c #690095",
"7 c #6A0094",
"8 c #6B0094",
"9 c #6A0095",
"0 c #6B0095",
"q c #690394",
"w c #6A0294",
"e c #6A0096",
"r c #6B0096",
"t c #6B0097",
"y c #6C0096",
"u c #6C0097",
"i c #6C0098",
"p c #6D0098",
"a c #6C0198",
"s c #6C0099",
"d c #6D0099",
"f c #6E0099",
"g c #6D009A",
"h c #6E009A",
"j c #6F009A",
"k c #6E019A",
"l c #6E009B",
"z c #6F009B",
"x c #6E019B",
"c c #6F019B",
"v c #6E039A",
"b c #6E029B",
"n c #6F029B",
"m c #6F009C",
"M c #6F019C",
"N c #6F009D",
"B c #6F029C",
"V c #70009C",
"C c #70019C",
"Z c #70009D",
"A c #71009D",
"S c #70019D",
"D c #70029D",
"F c #70009E",
"G c #71009E",
"H c #71019E",
"J c None",
/* pixels */
"JJJJJJJJJJJJJJJJJJJJJJJJJJJdhmZZZZZZmu:JJJJJJJJJJJJJJJJJJJJJJJJJ",
"JJJJJJJJJJJJJJJJJJJJJJJJJJuhmZGZGGZGZd5:JJJJJJJJJJJJJJJJJJJJJJJJ",
"JJJJJJJJJJJJJJJJJJJJJJJJJ1imZZGZZZZGZmh7JJJJJJJJJJJJJJJJJJJJJJJJ",
"JJJJJJJJJJJJJJJJJJJJJJJJJ4dZGZZGZZGZGAZrJJJJJJJJJJJJJJJJJJJJJJJJ",
"JJJJJJJJJJJJJJJJJJJJJJJJJrhZGZGZGGZGZCnwJJJJJJJJJJJJJJJJJJJJJJJJ",
"JJJJJJJJJJJJJJJJJJJJJJJJJpcSHZFGGGZGSBvqJJJJJJJJJJJJJJJJJJJJJJJJ",
"JJJJJJJJJJJJJJJJJJJJJJJJuikDHZZGGGZFASnaJJJJJJJJJJJJJJJJJJJJJJJJ",
"JJJJJJJJJJJJJJJJJJJJJJJJuukDHZGZGGGZGZZzrJJJJJJJJJJJJJJJJJJJJJJJ",
"JJJJJJJJJJJJJJJJJJJJJJJJidxDHZZFAAZGZGZzduJJJJJJJJJJJJJJJJJJJJJJ",
"JJJJJJJJJJJJJJJJJJrrrrrrphzCZGZAGZGZGZSzhir9JJJJJJJJJJJJJJJJJJJJ",
"JJJJJJJJJJJJJJJJJJpdddpphzmMMZGZAGZGZZZmzhdi0JJJJJJJJJJJJJJJJJJJ",
"JJJJJJJJJJJJJJJJJJmVVVmVZZMbnVAFAZGZMZGZZZVzfuJJJJJJJJJJJJJJJJJJ",
"JJJJJJJJJJJJJJJJJJZGAGFZGZMbnVAFAZGZMZGGGGGZzfy4JJJJJJJJJJJJJJJJ",
"JJJJJJJJJJJJJJJJJJZGZZGGGGZCZAGZAGZGZGZFGGGAZmdrJJJJJJJJJJJJJJJJ",
"JJJJJJJJJJJJJJJJJJZGZZZZZZZZAGZAGZGZGZGZZZZZGZhuJJJJJJJJJJJJJJJJ",
"JJJJJJJJJJJJJJJJJJZGGZjddfzZGZAFAZZGZZAVjjzVZZhuJJJJJJJJJJJJJJJJ",
"JJJJJJJJJJJJJJJJJJZGGmp80rhZGZZGGGGGZFAzpphzZZhuJJJJJJJJJJJJJJJJ",
"JJJJJJJJJJJJJJJJJJZGGVp2<3iZGZGGGGGGZFAVfdhzZZhuJJJJJJJJJJJJJJJJ",
"JJJJJJJJJJJJJJJJJJZGGVJJ$=rZGZGGGGGGFZGZJJhzZZhuJJJJJJJJJJJJJJJJ",
"JJJJJJJJJJJJJJJJJJZGGVJJ#&9ZGZGGGGGGAZGZJJhzZZhuJJJJJJJJJJJJJJJJ",
"JJJJJJJJJJJJJJJJJJZGGVJJ@&9ZGZGGGGGGGZGZJJhzZZhuJJJJJJJJJJJJJJJJ",
"JJJJJJJJJJJJJJJJJJZGGVJJ@&9ZGZGGGGGGGZGZJJhzZZhuJJJJJJJJJJJJJJJJ",
"JJJJJJJJJJJJJJJJJJZGGVJJ@&9ZGZGGGGGGGZGZJJhzZZhuJJJJJJJJJJJJJJJJ",
"JJJJJJJJJJJJJJJJJJZGGVJJ@&9ZGZGGGGGGGZGZJJhzZZhuJJJJJJJJJJJJJJJJ",
"JJJJJJJJJJJJJJJJJJZGGVJJ@&9ZGZGGGGGGGZGZJJhzZZhuJJJJJJJJJJJJJJJJ",
"JJJJJJJJJJJJJJJJJJZGGVJJ@&9ZGZGGGGGGGZGZJJhzZZhuJJJJJJJJJJJJJJJJ",
"JJJJJJJJJJJJJJJJJJZGGVJJ@&9ZGZGGGGGGGZGZJJhzZZhuJJJJJJJJJJJJJJJJ",
"JJJJJJJJJJJJJJJJJJZGGVJJ@&9ZGZGGGGGGGZGZJJhzZZhuJJJJJJJJJJJJJJJJ",
"JJJJJJJJJJJJJJJJJJZGGVJJ@&9ZGZGGGGGGGZGZJJhzZZhuJJJJJJJJJJJJJJJJ",
"JJJJJJJJJJJJJJJJJJZGGVJJ@&9ZGZZAZAZGAZGZJJhzZZhuJJJJJJJJJJJJJJJJ",
"JJJJJJJJJJJJJJJJJJZGGVJJ@&9ZGZZZZFZZGZGZJJhzZZhuJJJJJJJJJJJJJJJJ",
"JJJJJJJJJJJJJJJJJJZGGVJJ@&9ZGAGGAAGGFZGZJJhzZZhuJJJJJJJJJJJJJJJJ",
"JJJJJJJJJJJJJJJJJJZGAVJJ@&9ZZVVVVVZZAFZmJJhzZZhuJJJJJJJJJJJJJJJJ",
"JJJJJJJJJJJJJJJJJJZGGZJJ@&9ZVhfffhlmFGZhJJdzZZhuJJJJJJJJJJJJJJJJ",
"JJJJJJJJJJJJJJJJJJVZZmJJ@&eVzuruuuizAFZdJJizZZhuJJJJJJJJJJJJJJJJ",
"JJJJJJJJJJJJJJJJJJhhhhJJ@&emd3,JJJ4hZGZiJJrmZZhuJJJJJJJJJJJJJJJJ",
"JJJJJJJJJJJJJJJJJJiiiiJJJ&emi-@JJJJdZGZrJJrzZZhuJJJJJJJJJJJJJJJJ",
"JJJJJJJJJJJJJJJJJJJJJJJJJ&emi-@JJJJdZGZrJJrzZZhuJJJJJJJJJJJJJJJJ",
"JJJJJJJJJJJJJJJJJJJJJJJJJ&emi-@JJJJdZGZrJJ0zVVfuJJJJJJJJJJJJJJJJ",
"JJJJJJJJJJJJJJJJJJJJJJJJJ&emi-@JJJJdZGZrJJJruu73JJJJJJJJJJJJJJJJ",
"JJJJJJJJJJJJJJJJJJJJJJJJJ&emi-@JJJJdZGZrJJJJJJJJJJJJJJJJJJJJJJJJ",
"JJJJJJJJJJJJJJJJJJJJJJJJJ&emi-@JJJJdZGZrJJJJJJJJJJJJJJJJJJJJJJJJ",
"JJJJJJJJJJJJJJJJJJJJJJJJJ&emi-@JJJJdZGZrJJJJJJJJJJJJJJJJJJJJJJJJ",
"JJJJJJJJJJJJJJJJJJJJJJJJJ&emi-@JJJJdZGZrJJJJJJJJJJJJJJJJJJJJJJJJ",
"JJJJJJJJJJJJJJJJJJJJJJJJJ&emi-@JJJJdZGZrJJJJJJJJJJJJJJJJJJJJJJJJ",
"JJJJJJJJJJJJJJJJJJJJJJJJJ&emi-@JJJJdZGZrJJJJJJJJJJJJJJJJJJJJJJJJ",
"JJJJJJJJJJJJJJJJJJJJJJJJJ&emi-@JJJJdZGZrJJJJJJJJJJJJJJJJJJJJJJJJ",
"JJJJJJJJJJJJJJJJJJJJJJJJJ&emi-@JJJJdZGZrJJJJJJJJJJJJJJJJJJJJJJJJ",
"JJJJJJJJJJJJJJJJJJJJJJJJJ&emi-@JJJJdZGZrJJJJJJJJJJJJJJJJJJJJJJJJ",
"JJJJJJJJJJJJJJJJJJJJJJJJJ&emi-@JJJJdZGZtJJJJJJJJJJJJJJJJJJJJJJJJ",
"JJJJJJJJJJJJJJJJJJJJJJJJJ&emi-+JJJJhZGZuJJJJJJJJJJJJJJJJJJJJJJJJ",
"JJJJJJJJJJJJJJJJJJJJJJJJJ&emi-oJJJ7hZGZp*JJJJJJJJJJJJJJJJJJJJJJJ",
"JJJJJJJJJJJJJJJJJJJJJJJJJ&emi-XJJ4dzZGZh9<JJJJJJJJJJJJJJJJJJJJJJ",
"JJJJJJJJJJJJJJJJJJJJJJJJJ&emi-.JJtVZFAFZmhJJJJJJJJJJJJJJJJJJJJJJ",
"JJJJJJJJJJJJJJJJJJJJJJJJJ&emi-.JJiGGZFGGGZJJJJJJJJJJJJJJJJJJJJJJ",
"JJJJJJJJJJJJJJJJJJJJJJJJJ%9mi- JJiGZZZZZGNJJJJJJJJJJJJJJJJJJJJJJ",
"JJJJJJJJJJJJJJJJJJJJJJJJJ;rmp>OJJuZZAGGGGmJJJJJJJJJJJJJJJJJJJJJJ",
"JJJJJJJJJJJJJJJJJJJJJJJJ79dZhr,JJJzVZZZZZJJJJJJJJJJJJJJJJJJJJJJJ",
"JJJJJJJJJJJJJJJJJJJJJJJeihmZmhrJJJJJJJJJJJJJJJJJJJJJJJJJJJJJJJJJ",
"JJJJJJJJJJJJJJJJJJJJJJJthmZZZmpJJJJJJJJJJJJJJJJJJJJJJJJJJJJJJJJJ",
"JJJJJJJJJJJJJJJJJJJJJJeulZZAAAhJJJJJJJJJJJJJJJJJJJJJJJJJJJJJJJJJ",
"JJJJJJJJJJJJJJJJJJJJJJethmVVVVdJJJJJJJJJJJJJJJJJJJJJJJJJJJJJJJJJ",
"JJJJJJJJJJJJJJJJJJJJJJ6esllzzziJJJJJJJJJJJJJJJJJJJJJJJJJJJJJJJJJ",
"JJJJJJJJJJJJJJJJJJJJJJJeighjhhuJJJJJJJJJJJJJJJJJJJJJJJJJJJJJJJJJ"
};
