/* XPM */
static char *result[] = {
/* columns rows colors chars-per-pixel */
"64 64 29 1 ",
"  c #1E1F1D",
". c #201F1C",
"X c #1F201E",
"o c #3D2E01",
"O c #3B2E0E",
"+ c #3F3000",
"@ c #3E300C",
"# c #24221D",
"$ c #2B251B",
"% c #332A15",
"& c #3B2E14",
"* c #342A19",
"= c #392D18",
"- c #3E3015",
"; c #453400",
": c #493700",
"> c #4D3901",
", c #413209",
"< c #4A370D",
"1 c #4D390D",
"2 c #553E02",
"3 c #583F01",
"4 c #513C0A",
"5 c #423314",
"6 c #493611",
"7 c #4B3810",
"8 c #574002",
"9 c #594100",
"0 c None",
/* pixels */
"0000000000000000000000000000000000000000000000000000000000000000",
"0000000000000000000000000000000000000000000000000000000000000000",
"000000000000000000000000              00000000000000000000000000",
"000000000000000000000000       X      00000000000000000000000000",
"000000000000000000000000      XXXX    00000000000000000000000000",
"000000000000000000000000  XXX#  XXX   00000000000000000000000000",
"000000000000000000000000      X  X #  00000000000000000000000000",
"000000000000000000000000##  XXXXXX   .$0000000000000000000000000",
"0000000000000000000000,=$#XXXXXXXXXX.#*0000000000000000000000000",
"0000000000000000000002;5*#XXXXXXXXXX.#=4200000000000000000000000",
"0000000000000002333922<&$$XXXXXXXXXX.#&1422222220000000000000000",
"00000000000000223339234&$$######XX##.$56423222222000000000000000",
"000000000000002999999945=***=*********57229993322000000000000000",
"000000000000002999999947555555-555555564499999332000000000000000",
"0000000000000099999999441766741177177744399999393000000000000000",
"0000000000000029999999999984888838883388999999992000000000000000",
"0000000000000029999999999999999999989999999399938000000000000000",
"0000000000000039999999993999999998929999999999992000000000000000",
"0000000000000029939399941141439994444444999339222000000000000000",
"000000000000000222229946===-6133415**=61393222222000000000000000",
"00000000000000000022294-$#$*578846=##$574992;>000000000000000000",
"0000000000000000;;;28945==*=5198375**=51493>;;;00000000000000000",
"0000000000000000o;;229265555744841555574392>;++00000000000000000",
"0000000000000000;;>299844744744111771142332>;;+00000000000000000",
"0000000000000000;;;289999998416611499999998>:;+00000000000000000",
"00000000000000;;;;>229999998465=51399999992>::;;0000000000000000",
"00000000000;;;;;;;>22999999875$*=5499999888>:;;;;;;;000000000000",
"0000000000oo;:::;;;>2299998845==5649999988>::::;;;;;000000000000",
"0000000000o;;;;;;>>:222999999841449999998>>::;:;;:;;000000000000",
"0000000000o;;;;;;;;;;>2999998844489999998>::;:;;;:;;000000000000",
"0000000000oo;;;;;;;;;>289999988899999999>::;;:::;;;;000000000000",
"0000000000+;;;;;>;;;;>>29999888899839999:;+;;;;:;;;;000000000000",
"0000000000++;;:;;;;;;:>>78887888444444448o+;8+++;+;+000000000000",
"0000000000++;:;;;;;;,;:<66575557777776<<+o++8+8+;88+000000000000",
"00000000000;;;:;;;;o;;,&====-=======*=&,@oo8+8++8;++000000000000",
"00000000000+;:;;;;;o+;+$##############%=%oo++++8+;;+000000000000",
"00000000000;;:;;:;;0+;@%###XX$%%$$####$&Ooo++88+;;;;000000000000",
"00000000000;;:;:;:;0+;@$####$%@@O%$##$%&%o++++++;;;;000000000000",
"00000000000;;::;;;;0;;+O%%***=+@@O%%%%%O@o++8+;8;8;;000000000000",
"00000000000;;:;;;;;;+;,,@,,5@@@OO@,,,,,;++++8+;:;;;;000000000000",
"00000000000;;;;:;;;o;;;;:;;;@@%&&@;;;8+;;++;;;;;+88;000000000000",
"00000000000;;;;;;;;oo;;;;;;,@=$$%O,;:;+;+++;:;:;+++;000000000000",
"00000000000;;:;::;;;o;;;:;:,@%$$$&,:;;;:+++;;::;8++;000000000000",
"00000000000;;;;;:;;+o;;;;::,@@%&@@;:;;:;;++;;+;:++80000000000000",
"00000000000;;;;;;;;o;;;;;:;;;,@@@,;:;;;;;+0000000000000000000000",
"00000000000;;;;;;;;;;;;;;::;;;;+;;;;:;:;;;0000000000000000000000",
"00000000000;;;;;;;;;;;;;:;:;;;:;:;;;;;::;;0000000000000000000000",
"0000000000000;;;;;;;;;;;;;;;;;;:;;;:;;;;;;0000000000000000000000",
"0000000000000000000;;;;;;:;;;+00++;;;:;:;;0000000000000000000000",
"00000000000000000000;;:;:;;;;+00o+;:;;;:;;0000000000000000000000",
"00000000000000000000;:;:;;;;+0000+;::;;:;;0000000000000000000000",
"00000000000000000000;:;;:;;;;0000+;:;;;:;;0000000000000000000000",
"000000000000000000;;;:;;;;;;+0000+;;;;>;;;0000000000000000000000",
"00000000000000000+;;;:;:;::;;;000;;;;;;;;;0000000000000000000000",
"00000000000000000+;;;;;;;;;;;;000;::;;;;;;0000000000000000000000",
"0000000000000000;++;;::::;:;;;0000;;;;;;;;0000000000000000000000",
"0000000000000000++;;;;;;;;;::;0000;:;;:;;;0000000000000000000000",
"0000000000000000++;;;;;;;;;;;;0000;:;::;;;;000000000000000000000",
"00000000000000000;;:;;:;;::;;0000;;;;;;;;;;000000000000000000000",
"00000000000000000000000000000000+;;;:;:;;;;+;0000000000000000000",
"00000000000000000000000000000000++;;;;;::;;+;0000000000000000000",
"00000000000000000000000000000000;;;:;::;;;;;80000000000000000000",
"00000000000000000000000000000000+;;;;;;;;;;:+0000000000000000000",
"00000000000000000000000000000000++;;;;;;;;;;;0000000000000000000"
};
