/* XPM */
static char *result[] = {
/* columns rows colors chars-per-pixel */
"64 64 30 1 ",
"  c #1E1F1D",
". c #1F201E",
"X c #372900",
"o c #3E2F00",
"O c #3A2D0E",
"+ c #3F3000",
"@ c #3E310C",
"# c #23221D",
"$ c #2B251B",
"% c #2F2819",
"& c #342A16",
"* c #3B2E13",
"= c #332A1A",
"- c #3A2D18",
"; c #3E3016",
": c #453400",
"> c #493600",
", c #4D3900",
"< c #413209",
"1 c #4B370C",
"2 c #4D390D",
"3 c #553E02",
"4 c #583F01",
"5 c #523C09",
"6 c #423214",
"7 c #493610",
"8 c #4A3810",
"9 c #574002",
"0 c #5A4100",
"q c None",
/* pixels */
"qqqqqqqqqqqqqqqqqqqqqqqqq .           qqqqqqqqqqqqqqqqqqqqqqqqqq",
"qqqqqqqqqqqqqqqqqqqqqqqqq.            qqqqqqqqqqqqqqqqqqqqqqqqqq",
"qqqqqqqqqqqqqqqqqqqqqqqq ............ qqqqqqqqqqqqqqqqqqqqqqqqqq",
"qqqqqqqqqqqqqqqqqqqqqqqq .     .     #qqqqqqqqqqqqqqqqqqqqqqqqqq",
"qqqqqqqqqqqqqqqqqqqqqqqq     ......   qqqqqqqqqqqqqqqqqqqqqqqqqq",
"qqqqqqqqqqqqqqqqqqqqqqqq#........... ##qqqqqqqqqqqqqqqqqqqqqqqqq",
"qqqqqqqqqqqqqqqqqqqqqqqq$........... #%qqqqqqqqqqqqqqqqqqqqqqqqq",
"qqqqqqqqqqqqqqqqqqqqqq66&..........  $&6qqqqqqqqqqqqqqqqqqqqqqqq",
"qqqqqqqqqqqqqqqqqqqq4316=# .....    .$-6543qqqqqqqqqqqqqqqqqqqqq",
"qqqqqqqqqqqqqqq300043326-$......###..%6754440000qqqqqqqqqqqqqqqq",
"qqqqqqqqqqqqqq3300004456-$$$$$$$$$$#$%66500400000qqqqqqqqqqqqqqq",
"qqqqqqqqqqqqqq4300004056-=============66500000000qqqqqqqqqqqqqqq",
"qqqqqqqqqqqqqq44000000558888877777777885400000000qqqqqqqqqqqqqqq",
"qqqqqqqqqqqqqq34000000004405004444444440000000000qqqqqqqqqqqqqqq",
"qqqqqqqqqqqqqq44000000000000000000004000000000000qqqqqqqqqqqqqqq",
"qqqqqqqqqqqqqq44000000000000000000000000000000000qqqqqqqqqqqqqqq",
"qqqqqqqqqqqqqq33334440455555500005522559400440394qqqqqqqqqqqqqqq",
"qqqqqqqqqqqqqq,,,3,340576---7500086--67830333,,3,qqqqqqqqqqqqqqq",
"qqqqqqqqqqqqqqq>>,,34456-===;20097====675033,>>>qqqqqqqqqqqqqqqq",
"qqqqqqqqqqqqqqqqqq>,3086-$$=-50057=$$=675033qqqqqqqqqqqqqqqqqqqq",
"qqqqqqqqqqqqqqqqqq>,3056--=-650098--=-683033qqqqqqqqqqqqqqqqqqqq",
"qqqqqqqqqqqqqqqqq:>,40355522555555282559403,,:qqqqqqqqqqqqqqqqqq",
"qqqqqqqqqqqqqqqq::>3000000000552550000000033:>:qqqqqqqqqqqqqqqqq",
"qqqqqqqqqqqqqqqq::,390000000586-62000000003,,::qqqqqqqqqqqqqqqqq",
"qqqqqqqqqqqqqqqq:>,39990009056$$=69000009999:>:qqqqqqqqqqqqqqqqq",
"qqqqqqqqqqqqq++::>>,3900000056==-7000000999:::::o:qqqqqqqqqqqqqq",
"qqqqqqqqqqq::>:>:>>>99990000586662004000999::9+:::::qqqqqqqqqqqq",
"qqqqqqqqqqXo::>>>:>>,,99000042888500000099:>:::::>::qqqqqqqqqqqq",
"qqqqqqqqqqXo:::::>::9:,90000095999000009,,>::>:>::::qqqqqqqqqqqq",
"qqqqqqqqqqX::::>::::::990000000090000003,::>:>:::>::qqqqqqqqqqqq",
"qqqqqqqqqqXo>>:>:>::::990090900000900003,:::::>::>::qqqqqqqqqqqq",
"qqqqqqqqqqX:::::>:::::,99955555959595535>:::::>:::::qqqqqqqqqqqq",
"qqqqqqqqqqX:+9::::::::<@;;;;;;;;6-6-6-66@::+::>::>::qqqqqqqqqqqq",
"qqqqqqqqqqX+::::9::::+@%%#...$..###..$$=O:+:::>::>>+qqqqqqqqqqqq",
"qqqqqqqqqqq::::::::++:O%##.......... #$$*+:::::::::+qqqqqqqqqqqq",
"qqqqqqqqqqq::::::+++:+&%$#...........#$=@+++:::::>::qqqqqqqqqqqq",
"qqqqqqqqqqq>:9::::+++<@&$.##.%%%&$####%&O+++::9:>::+qqqqqqqqqqqq",
"qqqqqqqqqqq:::::9+:+:+*&%$#$%*@@@&$$#$%&@+:q::+::>::qqqqqqqqqqqq",
"qqqqqqqqqqq>:::>::++::@***&&&O@@@*&&&&&*@::q:::::::+qqqqqqqqqqqq",
"qqqqqqqqqqq:::::9:+:+::@+@@+@O***@@@:<<:+:++:::::>::qqqqqqqqqqqq",
"qqqqqqqqqqq:>:::+:++::::9+++@*&&*@::9::::+:+:::::::+qqqqqqqqqqqq",
"qqqqqqqqqqq>:>>::::++:::::9+@&$%$O:::::::++:::9+::::qqqqqqqqqqqq",
"qqqqqqqqqqq>::::::+:+:9+++::@&#.$;:>::,:::::::,:9:::qqqqqqqqqqqq",
"qqqqqqqqqqqq::::::++:+::9:::+****@:::::::+:+::::::>>qqqqqqqqqqqq",
"qqqqqqqqqqqqqqqqqqqq:::::::+<<@@@::>::::+:::::::::::qqqqqqqqqqqq",
"qqqqqqqqqqqqqqqqqqqq:::::::9:::+::::::,::++:::::::::qqqqqqqqqqqq",
"qqqqqqqqqqqqqqqqqqqq::9+9+:,::>::>:>:::::::+::::+9::qqqqqqqqqqqq",
"qqqqqqqqqqqqqqqqqqqq9:::::::::>:+::>>:::::+::::>:::qqqqqqqqqqqqq",
"qqqqqqqqqqqqqqqqqqqq9+:::++::+qq+::,::>::::::>:>:::qqqqqqqqqqqqq",
"qqqqqqqqqqqqqqqqqqqq:::::9:+:qqqq:::::>::+:qqqqqqqqqqqqqqqqqqqqq",
"qqqqqqqqqqqqqqqqqqqq::::::::+qqqq::::>:::::qqqqqqqqqqqqqqqqqqqqq",
"qqqqqqqqqqqqqqqqqqqq::9+:+9+:qqqq+::::>:::qqqqqqqqqqqqqqqqqqqqqq",
"qqqqqqqqqqqqqqqqqqqq::::9+:++qqqq::::>>>:oqqqqqqqqqqqqqqqqqqqqqq",
"qqqqqqqqqqqqqqqqqqqq::>>9+++9qqqq>:>:>:::::qqqqqqqqqqqqqqqqqqqqq",
"qqqqqqqqqqqqqqqqqqqq::::+++9+qqqq::>::>::::qqqqqqqqqqqqqqqqqqqqq",
"qqqqqqqqqqqqqqqqqqqq::>:+9:++qqqq:::>:::::::>qqqqqqqqqqqqqqqqqqq",
"qqqqqqqqqqqqqqqqqqqq>>::::::>qqq::>:>>:>:::::qqqqqqqqqqqqqqqqqqq",
"qqqqqqqqqqqqqqqqqqqq::>::>:::qqq+::::::::::::qqqqqqqqqqqqqqqqqqq",
"qqqqqqqqqqqqqqqqqqq:::::>:>::qqq+::::::::::::qqqqqqqqqqqqqqqqqqq",
"qqqqqqqqqqqqqqqqq+:+:>:>:>::>qqq++++++++:++::qqqqqqqqqqqqqqqqqqq",
"qqqqqqqqqqqqqqqq+++:>:>:::>:>+qqq++++++++++++qqqqqqqqqqqqqqqqqqq",
"qqqqqqqqqqqqqqqq+::>::::>::::+qqqqqqqqqqqqqqqqqqqqqqqqqqqqqqqqqq",
"qqqqqqqqqqqqqqqq:+::::>::>::::qqqqqqqqqqqqqqqqqqqqqqqqqqqqqqqqqq",
"qqqqqqqqqqqqqqqq+++:::+::::::qqqqqqqqqqqqqqqqqqqqqqqqqqqqqqqqqqq"
};
