/* XPM */
static char *result[] = {
/* columns rows colors chars-per-pixel */
"64 64 29 1 ",
"  c #1E1F1D",
". c #1F201E",
"X c #3E2F01",
"o c #3D2F0E",
"O c #3F3000",
"+ c #3E300C",
"@ c #23211C",
"# c #2B261B",
"$ c #2F281A",
"% c #352B15",
"& c #3A2E13",
"* c #342A19",
"= c #3A2E18",
"- c #3F3015",
"; c #453500",
": c #4A3702",
"> c #4D3901",
", c #42320A",
"< c #4A360C",
"1 c #4D390D",
"2 c #553D02",
"3 c #583F02",
"4 c #523C09",
"5 c #443313",
"6 c #493611",
"7 c #4B3810",
"8 c #574002",
"9 c #5A4100",
"0 c None",
/* pixels */
"000000000000000000000000 0    0 00000000000000000000000000000000",
"000000000000000000000              00000000000000000000000000000",
"000000000000000000000..... ......  00000000000000000000000000000",
"000000000000000000000        .  .  00000000000000000000000000000",
"000000000000000000000 .. @..... @  00000000000000000000000000000",
"000000000000000000000  .. ....     00000000000000000000000000000",
"00000000000000000000@@ @ ......    @0000000000000000000000000000",
"0000000000000000000<=#@  ...... @@#&<000000000000000000000000000",
"00000000000000000:>>5$#  .......@@*-<200000000000000000000000000",
"00000000000033324421&#@  ....... @#&44>2232300000000000000000000",
"00000000003899389337=@ @..@@..@. @@=7899993830000000000000000000",
"000000000038999899345*********==**=5189999983>000000000000000000",
"0000000000399999993344747777777717748899999982000000000000000000",
"000000000038999999934444444444844248989999993>000000000000000000",
"000000000089999999939994949999398999999999993:000000000000000000",
"000000000099999999333399933994999999999999992:000000000000000000",
"000000000033323283471444444111139999999933332:000000000000000000",
"0000000000>33223816555147776566499999998222220000000000000000000",
"0000000000000002><=***54765***5799999988>>2000000000000000000000",
"0000000000000000<5*@@#5765*#@@$699999983000000000000000000000000",
"0000000000000000<6====641765==5499999993000000000000000000000000",
"0000000000000000244414484414111999999993000000000000000000000000",
"0000000000000000224777144994499999999883000000000000000000000000",
"00000000000000002>76==514998999999999983000000000000000000000000",
"00000000000000002465*$564999999999999999000000000000000000000000",
"0000000000000000::65=$564993999999999933;XOXX;000000000000000000",
"00000000000000000<65=554499999999999332>;;O;XX000000000000000000",
"000000000000000000:1114399999999999932>:;;;;;;;00000000000000000",
"000000000000000000:238939999999999883>:;;;::;;;00000000000000000",
"00000000000000000::239999999999999883>:;:;;;;;;;0000000000000000",
"0000000000000000o,,<43889999999999882>:;;;;:;:;;;;;0000000000000",
"0000000000000000o,&&<111411141111422>>:;:;;;;;;;;;;X000000000000",
"0000000000000000+&%$*==-======-%-,<:::;;;;8;;;;;;;OO000000000000",
"0000000000000000+&#@###$#$$$#$##$-,:::;;;;O;;;;;;8OO000000000000",
"0000000000000000+%#@@@@@@@@@@@@@@=,;:::;;;;;;8O;;;;O000000000000",
"0000000000000000+&@.....@#@@@...@%+,;;;;;;;O;;;;;;OO000000000000",
"0000000000000000+%#....#$=%#@....%++;;;;;;;;;OOO;;;O000000000000",
"0000000000000000++#@#@##%+&$#@#@#&+;;:;:;;;;;O88O8;O000000000000",
"0000000000000000,++%&&&%-++++&&-o+;;;:;:;OO;;;OO;;;O000000000000",
"0000000000000000;;;;,O+&+-+O,;,,+;;;;;;:O8OO;;8O;;;O000000000000",
"0000000000000000;;:;;+-%%%%,;;;::;:;;;8;;;O;O8OO;;;;000000000000",
"0000000000000000;;;;:;&@@@%,;;;;;;:;;;O;;;;OOOO8;:;0000000000000",
"0000000000000000;:;;:Oo###%,;;;:8O;;;;O88;OO;8O8;8O0000000000000",
"0000000000000000;;;;:;+%%%+,:;;;OO8;;;;;O;O;;O;;;O80000000000000",
"0000000000000000;OOO;;,+++,::;;;O8O;8O;;OOO;;;OO;;;0000000000000",
"0000000000000000;O88;;;;,;;;;;:;OOO8;O;;;;O;;;8;;;:0000000000000",
"0000000000000000;;;;OO8O;:;;;;;;88O;;;;;OO;O;:;;;;;0000000000000",
"0000000000000000;OOO88;O;;;;;;O;OOO;8O;;000;O;;;;;:0000000000000",
"000000000000000000;;;;;;;:;;;XX;:;;:;;;O000000000000000000000000",
"000000000000000000;;;;;;:;;;;00;;;;;;;;;000000000000000000000000",
"0000000000000000000;;;;;;;;;000;;:;;;;;;000000000000000000000000",
"0000000000000000000;;;;:;;;;000;;;;;:;;;000000000000000000000000",
"0000000000000000000;;:;;;;;;000;:;;;;;;;000000000000000000000000",
"000000000000000000;;;;:;;:;;000;;;;:;;;;000000000000000000000000",
"00000000000000000;;;;;;;;;;;;00;;;;;;;;;000000000000000000000000",
"0000000000000000O;;;;:;::;;;O00;;;:;;;;;000000000000000000000000",
"0000000000000000;;;;;;;;;;;O;00;;;:;:;;;000000000000000000000000",
"0000000000000000;;;;;;;;;;;;;00;:;:;;;;;000000000000000000000000",
"0000000000000000;;;;;:;:;:;;;;;;;:;;;;;;000000000000000000000000",
"0000000000000000;;;;;;;;;;;;;;;;;;;;;;;;;00000000000000000000000",
"00000000000000000O;OX;O;;O;OO;;;;;;;;:;;;00000000000000000000000",
"0000000000000000000000000000O;;;;;;;;;;;;00000000000000000000000",
"0000000000000000000000000000O;;;;;;;;;;;;00000000000000000000000",
"0000000000000000000000000000OOO;O;;OO;O;O00000000000000000000000"
};
