/* XPM */
static char *_9be03ad895f4a19ccff88a324436811Q7tZmrxfLrcAJ4lA[] = {
/* columns rows colors chars-per-pixel */
"64 64 143 2 ",
"   c None",
".  c #1E1F1D",
"X  c #1F201E",
"o  c #3E2E00",
"O  c #362A08",
"+  c #3D2F0C",
"@  c #3F3000",
"#  c #3E300C",
"$  c #23211C",
"%  c #2B261B",
"&  c #2F281A",
"*  c #352B15",
"=  c #3A2E13",
"-  c #352A19",
";  c #392D18",
":  c #3F3015",
">  c #453500",
",  c #4A3702",
"<  c #4E3902",
"1  c #42320A",
"2  c #4A360C",
"3  c #4B380F",
"4  c #4B380E",
"5  c #4D380D",
"6  c #4D390D",
"7  c #4E390C",
"8  c #4E3A0C",
"9  c #4F3A0C",
"0  c #4F3B0C",
"q  c #4E3A0D",
"w  c #4F3A0D",
"e  c #4C380E",
"r  c #4C390E",
"t  c #4D390E",
"y  c #4C380F",
"u  c #4C390F",
"i  c #4E390E",
"p  c #4E3A0E",
"a  c #4E390A",
"s  c #503A00",
"d  c #513A00",
"f  c #513B00",
"g  c #523B00",
"h  c #513B02",
"j  c #513B03",
"k  c #503C00",
"l  c #533C00",
"z  c #533D00",
"x  c #533C01",
"c  c #523C03",
"v  c #543C00",
"b  c #543D00",
"n  c #553D00",
"m  c #543E00",
"M  c #553E00",
"N  c #553F00",
"B  c #553E01",
"V  c #563E00",
"C  c #563F00",
"Z  c #573F00",
"A  c #553E02",
"S  c #573F02",
"D  c #563F03",
"F  c #573F03",
"G  c #503B04",
"H  c #513B05",
"J  c #523B04",
"K  c #503A06",
"L  c #503B06",
"P  c #523C05",
"I  c #543E04",
"U  c #553E05",
"Y  c #563F04",
"T  c #573F04",
"R  c #563E05",
"E  c #563F05",
"W  c #543D06",
"Q  c #553D06",
"!  c #543D07",
"~  c #553E06",
"^  c #553F06",
"/  c #543E07",
"(  c #553E07",
")  c #583F00",
"_  c #583F02",
"`  c #583F03",
"'  c #503A08",
"]  c #503B0A",
"[  c #513B0A",
"{  c #503B0B",
"}  c #513B0B",
"|  c #533D08",
" . c #523C09",
".. c #533C09",
"X. c #533D09",
"o. c #513C0A",
"O. c #513C0B",
"+. c #543D08",
"@. c #553E08",
"#. c #503B0C",
"$. c #423112",
"%. c #443313",
"&. c #453413",
"*. c #463413",
"=. c #463513",
"-. c #473612",
";. c #403115",
":. c #423214",
">. c #433314",
",. c #423215",
"<. c #423315",
"1. c #403116",
"2. c #443314",
"3. c #443315",
"4. c #443414",
"5. c #493610",
"6. c #493710",
"7. c #483611",
"8. c #493611",
"9. c #493711",
"0. c #4A3711",
"q. c #483512",
"w. c #483612",
"e. c #4B3810",
"r. c #4C3810",
"t. c #574000",
"y. c #574003",
"u. c #584000",
"i. c #594000",
"p. c #594100",
"a. c #584001",
"s. c #594001",
"d. c #594101",
"f. c #5A4100",
"g. c #5B4100",
"h. c #5A4101",
"j. c #5A4200",
"k. c #5B4200",
"l. c #584002",
"z. c #594002",
"x. c #584102",
"c. c #594102",
"v. c #584003",
/* pixels */
"                                                                                                                                ",
"                                                .   . . . .   .                                                                 ",
"                                          X . . . . . . . . . . . . .                                                           ",
"                                          $ X X X X X . X X X X X . .                                                           ",
"                                          . . . . . . X . . X . . . .                                                           ",
"                                          X X X . X X X X X X . X . .                                                           ",
"                                          . . . X . X X X X . . X . .                                                           ",
"                                        $ X X X . X X X X X X . $ . $ $                                                         ",
"                                      2 * % $ . . X X X X X $ . . $ % ; ,                                                       ",
"                                  > g a = - % X . X X X X X . . $ $ & : a <                                                     ",
"                        Z Z Z g g g P a = % $ X . . . . . . . . $ $ % = 2 g g l g Z Z Z                                         ",
"                    Z i.i.i.i.i.i.) ^ p ; $ $ $ X X X . $ X . $ X $ $ = y ^ ^ i.i.i.i.) Z                                       ",
"                    t.i.i.k.k.k.k.v.R O.:.; - ; ; - ; - ; - ; - - - ; :.} ^ v.k.k.k.k.k.Z <                                     ",
"                    t.t.i.i.k.i.k.i.i.R #.y y r.r.8.r.r.r.r.r.y r.r.r.O.^ i.i.i.i.i.k.i.Z <                                     ",
"                    t.i.k.i.i.k.k.k.i.) ^ X.@.@.R X.X.^ @.@.X.X.^ X.^ v.i.i.i.k.k.k.k.k.l ,                                     ",
"                    i.i.i.k.k.k.i.k.i.k.i.) v.v.v.R R ) i.v.v.i.) R i.v.i.k.i.k.k.k.i.i.Z ,                                     ",
"                    Z ) i.i.i.i.i.i.i.v.v.v.i.i.i.i.R i.y.y.) i.k.c.k.k.k.k.c.i.i.i.) Z v s                                     ",
"                    l Z Z t.Z Z t.y.} p p p X.^ ^ X.} } p r.} ^ i.k.i.k.k.k.c.i.i.Z Z Z g ,                                     ",
"                    < Z Z Z l Z ^  .8.3.:.=.r. .O.r.8.3.3.:.8...k.i.i.i.k.k.i.i.Z l Z l g                                       ",
"                              P a 4 = - - ; =.p r.q.:.; - - ; #.i.k.k.k.k.i.i.t.l < g                                           ",
"                                4 $.- $ $ % :.r.8.:.; % $ $ - p i.i.k.k.k.k.i.t.                                                ",
"                                2 4 = ; ; = 8.#.#.8.3.= ; ; :  .i.k.i.k.i.k.i.i.                                                ",
"                                g K } p p #. .^ ^ X. .#.#.#.O.X.i.i.i.i.i.i.i.Z                                                 ",
"                                v K a p p e.#.X.^ v.R R ^ X.y.v.k.i.k.i.i.i.i.t.                                                ",
"                                v K p %.; ; <.r.X.v.i.v.v.v.i.k.i.k.k.k.i.k.i.i.                                                ",
"                                g K 8.:.- - : 0.X.i.k.i.i.k.k.k.k.k.k.i.i.i.i.t.                                                ",
"                                < 2 8.4.; - :.r.y.c.k.i.i.i.k.k.i.k.i.k.i.t.Z < > @ @ o o o                                     ",
"                                  2 4 =.:.; 4.p X.i.k.i.k.i.k.i.k.k.k.k.i.Z l < > > @ > > o                                     ",
"                                > 1 2 a a a O.X.y.v.k.k.i.k.k.k.c.k.c.x.t.Z < , > > > > > > > o > > >                           ",
"                                o 1 2 K Z i.i.i.k.i.k.c.i.k.i.k.c.c.c.x.t.< , > > , , > > > > > > > > o                         ",
"                              O + 1 1 2 P i.i.i.k.i.k.c.k.v.k.c.k.k.c.x.t.< , > > > > > > > > > > > > o                         ",
"                                + = % $ % % & & & & & % & & & % - : 1 > > , , > , > > > > > > > > > > o                         ",
"                                # = % X $ $ $ $ $ $ X $ $ $ $ $ $ = 1 1 , > , > > > > > > > > > > > > @                         ",
"                                # O % X X X X X $ % $ X X X X X $ * # 1 , > > > > > > > @ t.> > > > > @                         ",
"                                # = $ X X X $ % * * * % $ $ X X X * # @ > > , > > > @ t.> > > > > > > @                         ",
"                                # = * $ $ % % & = # : * & $ $ $ % = # > > , > > > @ @ > @ > t.@ > > @ @                         ",
"                                @ # : = : = * * = # # # : = = ; = # > > > , > > @ @ @ > @ t.y.> > t.> @                         ",
"                                > > > @ 1 # # # # = # # > # @ > 1 > > > , > , > t.> @ @ @ @ @ > > @ > @                         ",
"                                > > > 1 > @ # ; & * = @ > > > > > y.> > > > > > @ > > @ @ t.@ @ > > > >                         ",
"                                > > > > , > * $ $ $ & > , > > , @ @ < > > > > > @ t.@ @ @ @ y.> > > >                           ",
"                                > y.@ > t.@ : & $ % = > > > > > y.t.@ @ > > > @ > > @ > > > > @ @ t.>                           ",
"                                > @ @ t.@ @ # * * = # 1 > > > > @ @ @ t.> > > t.> > > @ > > y.@ > > >                           ",
"                                > > > @ @ t.@ # # : 1 > , > > > @ t.@ t.t.@ > > > > @ @ > > > > > > @                           ",
"                                > > y.@ @ @ # y.1 > > > > , , , @ > @ @ > > > > > @ @ > > > > @ > > y.                          ",
"                                > > > > t.t.@ > > , > > > > > > t.@ > > > t.> > @ @ > @ > > > y.> y.@                           ",
"                                > > > > @ @ > > > > > > > > > > > @ > > > @ > >       > > > > > > > >                           ",
"                                    @ > @ t.> > > > > > o o o > t.> > > > > > >                                                 ",
"                                    > @ > > > > > > > > >     > @ > > > > > > >                                                 ",
"                                      > > > > > , , > >       > > , > > > > > >                                                 ",
"                                      > > > > > > > > >       > > > > > > > > >                                                 ",
"                                      > > > > > > > > >       > , > > , > > > @                                                 ",
"                                    > @ , > , > > > > >       > > > > > > > > >                                                 ",
"                                  > > > > , , > , > > > @     > > > > > > > > >                                                 ",
"                                @ > > > > > > > , > > @ >     > > , , > , > > >                                                 ",
"                                > > > > > , > > > > > > >     > > > , > > > > >                                                 ",
"                                > > > , > > > > > , > > >     > > > , > > > > >                                                 ",
"                                > > > > > > > > > > > > > > > > > , > > , > > >                                                 ",
"                                > > > > > > > > > > > > > > > > , > > > > > > > >                                               ",
"                                  @ o > > > o > > @ > o o > > > > , > , , > , > >                                               ",
"                                                        o > > > > > > > > > > > >                                               ",
"                                                        @ > > > > > > > > > > > >                                               ",
"                                                        o > @ > @ > @ > @ @ > @ @                                               ",
"                                                                                                                                ",
"                                                                                                                                "
};
