/* XPM */
static char *result[] = {
/* columns rows colors chars-per-pixel */
"64 64 29 1 ",
"  c #1E1F1D",
". c #1F201E",
"X c #3E2F00",
"o c #3C2F0E",
"O c #3F3001",
"+ c #3E300C",
"@ c #24221C",
"# c #2B251A",
"$ c #2F2818",
"% c #342B14",
"& c #3A2E14",
"* c #322919",
"= c #3B2E18",
"- c #3F3016",
"; c #453400",
": c #4A3701",
"> c #4E3901",
", c #41320A",
"< c #4A370E",
"1 c #4D390D",
"2 c #553D03",
"3 c #583F00",
"4 c #523C09",
"5 c #433313",
"6 c #4A3710",
"7 c #4B3810",
"8 c #574003",
"9 c #5A4100",
"0 c None",
/* pixels */
"0000000000000000000000000000000000000000000000000000000000000000",
"0000000000000000000000              0000000000000000000000000000",
"0000000000000000000000............ .0000000000000000000000000000",
"0000000000000000000000.          .  0000000000000000000000000000",
"0000000000000000000000....     .    0000000000000000000000000000",
"0000000000000000000000 .  .....     0000000000000000000000000000",
"0000000000000000000000........... .@0000000000000000000000000000",
"000000000000000000005=@ ......... @*=000000000000000000000000000",
"0000000000000000002<<&# .   ..... @=5<:0000000000000000000000000",
"0000000000000000022>,&#.        . @*5<22000000000000000000000000",
"000000000002222222345*#...  .. .. @*=733222222000000000000000000",
"000000000022322233945=*************=5133222233000000000000000000",
"0000000000393999399477555555555555566499999999000000000000000000",
"0000000000999999999341116717111776114499999999000000000000000000",
"0000000000999999399948433344433423438899999999000000000000000000",
"0000000000999999999989833333999989998899999999000000000000000000",
"0000000000999999998222483934444399999999999999000000000000000000",
"0000000000099999984147424344141489999999999999000000000000000000",
"00000000000222222<55=556446=555548999993322222000000000000000000",
"000000000000000>25%#@#*5715#@@*573999933220000000000000000000000",
"0000000000000000>5==*==5447=**=618899993::0000000000000000000000",
"0000000000000000>666556744455564489999932:0000000000000000000000",
"0000000000000000>117566749447744899999322:0000000000000000000000",
"0000000000000000>44755574949449989999932220000000000000000000000",
"0000000000000000>221555549999999999999998:0000000000000000000000",
"0000000000000000>246*##=1999999999999999:8:O;:;00000000000000000",
"00000000000000000>4<*#*549999999999993938;:;;;OO0000000000000000",
"00000000000000000:>156618999999999999222::;;;;;O0000000000000000",
"000000000000000000;>444899999999999992>>:;;;;;;O0000000000000000",
"00000000000000000,,<438899999999999932::;;:;::;;;;;;000000000000",
"0000000000000000;o$543939899999999999>::;:;:;;;;;;;;;00000000000",
"0000000000000000,o$&44228444448448288>:;:;;;;;;:::;:;00000000000",
"0000000000000000O%#=5<<17777616111122>:;;;;8OO;;;;;;;00000000000",
"0000000000000000O%#$=------------55>>::;O8;;;;;;8O;;:00000000000",
"0000000000000000;%#@@###@#######$*&,::;;;OO;;O;;;;;;;00000000000",
"0000000000000000O%#@@..@@##@@...@#%+;;;:O8OO;8;;;;O8:00000000000",
"0000000000000000O%$@@@@#%o&%$@@@@$&,;:;;;;O;OO;O;;8O;00000000000",
"0000000000000000;%%%$##$+,,+&$$$$%&+;;;;;OOO;8;O8;;;800000000000",
"0000000000000000O++++--%++,O+++++++;;:;:8O;O;;;8O;;;O00000000000",
"0000000000000000;;;;;;++%%-,,;;;;;;;;;;;;;OO;;;;;;;;O00000000000",
"0000000000000000O;:;:;-%$$%++;;;:;:;;;;;;;;OO;8;;;;;;00000000000",
"0000000000000000;;;;;O-%#@%o+;:;;;;;;O;;8O;0;;O;;;;;;00000000000",
"0000000000000000O;;;:++o$$%-,;;;OO8O;8;;;;;;;;;O;:;;;00000000000",
"0000000000000000;;;;:;O+++++;::;88;;;;;O8;OO;;;O:;;;;00000000000",
"0000000000000000;O;;;:;+++;;;;;;OOO;;8;8OO;O8OO8:;;;;00000000000",
"0000000000000000O;;;;;:;;;;;;;::O8O8OO;;;;OO;OO8;;;;;00000000000",
"0000000000000000O;8O;;;;:;:;:;;;OOOO;O;;;;OO;OOO;;;;;00000000000",
"000000000000000000OO;O8;;;;;;;;;O88O;8;;;O00;88O::;O:00000000000",
"0000000000000000000;;;:;;;;;;00OO;:;;;;;;;00;;;;;;;;;00000000000",
"00000000000000000000;;;;:;;;:00OO;;;::;;;000;O;;O;OO;00000000000",
"00000000000000000000;;:::;;;;00O;;:;;;;;;000XXO;OOOOO00000000000",
"00000000000000000000;;;;;;;;;00;O;;;;::;;0000XO;OOOO000000000000",
"0000000000000000000O;:;;:;;;OOOO;;:;;:;;;;0000000000000000000000",
"0000000000000000000;;:;:;;;;;;;O;;:;;;:;;;0000000000000000000000",
"0000000000000000000O:;;;:;;;O;;;;;;;;::;;;0000000000000000000000",
"0000000000000000000O;:;:;;;OO;;;::;;;;;;;;0000000000000000000000",
"0000000000000000000O;;;;;;;;;;;;;;;:;:;;;;0000000000000000000000",
"0000000000000000000;;:;:;;;;X;;;8;::;;;;;;0000000000000000000000",
"00000000000000000;X;;;;;;;;;;X;000000000000000000000000000000000",
"0000000000000000OO;;;:;;;:;;;X0000000000000000000000000000000000",
"0000000000000000;;;;:;;;;:;;;00000000000000000000000000000000000",
"0000000000000000O;;;;;;;;;:;:00000000000000000000000000000000000",
"0000000000000000O;;;;;;;;;;;;00000000000000000000000000000000000",
"0000000000000000XOO;O;;OO;O;;00000000000000000000000000000000000"
};
