/* XPM */
static char *_5143461eb5b4ccadaac9346ca7e0e76MFF1gbjrEjYkZCUS[] = {
/* columns rows colors chars-per-pixel */
"64 64 144 2 ",
"   c None",
".  c #1E1F1D",
"X  c #1F201E",
"o  c #362A06",
"O  c #3B2D01",
"+  c #3C2F0C",
"@  c #3F3001",
"#  c #3E300D",
"$  c #23211D",
"%  c #2B261A",
"&  c #2F281A",
"*  c #332A16",
"=  c #3B2E14",
"-  c #332A19",
";  c #392D18",
":  c #3E3015",
">  c #453500",
",  c #4A3702",
"<  c #4E3902",
"1  c #42330B",
"2  c #49360D",
"3  c #4C380F",
"4  c #4D380F",
"5  c #4D390E",
"6  c #4E390E",
"7  c #4D3A0E",
"8  c #4F3A0E",
"9  c #4E3A0D",
"0  c #4D390B",
"q  c #513A00",
"w  c #503B00",
"e  c #513B00",
"r  c #503B01",
"t  c #523B00",
"y  c #523B01",
"u  c #503A02",
"i  c #513B02",
"p  c #513B03",
"a  c #523B03",
"s  c #503C00",
"d  c #523C00",
"f  c #533C00",
"g  c #523D00",
"h  c #533D00",
"j  c #533C01",
"k  c #533E00",
"l  c #533C02",
"z  c #543C00",
"x  c #543D00",
"c  c #553D00",
"v  c #543E00",
"b  c #553E00",
"n  c #553F00",
"m  c #563E00",
"M  c #563F00",
"N  c #573F00",
"B  c #573F01",
"V  c #553E02",
"C  c #573F03",
"Z  c #503A06",
"A  c #513B07",
"S  c #523C05",
"D  c #533D07",
"F  c #543D04",
"G  c #543D05",
"H  c #553E05",
"J  c #563E04",
"K  c #563F04",
"L  c #573F04",
"P  c #563E05",
"I  c #563F05",
"U  c #573F05",
"Y  c #553D06",
"T  c #543D07",
"R  c #553D07",
"E  c #553E06",
"W  c #543E07",
"Q  c #553E07",
"!  c #563E06",
"~  c #563F06",
"^  c #563E07",
"/  c #563F07",
"(  c #583F00",
")  c #583F01",
"_  c #583F02",
"`  c #583F03",
"'  c #503A08",
"]  c #503B08",
"[  c #513B09",
"{  c #513B0A",
"}  c #513B0B",
"|  c #523B0A",
" . c #533D08",
".. c #533C09",
"X. c #533D09",
"o. c #513C0A",
"O. c #513C0B",
"+. c #523C0A",
"@. c #543D08",
"#. c #503B0C",
"$. c #423210",
"%. c #423213",
"&. c #443311",
"*. c #443313",
"=. c #453412",
"-. c #453413",
";. c #473512",
":. c #463413",
">. c #463513",
",. c #403115",
"<. c #413115",
"1. c #423115",
"2. c #413214",
"3. c #413215",
"4. c #423214",
"5. c #433314",
"6. c #403116",
"7. c #403216",
"8. c #443314",
"9. c #493610",
"0. c #493611",
"q. c #493711",
"w. c #4B3710",
"e. c #483612",
"r. c #4A3810",
"t. c #4B3810",
"y. c #4C3810",
"u. c #574003",
"i. c #584000",
"p. c #594000",
"a. c #594100",
"s. c #584001",
"d. c #594001",
"f. c #594101",
"g. c #5A4000",
"h. c #5A4100",
"j. c #5B4100",
"k. c #5A4101",
"l. c #5A4200",
"z. c #5B4200",
"x. c #584002",
"c. c #594002",
"v. c #594102",
"b. c #584003",
/* pixels */
"                                                                                                                                ",
"                                                        . . . . . . . . . . . . . . .                                           ",
"                                                        . . . X X X X X X X $ X X X X                                           ",
"                                                        . . . . . . . . . . . . . . .                                           ",
"                                                        . . . $ X X X X X X X . X X X                                           ",
"                                                        . . . . . X X X X . . X . . .                                           ",
"                                                        $ . . . . X X X X X X . $ X $                                           ",
"                                                    e %.& % $ . X X X X X X X . $ & - &.e                                       ",
"                                                  , < 2 - % $ X X . X X X X X . $ & ; 2 e <                                     ",
"                                      c ( i.c c e e Z *.& $ $ $ . X X . X $ . . $ $ - *.Z z c c c i.i.i.                        ",
"                                    z i.i.z.i.z.i.U | *.& X $ $ $ $ $ $ $ $ $ $ $ $ & *.@.U i.z.i.z.i.i.i.c                     ",
"                                    e i.z.z.z.z.i.( @.4 6.; ; ; 6.; ; ; ; ; ; ; ; = 6.0 U ( z.z.z.z.z.i.i.c                     ",
"                                    f i.z.z.z.i.i.( v.@.#.#.8 #.#.#.#.#.6 6 #.#.#.#.#.^ ( i.z.( z.z.i.i.i.c                     ",
"                                    e i.` z.z.z.z.z.v.v.^ ^ @.U ^ @.^ ^ ^ @.@.@.^ ^ U U z.i.z.z.i.z.z.z.i.c                     ",
"                                    z ( z.z.z.z.i.z.i.z.i.v.v.i.U v.v.i.( i.v.v.v.z.i.i.z.i.z.z.z.z.z.i.i.c                     ",
"                                    e ( ( ( i.z.z.z.z.z.z.z.z.i.( U U U ^ ( v.( U U U U ^ U ( ( i.i.z.( u.c                     ",
"                                    < c c c i.i.z.z.z.z.z.( z.(  .6 y.y.7  . . . .6 t.6 6  .i.c ( c i.c c f                     ",
"                                    < f c c c u.( z.z.( z.( z.U w.6.6.: >.t.8  .8 &.6.6.6.6 ^ c c c c c c                       ",
"                                            < c i.z.z.z.z.( z.T 6.- & - ; 7.w.t.t.; & & - *.2 |                                 ",
"                                              f ( i.z.z.z.z.z.T = % % $ ; : >.t.&.- % $ & = 2 2                                 ",
"                                              c ( z.z.z.z.i.i.U w.6.6.6.>.t.8 8 8 &.6.6.6.2 0 0                                 ",
"                                              c ( z.( ( i.i.z.i.@.#.| | #. .u.u.u.#.#.#.#.< Z f                                 ",
"                                              c i.z.z.( z.z.z.i.v.u.^ ^ u.v.u.u.8 t.&.y.6 | f f                                 ",
"                                              c ( z.( i.z.z.z.z.i.i.i.i.i.i. .8 >.; ; 7.w.6 f c                                 ",
"                                              e c i.i.i.z.z.z.z.z.z.i.i.z.i.@.#.>.; - : >.6 e                                   ",
"                                  O O > @ @ > , c c z.z.i.z.z.i.i.z.z.( z.z.@.#.&.; - 6.&.2 <                                   ",
"                                  O > > @ > > , < c i.i.z.z.i.z.z.z.i.z.z.z.U @.t.6.: &.w.2 ,                                   ",
"                                  > > > > > > , , f u.i.i.z.z.i.z.z.z.z.i.z.( U ^ @.#.| |                                       ",
"                    o > > > > > > > , > , > , > , < < u.i.i.i.l.i.z.z.i.z.z.i.z.i.z.i.e , 1 +                                   ",
"                    O @ > > > > > > > > > > , > , , u.u.i.l.l.l.z.z.z.i.z.z.z.z.i.i.i.0 1 > + o                                 ",
"                    O > > > > > > > > , > > , > , , u.u.u.u.u.u.i.i.^ u.v.( ( U u.u.c 2 %.1 # O                                 ",
"                    O @ > > > > , > > > > > > , , > @ 1 # % $ $ $ $ $ $ $ $ $ $ $ $ X $ * # +                                   ",
"                    O @ > , > > u.> > > > > > @ u.> u.# + % X X X $ $ $ % $ $ $ X X X X * # #                                   ",
"                    O > > > , > @ > > > > > > @ @ @ @ # * % X X X $ % & + * % % X X X X * # #                                   ",
"                    @ @ > u.> > > > > @ > > > u.@ u.@ @ # * % X % & * = + = * % % % % % * # #                                   ",
"                      @ @ @ > , > > > @ > > > > @ @ u.@ @ # = * = # + # # # + = = + = : @ @ @                                   ",
"                      , > > > > > > > @ @ @ @ > @ @ u.@ u.@ @ u.1 > > 1 + = = # 1 , > , > > >                                   ",
"                      > > , , > > > > @ u.@ u.@ u.@ u.@ > > , @ > > > + * & % * # > , @ > , @                                   ",
"                      , > > , > > > > @ @ > @ > > @ @ @ @ @ @ u.> , > = % $ $ * # , > > , > >                                   ",
"                      > , > > > > > > @ @ @ u.@ u.@ u.> u.> @ > > , > # % % & * @ , > > , > >                                   ",
"                      > , > > > > > > @ > @ @ u.> , > > , > , > > , > # = * = # > > > > > > @                                   ",
"                      > , > > > > > > @ @ u.@ @ > > > > > , > > > , > 1 # # # @ > , > , , > >                                   ",
"                      , , , , , u.> @ > @ @ @ u., > , > > > , > > , , > > > > > > > > > , > >                                   ",
"                      > > > > > @ @ @ @ @ @ @ @ > > > , > , > > > > > , > , > , , , > > > > >                                   ",
"                        > , > , , > >       u.@ > > , > > > > > @ > > > > > > > > > u.@ @ @                                     ",
"                                            > @ > , > > > > > @   @ > > , > > > > , > @ >                                       ",
"                                            > > > > , , > , > >     > > > > > > u.> > >                                         ",
"                                              > > > , > > > >       > > > , > , @ @ > @                                         ",
"                                            > > > > > > , , >       > > > , > > > > > @                                         ",
"                                            @ > > > > > > , >       > > > , > > > > > >                                         ",
"                                            > > > > > > , > >       @ > > > , > > > > @ >                                       ",
"                                            > > > > > , > > >       @ > > , > > , > > > > >                                     ",
"                                            O > > > > , > > >       > > > > > > , > > > > @                                     ",
"                                            > > > > , , > > >       > > > , > , > , > > > > >                                   ",
"                                            > > > > , > , > >     > > > > > > > > > , > > @ ,                                   ",
"                                            > > , > , > > , > > > > > > , > , > , , , > > > >                                   ",
"                                            > > > , > > > > > > > > > > > > > > , > > , > @                                     ",
"                                          > > > > > , > > > > > > @ > @                                                         ",
"                                          > > > > , > > > > > > > > O                                                           ",
"                                          O > @ > > > > > > > > > @                                                             ",
"                                          O O > > > O > > @ > > @ >                                                             ",
"                                              > O > > O @ > O > @                                                               ",
"                                                                                                                                ",
"                                                                                                                                "
};
