/* XPM */
static char *result[] = {
/* columns rows colors chars-per-pixel */
"64 64 29 1 ",
"  c #1E1F1D",
". c #1F201E",
"X c #3B2D01",
"o c #3B2F0C",
"O c #3F3001",
"+ c #3E300D",
"@ c #23211D",
"# c #2B261B",
"$ c #2F281A",
"% c #332A16",
"& c #3B2E14",
"* c #342B19",
"= c #392D18",
"- c #3E3014",
"; c #453500",
": c #493701",
"> c #4D3901",
", c #43330B",
"< c #49360C",
"1 c #4E390D",
"2 c #553E02",
"3 c #583F02",
"4 c #513C0A",
"5 c #433314",
"6 c #493710",
"7 c #4B3810",
"8 c #574003",
"9 c #5A4100",
"0 c None",
/* pixels */
"000000000000000000000000000     .         0000000000000000000000",
"000000000000000000000000000   ............0000000000000000000000",
"000000000000000000000000000   .    .      0000000000000000000000",
"000000000000000000000000000  .. ........ @0000000000000000000000",
"000000000000000000000000000   .  ...  . . 0000000000000000000000",
"000000000000000000000000000@.......... ..@0000000000000000000000",
"0000000000000000000000000>5$#......... @#%,200000000000000000000",
"000000000000000000000000:2,%#......... @#=<420000000000000000000",
"000000000000000000222922445*@@..    @...@*5433232920000000000000",
"000000000000000002999999245$@@@@@@@@@@@@@$6439339993200000000000",
"0000000000000000029999993415==5=5=5=5==5=57499999992300000000000",
"0000000000000000029999993341171171111171743399999999200000000000",
"0000000000000000022999999933848842343448438999999999200000000000",
"0000000000000000023999999999998933839998339999999999200000000000",
"0000000000000000023999999999999833333998388889339993200000000000",
"0000000000000000022999999999998477771434177749332322200000000000",
"00000000000000000>2222239999998755557117555572222222000000000000",
"000000000000000000000>2999999945$$*=5717=$#*5<200000000000000000",
"00000000000000000000002399999995@##*5517*@@#&6<00000000000000000",
"000000000000000000000029999999875=5571175555<<100000000000000000",
"0000000000000000000000299999999811184888441412>00000000000000000",
"0000000000000000000000239999999988488841667712200000000000000000",
"0000000000000000000000239999999999898815=*5622200000000000000000",
"0000000000000000000000229999999999999815=$55<2000000000000000000",
"0000000000000000XXX;O;:28999999999999847=*55<2000000000000000000",
"0000000000000000;;X;O;:>28999999999998475&56<;000000000000000000",
"0000000000000000;;;;;;::>899999999999848441100000000000000000000",
"000000000000000;;:;:;:;:>289999999999999992200000000000000000000",
"0000000000000;;;;;;:;;;::888899999989999992<,O000000000000000000",
"00000000000;;;;;;:;;;:;:>>8888889883989932<,,,X00000000000000000",
"0000000000X;;;;;;:;;;;;;:>>>>6677766667765-=&+o00000000000000000",
"0000000000XX;;::;;;::;::::>:<-**===**====*##%+o00000000000000000",
"0000000000XO;>;;8OOOOOOOO8::+$############@@&+o00000000000000000",
"0000000000X;;;;;OO8O8O88;;,,+#..@@@@@@.....@%+o00000000000000000",
"0000000000XO;;>;O8O8OOOO;;;++@...@@@##@@...@%+o00000000000000000",
"0000000000X;;;;;OOOO8O8O;;O++#...@@*=*$@....%+o00000000000000000",
"0000000000OO>;;;8;;O;;;O;OOO+%####%&5&%#####&+o00000000000000000",
"00000000000;;;;;OOO;;;;8;8;;++o&ooo&5oo&&-oo+;O00000000000000000",
"00000000000;;;;;8;;OO;OO;;8O8O,:::;,&o&o,;,;;;O00000000000000000",
"00000000000;;;;;O;O;;;;8;;;;;;;;,;;o%$#%+;:;:;;00000000000000000",
"00000000000;:;:;O;OOOOO8;:;;;;;;;::&#.@%O:;:;;;00000000000000000",
"00000000000;::;;;;O8O8OO;:;;;;>;;;;o$$$%+:;;;;;00000000000000000",
"00000000000;;;;;;;OO8O8O;;;;>;;;;;:+o%&+O:;;;;;00000000000000000",
"00000000000::;:;;;;OO;;O;:;;;;;;;;;,++++;;:;;;;00000000000000000",
"00000000000;:;::;;;OOOO8;;:;:;;;:;;;;:;;:;;:;;;00000000000000000",
"00000000000:;;;;;:O;OOOO;:;:;;;;;;;;;;::;:;;;;;00000000000000000",
"000000000000;;:;;;;000O8;;;;;:;;;;;;;;;;:;;;;;000000000000000000",
"0000000000000000000000OO;::;;:;;0O;;:;;;;;;;;0000000000000000000",
"0000000000000000000000;;;;;;;:;O00;;:;;:;;;;00000000000000000000",
"00000000000000000000000;;;:;;:;000O;:;:;;;;;00000000000000000000",
"0000000000000000000000;;;;;;;:;000O;;:;;;;;O00000000000000000000",
"0000000000000000000000;;;;:;;:;000;;;;;:;;;;00000000000000000000",
"0000000000000000000000;;;;:;:;;000;;;:;;:;;;;0000000000000000000",
"0000000000000000000000;;;;;:;;;000O;;:;;;;;;;X000000000000000000",
"0000000000000000000000;X;;:;:;;000;;;;;;:;;;;;000000000000000000",
"0000000000000000000000;;;;;:;;;000;;;:;:;;;;;;;00000000000000000",
"0000000000000000000000;;;;:;:;;00;;;;;;;;;;;;;;00000000000000000",
"0000000000000000000000;;:;;;;;;;;;;;;;:::;:;;;;00000000000000000",
"0000000000000000000000;;;:;:;:;;;;;;:;;;;;;;;;000000000000000000",
"000000000000000000000;;;:;;;:;;;;;XO0000000000000000000000000000",
"000000000000000000000O;;;;;;;;;;;;X00000000000000000000000000000",
"000000000000000000000X;;;;;;;;;;O;000000000000000000000000000000",
"000000000000000000000XX;;O;OX;O;OO000000000000000000000000000000",
"00000000000000000000000;X;OO;X;O;0000000000000000000000000000000"
};
