/* XPM */
static char *result[] = {
/* columns rows colors chars-per-pixel */
"64 64 30 1 ",
"  c #1E1F1D",
". c #1F201E",
"X c #3E2F00",
"o c #3D2F0C",
"O c #3F3002",
"+ c #3E310C",
"@ c #2F2817",
"# c #24221C",
"$ c #2B251A",
"% c #2F2818",
"& c #332A15",
"* c #3B2E15",
"= c #342A19",
"- c #3A2D18",
"; c #3E3015",
": c #453400",
"> c #4A3702",
", c #4E3901",
"< c #42320A",
"1 c #4B370D",
"2 c #4E3A0C",
"3 c #553D02",
"4 c #583F02",
"5 c #523C09",
"6 c #443313",
"7 c #493611",
"8 c #4A3810",
"9 c #574002",
"0 c #5A4100",
"q c None",
/* pixels */
"qqqqqqqqqqqqqqqqqqqqqqqqqqqq              qqqqqqqqqqqqqqqqqqqqqq",
"qqqqqqqqqqqqqqqqqqqqqqqqqqqq .# . ........qqqqqqqqqqqqqqqqqqqqqq",
"qqqqqqqqqqqqqqqqqqqqqqqqqqqq .            qqqqqqqqqqqqqqqqqqqqqq",
"qqqqqqqqqqqqqqqqqqqqqqqqqqqq . ........  #qqqqqqqqqqqqqqqqqqqqqq",
"qqqqqqqqqqqqqqqqqqqqqqqqqqqq .  ...... .. qqqqqqqqqqqqqqqqqqqqqq",
"qqqqqqqqqqqqqqqqqqqqqqqqqqq$#. ...... . .#qqqqqqqqqqqqqqqqqqqqqq",
"qqqqqqqqqqqqqqqqqqqqqqqqqq6-$. ........ #%1<qqqqqqqqqqqqqqqqqqqq",
"qqqqqqqqqqqqqqqqqqqqqqqq3>1*$ ......... #=<13qqqqqqqqqqqqqqqqqqq",
"qqqqqqqqqqqqqqqqqq333333426-$...    .....=6633333333qqqqqqqqqqqq",
"qqqqqqqqqqqqqqqqq3333333426=$...#..##...#=-6443333333qqqqqqqqqqq",
"qqqqqqqqqqqqqqqqq4003444447;-=--====-==-=662404434444qqqqqqqqqqq",
"qqqqqqqqqqqqqqqqq000499044876666666666666775404444009qqqqqqqqqqq",
"qqqqqqqqqqqqqqqqq000000044552228552222222224000000000qqqqqqqqqqq",
"qqqqqqqqqqqqqqqqq000000040404900440949544440000000009qqqqqqqqqqq",
"qqqqqqqqqqqqqqqqq000000000000000499900004444000000009qqqqqqqqqqq",
"qqqqqqqqqqqqqqqqq000000000000000554550944554500000009qqqqqqqqqqq",
"qqqqqqqqqqqqqqqqq999090900000095277755555522254400044qqqqqqqqqqq",
"qqqqqqqqqqqqqqqqqq333344000000586---65576-=-*154043qqqqqqqqqqqqq",
"qqqqqqqqqqqqqqqqqqqqqq,300000097-$##-827=$#$=*1,qqqqqqqqqqqqqqqq",
"qqqqqqqqqqqqqqqqqqqqqq,3000000586---62986-=-*6>,qqqqqqqqqqqqqqqq",
"qqqqqqqqqqqqqqqqqqqqqq330000009577668952766761,,qqqqqqqqqqqqqqqq",
"qqqqqqqqqqqqqqqqqqqqqq,300000999222259987667225,qqqqqqqqqqqqqqqq",
"qqqqqqqqqqqqqqqqqqqqqq,30000000000044008666854>3qqqqqqqqqqqqqqqq",
"qqqqqqqqqqqqqqqqqqqqq,,30000000000000098;--7533qqqqqqqqqqqqqqqqq",
"qqqqqqqqqqqqqqqq:X:::>999990000000000047=%$-54,qqqqqqqqqqqqqqqqq",
"qqqqqqqqqqqqqqqO::::::>,9900000000000057-==655,qqqqqqqqqqqqqqqqq",
"qqqqqqqqqqqqqqq::::::>>,,9900000000000058811>,qqqqqqqqqqqqqqqqqq",
"qqqqqqqqqqqqqqq:::::>::>,90000000000000495451:qqqqqqqqqqqqqqqqqq",
"qqqqqqqqqqq:::::::::>::>>,999000000000009942*ooqqqqqqqqqqqqqqqqq",
"qqqqqqqqqq::::::::>::::>:,990999000000009447&oo:qqqqqqqqqqqqqqqq",
"qqqqqqqqqq::>:>>::::>:::>>999552555255555556&&o:qqqqqqqqqqqqqqqq",
"qqqqqqqqqq::::::::>::>>::>,9222178777778776*$@o:qqqqqqqqqqqqqqqq",
"qqqqqqqqqqO:::O9::9::::OO9:9<6;;;;-6-6--;--&$@OOqqqqqqqqqqqqqqqq",
"qqqqqqqqqqOO::::::OO:O:9::::;%$$#########$###@+Oqqqqqqqqqqqqqqqq",
"qqqqqqqqqqO99OO:::::O:::::OO*@#.###$$$$#...#$&+:qqqqqqqqqqqqqqqq",
"qqqqqqqqqqO:::O9O9::OO::::9O*@$###=-o6*=##$$$@OOqqqqqqqqqqqqqqqq",
"qqqqqqqqqq9O9OOO::::OO9:::::+&&&%%&o<<<&$%%@&;OOqqqqqqqqqqqqqqqq",
"qqqqqqqqqqqO::9O:::OO:O::::::<<+<o<<ooo*o;++O+O:qqqqqqqqqqqqqqqq",
"qqqqqqqqqqq:OO9:::::::O9:::9:::::::oo*&*+::::::Oqqqqqqqqqqqqqqqq",
"qqqqqqqqqqq:9OO:::::q::::::O::::>::o*@@&;<:::::Oqqqqqqqqqqqqqqqq",
"qqqqqqqqqqq:::OO:::Oq::99O::::::::<o&$#@*+:>:::Oqqqqqqqqqqqqqqqq",
"qqqqqqqqqqq>::9>::::::::::::O9:9>::<+&&&+O:::::Oqqqqqqqqqqqqqqqq",
"qqqqqqqqqqqO::9:::::OO::::::::::>::<<++<+::>::::qqqqqqqqqqqqqqqq",
"qqqqqqqqqqqO::OO::::O::::::O:::::::::<<<::>:>:OOqqqqqqqqqqqqqqqq",
"qqqqqqqqqqqO:O:OOO9OO:::9OO9O9>:>::::::::::9OO:Oqqqqqqqqqqqqqqqq",
"qqqqqqqqqqq9:O9O:9O:OO::OO::O::>:::::>:>:>:>:::qqqqqqqqqqqqqqqqq",
"qqqqqqqqqqq:::O99OOOqO:::9:O9O:O:q::::::>:>Oqqqqqqqqqqqqqqqqqqqq",
"qqqqqqqqqqqO::O9OOO9qqO:OO9O9O:OOqq:>:>:::::qqqqqqqqqqqqqqqqqqqq",
"qqqqqqqqqqq:O::O::OXqq:::::::::Oqqq:::::::::qqqqqqqqqqqqqqqqqqqq",
"qqqqqqqqqqqOOO:OO:XXqq::::::>:OOqqq:::>>::::qqqqqqqqqqqqqqqqqqqq",
"qqqqqqqqqqqqqqqqqqqqqq:::>:::::O:q::::::::::qqqqqqqqqqqqqqqqqqqq",
"qqqqqqqqqqqqqqqqqqqqqq:::::>>:::O:O::>>::>::qqqqqqqqqqqqqqqqqqqq",
"qqqqqqqqqqqqqqqqqqqqqq:::>>:>::::OO:::::::::qqqqqqqqqqqqqqqqqqqq",
"qqqqqqqqqqqqqqqqqqqqqq:::::::>::::O::::::>::qqqqqqqqqqqqqqqqqqqq",
"qqqqqqqqqqqqqqqqqqqqqq::>:::::>::::O:::>::::qqqqqqqqqqqqqqqqqqqq",
"qqqqqqqqqqqqqqqqqqqqqq>::>:>>:>::::O::>::>::qqqqqqqqqqqqqqqqqqqq",
"qqqqqqqqqqqqqqqqqqqqqq:::::>:::::O:X:::::>::qqqqqqqqqqqqqqqqqqqq",
"qqqqqqqqqqqqqqqqqqqqqqqqqqqqqqqqqO::::>:::::::qqqqqqqqqqqqqqqqqq",
"qqqqqqqqqqqqqqqqqqqqqqqqqqqqqqqqqq:::::::>::::Xqqqqqqqqqqqqqqqqq",
"qqqqqqqqqqqqqqqqqqqqqqqqqqqqqqqqqq::>:>::::::::qqqqqqqqqqqqqqqqq",
"qqqqqqqqqqqqqqqqqqqqqqqqqqqqqqqqqq:::::::::::::Oqqqqqqqqqqqqqqqq",
"qqqqqqqqqqqqqqqqqqqqqqqqqqqqqqqqqqO:::::::::::O:qqqqqqqqqqqqqqqq",
"qqqqqqqqqqqqqqqqqqqqqqqqqqqqqqqqqq:O:X::O::O:OOqqqqqqqqqqqqqqqqq",
"qqqqqqqqqqqqqqqqqqqqqqqqqqqqqqqqqqqqX:OX:OOO:qqqqqqqqqqqqqqqqqqq"
};
