/* XPM */
static char *result[] = {
/* columns rows colors chars-per-pixel */
"64 64 31 1 ",
"  c #1E1F1D",
". c #201F1C",
"X c #1F201E",
"o c #372900",
"O c #3C2D00",
"+ c #3C2F0F",
"@ c #3F3000",
"# c #3E300C",
"$ c #24221D",
"% c #2B251B",
"& c #2E2818",
"* c #352B15",
"= c #3B2E14",
"- c #342A19",
"; c #392D18",
": c #3E3015",
"> c #453400",
", c #493700",
"< c #4D3901",
"1 c #413209",
"2 c #4A370D",
"3 c #4D390D",
"4 c #553E02",
"5 c #583F01",
"6 c #513C0A",
"7 c #423314",
"8 c #493611",
"9 c #4B3810",
"0 c #574002",
"q c #594100",
"w c None",
/* pixels */
"wwwwwwwwwwwwwwwwwwwwwwwwwwwwwwwwwwwwwwwwwwwwwwwwwwwwwwwwwwwwwwww",
"wwwwwwwwwwwwwwwwwwwwwwwwwwwwwwwwwwwwwwwwwwwwwwwwwwwwwwwwwwwwwwww",
"wwwwwwwwwwwwwwwwwwwwwwwwwwwwwwwwwwwwwwwwwwwwwwwwwwwwwwwwwwwwwwww",
"wwwwwwwwwwwwwwwwwwwwwwww   .          wwwwwwwwwwwwwwwwwwwwwwwwww",
"wwwwwwwwwwwwwwwwwwwwwwww              wwwwwwwwwwwwwwwwwwwwwwwwww",
"wwwwwwwwwwwwwwwwwwwwwwww      XXXX    wwwwwwwwwwwwwwwwwwwwwwwwww",
"wwwwwwwwwwwwwwwwwwwwwwww  X$ X XX XX  wwwwwwwwwwwwwwwwwwwwwwwwww",
"wwwwwwwwwwwwwwwwwwwwwwww      X  X X  wwwwwwwwwwwwwwwwwwwwwwwwww",
"wwwwwwwwwwwwwwwwwwwwwwww%XXXXXXXXX X..%wwwwwwwwwwwwwwwwwwwwwwwww",
"wwwwwwwwwwwwwwwwwwwwww1=-$XXXXXXXXXX..*wwwwwwwwwwwwwwwwwwwwwwwww",
"wwwwwwwwwwwwwwwwwwwww<2=-$XXXXXXXXXX.$=34wwwwwwwwwwwwwwwwwwwwwww",
"wwwwwwwwwwwwwww4445544<;%$XXXXXX   X.$=364454444wwwwwwwwwwwwwwww",
"wwwwwwwwwwwwww4455555q3:-%X$$$$$$$XX$%;9645544444wwwwwwwwwwwwwww",
"wwwwwwwwwwwwww45qq555q68;------------;7364qqq5544wwwwwwwwwwwwwww",
"wwwwwwwwwwwwww4qqqqqqq6977::7777777777864qqqqqq54wwwwwwwwwwwwwww",
"wwwwwwwwwwwwwwqqqqqqqq0693999699293399664qqqqq5qqwwwwwwwwwwwwwww",
"wwwwwwwwwwwwww5qqqqqqqqq55000qqq0000555q5qq5qqqq4wwwwwwwwwwwwwww",
"wwwwwwwwwwwwww4qqqqqqqqq5qqqqqqqqqqq05qqqqqq5qq50wwwwwwwwwwwwwww",
"wwwwwwwwwwwwww5qqqqqqqqq5q55qqqqqqqq0qqqqqqqqqq54wwwwwwwwwwwwwww",
"wwwwwwwwwwwwww4qqqq5qqq6633960qqq6663365qqqq5q544wwwwwwwwwwwwwww",
"wwwwwwwwwwwwwww44444qq47;;-789qq697;-;734qq544444wwwwwwwwwwwwwww",
"wwwwwwwwwwwwwwwwww<4qq6:%$%-79q669-$$%796q54<,wwwwwwwwwwwwwwwwww",
"wwwwwwwwwwwwwwww>><45q67---7790q697--;73454<>>>wwwwwwwwwwwwwwwww",
"wwwwwwwwwwwwwwwwO>,45q697778960069777796554<>OOwwwwwwwwwwwwwwwww",
"wwwwwwwwwwwwwwwwO><40q0633366669633333600q0<>>@wwwwOwwwwwwwwwwww",
"wwwwwwwwwwwwwwww>><40qqqqq006988935q0qqqqq4<,>>wwwwOwwwwwwwwwwww",
"wwwwwwwwwwwwww>>>><40qqqqqq068;;886qqqqqq00<,>>>www>Owwwwwwwwwww",
"wwwwwwwwwwO>>>>>>>,4qqqqqqq69:--;865qqqq000<,>>>>>>>Owwwwwwwwwww",
"wwwwwwwwwwOO>>,>>,<<400qqqqq09;;89qqqqqq00<<,,>,,,>>Owwwwwwwwwww",
"wwwwwwwwwwO>>>>>>>,,,40qqqqq003396qqqqqq0<<,>,>>>>>>Owwwwwwwwwww",
"wwwwwwwwwwO@>>>,,>>>,440qqqq006656qqqqqq0,,<>,>>>>>>Owwwwwwwwwww",
"wwwwwwwwwwO>>,>>>,>>,,<qqqqq000qqqqqqqqq4>>>>>>,>>>>Owwwwwwwwwww",
"wwwwwwwwww@@>>>>>>>>>,<40qq000000q550055<>@>>>>>>,>>Owwwwwwwwwww",
"wwwwwwwwww@>>,,>>>>>>>,36666666366636666>>>>>>,>,,>@Owwwwwwwwwww",
"wwwwwwwwww@@>>>,>>>@>>>28888288898888882>@@>>>,,>,>>Owwwwwwwwwww",
"wwwwwwwwww@@>,>,>,>>>>>:;;:;;;==7;;;;;:1#@@>>>>>>>,@wwwwwwwwwwww",
"wwwwwwwwwww>>>,>,>>>@>#==****####:****=+#>@w>>0>>,>wwwwwwwwwwwww",
"wwwwwwwwwww>,>>>>>>@>>>#11####==+#111111@>>@>@@>>>,wwwwwwwwwwwww",
"wwwwwwwwwww>>>>>>>@>>>>>>>>>1=-**#>,>,>>>@@@>>>>>,>wwwwwwwwwwwww",
"wwwwwwwwwww><>,>>>@@>>>,>>>>#&$&&#>,>>>>>@>>>>,>>,>>wwwwwwwwwwww",
"wwwwwwwwwww>>>>>>>>O>>>>,>>>#&$$&#>>>>,>>@>>>>,,>>>>wwwwwwwwwwww",
"wwwwwwwwwwww>>>>>>O>>>>>>>>>#:*;=#>>>>,>>@>@>>>><,>>wwwwwwwwwwww",
"wwwwwwwwwwwwwwwwwwww>>>>>,>>>###1>>>>,,>>@@>>>>>>>>>wwwwwwwwwwww",
"wwwwwwwwwwwwwwwwwwww>>>>>>,>>>>>>>>,>>>>>>@>>>,>>,>>wwwwwwwwwwww",
"wwwwwwwwwwwwwwwwwwww>>,>>,>,>>>>>>>><>,>>@@>>>,,,,>>wwwwwwwwwwww",
"wwwwwwwwwwwwwwwwwwww,>>>>,>>>>>>>>>,>>,>>>>>>,>,>>>wwwwwwwwwwwww",
"wwwwwwwwwwwwwwwwwwww,>,>>>>>>>ww@>>>>,,,>>@@@,>>>>wwwwwwwwwwwwww",
"wwwwwwwwwwwwwwwwwwww>,>>>>>O>wwww>>>>>>>>@>wwwwwwwwwwwwwwwwwwwww",
"wwwwwwwwwwwwwwwwwwww>>>>,>>>>wwww@@@>>,>>>wwwwwwwwwwwwwwwwwwwwww",
"wwwwwwwwwwwwwwwwwwww>,>,,>>>@wwww@00>>,>>>wwwwwwwwwwwwwwwwwwwwww",
"wwwwwwwwwwwwwwwwwwww>>>>>>>@>wwww>@>>,>>>@wwwwwwwwwwwwwwwwwwwwww",
"wwwwwwwwwwwwwwwwwwww><>>>>>>>wwww,@0>>,>>>wwwwwwwwwwwwwwwwwwwwww",
"wwwwwwwwwwwwwwwwwwww>>>>>,>>>wwww>,,>>,>>>>wwwwwwwwwwwwwwwwwwwww",
"wwwwwwwwwwwwwwwwwwww>,>,>,>>>wwww>>>>>,>>>>>>wwwwwwwwwwwwwwwwwww",
"wwwwwwwwwwwwwwwwwwww,>>>>,>>>www@>>,,,,,,>>>>wwwwwwwwwwwwwwwwwww",
"wwwwwwwwwwwwwwwwwwww><>>>,>>>www>>>,>>>>>>>>>wwwwwwwwwwwwwwwwwww",
"wwwwwwwwwwwwwwwwwww>>>>,>>>>>www@>>>>>>>>>>>>wwwwwwwwwwwwwwwwwww",
"wwwwwwwwwwwwwwwwOO>>>>>>>,>>>www@@@>@@>@@>@@>wwwwwwwwwwwwwwwwwww",
"wwwwwwwwwwwwwwwwOO>>>,>>,>>>>wwww@@@@@@@@@@@@wwwwwwwwwwwwwwwwwww",
"wwwwwwwwwwwwwwww>O>>,>>,,>,>>wwwwwwwwwwwwwwwwwwwwwwwwwwwwwwwwwww",
"wwwwwwwwwwwwwwww>@>>>>>>>>>>>wwwwwwwwwwwwwwwwwwwwwwwwwwwwwwwwwww",
"wwwwwwwwwwwwwwwwO>>>>>>>>>>>>wwwwwwwwwwwwwwwwwwwwwwwwwwwwwwwwwww",
"wwwwwwwwwwwwwwwwwwwwwwwwwwwwwwwwwwwwwwwwwwwwwwwwwwwwwwwwwwwwwwww",
"wwwwwwwwwwwwwwwwwwwwwwwwwwwwwwwwwwwwwwwwwwwwwwwwwwwwwwwwwwwwwwww"
};
