/* XPM */
static char *result[] = {
/* columns rows colors chars-per-pixel */
"64 64 148 2 ",
"   c #1C1D1A",
".  c #1C1D1B",
"X  c #1D1E1A",
"o  c #1C1D1C",
"O  c #1D1E1C",
"+  c #1D1F1C",
"@  c #1E1F1D",
"#  c #1E1F1E",
"$  c #1F1F1E",
"%  c #201F1C",
"&  c #1E201D",
"*  c #1F201D",
"=  c #1E201E",
"-  c #1F201E",
";  c #3A2C00",
":  c #3B2C00",
">  c #3B2D00",
",  c #3C2D00",
"<  c #3C2E00",
"1  c #3D2E00",
"2  c #3D2E01",
"3  c #3E2E00",
"4  c #3E2F00",
"5  c #3F2F00",
"6  c #3F3000",
"7  c #24211B",
"8  c #20201D",
"9  c #22211C",
"0  c #22211D",
"q  c #20201E",
"w  c #26231C",
"e  c #29241B",
"r  c #2A251B",
"t  c #2C251B",
"y  c #2C261B",
"u  c #2D271B",
"i  c #28241C",
"p  c #342A16",
"a  c #3E2F14",
"s  c #3C2F16",
"d  c #332A1A",
"f  c #352A18",
"g  c #342B19",
"h  c #372C18",
"j  c #3E3013",
"k  c #3F3015",
"l  c #3C3016",
"z  c #402F00",
"x  c #403000",
"c  c #403100",
"v  c #413100",
"b  c #403001",
"n  c #423100",
"m  c #423101",
"M  c #413200",
"N  c #423200",
"B  c #433200",
"V  c #423300",
"C  c #433300",
"Z  c #443300",
"A  c #443400",
"S  c #453400",
"D  c #453500",
"F  c #463400",
"G  c #463500",
"H  c #473500",
"J  c #473501",
"K  c #463600",
"L  c #473600",
"P  c #483600",
"I  c #493700",
"U  c #493701",
"Y  c #4A3800",
"T  c #4B3800",
"R  c #4C3800",
"E  c #4D3900",
"W  c #4F3900",
"Q  c #4E3A00",
"!  c #4F3A00",
"~  c #4F3A01",
"^  c #4C3806",
"/  c #4F3906",
"(  c #46350F",
")  c #48350E",
"_  c #4E390B",
"`  c #4F3A0B",
"'  c #4B380F",
"]  c #4D390D",
"[  c #4F3A0C",
"{  c #4C380E",
"}  c #503900",
"|  c #503A00",
" . c #513A00",
".. c #503B00",
"X. c #513B00",
"o. c #513A01",
"O. c #523B00",
"+. c #533B00",
"@. c #523B03",
"#. c #523C00",
"$. c #533C00",
"%. c #533D00",
"&. c #533C01",
"*. c #533C03",
"=. c #543C00",
"-. c #543D00",
";. c #553D00",
":. c #563D00",
">. c #553E00",
",. c #563E00",
"<. c #573E00",
"1. c #563F00",
"2. c #573F00",
"3. c #573F03",
"4. c #523B05",
"5. c #503A06",
"6. c #503A07",
"7. c #513B07",
"8. c #533B06",
"9. c #533D06",
"0. c #553D04",
"q. c #553E04",
"w. c #553E05",
"e. c #563E04",
"r. c #563F04",
"t. c #543D06",
"y. c #583F00",
"u. c #583F02",
"i. c #523C08",
"p. c #523C09",
"a. c #513C0A",
"s. c #433312",
"d. c #433313",
"f. c #443313",
"g. c #473511",
"h. c #473612",
"j. c #403114",
"k. c #413114",
"l. c #403115",
"z. c #413214",
"x. c #584000",
"c. c #594000",
"v. c #594100",
"b. c #584001",
"n. c #594001",
"m. c #5A4000",
"M. c #5A4100",
"N. c None",
/* pixels */
"N.N.N.N.N.N.N.N.N.N.N.N.N.N.N.N.N.N.N.N.N.N.N.N.N.  . O @ @ @ @ @ @ @ @ @ + N.N.N.N.N.N.N.N.N.N.N.N.N.N.N.N.N.N.N.N.N.N.N.N.N.N.",
"N.N.N.N.N.N.N.N.N.N.N.N.N.N.N.N.N.N.N.N.N.N.N.N.N.. O @ @ @ @ @ @ @ @ @ @ @ N.N.N.N.N.N.N.N.N.N.N.N.N.N.N.N.N.N.N.N.N.N.N.N.N.N.",
"N.N.N.N.N.N.N.N.N.N.N.N.N.N.N.N.N.N.N.N.N.N.N.N.N.o O @ - * - - - - - - - - N.N.N.N.N.N.N.N.N.N.N.N.N.N.N.N.N.N.N.N.N.N.N.N.N.N.",
"N.N.N.N.N.N.N.N.N.N.N.N.N.N.N.N.N.N.N.N.N.N.N.N.N.. O @ - @ @ @ @ @ @ @ @ # N.N.N.N.N.N.N.N.N.N.N.N.N.N.N.N.N.N.N.N.N.N.N.N.N.N.",
"N.N.N.N.N.N.N.N.N.N.N.N.N.N.N.N.N.N.N.N.N.N.N.N.N.X O @ - @ - - - - - & $ * N.N.N.N.N.N.N.N.N.N.N.N.N.N.N.N.N.N.N.N.N.N.N.N.N.N.",
"N.N.N.N.N.N.N.N.N.N.N.N.N.N.N.N.N.N.N.N.N.N.N.N.p 7 % * # * - - - - * # * w f N.N.N.N.N.N.N.N.N.N.N.N.N.N.N.N.N.N.N.N.N.N.N.N.N.",
"N.N.N.N.N.N.N.N.N.N.N.N.N.N.N.N.N.N.N.N.N.N.N.*.j e 9 8 # * * * * * * = * t a ) ^ N.N.N.N.N.N.N.N.N.N.N.N.N.N.N.N.N.N.N.N.N.N.N.",
"N.N.N.N.N.N.N.N.N.N.N.N.N.N.N.N.N.N.N.N.N.N.@.7.j.r 0 8 @ * * * * * * * * y s ( / $.N.N.N.N.N.N.N.N.N.N.N.N.N.N.N.N.N.N.N.N.N.N.",
"N.N.N.N.N.N.N.N.N.N.N.N.N.N.N.N.} } } }  .o.5._ k i q $ # # # # # # # # $ r h s.6.:.+.| } } } } W N.N.N.N.N.N.N.N.N.N.N.N.N.N.N.",
"N.N.N.N.N.N.N.N.N.N.N.N.N.N.N. .+.+.+.+.$.&.4.` f.d u u u u u u u u u u u g l g.8.2.;.+.+.+.+.+.O.N.N.N.N.N.N.N.N.N.N.N.N.N.N.N.",
"N.N.N.N.N.N.N.N.N.N.N.N.N.N.N.;.2.2.2.2.2.2.q.i.' d.l.k.k.k.k.k.k.k.k.k.z.d.h.] 0.c.y.2.2.2.2.2.,.N.N.N.N.N.N.N.N.N.N.N.N.N.N.N.",
"N.N.N.N.N.N.N.N.N.N.N.N.N.N.N.2.c.M.M.M.M.c.3.w.a.] { { { { { { { { { { { ] [ p.3.M.m.M.M.M.M.m.x.N.N.N.N.N.N.N.N.N.N.N.N.N.N.N.",
"N.N.N.N.N.N.N.N.N.N.N.N.N.N.N.2.c.M.v.v.c.c.n.u.e.t.9.9.9.9.9.9.9.9.9.9.t.t.w.r.b.M.c.m.m.v.v.m.x.N.N.N.N.N.N.N.N.N.N.N.N.N.N.N.",
"N.N.N.N.N.N.N.N.N.N.N.N.N.N.N.2.c.c.c.c.M.m.M.m.v.v.v.v.v.v.v.v.v.v.v.v.v.v.c.c.M.m.v.v.c.c.c.c.y.N.N.N.N.N.N.N.N.N.N.N.N.N.N.N.",
"N.N.N.N.N.N.N.N.N.N.N.N.N.N.N.,.y.y.y.x.c.M.c.v.m.m.m.m.m.m.m.m.m.m.m.m.m.m.M.m.c.M.c.x.x.y.y.y.2.N.N.N.N.N.N.N.N.N.N.N.N.N.N.N.",
"N.N.N.N.N.N.N.N.N.N.N.N.N.N.N.;.,.2.1.2.c.M.c.c.c.c.c.c.c.c.c.c.c.c.c.c.c.c.c.c.m.v.x.y.2.2.1.2.>.N.N.N.N.N.N.N.N.N.N.N.N.N.N.N.",
"N.N.N.N.N.N.N.N.N.N.N.N.N.N.N.N.,.2.,.2.x.c.M.c.M.M.M.M.M.M.M.M.M.M.M.M.M.M.M.c.M.c.2.1.,.,.<.1.N.N.N.N.N.N.N.N.N.N.N.N.N.N.N.N.",
"N.N.N.N.N.N.N.N.N.N.N.N.N.N.N.N.N.N.N.N.y.y.c.M.c.c.c.c.v.c.v.v.v.c.v.c.c.c.c.c.M.c.2.-.N.N.N.N.N.N.N.N.N.N.N.N.N.N.N.N.N.N.N.N.",
"N.N.N.N.N.N.N.N.N.N.N.N.N.N.N.N.N.N.N.N.y.y.c.M.c.c.c.c.c.c.c.c.c.c.c.c.c.c.c.c.M.c.1.N.N.N.N.N.N.N.N.N.N.N.N.N.N.N.N.N.N.N.N.N.",
"N.N.N.N.N.N.N.N.N.N.N.N.N.N.N.N.N.N.N.N.c.c.c.M.M.M.M.M.M.M.M.M.M.M.M.M.M.M.M.M.M.c.2.N.N.N.N.N.N.N.N.N.N.N.N.N.N.N.N.N.N.N.N.N.",
"N.N.N.N.N.N.N.N.N.N.N.N.N.N.N.N.N.N.N.N.>.<.2.2.2.2.x.c.c.c.c.c.c.c.c.c.c.x.y.2.y.2.%.~ N.N.N.N.N.N.N.N.N.N.N.N.N.N.N.N.N.N.N.N.",
"N.N.N.N.N.N.N.N.N.N.N.N.N.N.N.N.N.N.N.H ! #.#.$.%.%.>.2.y.2.2.2.2.y.y.y.<.,.-.%.%.#.Q U S N.N.N.N.N.N.N.N.N.N.N.N.N.N.N.N.N.N.N.",
"N.N.N.N.N.N.N.N.N.N.N.N.N.N.N.N.N.x M S T Q Q Q Q ! X.%.-.-.-.-.-.;.;.-.=.#...! ! Q Y J Z c 6 N.N.N.N.N.N.N.N.N.N.N.N.N.N.N.N.N.",
"N.N.N.N.N.N.N.N.N.N.N.N.x v N C C Z S G I Y Y Y Y T T E E E E E E E E E E R T Y T Y P H G A C C V N M N.N.N.N.N.N.N.N.N.N.N.N.N.",
"N.N.N.N.N.N.N.N.N.N.N.x v N C Z S G G K H L L L L L L L L L L L L L L L L L L L L L L G H G D A C C M 4 ; N.N.N.N.N.N.N.N.N.N.N.",
"N.N.N.N.N.N.N.N.N.N.N.N N C A S G G L G K G G G G G G G G G G G G G G K G G G G G G G H G L G D S S C 6 , N.N.N.N.N.N.N.N.N.N.N.",
"N.N.N.N.N.N.N.N.N.N.N.C C S G G L L G L L L L L L L L L L L L L L L L L L L L L L L L H G G L K G G S c , N.N.N.N.N.N.N.N.N.N.N.",
"N.N.N.N.N.N.N.N.N.N.N.C Z S K L G G L G H H G L H G L L L L L L L L L L L L G L G G G G L K G H L L S c , N.N.N.N.N.N.N.N.N.N.N.",
"N.N.N.N.N.N.N.N.N.N.N.C Z S G L G L G L K K L G L G L L L L L L L L L L L G L G L L L L G L G G G L S c , N.N.N.N.N.N.N.N.N.N.N.",
"N.N.N.N.N.N.N.N.N.N.N.C Z S G L G G K G G D G L G L L L L L L L L L L L L L G L G G G G L G L G G L S c , N.N.N.N.N.N.N.N.N.N.N.",
"N.N.N.N.N.N.N.N.N.N.N.C Z S K L G G L G S Z S G L G L L L L L L L L L L L G G L G S G G G L G G G L S c , N.N.N.N.N.N.N.N.N.N.N.",
"N.N.N.N.N.N.N.N.N.N.N.C Z S G L H K G S C M A G L G L L L L L L L L L L L G L G G S S A D G L G G L S c , N.N.N.N.N.N.N.N.N.N.N.",
"N.N.N.N.N.N.N.N.N.N.N.N C S G L L G S C 6 4 C G L G L L L L L L L L L L L G L G S Z v 6 C G L G G L S c N.N.N.N.N.N.N.N.N.N.N.N.",
"N.N.N.N.N.N.N.N.N.N.N.B C S G L L G S C 4 , N G L G L L L L L L L L L L L G L G S C 5 > B G L G G L D c N.N.N.N.N.N.N.N.N.N.N.N.",
"N.N.N.N.N.N.N.N.N.N.N.Z Z S G L L G G A c 4 C G L G L L L L L L L L L L L G L G S Z x N.Z G L G G L G N N.N.N.N.N.N.N.N.N.N.N.N.",
"N.N.N.N.N.N.N.N.N.N.N.A S F G L G L L D N b Z G L G L L L L L L L L L L L G L G S Z N.N.Z G L G G L G Z N.N.N.N.N.N.N.N.N.N.N.N.",
"N.N.N.N.N.N.N.N.N.N.N.Z S G G L G G H D N x Z G L G L L L L L L L L L L L G L G S Z x N.Z G L G G L G Z N.N.N.N.N.N.N.N.N.N.N.N.",
"N.N.N.N.N.N.N.N.N.N.N.Z S G G L G G L D N x Z G L G L L L L L L L L L L L G L G S C 5 N.C G L G G L G Z N.N.N.N.N.N.N.N.N.N.N.N.",
"N.N.N.N.N.N.N.N.N.N.N.Z S G G L G G L D N x Z G L G L L L L L L L L L L K G L G S C x 3 C G L G G L G A N.N.N.N.N.N.N.N.N.N.N.N.",
"N.N.N.N.N.N.N.N.N.N.N.Z S G G L L K L D N b Z G L G L L L L L L L L L L K G L G A C v x Z G L G G L G S N.N.N.N.N.N.N.N.N.N.N.N.",
"N.N.N.N.N.N.N.N.N.N.N.N.Z S G G G G G S N c Z G L G L L L L L L L L L L G G L G S C n x Z G L G G L G S N.N.N.N.N.N.N.N.N.N.N.N.",
"N.N.N.N.N.N.N.N.N.N.N.N.N.N.N.N.N.N.N.N.v v A G L G L L L L L H L G L L L G L G S Z n x Z G L G G L G S N.N.N.N.N.N.N.N.N.N.N.N.",
"N.N.N.N.N.N.N.N.N.N.N.N.N.N.N.N.N.N.N.N.v N S G L G G L G G G G G G G G L G L G S Z n x Z G L G G L G S N.N.N.N.N.N.N.N.N.N.N.N.",
"N.N.N.N.N.N.N.N.N.N.N.N.N.N.N.N.N.N.N.N.N.Z F G L G L G L L L L L L L L G G L G S Z n z Z G L L L L G S N.N.N.N.N.N.N.N.N.N.N.N.",
"N.N.N.N.N.N.N.N.N.N.N.N.N.N.N.N.N.N.N.N.N.S G L G L G L G G G G G G G G L G L G S Z v 5 C G G G G G G S N.N.N.N.N.N.N.N.N.N.N.N.",
"N.N.N.N.N.N.N.N.N.N.N.N.N.N.N.N.N.N.N.N.N.S G L G G G L G C N B C A A D G L G G G S v 4 N S G G G G S N.N.N.N.N.N.N.N.N.N.N.N.N.",
"N.N.N.N.N.N.N.N.N.N.N.N.N.N.N.N.N.N.N.N.N.S G L G G G H S c N.N.N.v C A G L G G L D N 1 x N.N.N.N.N.N.N.N.N.N.N.N.N.N.N.N.N.N.N.",
"N.N.N.N.N.N.N.N.N.N.N.N.N.N.N.N.N.N.N.N.N.Z G K H G G K D x N.N.N.v N A G L G G L G N N.N.N.N.N.N.N.N.N.N.N.N.N.N.N.N.N.N.N.N.N.",
"N.N.N.N.N.N.N.N.N.N.N.N.N.N.N.N.N.N.N.N.B Z S G L G H K D N.N.N.N.n N Z G L G G L G C N.N.N.N.N.N.N.N.N.N.N.N.N.N.N.N.N.N.N.N.N.",
"N.N.N.N.N.N.N.N.N.N.N.N.N.N.N.N.N.N.N.N.Z S G L G G G L G N.N.N.N.N B A G L G G L G C N.N.N.N.N.N.N.N.N.N.N.N.N.N.N.N.N.N.N.N.N.",
"N.N.N.N.N.N.N.N.N.N.N.N.N.N.N.N.N.N.N.N.S S G L G L G L G N.N.N.N.N.C S G L G G L G C N.N.N.N.N.N.N.N.N.N.N.N.N.N.N.N.N.N.N.N.N.",
"N.N.N.N.N.N.N.N.N.N.N.N.N.N.N.N.N.N.N.N.G S G L G G G L G N.N.N.N.Z A S G L G G L G A N.N.N.N.N.N.N.N.N.N.N.N.N.N.N.N.N.N.N.N.N.",
"N.N.N.N.N.N.N.N.N.N.N.N.N.N.N.N.N.N.N.N.G S G L G H G L G N.N.N.N.A D G K H K G L G S Z Z N.N.N.N.N.N.N.N.N.N.N.N.N.N.N.N.N.N.N.",
"N.N.N.N.N.N.N.N.N.N.N.N.N.N.N.N.N.N.N.N.G S G L G G G L G N.N.N.N.A D K H G G G G G G S S N.N.N.N.N.N.N.N.N.N.N.N.N.N.N.N.N.N.N.",
"N.N.N.N.N.N.N.N.N.N.N.N.N.N.N.N.N.N.N.N.G S G L G G G L G N.N.N.N.S K L L L L L L L G G G D N.N.N.N.N.N.N.N.N.N.N.N.N.N.N.N.N.N.",
"N.N.N.N.N.N.N.N.N.N.N.N.N.N.N.N.N.N.N.N.S G G L G L G L G N.N.N.N.A G G G G G G G G G G D S N.N.N.N.N.N.N.N.N.N.N.N.N.N.N.N.N.N.",
"N.N.N.N.N.N.N.N.N.N.N.N.N.N.N.N.N.N.m Z S G L G L G G L D v N.N.N.c N N N N N N N N N N v c N.N.N.N.N.N.N.N.N.N.N.N.N.N.N.N.N.N.",
"N.N.N.N.N.N.N.N.N.N.N.N.N.N.N.N.N.: m Z G L G G G G K G D v 2 N.N.4 6 6 6 6 6 6 6 6 6 6 4 < N.N.N.N.N.N.N.N.N.N.N.N.N.N.N.N.N.N.",
"N.N.N.N.N.N.N.N.N.N.N.N.N.N.N.N.N., C S G L H H H H H L D N 6 N.N.N.N.4 N.N.N.N.N.N.N.N.N.N.N.N.N.N.N.N.N.N.N.N.N.N.N.N.N.N.N.N.",
"N.N.N.N.N.N.N.N.N.N.N.N.N.N.N.N.N.1 A G K K K K K K K K G C N.N.N.N.N.N.N.N.N.N.N.N.N.N.N.N.N.N.N.N.N.N.N.N.N.N.N.N.N.N.N.N.N.N.",
"N.N.N.N.N.N.N.N.N.N.N.N.N.N.N.N.N.< C S S S S S S S S S A N N.N.N.N.N.N.N.N.N.N.N.N.N.N.N.N.N.N.N.N.N.N.N.N.N.N.N.N.N.N.N.N.N.N.",
"N.N.N.N.N.N.N.N.N.N.N.N.N.N.N.N.N.N.v B B B B B B B B B N 6 N.N.N.N.N.N.N.N.N.N.N.N.N.N.N.N.N.N.N.N.N.N.N.N.N.N.N.N.N.N.N.N.N.N.",
"N.N.N.N.N.N.N.N.N.N.N.N.N.N.N.N.N.N.N.M v v v v M M M M N.N.N.N.N.N.N.N.N.N.N.N.N.N.N.N.N.N.N.N.N.N.N.N.N.N.N.N.N.N.N.N.N.N.N.N.",
"N.N.N.N.N.N.N.N.N.N.N.N.N.N.N.N.N.N.N.N.N.N.N.N.N.N.N.N.N.N.N.N.N.N.N.N.N.N.N.N.N.N.N.N.N.N.N.N.N.N.N.N.N.N.N.N.N.N.N.N.N.N.N.N."
};
