/* XPM */
static char *result[] = {
/* columns rows colors chars-per-pixel */
"64 64 138 2 ",
"   c #1C1D1B",
".  c #1D1E1B",
"X  c #1D1E1C",
"o  c #1E1F1C",
"O  c #1E1F1D",
"+  c #1F1F1D",
"@  c #1E1F1E",
"#  c #1F1F1E",
"$  c #1E201D",
"%  c #1F201D",
"&  c #1F201E",
"*  c #372A00",
"=  c #3B2D00",
"-  c #3C2D00",
";  c #3C2E00",
":  c #3D2E00",
">  c #3D2F00",
",  c #3E2E00",
"<  c #3E2F00",
"1  c #3F2F00",
"2  c #3F3000",
"3  c #3F300E",
"4  c #27231B",
"5  c #20201D",
"6  c #23211C",
"7  c #22211D",
"8  c #23221C",
"9  c #23221D",
"0  c #2A251B",
"q  c #2F2718",
"w  c #2D261A",
"e  c #2C261B",
"r  c #2F271A",
"t  c #28231C",
"y  c #28241C",
"u  c #29241C",
"i  c #302613",
"p  c #372B15",
"a  c #3A2D10",
"s  c #392D16",
"d  c #3A2D17",
"f  c #3C2E16",
"g  c #3C2F16",
"h  c #332A19",
"j  c #342A19",
"k  c #362B18",
"l  c #362B19",
"z  c #372C18",
"x  c #3A2D18",
"c  c #3F3011",
"v  c #403000",
"b  c #403100",
"n  c #413100",
"m  c #423100",
"M  c #413200",
"N  c #423200",
"B  c #433200",
"V  c #423300",
"C  c #433300",
"Z  c #443300",
"A  c #433400",
"S  c #443400",
"D  c #453400",
"F  c #443500",
"G  c #453500",
"H  c #463400",
"J  c #463500",
"K  c #473500",
"L  c #463600",
"P  c #473600",
"I  c #483600",
"U  c #493700",
"Y  c #4A3700",
"T  c #4B3703",
"R  c #4A3706",
"E  c #4A3800",
"W  c #4B3800",
"Q  c #4C3800",
"!  c #4C3900",
"~  c #4D3900",
"^  c #4E3900",
"/  c #4E3A00",
"(  c #4F3A00",
")  c #4F3B00",
"_  c #4F3A02",
"`  c #45340D",
"'  c #4B370D",
"]  c #49360E",
"[  c #4B370E",
"{  c #4D390B",
"}  c #4D390C",
"|  c #4E390C",
" . c #503B00",
".. c #513B00",
"X. c #523B00",
"o. c #513C00",
"O. c #523C00",
"+. c #533C00",
"@. c #533D00",
"#. c #543D00",
"$. c #553D00",
"%. c #543D01",
"&. c #553E00",
"*. c #563E00",
"=. c #573E00",
"-. c #563F00",
";. c #573F00",
":. c #563E01",
">. c #503B05",
",. c #523C05",
"<. c #543D05",
"1. c #563E04",
"2. c #543D06",
"3. c #583F00",
"4. c #583F01",
"5. c #513B09",
"6. c #503A0A",
"7. c #503B0A",
"8. c #513B0A",
"9. c #523C08",
"0. c #423212",
"q. c #463511",
"w. c #443412",
"e. c #453412",
"r. c #473512",
"t. c #403115",
"y. c #423214",
"u. c #433214",
"i. c #433314",
"p. c #423215",
"a. c #584000",
"s. c #594000",
"d. c #594100",
"f. c #584001",
"g. c #594001",
"h. c #5A4000",
"j. c #5A4100",
"k. c None",
/* pixels */
"k.k.k.k.k.k.k.k.k.k.k.k.k.k.k.k.k.k.k.k.k.k.k.k.  X X X X X X X X X X X X . k.k.k.k.k.k.k.k.k.k.k.k.k.k.k.k.k.k.k.k.k.k.k.k.k.k.",
"k.k.k.k.k.k.k.k.k.k.k.k.k.k.k.k.k.k.k.k.k.k.k.k.X O O O O O O O O O O O O o k.k.k.k.k.k.k.k.k.k.k.k.k.k.k.k.k.k.k.k.k.k.k.k.k.k.",
"k.k.k.k.k.k.k.k.k.k.k.k.k.k.k.k.k.k.k.k.k.k.k.k.O & & & & & & & & & & & & $ k.k.k.k.k.k.k.k.k.k.k.k.k.k.k.k.k.k.k.k.k.k.k.k.k.k.",
"k.k.k.k.k.k.k.k.k.k.k.k.k.k.k.k.k.k.k.k.k.k.k.k.O & O O O O O O O O O O & O k.k.k.k.k.k.k.k.k.k.k.k.k.k.k.k.k.k.k.k.k.k.k.k.k.k.",
"k.k.k.k.k.k.k.k.k.k.k.k.k.k.k.k.k.k.k.k.k.k.k.k.O & O O O O O O O O % @ + % k.k.k.k.k.k.k.k.k.k.k.k.k.k.k.k.k.k.k.k.k.k.k.k.k.k.",
"k.k.k.k.k.k.k.k.k.k.k.k.k.k.k.k.k.k.k.k.k.k.k.i 6 @ % % & & & & & & % @ 5 4 q k.k.k.k.k.k.k.k.k.k.k.k.k.k.k.k.k.k.k.k.k.k.k.k.k.",
"k.k.k.k.k.k.k.k.k.k.k.k.k.k.k.k.k.k.k.k.k.k.k.a 4 @ % % % % % % % % % @ 7 w p 3 k.k.k.k.k.k.k.k.k.k.k.k.k.k.k.k.k.k.k.k.k.k.k.k.",
"k.k.k.k.k.k.k.k.k.k.k.k.k.k.k.k.k.k.k.k.k.T R c 0 @ % % % % % % % % % @ 8 r s ` _ k.k.k.k.k.k.k.k.k.k.k.k.k.k.k.k.k.k.k.k.k.k.k.",
"k.k.k.k.k.k.k.k.k.k.k.k.k.k.k.k.s.3.3.*.#.>.{ 0.w # O @ @ @ @ @ @ @ @ @ 9 r d ] %.*.;.3.3.3.s.k.k.k.k.k.k.k.k.k.k.k.k.k.k.k.k.k.",
"k.k.k.k.k.k.k.k.k.k.k.k.k.k.#.;.s.s.s.;.*.,.} w.j t u y y y y y y y y t e h g ' :.3.a.a.s.s.s.3.k.k.k.k.k.k.k.k.k.k.k.k.k.k.k.k.",
"k.k.k.k.k.k.k.k.k.k.k.k.k.k.$.3.s.j.s.s.a.<.| q.f l l l l l l l k l l l z x t.} 4.s.s.d.d.j.j.s.$.k.k.k.k.k.k.k.k.k.k.k.k.k.k.k.",
"k.k.k.k.k.k.k.k.k.k.k.k.k.+.&.3.j.s.d.j.d.1.6.[ e.y.y.p.p.p.y.y.y.y.y.y.u.i.r.8.g.j.s.h.h.s.j.s.*.k.k.k.k.k.k.k.k.k.k.k.k.k.k.k.",
"k.k.k.k.k.k.k.k.k.k.k.k.k.+.&.3.j.s.s.s.j.f.1.2.9.7.7.7.7.7.7.7.7.7.7.7.8.5.9.1.s.j.s.d.s.s.j.s.*.k.k.k.k.k.k.k.k.k.k.k.k.k.k.k.",
"k.k.k.k.k.k.k.k.k.k.k.k.k.+.&.3.j.s.s.h.d.j.s.s.s.s.s.s.s.s.s.s.s.s.s.s.s.s.s.d.h.d.s.s.d.s.j.s.*.k.k.k.k.k.k.k.k.k.k.k.k.k.k.k.",
"k.k.k.k.k.k.k.k.k.k.k.k.k.+.&.3.j.h.h.s.s.s.h.j.j.j.j.j.j.j.j.j.j.j.j.j.j.j.j.h.d.s.j.j.h.h.j.s.*.k.k.k.k.k.k.k.k.k.k.k.k.k.k.k.",
"k.k.k.k.k.k.k.k.k.k.k.k.k.k.&.3.d.d.d.j.j.s.s.s.s.s.s.s.s.s.s.s.s.s.s.s.s.s.s.s.h.j.s.s.d.d.d.s.*.k.k.k.k.k.k.k.k.k.k.k.k.k.k.k.",
"k.k.k.k.k.k.k.k.k.k.k.k.k.k.#.-.3.3.a.s.d.h.s.j.j.j.j.j.j.j.j.j.j.j.j.j.j.j.s.s.j.s.3.3.3.3.3.3.k.k.k.k.k.k.k.k.k.k.k.k.k.k.k.k.",
"k.k.k.k.k.k.k.k.k.k.k.k.k.k.k.k.k.#.&.3.s.j.s.s.s.s.s.s.s.s.s.s.s.s.s.s.s.s.s.j.s.3.=.*.$.k.k.k.k.k.k.k.k.k.k.k.k.k.k.k.k.k.k.k.",
"k.k.k.k.k.k.k.k.k.k.k.k.k.k.k.k.k.k.k.;.s.s.s.s.s.s.s.s.s.s.s.s.s.s.s.s.s.s.s.s.s.3.*.$.k.k.k.k.k.k.k.k.k.k.k.k.k.k.k.k.k.k.k.k.",
"k.k.k.k.k.k.k.k.k.k.k.k.k.k.k.k.k.k.k.a.j.j.j.j.j.j.j.j.j.j.j.j.j.j.j.j.j.j.j.j.j.a.&.k.k.k.k.k.k.k.k.k.k.k.k.k.k.k.k.k.k.k.k.k.",
"k.k.k.k.k.k.k.k.k.k.k.k.k.k.k.k.k.k.k.@.-.-.-.-.;.;.3.3.3.3.3.3.3.3.3.3.3.;.-.-.-.#.O.( k.k.k.k.k.k.k.k.k.k.k.k.k.k.k.k.k.k.k.k.",
"k.k.k.k.k.k.k.k.k.k.k.k.k.k.k.k.n Z P Q )  . . ...O.#.&.*.*.*.*.*.*.&.&.#.o. . .) / W I Z n k.k.k.k.k.k.k.k.k.k.k.k.k.k.k.k.k.k.",
"k.k.k.k.k.k.k.k.k.k.k.k.k.k.k.v N Z J I E W W W ! ^  ...X.X.X.X.X.X..... .~ W W E U I H C N v : k.k.k.k.k.k.k.k.k.k.k.k.k.k.k.k.",
"k.k.k.k.k.k.k.k.k.k.k.B Z C Z Z D G J P I U U U U Y W Q Q Q Q Q Q Q Q W W U U U U I P J G S Z Z Z C n 1 k.k.k.k.k.k.k.k.k.k.k.k.",
"k.k.k.k.k.k.k.k.k.k.v G J J J J J L P J K K K P P P P P P P P P P P P P P P K K K K J P L J J J K J C n v k.k.k.k.k.k.k.k.k.k.k.",
"k.k.k.k.k.k.k.k.k.k.v J P J P P P K J P L L L J J J J J J J J J J J J J J J L L L L P J J P P L P J C n v k.k.k.k.k.k.k.k.k.k.k.",
"k.k.k.k.k.k.k.k.k.k.v G P J J J J J K P K K P P P P P P P P P P P P P P P P P P P P J P J J J J P J C n v k.k.k.k.k.k.k.k.k.k.k.",
"k.k.k.k.k.k.k.k.k.k.v J P J J P J P P J J J J P J P P P P P P P P P P P P J J P J J J J L K J J P J C n v k.k.k.k.k.k.k.k.k.k.k.",
"k.k.k.k.k.k.k.k.k.k.v J P J J P P J J P P P P J P P P P P P P P P P P P P J P J P P P P K L K J P J C n v k.k.k.k.k.k.k.k.k.k.k.",
"k.k.k.k.k.k.k.k.k.k.v J P J J L J J J J J J P P J K P P P P P P P P P P J P J P J J J J P K L J P J C n v k.k.k.k.k.k.k.k.k.k.k.",
"k.k.k.k.k.k.k.k.k.k.v J P J J P J P K D Z D J P J K P P P P P P P P P P P J P J D D S D J P J J P J C n v k.k.k.k.k.k.k.k.k.k.k.",
"k.k.k.k.k.k.k.k.k.k.b D P J J J P J J D B Z J P J P P P P P P P P P P P J L K J D Z N C J P K J P J C n v k.k.k.k.k.k.k.k.k.k.k.",
"k.k.k.k.k.k.k.k.k.k.n J P J J P J D C N m Z J P J P P P P P P P P P P P J P J G S n ; 2 F L J J P J C n v k.k.k.k.k.k.k.k.k.k.k.",
"k.k.k.k.k.k.k.k.k.k.k.J P J J P J S N n n C J P J P P P P P P P P P P P J P J D C 2 * ; S L J J P J Z m n k.k.k.k.k.k.k.k.k.k.k.",
"k.k.k.k.k.k.k.k.k.k.k.J P J J P J D C C C D J P J P P P P P P P P P P P J P J D C b = v G P K J P J D Z k.k.k.k.k.k.k.k.k.k.k.k.",
"k.k.k.k.k.k.k.k.k.k.k.J P J J P J J D D D G L K J P P P P P P P P P P P J P J D S N < M J P J K J P J D k.k.k.k.k.k.k.k.k.k.k.k.",
"k.k.k.k.k.k.k.k.k.k.k.J P J J P J J D Z S G L K J J P P P P P P P P P P J P J D Z N < N J P J P J P J D k.k.k.k.k.k.k.k.k.k.k.k.",
"k.k.k.k.k.k.k.k.k.k.S J P J J P J D Z Z A D J P J P P P P P P P P P P P J P J D Z N < N J P J J J P J D k.k.k.k.k.k.k.k.k.k.k.k.",
"k.k.k.k.k.k.k.k.k.k.S J P J J P J G S Z A D J P J P P P P P P P P P P P J P J D Z N < N J P J K K P J D k.k.k.k.k.k.k.k.k.k.k.k.",
"k.k.k.k.k.k.k.k.k.k.S J P J J K L G S S C D J P J P P P P P P P P P P P J P J D Z N < N J L L L L L J G k.k.k.k.k.k.k.k.k.k.k.k.",
"k.k.k.k.k.k.k.k.k.k.D J P J J K L G S S C D J P J P P P P P P P P P P P J P J D S N k.2 Z D S S S S Z Z k.k.k.k.k.k.k.k.k.k.k.k.",
"k.k.k.k.k.k.k.k.k.k.D J P P P K P G S C N Z J P J P P P P L J P P P P P J P J D Z n k.k., 1 1 1 1 1 < k.k.k.k.k.k.k.k.k.k.k.k.k.",
"k.k.k.k.k.k.k.k.k.k.S J J J J J J G S S C S J P J J P J J J J J J J J J J J K J D N k.k.k.k.k.k.k.k.k.k.k.k.k.k.k.k.k.k.k.k.k.k.",
"k.k.k.k.k.k.k.k.k.k.Z D J J J J J D F D D D J P J P L K P P P P P P P K J J P J J C k.k.k.k.k.k.k.k.k.k.k.k.k.k.k.k.k.k.k.k.k.k.",
"k.k.k.k.k.k.k.k.k.k.k.D J D D D H G F G D J P J K J K L J J J J J J J L P L J P J S k.k.k.k.k.k.k.k.k.k.k.k.k.k.k.k.k.k.k.k.k.k.",
"k.k.k.k.k.k.k.k.k.k.k.k.k.k.k.k.k.k.k.D J J P J J J P J S N C D D S D J P J J J P S k.k.k.k.k.k.k.k.k.k.k.k.k.k.k.k.k.k.k.k.k.k.",
"k.k.k.k.k.k.k.k.k.k.k.k.k.k.k.k.k.k.k.J P L J P J J P J N - k.k.C C C G P J J J P S k.k.k.k.k.k.k.k.k.k.k.k.k.k.k.k.k.k.k.k.k.k.",
"k.k.k.k.k.k.k.k.k.k.k.k.k.k.k.k.k.k.k.k.P J P J P J P J n k.k.k.k.M C G P J J J P S k.k.k.k.k.k.k.k.k.k.k.k.k.k.k.k.k.k.k.k.k.k.",
"k.k.k.k.k.k.k.k.k.k.k.k.k.k.k.k.k.k.k.J P J L P P J P J b k.k.k.k.b V D P J J J P D k.k.k.k.k.k.k.k.k.k.k.k.k.k.k.k.k.k.k.k.k.k.",
"k.k.k.k.k.k.k.k.k.k.k.k.k.k.k.k.k.k.k.J P J J P P J P J b k.k.k.k.n C D P J J L K D k.k.k.k.k.k.k.k.k.k.k.k.k.k.k.k.k.k.k.k.k.k.",
"k.k.k.k.k.k.k.k.k.k.k.k.k.k.k.k.k.k.k.G L K J P P J P J n k.k.k.k.n C D P J J P J G k.k.k.k.k.k.k.k.k.k.k.k.k.k.k.k.k.k.k.k.k.k.",
"k.k.k.k.k.k.k.k.k.k.k.k.k.k.k.k.k.n S J P J J P P J P J N k.k.k.k.N C G P J J K L G k.k.k.k.k.k.k.k.k.k.k.k.k.k.k.k.k.k.k.k.k.k.",
"k.k.k.k.k.k.k.k.k.k.k.k.k.k.k.k.: B J P J J P P P J P J C k.k.k.k.S S J P J J K P J k.k.k.k.k.k.k.k.k.k.k.k.k.k.k.k.k.k.k.k.k.k.",
"k.k.k.k.k.k.k.k.k.k.k.k.k.k.k.k.> C J P J K J J J J P J Z b k.k.k.G G J P J K J P J k.k.k.k.k.k.k.k.k.k.k.k.k.k.k.k.k.k.k.k.k.k.",
"k.k.k.k.k.k.k.k.k.k.k.k.k.k.k.k.> C J P J J J J J J P J Z b k.k.k.S G J P J P J P J k.k.k.k.k.k.k.k.k.k.k.k.k.k.k.k.k.k.k.k.k.k.",
"k.k.k.k.k.k.k.k.k.k.k.k.k.k.k.k.> C J P J P P P P J P J Z k.k.k.k.S G J P J J J P J k.k.k.k.k.k.k.k.k.k.k.k.k.k.k.k.k.k.k.k.k.k.",
"k.k.k.k.k.k.k.k.k.k.k.k.k.k.k.k.k.N G J J J J J J J J G k.k.k.k.k.D G J P J J P J D B k.k.k.k.k.k.k.k.k.k.k.k.k.k.k.k.k.k.k.k.k.",
"k.k.k.k.k.k.k.k.k.k.k.k.k.k.k.k.k.k.k.k.k.k.k.k.k.k.k.k.k.k.k.k.k.D J J P J J P J D B m n k.k.k.k.k.k.k.k.k.k.k.k.k.k.k.k.k.k.k.",
"k.k.k.k.k.k.k.k.k.k.k.k.k.k.k.k.k.k.k.k.k.k.k.k.k.k.k.k.k.k.k.k.k.D J P J L J P J J D Z C k.k.k.k.k.k.k.k.k.k.k.k.k.k.k.k.k.k.k.",
"k.k.k.k.k.k.k.k.k.k.k.k.k.k.k.k.k.k.k.k.k.k.k.k.k.k.k.k.k.k.k.k.B J P J P J J J P K J J D D k.k.k.k.k.k.k.k.k.k.k.k.k.k.k.k.k.k.",
"k.k.k.k.k.k.k.k.k.k.k.k.k.k.k.k.k.k.k.k.k.k.k.k.k.k.k.k.k.k.k.k.B J P J J J J J J J P J D G k.k.k.k.k.k.k.k.k.k.k.k.k.k.k.k.k.k.",
"k.k.k.k.k.k.k.k.k.k.k.k.k.k.k.k.k.k.k.k.k.k.k.k.k.k.k.k.k.k.k.k.B J P P P P P P P P P J G F k.k.k.k.k.k.k.k.k.k.k.k.k.k.k.k.k.k.",
"k.k.k.k.k.k.k.k.k.k.k.k.k.k.k.k.k.k.k.k.k.k.k.k.k.k.k.k.k.k.k.k.k.S D D D D D D D D D Z C k.k.k.k.k.k.k.k.k.k.k.k.k.k.k.k.k.k.k.",
"k.k.k.k.k.k.k.k.k.k.k.k.k.k.k.k.k.k.k.k.k.k.k.k.k.k.k.k.k.k.k.k.k.k.k.k.k.k.k.k.k.k.k.k.k.k.k.k.k.k.k.k.k.k.k.k.k.k.k.k.k.k.k.k."
};
