/* XPM */
static char *bcacbaa7fade4221d277390257829a46oHaTcKLzYpN7eEpa[] = {
/* columns rows colors chars-per-pixel */
"64 64 149 2 ",
"   c None",
".  c #1C1D1A",
"X  c #1C1D1B",
"o  c #1D1E1A",
"O  c #1C1D1C",
"+  c #1D1E1C",
"@  c #1D1F1C",
"#  c #1E1F1D",
"$  c #1E1F1E",
"%  c #1F1F1E",
"&  c #201F1C",
"*  c #1E201D",
"=  c #1F201D",
"-  c #1E201E",
";  c #1F201E",
":  c #3A2C00",
">  c #3B2C00",
",  c #3B2D00",
"<  c #3C2D00",
"1  c #3D2D00",
"2  c #3C2E00",
"3  c #3D2E00",
"4  c #3D2E01",
"5  c #3E2E00",
"6  c #3E2F00",
"7  c #3F2F00",
"8  c #3F3000",
"9  c #24211B",
"0  c #20201D",
"q  c #22211C",
"w  c #22211D",
"e  c #20201E",
"r  c #26231C",
"t  c #29241B",
"y  c #2A251B",
"u  c #2C251B",
"i  c #2C261B",
"p  c #2D271B",
"a  c #28241C",
"s  c #342A16",
"d  c #3E2F14",
"f  c #3C2F16",
"g  c #332A1A",
"h  c #352A18",
"j  c #342B19",
"k  c #372C18",
"l  c #3E3013",
"z  c #3F3015",
"x  c #3C3016",
"c  c #402F00",
"v  c #403000",
"b  c #403100",
"n  c #413100",
"m  c #403001",
"M  c #423100",
"N  c #423101",
"B  c #413200",
"V  c #423200",
"C  c #433200",
"Z  c #423300",
"A  c #433300",
"S  c #443300",
"D  c #443400",
"F  c #453400",
"G  c #453500",
"H  c #463400",
"J  c #463500",
"K  c #473500",
"L  c #473501",
"P  c #463600",
"I  c #473600",
"U  c #483600",
"Y  c #493700",
"T  c #493701",
"R  c #4A3800",
"E  c #4B3800",
"W  c #4C3800",
"Q  c #4D3900",
"!  c #4F3900",
"~  c #4E3A00",
"^  c #4F3A00",
"/  c #4F3A01",
"(  c #4C3806",
")  c #4F3906",
"_  c #46350F",
"`  c #48350E",
"'  c #4E390B",
"]  c #4F3A0B",
"[  c #4B380F",
"{  c #4D390D",
"}  c #4F3A0C",
"|  c #4C380E",
" . c #503900",
".. c #503A00",
"X. c #513A00",
"o. c #503B00",
"O. c #513B00",
"+. c #513A01",
"@. c #523B00",
"#. c #533B00",
"$. c #523B03",
"%. c #523C00",
"&. c #533C00",
"*. c #533D00",
"=. c #533C01",
"-. c #533C03",
";. c #543C00",
":. c #543D00",
">. c #553D00",
",. c #563D00",
"<. c #553E00",
"1. c #563E00",
"2. c #573E00",
"3. c #563F00",
"4. c #573F00",
"5. c #573F03",
"6. c #523B05",
"7. c #503A06",
"8. c #503A07",
"9. c #513B07",
"0. c #533B06",
"q. c #533D06",
"w. c #553D04",
"e. c #553E04",
"r. c #553E05",
"t. c #563E04",
"y. c #563F04",
"u. c #543D06",
"i. c #583F00",
"p. c #583F02",
"a. c #523C08",
"s. c #523C09",
"d. c #513C0A",
"f. c #433312",
"g. c #433313",
"h. c #443313",
"j. c #473511",
"k. c #473612",
"l. c #403114",
"z. c #413114",
"x. c #403115",
"c. c #413214",
"v. c #584000",
"b. c #594000",
"n. c #594100",
"m. c #584001",
"M. c #594001",
"N. c #5A4000",
"B. c #5A4100",
/* pixels */
"                                                                                                                                ",
"                                                  . . $ $ $ $ $ $ $ . $ 0 =                                                     ",
"                                                  . . $ $ $ $ $ $ $ $ $ $ $                                                     ",
"                                                  $ . $ = = = = = = = = = =                                                     ",
"                                                  . . $ = $ $ $ $ $ $ $ $ $                                                     ",
"                                                  . $ $ = $ = = = = = = $ 0                                                     ",
"                                                s q . = $ = = = = = = $ 0 9 h                                                   ",
"                                              q.z i 9 0 $ = = = = = = = = p d ` )                                               ",
"                                            X.9.z.i 0 0 $ = 0 $ = = = = 0 p f j.) >.                                            ",
"                                 .X.X.X.X.X.0.] z a 0 $ $ $ $ $ $ $ $ $ e a k h.) >.X.X. . .X.X.^                               ",
"                              X.X.-.-.-.%.>.0.| h.g p p p p p p p p p p p h f k.0.i.>.%.-.-.-.-.X.                              ",
"                              >.i.i.i.i.>.v.u.q.| z.z.z.z.z.z.z.z.z.z.z.z.h.k.| u.v.i.i.i.i.i.i.>.                              ",
"                              >.i.B.B.B.B.v.M.y.d.| | | | | | | [ [ | | | | d.9.i.v.B.B.B.B.B.B.v.                              ",
"                              v.B.B.B.B.v.v.M.v.u.u.u.u.u.u.u.u.q.q.u.u.u.u.y.y.v.v.v.B.i.B.B.i.v.                              ",
"                              v.B.i.i.B.B.B.B.B.v.v.v.B.B.B.B.B.v.v.v.B.v.v.B.v.B.B.B.B.B.B.i.B.v.                              ",
"                              >.i.i.i.v.i.B.v.B.B.B.B.v.B.i.B.i.v.B.B.B.B.B.B.B.v.B.v.v.i.i.i.i.i.                              ",
"                              >.>.v.v.v.v.v.v.B.i.B.i.B.i.B.v.B.B.i.B.i.B.i.B.i.v.v.v.>.v.v.v.>.>.                              ",
"                                >.>.>.v.v.v.B.v.B.B.B.B.B.B.B.B.B.B.B.B.B.B.B.B.B.v.v.v.>.>.>.v.                                ",
"                                        i.i.B.B.v.B.v.B.v.B.v.B.v.B.v.B.i.B.B.v.B.v.v.%.                                        ",
"                                        i.i.v.B.B.v.B.v.B.i.B.i.B.i.B.i.B.i.v.v.B.v.v.                                          ",
"                                        B.i.v.B.v.v.v.B.B.B.v.v.B.B.B.B.v.B.B.B.B.v.i.                                          ",
"                                        >.i.i.i.v.v.v.v.v.v.v.v.i.B.B.i.v.v.v.v.v.v.>.X.                                        ",
"                                      U ^ %.>.X.%.%.>.v.v.v.v.v.i.i.i.i.i.>.%.%.%.%.^ U D                                       ",
"                                  n n D R ^ ^ ^ ^ ^ %.>.>.>.>.>.>.>.>.>.%.%.%.^ ^ ^ ^ D D n n                                   ",
"                        n n n H n D D U R R R R R R ^ ^ ^ ^ ^ ^ ^ ^ ^ ^ ^ ^ R R ^ R D U D D D D D n n                           ",
"                      n n n D D D D D U D R D R D R D D D R D D D D D R D I R D D R R D U U D D D D n 3 >                       ",
"                      n n D D D U D U D R D D D D D D U U D D D U U D D D D D D U D D U D U D D D D D 8 >                       ",
"                      D D D U D U U D R D U R U R R D U D U R R U D U U R R D R D U U U D U R D D D D 8 3                       ",
"                      n D D D R D U U D U U D U U D R D R D R D D R D R D U D R D D U D R D U U R U D n >                       ",
"                      D D D U D D U D R I D R D R D D R D R D R R D R D R D U D U R U U D R D D D U D n 3                       ",
"                      D H H D U D U I D D D U U D R U D R D R D D R D R D R D R U D D U U D R D U D D n 3                       ",
"                      n H H D U U D R D D D D U U D D R D R D R R D R D R D U D D D U D D R D U D U D n 3                       ",
"                      n D D U D U U D D D n D D R D R D R D R D D R D R D D R D D D D H D D U D D D D n 3                       ",
"                      n D D D U D U D D 8 n D U D U D R D R D R R D R D R D U U H H n n H U U U U R D n                         ",
"                      H D D U U U D D D 3 3 n D R D R D R D R D D R D R R D D U D D 8 > n D U D D U D n 3                       ",
"                      H H D D U U U D D n 3 D U R D D R D R D R R D R D U D R D D n n 3 H D U D D R D D n                       ",
"                      D H D D D D U U D n n H D U D R D R D R D R D R D D D R D D D n   D U U D U U D D                         ",
"                      H H U U U U D R D n n n D D U D R D R D R D R D R R D R D D n c 3 D D U U D U U D                         ",
"                      H D U U U D R D D H m D D R D R D R D R D R D R D D U U D n D n n n D U D D D D D                         ",
"                        D D D D U D U D n n D U D U D R D R D R D R D U U D R D H H n n D U U D U R U D                         ",
"                                        n n D D U D R D R D U D R U R D D U U D D D H c H D U U U D U D                         ",
"                                        n D D D R D D U D U U D D D U D R D D U D D n n D D U D D U U D                         ",
"                                          D U D U D U U R R U R U R R D D U R U D n n c D U U R U U U D                         ",
"                                          D U U D R D D D D D D D D U D R D D D D H n c D D D D U D D D                         ",
"                                          D U U D U D U D D n D D D n D D R D U U H n 8 n D D U D U D                           ",
"                                          D D U U D U U D n       n H D D U U D U D n 3 n                                       ",
"                                          D D U U D U D D n       n n D D D D U U D H                                           ",
"                                        H D D D U D U R D         n D D U R U D D U n                                           ",
"                                        D D U U D U D U D         H D D D U U D U U H                                           ",
"                                        U D D U D U D U U           D D D R D U D D n                                           ",
"                                        D H D U D D U U D         H D D U R D D R D D                                           ",
"                                        U H D U U U U D U         n D U D D R D R D U D D                                       ",
"                                        U D U D D U D R D         D D R U D U D D D U D D                                       ",
"                                        U D D U U D U D D         D I D D U U U U U U D D D                                     ",
"                                        D D D U D R D U U         D D U D U U D U D D U D D                                     ",
"                                    N D D U U U R D D R D n       n n D D n n D n n D n n n                                     ",
"                                  > n D U U U D D D D D D n 3     8 n 8 8 8 8 8 n 3 n 8 3 3                                     ",
"                                  3 n D U D D U U U U R D n 8         3                                                         ",
"                                  3 D U D U U U R D R D U D                                                                     ",
"                                  3 D D D D D D D D D D D n                                                                     ",
"                                    n n n H D n D D H n n n                                                                     ",
"                                      n n n n n n n n n                                                                         ",
"                                                                                                                                ",
"                                                                                                                                "
};
